<svg xmlns="http://www.w3.org/2000/svg" width="250" height="250" viewBox="0 0 250 250.0003"><path fill="#fff" d="M124.904 249.098c68.482 0 124.002-55.519 124.002-124 0-68.486-55.52-124.005-124.002-124.005S.902 56.613.902 125.098c0 68.48 55.52 124 124.002 124"/><path fill="#efb21e" d="M124.906 5.896c-65.725 0-119.198 53.473-119.198 119.2 0 65.721 53.472 119.198 119.198 119.198s119.197-53.477 119.197-119.198c0-65.729-53.471-119.2-119.197-119.2zm0 51.688c37.23 0 67.512 30.288 67.512 67.516s-30.282 67.515-67.512 67.515S57.39 162.327 57.39 125.1s30.287-67.516 67.516-67.516zm-4.157 15.271a17.03 17.03 0 0 0-3.725.432c-13.509 3.152-12.31 13.912-12.296 14.021l.465 3.708 2.2-3.017c2.245-3.077 4.997-2.485 6.14-1.745.856.532 1.479.912 1.479 1.895 0 .431-.12.974-.39 1.696l-1.528 4.012c-1.478-.253-2.969-.366-4.494-.108-3.544.605-6.098 2.108-7.586 4.474-2.266 3.611-1.091 7.82-1.044 7.999l.79 2.73 1.789-2.202c1.95-2.403 3.7-1.818 4.575-1.254.709.46 1.093.712.557 2.733.008-.033-12.417 41.576-14.103 47.225C83.41 159.2 82.22 166.078 82.22 168.918c0 .788.085 1.256.089 1.29l.468 2.448 1.934-1.594c.045-.034 4.534-3.67 11.956-4.405 1.608-.158 3.906.428 6.133.988 2.2.57 4.477 1.14 6.392 1.09 2.694-.067 4.907-.973 6.398-2.592 1.514-1.644 2.233-3.926 2.079-6.592l-.05-.811-8.443-4.72-.36 2.056c-.047.261-.176.727-.511.916-.12.07-.289.09-.475.101.687-2.37 3.818-13.304 4.31-15.022h17.782c.474 1.838 3.214 12.584 3.214 12.584 2.833 11.554 11.662 15.369 19.14 14.011 7.803-1.39 13.223-9.41 14.132-20.916l.127-1.6h-1.607c-.777 0-1.132.463-1.777 1.302-1.488 1.938-4.125 3.804-6.084 3.447-1.24-.227-2.196-1.418-2.844-3.542.022.074-13.661-56.6-13.661-56.6-.905-6.076-4.05-11.276-8.82-14.518-3.286-2.229-7.202-3.408-10.994-3.381zm29.132 20.901c-1.322.098-2.525.638-3.273 1.516-1.211 1.422-1.515 3.408-.752 4.945.616 1.24 1.822 1.936 3.223 1.859.04 0 .152-.003.242-.003-.028.095-.068.216-.068.216-.642 1.597-.908 1.723-1.624 2.049l-1.234.556.491 1.24 1.476 2.14.747-.166c1.116-.257 3.08-1.484 3.737-2.043 2.254-1.943 3.798-5.6 2.196-9.406-.648-1.535-2.036-2.574-3.813-2.847a5.995 5.995 0 0 0-1.348-.056zm16.197 2.576c-6.007 0-10.201 4.098-10.201 9.96 0 6.261 4.22 7.453 7.937 8.512 1.312.372 3.315.945 3.315 1.911 0 1.478-1.944 1.522-2.17 1.522-1.702 0-3.447-.799-5.322-2.445l-1.073-.939-4.065 7.659.821.572c2.94 2.068 6.453 3.204 9.884 3.204 3.2 0 6.115-.973 8.192-2.746 2.078-1.76 3.12-4.43 3.12-7.943 0-5.48-4.16-7.345-7.293-8.267l-1.742-.523c-.821-.27-2.226-.718-2.226-1.427 0-.658 1.05-1.063 1.807-1.063 1.307 0 2.647.525 3.803 1.482l1.073.897 3.872-7.521-.94-.534c-2.48-1.404-5.931-2.313-8.794-2.313zm-44.062 12.987c1.438 6.284 3.726 16.27 4.28 18.687h-9.69c.729-2.515 3.608-12.473 5.41-18.687z"/><path fill="#003831" d="M124.906 9.414C61.12 9.414 9.23 61.31 9.23 125.096c0 63.787 51.893 115.678 115.676 115.678 63.785 0 115.678-51.891 115.678-115.678 0-63.79-51.88-115.686-115.67-115.686zm0 44.867c39.053 0 70.821 31.77 70.821 70.825 0 39.05-31.766 70.822-70.821 70.822-39.053 0-70.826-31.772-70.826-70.822 0-39.052 31.77-70.825 70.826-70.825z"/><path fill="#fff" d="m122.454 20.453-5.521.148.667 25.393 11.305-.298-.124-4.716-5.78.15-.547-20.678zm-20.308 2.098-5.387 1.64-1.093 12.198-.075.016-3.3-10.856-5.282 1.604 7.387 24.304 5.28-1.603-3.764-12.378.075-.026 8.617 10.905 5.564-1.692-9.544-11.393 1.522-12.718zm45.103.314L134.77 45.92l5.322 1.338 2.01-3.907 5.426 1.364-.036 4.4 5.717 1.436-.317-26.268-5.643-1.418zm.995 6.991.066.017-.314 3.878-.292 6.912-3.773-.949 2.801-6.28 1.512-3.578zm24.72 1.98-13.458 21.541 4.687 2.926 6.173-9.884.527-.906 1.132-2.308.098-.02-2.34 16.614 4.438 2.765 13.455-21.539-4.68-2.926-6.049 9.684c-.7 1.122-1.305 2.29-1.662 3.496l-.098.016 2.27-16.652-4.493-2.808zM68.246 36.84l-4.824 3.254L72.25 64.78l4.55-3.067-1.562-4.107 4.638-3.126 3.25 2.966 4.886-3.296-19.765-17.31zm1.103 7.139 2.671 2.834 4.955 4.827-3.226 2.174-2.803-6.277-1.657-3.52.063-.038zm130.666 7.936L180.56 68.24l3.165 3.777c5.598 6.67 11.603 5.649 17.146.995 10.868-9.114 2.452-17.149 1.839-17.89l-2.694-3.207zM49.727 55.3c-2.778.105-5.021 1.442-6.582 3.352-3.122 3.811-3.45 9.86 3.931 15.893 7.375 6.036 13.24 4.509 16.358.694 3.121-3.819 3.454-9.864-3.928-15.9-3.689-3.016-7.002-4.143-9.78-4.039zm150.38 3.745v.003c2.927 3.491-.279 7.636-2.755 9.71-2.426 2.034-7.083 4.347-9.79.812l12.546-10.525zM48.89 60.552c2.458-.083 5.58 2.276 6.89 3.348 1.56 1.277 6.38 5.554 4.058 8.392-2.323 2.841-7.469-1.031-9.033-2.308-1.747-1.43-6.385-5.553-4.062-8.394.581-.71 1.328-1.01 2.147-1.038zm144.68 105.782c-1.528.796-2.79 1.866-3.79 3.332-2.673 3.917-1.246 7.99 2.059 10.25 3.063 2.087 5.724 1.532 9.137 0 1.711-.714 3.285-1.703 4.897-.602 1.393.949 1.487 2.717.48 4.186-.915 1.35-2.075 2.088-3.472 2.7l3.95 2.694c1.408-.565 2.853-1.907 3.732-3.191 2.93-4.29 1.727-8.56-2.003-11.105-5.672-3.877-10.607 2.935-14.054.58-1.287-.872-1.457-2.29-.497-3.699.857-1.254 2.247-1.97 3.596-2.392l-4.035-2.753zm-134.864 3.064-24.401 9.589 3.207 4.448 4.059-1.689 3.27 4.543-2.865 3.344 3.44 4.776 16.692-20.285-3.4-4.726zm-3.744 5.989.043.062-2.75 2.753-4.67 5.102-2.268-3.162 6.183-2.991 3.462-1.764zm127.874 4.484c-.893.386-1.703.876-2.418 1.518-5.639 4.982-4.792 12.866-.616 17.585 4.42 4.997 12.051 6.973 18.018 1.692a7.228 7.228 0 0 0 1.62-2.02l-3.142-3.56c-.394.616-.813 1.208-1.342 1.679-3.603 3.191-8.27 1.108-10.768-1.718-2.59-2.925-3.666-7.328-.03-10.549a8.916 8.916 0 0 1 1.735-1.168l-3.056-3.46zm-115.018 1.224-3.06 3.584 3.3 2.814-13.433 15.733 4.203 3.587 13.428-15.736 3.329 2.84 3.056-3.586-10.823-9.236zm98.417 12.774-4.827 2.693 12.388 22.203 4.82-2.69-12.38-22.207zm-82.089.147L73.61 217.132l5.02 2.288 4.461-9.78 5.093 2.321-4.458 9.78 5.02 2.29 10.54-23.11-5.028-2.29-4.117 9.043-5.092-2.324 4.123-9.04-5.027-2.294zm76.63 1.915 1.509 2.7c-.324-.583-1.504-2.692-1.506-2.7h-.003zm-6.376 3.214-13.611 4.143 1.374 4.51 4.147-1.257 6.022 19.782 5.282-1.604-6.028-19.792 4.186-1.273-1.372-4.51zm-47.256 3.688v.02h-.007l-.022.167c-.321 1.878-4.059 24.899-4.059 24.899.015.019 11.17 1.826 11.17 1.826l.004-.01.01-.062c.08-.383.759-4.595.759-4.595H114.972c-.16-.044-5.688-.943-5.688-.943.01 0 3.315-20.397 3.315-20.397l.006-.016-5.462-.89zm27.299 1.414-11.102.573 1.32 25.368 11.173-.58-.246-4.709-5.665.295-.295-5.725 4.923-.252-.24-4.712-4.928.258-.285-5.518 5.59-.288-.245-4.71zm-19.467 20.844h.004l-.007.04.003-.04z"/><path fill="#003831" d="M120.817 75.818c-1.06.005-2.108.12-3.119.357-6.317 1.473-8.655 4.754-9.528 7.32 2.65-1.32 5.44-.732 7.2.41 1.129.693 3.765 2.32 2.023 6.98l-2.431 6.398-1.309-.378a10.2 10.2 0 0 0-4.556-.233c-2.67.456-4.536 1.501-5.557 3.11-.641 1.01-.836 2.103-.89 3.073 2.22-1.248 4.471-.896 6.083.15 1.143.74 2.145 1.722 2.145 3.731 0 .65-.107 1.408-.347 2.297l-14.538 48.678-.724.24c-7.432 2.493-9.432 6.598-9.932 9.222 2.264-1.291 5.916-2.955 11.035-3.47 2.126-.208 4.688.444 7.162 1.07 2.006.507 4.077 1.031 5.583.996 1.897-.052 3.343-.598 4.288-1.634.987-1.069 1.25-2.461 1.282-3.64-.843-.47-2.344-1.308-3.705-2.07-.328.474-.73.871-1.223 1.148-.806.46-2.22.834-4.323.016l-1.26-.494 5.734-19.99h21.159l1.144-.03 3.8 14.869c2.546 10.354 10.072 12.832 15.739 11.812 5.394-.97 9.27-6.212 10.892-13.805-1.86 1.338-4.042 2.24-6.11 1.859-1.664-.3-3.906-1.518-5.167-5.676 0 0-13.686-56.682-13.711-56.813-1.036-6.889-4.694-10.674-7.583-12.633-2.776-1.887-6.074-2.885-9.256-2.87zm29.31 20.197c-.75.042-1.445.308-1.795.725-.722.855-.744 1.874-.448 2.465.208.434.574.636 1.2.602.682-.04 1.711-.1 2.304.724.238.335.325.707.325 1.086 0 .544-.186 1.096-.36 1.526-.394.97-.757 1.497-1.13 1.958.45-.27.917-.56 1.147-.758 1.086-.937 2.074-2.532 2.074-4.45 0-.745-.144-1.532-.487-2.353-.463-1.091-1.498-1.406-2.075-1.493a3.58 3.58 0 0 0-.755-.032zm-27.779 1.481 7.674 33.476h-17.36l8.096-27.98 1.59-5.496zm43.733 1.104c-4.749 0-7.936 3.089-7.936 7.689 0 4.135 1.815 5.069 6.508 6.4 1.668.472 4.756 1.345 4.756 4.026 0 2.225-1.827 3.784-4.45 3.784-1.893 0-3.756-.85-5.65-2.23-.576 1.08-1.263 2.384-1.806 3.404 2.381 1.451 5.046 2.351 7.702 2.351 2.662 0 5.058-.784 6.734-2.207 1.525-1.308 2.313-3.403 2.313-6.218 0-3.1-1.693-4.923-5.681-6.096 0 0-1.743-.527-1.776-.535-1.326-.43-3.8-1.228-3.8-3.584 0-2.085 2.064-3.328 4.051-3.328 1.408 0 2.782.526 4.072 1.3.52-1.004 1.09-2.111 1.609-3.142-2.045-.948-4.491-1.614-6.646-1.614z"/></svg>