<svg xmlns="http://www.w3.org/2000/svg" width="181.43" height="67.581" viewBox="0 0 181.4287 67.581096"><path fill="#13274f" d="M24.923 1.088c-6.722.155-10.732 3.723-12.92 6.701-2.996 4.065-3.924 8.76-3.295 11.3l.33 1.333 1.368.492c.832.27 1.723.063 2.382-.547 1.99-1.608 3.194-2.048 3.484-2.08l.295-.02c-3.405 4.597-5.468 10.327-7.46 15.89-2.083 5.828-4.05 11.33-7.213 14.266l-.982.926.238 1.346c.264 1.515.46 4.757.32 8.02-.02 1.137.492 2.058 1.353 2.523s1.877.372 2.705-.248c5.339-3.992 8.945-14.914 12.125-24.548 1.322-3.987 2.586-7.792 3.752-10.414a5.036 5.036 0 0 0 .008 2.151c.747 2.844 3.12 4.329 5.923 3.77 0 0 .263-.12.571-.264.86 1.319 1.326 3.222 1.326 5.317 0 1.629-.28 3.371-.854 5.005-.747 2.12-3.097 7.043-8.821 6.915-1.239-.037-2.527-.58-2.778-.715-1.46-.858-2.789-.233-3.386.724-.618.987-.564 2.493.73 3.48-.133-.118.074.072.074.072 1.245 1.118 4.172 3.76 9.977 3.532 4.85-.207 9.393-3.634 11.868-8.764-.006.062-.025.135-.025.201 0 .755.36 1.314.536 1.531.639.843 1.98 1.448 3.656.409.935-.584 2.191-1.418 3.552-2.659 2.3-2.12 4.568-5.024 7.134-9.162a56.814 56.814 0 0 0 2.703-4.98c.276.007.569-.01.859-.025-.64 1.877-1.31 4.147-1.31 6.303 0 2.405.84 4.624 3.5 5.823 2.986 1.355 7.847.228 12.45-4.716 1.082 1.433 2.577 2.368 4.452 2.55 1.856.061 3.836-.85 5.339-1.914 1.106.796 2.624 1.561 4.645 1.345 2.963-.315 5.91-2.607 9.01-7.028l1.823-2.787c1.825-2.87 4.556-7.13 6.69-9.364-.156.414-.334.879-.685 1.462-1.792 3.025-3.488 6.149-3.488 8.843 0 .635.093 1.24.302 1.815.474 1.324 1.51 2.312 2.906 2.777 5.719 1.898 11.769-3.009 16.392-13.103.584-.16 1.156-.362 1.72-.6-.656 1.427-1.083 2.771-1.083 3.95 0 1.985.814 3.594 1.93 4.67 2.852 2.761 7.86 2.606 11.583-.094 1.598.91 3.47 1.47 5.463 1.49 4.305.072 8.101-1.897 10.41-5.393 2.278-3.45 2.69-7.903 1.097-11.9h-.001c-.568-1.417-2.196-5.513.317-9.003.964-1.169.516-2.43.355-2.783-.16-.351-.826-1.514-2.48-1.483h-.093l-.097.005c-5.111.506-7.948 6.485-10.94 12.814-.31.646-.68 1.345-1.037 2.022-.137-.026-.277-.077-.414-.093-.496-.05-.96.005-1.43.052-.017-.083-.011-.155-.037-.243-.104-.3-.348-.538-.557-.781.411-.104.923-.238.923-.238 1.409-.371 1.918-1.815 2.076-2.435.101-.414.155-.828.155-1.237 0-.935-.27-1.85-.789-2.636-.827-1.257-2.192-2.095-3.76-2.302-2.993-.398-6.246 2.116-7.58 5.55a11.246 11.246 0 0 1-3.503 2.688c-.305-2.446-1.82-4.209-4.056-4.607-2.426-.429-4.91.905-5.916 3.17-.042.088-.057.181-.096.285-.486-.838-1.148-1.536-2.025-1.883-6.435-2.58-11.334 5.202-15.655 12.059-1.724 2.74-3.356 5.33-4.915 7.09-.126.155-.194.176-.297.279.036-.45.147-.998.463-1.686.034-.078 5.903-14.004 5.903-14.004l-8.109.812s-.098.233-.154.398c-.74-.367-1.542-.683-2.48-.801-7.237-.921-11.692 5.507-13.456 11.836-.108.336-.733 1.594-1.317 2.633-2.35 4.183-4.362 5.341-5.153 5.419a2.819 2.819 0 0 1-.119-.807c0-2.22 1.091-6.728 2.3-9.723.187-.517.262-.977.262-1.375 0-1.055-.53-1.695-.818-1.964-.626-.58-1.725-.962-2.958-.336a13.887 13.887 0 0 1-4.04 1.607c.018-.197.073-.425.073-.621 0-.558-.072-1.07-.233-1.51-.773-2.073-2.317-3.438-4.238-3.748-1.929-.305-3.906.522-5.168 2.151a6.026 6.026 0 0 0-1.251 3.703c0 .848.17 1.721.501 2.59.318.817.882 1.589 1.544 2.307a77.232 77.232 0 0 1-2.425 4.638c-2.467 4.353-4.738 7.466-7.843 10.745-.129.135-.22.269-.318.403.08-.233.168-.46.249-.687.655-1.965.965-3.946.965-5.901 0-4.08-1.448-7.978-4.085-11.175 4.06-3.215 6.53-7.869 6.53-12.745 0-.972-.115-1.929-.3-2.906.592-.181 1.185-.383 1.825-.58 2.26-.58 2.074-2.611 2.048-2.834-.034-.232-.352-2.234-2.76-2.203-1.19.02-2.341.098-3.477.207-2.388-3.233-6.514-5.757-12.79-5.74zm-.586 7.806c.268-.007.544-.005.83.007.542.03 1.393.201 2.3.585a27.498 27.498 0 0 0-8.99 6.505l-.015-.295c-.029-.548-.105-3.423 1.603-5.218.963-1.005 2.399-1.533 4.272-1.584zm133.755 2.268-2.236 3.484c-1.239 1.908-1.394 3.765-1.497 4.99 0 0-.052.486-.072.693-.103.11-.275.28-.275.28l-1.056 1.153-.118.155c-1.505 1.877-1.757 3.47-1.757 7.296l-.02.362-.24.3c-1.263 1.634-1.309 3.593-1.344 5.03 0 0-.057 1.165-.06 1.185-3.66.534-76.03 10.964-77.655 11.197-4.64.62-6.786 4.302-6.444 7.43.59 5.413 4.408 7.027 7.787 6.733 2.138-.176 54.72-8.027 73.395-10.819-.148.745-.26 1.525-.26 2.358 0 1.024.177 2.115.557 3.237a8.159 8.159 0 0 0-.637 2.286c-.062.501-.088.982-.088 1.417 0 3.009 1.277 4.675 2.435 5.563 1.836 1.417 4.297 1.526 7.255.482 3.075.574 6.458.253 9.509-.91 2.862.543 5.783-1.148 7.225-2.022 0 0 .036-.026.044-.026h.135l2.006-.052.33-.067c1.317-.254 3.776-.715 4.888-3.201a5.116 5.116 0 0 0 .442-2.12c0-1.718-.804-3.16-1.138-3.75.008-.124.018-.222.018-.36 0-.481-.034-1.08-.189-1.759-.403-1.882-1.414-3.257-2.148-4.255l-.582-.848-.26-.642c-.1-.28-.224-.61-.382-.967 1.588-1.313 2.235-2.766 2.49-3.75a6.045 6.045 0 0 0-1.607-5.838c-1.541-1.525-3.827-2.228-6.405-2.042-.078-3.346-1.625-5.244-2.492-6.226-.008-.166-.008-.341-.008-.341-.015-1.955-.039-5.58-2.948-8.496-.628-.636-.703-.822-.957-1.459 0 0-.296-.702-.384-.894-.158-.393-.585-1.302-1.97-2.336l-3.287-2.452zm-28.92 3.614c.072.724.396 1.256.592 1.478v.001s.146.155.226.238c-.502-.133-1.026-.227-1.686-.008-.02-.003-.051-.015-.086-.023 0-.031-.012-.057-.012-.088 0-.538.297-1.091.657-1.385.126-.109.208-.155.31-.213zm-97.56.904c-.019 1.294-.345 4.107-2.552 6.843l-.029.03c-.08.104-.183.19-.281.274-1.978-.977-4.062-.869-5.626.383-.155.129-.3.268-.437.412.031-.041.062-.097.084-.139l.471-.656c1.502-2.083 3.263-4.52 8.37-7.146zm109.54 2.188c.088.48.201.94.201 1.51 0 .217-.012.44-.025.678-.189 4.018-2.551 5.363-4.728 5.797 1.479-2.26 2.742-4.624 3.864-6.723.227-.413.458-.848.688-1.262zm-32.516 3.884c.06.134.085.279.15.403.287.528.74.886 1.15 1.273-1.79 3.253-3.51 5.356-4.57 6.034.365-1.34 1.393-3.496 2.031-4.825l.859-1.81c.186-.398.248-.703.38-1.075zm17.658 2.435c-.06.378-.234.746-.234 1.107 0 .791.15 1.562.396 2.322-.535.187-1.042.269-1.303.041-.168-.15-.245-.382-.245-.692 0-.41.155-.947.463-1.532.217-.434.543-.847.923-1.246zm-46.573.61c.15 0 .173.037.188.057.085.125.163.404.163.859 0 .63-.16 1.598-.676 2.953-1.85 4.825-3.143 5.693-3.497 5.838-.09.052-.178.087-.426-.02-.127-.058-.489-.972-.1-2.932.75-3.729 3.168-6.754 4.348-6.754z"/><path fill="#ce1141" d="M24.934 3.55c-11.07.237-14.762 11.536-13.92 14.923.014.062.1.15.19.063 2.066-1.68 3.798-2.602 4.881-2.69-.168-2.989.867-9.778 9.187-9.394 1.872.082 5.062 1.115 7.038 3.861-4.613 1.293-9.551 3.869-13.504 8.957-7.118 9.153-8.42 24.573-15.31 30.99.32 1.85.498 5.33.356 8.557-.008.351.181.254.285.177 7.769-5.825 12.28-30.912 16.74-37 2.002-2.73 4.02-6.174 12.444-9.82.29.729.518 1.532.634 2.437.205 1.665-.09 5.796-3.067 9.483-.68.874-1.854 1.608-2.2 1.541-.434-.357-.38-.238-.863-.574-2.58-1.38-4.532.652-4.095 2.555.336 1.267 1.38 2.27 3.16 1.923.544-.108 1.463-.93 1.641-.78 6.174 5.109 3.06 22.881-9.018 22.617-1.833-.051-3.583-.832-3.88-1.018-.295-.176-.3-.083-.107.051.977.86 3.313 3.363 8.559 3.15 9.78-.42 16.782-16.765 6.15-26.036 6.79-3.683 9.177-11.207 6.907-16.864 1.26-.44 2.594-.905 4.083-1.365.341-.083.603-.217 0-.217a41.284 41.284 0 0 0-4.665.352C34.653 6 30.8 3.529 24.934 3.549zm120.9 2.337c-3.72.352-6.128 5.305-9.032 11.444a66.972 66.972 0 0 1-2.07 3.971c-1.032-.873-4.414-1.555-5.825 1.83-.82 1.962-.464 3.832.633 5.317-.29.285-.581.57-.868.797-3.437 2.777-7.94-.114-5.394-4.99 1.247-2.384 4.32-4.255 5.502-4.72.572-.24 1.187-1.03.253-.71-1.125.399-2.73-.232-3.06-1.4-.478-1.691.279-3.419 1.396-4.35 2.826-2.363 4.474-.078 4.176 1.272-.158.501.198.13.34-.444.409-1.608-.824-2.907-2.383-3.114-2.077-.264-4.628 1.94-5.355 4.623-2.407 2.813-5.735 4.365-8.375 4.633.422-1.267.68-2.384.63-2.979-.304-3.578-4.417-3.313-5.49-.888-1.05 2.347-.72 5.878 2.246 6.313-2.226 4.618-5.996 10.414-8.843 9.768-3.386-.77-.209-6.154 1.803-10.497 1.593-3.445.927-5.41-.355-5.916-6.657-2.668-12.394 12.24-17.95 18.517-3.547 4.003-5.7.093-3.744-4.121l4.253-10.1-2.634.264-.853 2.197c-.344-.885-1.702-2.203-3.744-2.46-5.763-.74-9.404 4.783-10.88 10.077-.2.724-1.236 2.627-1.543 3.18-3.02 5.378-6.3 7.478-8.507 6.403-2.865-1.381.215-11.062 1.277-13.694.191-.522.085-.698-.257-.522-2.493 1.495-5.662 2.368-8.167 2.244.636-1.764.975-3.304.677-4.095-1.635-4.41-7.477-1.644-5.712 2.906.378.993 1.169 1.93 2.285 2.591a91.952 91.952 0 0 1-3.327 6.515c-2.844 5.016-5.303 8.16-8.193 11.221-.713.76-.09.518.243.31a20.689 20.689 0 0 0 3.193-2.388c2.174-2.006 4.36-4.855 6.71-8.656.907-1.453 2.218-3.9 3.26-6.267a8.258 8.258 0 0 0 3.245.051c.677-.118 1.954-.687 2.469-.93.137-.057.179.125.179.125-.257 2.455-5.233 11.054-.432 13.225 2.681 1.215 7.74-.583 12.165-7.078.315 2.575 1.58 4.478 4 4.71 1.796.057 4.332-1.577 5.1-2.632 1.445 1.319 5.048 5.574 11.741-3.95 1.611-2.291 5.743-9.417 8.925-12.653 3.344-3.393 5.883-.384 2.866 4.684-2.19 3.692-4.91 8.703-1.58 9.81 5.492 1.825 10.809-5.476 14.003-12.871 3.606-.559 7.948-3.884 9.13-5.094.088.842.553 2 1.33 2.383-1.527 1.143-3.143 2.379-4.048 3.563-5.523 7.84 3.271 11.454 8.623 6.856.238-.196.46-.423.684-.635 1.402 1.2 3.393 1.97 5.593 1.996 7.421.122 11.967-7.106 9.26-13.906v.002c-.577-1.448-2.762-6.707.604-11.397.197-.233.182-.356-.172-.34zm-3.738 6.22c-.153 1.56 1.93 3.915 1.613 8.13-.286 6.288-4.935 7.885-7.394 8.207-1.572.201-3.051-.026-4.22-.538 4.74-5.554 7.666-13.807 10.001-15.798zm16.484 1.453-1.316 2.048c-.997 1.536-1.121 3.067-1.212 4.184l-.141 1.107c-.076.315-.236.496-.733.972l-.9.988-.134.17c-1.06 1.33-1.367 2.302-1.367 6.185 0 .843-.085 1.06-.085 1.074-.011.006-.23.29-.23.29l-.311.388c-.915 1.169-.946 2.668-.98 3.982l-.08 1.416c-.09.636-.215 1.034-.342 1.298-1.657.243-78.055 11.258-78.77 11.356-3.997.543-5.173 3.66-4.971 5.511.55 5.094 4.352 5.315 5.96 5.182 2.187-.191 61.2-8.998 75.87-11.196-.432 1.288-.91 2.793-.91 4.468 0 1.076.197 2.204.735 3.377-.399.75-.714 1.495-.82 2.368-.046.43-.076.817-.076 1.184 0 2.301.917 3.537 1.757 4.179 2.028 1.567 4.767.698 6.22.098 2.966.625 6.257.243 9.222-.957 2.408.885 5.214-.811 6.677-1.706l.331-.191c.158-.099.285-.104.843-.063l1.549-.035.348-.072c1.228-.223 2.908-.539 3.647-2.199.21-.47.298-.934.298-1.39-.001-1.091-.49-2.12-.922-2.88h.001l-.127-.223s-.054-.078-.121-.129c.002-.03.002-.082.002-.082.017-.212.044-.486.044-.797 0-.388-.035-.847-.15-1.385-.324-1.5-1.167-2.643-1.85-3.574l-.7-1.029-.378-.894c-.212-.585-.478-1.32-1.052-2.136 2.137-1.21 2.867-2.71 3.112-3.655a4.242 4.242 0 0 0-1.147-4.122c-1.363-1.355-3.543-1.856-6.028-1.443-.11-.16-.22-.31-.329-.46 0 0-.447-.663-.55-.823.01-.109.018-.238.018-.347 0-2.931-1.35-4.462-2.174-5.392 0 0-.235-.28-.318-.388-.009-.228-.045-1.004-.045-1.004-.01-1.82-.035-4.85-2.43-7.255-.881-.89-1.057-1.325-1.342-2.048l-.39-.93c-.096-.197-.324-.693-1.324-1.5l-1.877-1.52zm-44.802 2.38c.104.01.212.035.322.077 1.099.424 1.1 1.607.133 4.048a4.4 4.4 0 0 1-1.148-.263c-1.748-.722-.876-4.008.693-3.862zm17.941 6.166c.78.016 1.488.669 1.793 1.227-.874 1.376-1.782 2.665-2.715 3.776-1.08-.925-1.528-2.193-.869-3.542h.001c.536-1.102 1.184-1.474 1.79-1.461zm-51.99.235c2.12 0 3.812 2.208 1.891 7.23-2.019 5.264-4.265 8.418-7.079 7.167-4.339-1.94.338-14.397 5.188-14.397zm-29.007.677c.693.008 1.308.504 1.273 1.691-.013.408-.378 1.433-.944 2.756-.77-.283-1.395-.718-1.778-1.355-1.073-1.765.295-3.106 1.45-3.092z"/><g fill="#13274f"><path d="M176.117 55.658c-.562-.6-.535-.941-.486-1.551.034-.414.075-.931-.072-1.614-.23-1.091-.885-1.975-1.513-2.823l-.83-1.247-.51-1.168c-.268-.745-.54-1.515-1.426-2.425-.075-.083-.143-.155-.212-.238l-.753-.942c2.425-.708 4.025-1.918 4.398-3.35.21-.817-.024-1.64-.639-2.25-.881-.873-2.82-1.473-5.638-.662a.057.057 0 0 1-.016-.041c-.225-.465-.556-.946-.9-1.427a1.627 1.627 0 0 1-.116-.16c-.192-.28-.453-.683-.639-.999-.105-.227-.187-.423-.176-.584.183-2.58-.887-3.8-1.665-4.68-.35-.398-.65-.729-.735-1.086-.1-.377-.109-.946-.114-1.587-.01-1.706-.028-4.044-1.859-5.895-1.166-1.152-1.45-1.872-1.77-2.689l-.347-.817c-.12-.31-.605-.693-.81-.843l-.284-.212-.195.305c-.729 1.132-.824 2.27-.91 3.273l-.18 1.421c-.22.88-.725 1.375-1.262 1.903l-.73.78-.152.192c-.672.848-.943 1.334-.943 4.969 0 1.696-.275 2.021-.758 2.61l-.279.348c-.514.662-.54 1.711-.563 2.813l-.104 1.67c-.03.212-.067.414-.1.59l-.195.786c-.005 0-.005.01-.005.01h-.005c-.215.693-.488 1.08-.807 1.36-.036.02-.065.047-.1.062-.21.037-2.338.342-5.781.838l-.576.072c-.01 0-.01.01-.018.01-2.162.311-4.8.693-7.752 1.123-.006 0-.008-.005-.008-.005l-1.549.222a79238 79238 0 0 1-55.37 7.989c-.03 0-.052-.016-.08-.016l-1.698.275-6.67.956c-2.68.362-3.485 2.27-3.364 3.387.1.93.41 3.785 3.95 3.485.373-.036 2.49-.331 5.786-.801.018 0 .029.005.047.005l1.763-.274c11.425-1.66 33.374-4.923 49.947-7.395l.152-.01.892-.135c6.8-1.029 12.612-1.892 16.29-2.44.023 0 .056.005.082 0l2.562-.393c.008 0 .008-.005.015-.005.407-.063.743-.115.994-.15-.085.832-.347 1.727-.66 2.683-.43 1.272-.884 2.632-.884 4.08 0 1.076.285 2.187.983 3.34-.028.073-.092.228-.092.228-.631 1.029-.9 1.685-.993 2.446-.042.336-.06.656-.06.951 0 1.23.335 2.11 1.01 2.621.983.76 2.63.636 4.882-.351 3.028.8 6.59.397 9.602-1.045 1.605 1.096 4.168-.43 5.572-1.277l.349-.207c.683-.409 1.309-.357 1.913-.305l1.055-.01.357-.073c1.014-.186 1.96-.367 2.3-1.122.261-.588.085-1.375-.548-2.502zm-97.715.646c-3.232.475-5.298.765-5.655.791-2.56.223-3.066-1.406-3.224-2.86a.73.73 0 0 1-.01-.145c0-.687.478-2.16 2.787-2.466l5.481-.79c.452.335.835 1.173 1.008 2.223.207 1.303.052 2.58-.388 3.247zm49.135-7.255a16022.437 16022.437 0 0 1-45.593 6.743c.403-.987.406-2.316.243-3.299-.15-.905-.437-1.65-.817-2.172l45.572-6.577c.338 1.443.638 3.056.595 5.306zm3.167-2.776a21.334 21.334 0 0 0-.525-2.995l2.985-.43-2.46 3.424zm2.6 1.912 2.002-2.818c.083.744.127 1.577.109 2.502-.688.104-1.39.207-2.11.315zm5.353-.802c.01-.92-.031-1.737-.114-2.492l2.293 2.172c-.706.104-1.435.212-2.18.32zm4.03-3.23c-.339-.31-1.737-1.599-2.515-2.313l4.53-.656a706.78 706.78 0 0 1-2.015 2.969zm4.693 1.938c-.783.109-1.655.243-2.606.388l2.44-3.268c.12.817.184 1.754.166 2.88zm26.227-7.529a1.588 1.588 0 0 1 .45 1.562c-.312 1.2-1.858 2.27-4.126 2.901-.196-.263-.377-.63-.53-1.013a3.381 3.381 0 0 1-.176-.471c-.002-.015-.018-.026-.026-.036a14.524 14.524 0 0 1-.307-.972 9.813 9.813 0 0 1-.19-1.128c-.024-.3-.024-.59-.024-.822l-.039-.238v-.14l-.002-.03v-.032c0-.026-.01-.052-.013-.083 2.535-.728 4.236-.242 4.983.502zm-5.535 1.345a5 5 0 0 0 .13.667s.001.006.007.016v.02l.002.02c.05.218.114.446.181.679a3.172 3.172 0 0 1-1.205-.249c.293-.377.593-.76.885-1.153zm-.848-3.185a29.14 29.14 0 0 1-2.505 3.102c-.763-.413-2.017-1.385-2.847-2.182.285-.041.571-.088.848-.125l4.504-.795zM166 43.728c-.403 0-.778-.01-1.11-.046.099-.099.197-.191.298-.295.264.135.533.248.812.341zm-10.246-2.679c-.06-.64-.207-1.225-.432-1.665-.05-.119-.122-.201-.181-.3a28.306 28.306 0 0 1 3.03-.796c1.33 1.355 3.232 2.854 4.355 3.604-.33.263-.67.522-1.02.77l-.866-.29c-1.396-.49-3.275-1.127-4.886-1.323zm2.115 3.574c-1.02.397-2.1.713-3.274.92.36-.6.626-1.184.815-1.753.6.093 1.182.321 1.75.554.23.098.463.19.709.278zm-4.16-9.619c.023-.993.04-1.923.418-2.405l.259-.32c.607-.735.92-1.2.92-3.066 0-3.532.264-3.863.794-4.515l.16-.206.667-.72c.55-.542 1.186-1.157 1.447-2.238l.2-1.515c.074-.86.206-1.728.648-2.591.127.124.23.222.253.285.008.015.334.79.334.79.343.854.662 1.666 1.923 2.937 1.64 1.634 1.655 3.718 1.665 5.389.009.692.009 1.292.13 1.763.134.517.502.93.892 1.375.675.765 1.507 1.712 1.507 3.635 0 .165 0 .341-.016.517.005.027.005.058.005.09l-3.148.537c.788-1.913.235-4.291-.572-5.879a.327.327 0 0 0-.457-.14c-.165.083-.225.3-.14.47.786 1.557 1.329 3.95.339 5.689l-.564.098c-2.658.393-5.385.807-7.757 1.593l.1-1.572zm-2.537 10.513c-.15.026-.335.056-.554.082.035-2.11-.252-3.635-.617-5.176l1.484-.216c.023.005.038.025.07.025.4 0 .665.166.827.518.474 1.045-.11 3.32-1.21 4.767zm24.875 12.348c-.196.424-.972.58-1.8.73l-.364.072h-.877c-.646-.057-1.437-.12-2.306.393l-.357.207c-1.218.745-3.762 2.285-4.982 1.24l-.168-.15-.197.104c-1.101.543-5.042 2.24-9.421 1.03l-.114-.027-.106.047c-2.045.92-3.537 1.08-4.32.48-.63-.485-.854-1.463-.679-2.931.075-.641.318-1.22.887-2.146l.28-.765-.109-.062c-1.605-2.487-.85-4.763-.108-6.965 4.762-.213 8.092-1.262 10.848-3.15 2.84.725 6.53.61 8.975-.263.51.64.732 1.205.94 1.784l.554 1.288.885 1.308c.582.791 1.178 1.618 1.388 2.56.067.305.085.574.085.817 0 .212-.015.403-.028.59-.012.165-.028.32-.028.49 0 .482.111.968.662 1.53.331.622.514 1.129.514 1.49 0 .118-.015.21-.053.3z"/><path d="M158.102 29.415c.075.18.006.388-.17.465-.693.342-1.272 1.159-1.445 2.043-.171.859.048 1.68.612 2.343a.361.361 0 0 1-.018.496.341.341 0 0 1-.484-.025 3.4 3.4 0 0 1-.778-2.954c.215-1.101.935-2.1 1.828-2.533a.342.342 0 0 1 .455.165zm10.82 17.436c.187.01.332.165.32.362-.024.434.524.88 1.155 1.385 1.115.905 2.637 2.147 2 4.417-.056.19-.242.3-.42.243a.352.352 0 0 1-.233-.43c.512-1.82-.647-2.772-1.764-3.671-.75-.615-1.455-1.184-1.415-1.985.012-.187.169-.342.358-.321zm3.545 7.622c-.103.46-.255.564-.372.6l-.706-.015-.762-.036c-.482.052-.96.258-1.321.558l-1.192.952-.272.113c-.498.12-.992.073-1.507-.118a.332.332 0 0 0-.434.201.349.349 0 0 0 .202.45c.639.243 1.26.29 1.885.145l.54-.243 1.195-.946c.266-.227.633-.377.975-.414l.592.031 1-.01c.63-.191.786-.88.833-1.106a.348.348 0 0 0-.249-.42.342.342 0 0 0-.406.26zm-3.161 1.107zm-6.48-7.382c.737 1.2.793 2.74.152 4.23-.135.315.002.636.496 1.175 0 0 .176.154.15.31-.034.155-.038.285-.196.3-.112.01-.293.015-.433-.125-.328-.347-1.008-1.081-.638-1.94.548-1.282.515-2.574-.106-3.572a.353.353 0 0 1 .106-.48.338.338 0 0 1 .468.102zm-7.059 1.091c.657.667.437 1.65-.124 2.29l-.84.715c-.746.558-1.198.94-.999 1.65a.333.333 0 0 1-.232.418.33.33 0 0 1-.42-.232c-.336-1.211.546-1.868 1.249-2.395l.747-.63c.189-.218.586-.875.142-1.325a.342.342 0 0 1 0-.485c.13-.14.345-.14.476-.006zm-1.628 8.056c.302.818 1.135 1.288 1.892 1.076l.967-.445 1.013-.45c.401-.14.765-.015 1.084.099.259.077.483.165.667.092l.279-.088-.015.01c.015-.01.465-.176.586-.062.326.31-.153.522-.01.435l-.535.346-.075.015c-.41.155-.779.026-1.107-.088-.259-.088-.483-.16-.68-.098l-.887.414-1.112.496c-1.093.305-2.278-.362-2.7-1.5a.358.358 0 0 1 .195-.455.346.346 0 0 1 .437.203zm6.18-35.597c.172.078.245.285.172.46-.323.755-.297 1.769.067 2.668.279.678.715 1.18 1.192 1.365a.356.356 0 0 1 .205.445.337.337 0 0 1-.435.207c-.667-.258-1.228-.873-1.588-1.748-.431-1.065-.455-2.3-.065-3.216.078-.18.28-.258.45-.18z"/></g><g fill="#eaaa00"><path d="M162.217 35.548c.002-.006.007-.006.015-.006 1.215-.212 3.499-.6 3.835-.656.007.02.033.046.04.072.166.372.412.75.697 1.142l-4.181.724c-.801.124-1.603.243-2.402.383-1.158.176-1.79.295-2.022.367-1.213.253-2.397.543-3.506.931a2.39 2.39 0 0 0-1.295-.678c.033-.155.072-.315.106-.481 2.383-.833 5.211-1.262 7.965-1.675 0 0 .297-.052.747-.124zm8.395 9.571c-2.16.688-5.145.807-7.671.295.075-.046.147-.114.217-.18.103-.073.19-.14.29-.218.297-.243.6-.496.837-.729 1.342.29 4.028.083 5.352-.393.269.398.58.787.933 1.185.019.015.035.035.042.04zm-24.565-4.13c.235-.027.503-.058.697-.09.05.213.169.699.251 1.046.018.113.039.226.062.34l-3.241 4.328c-.225.032-1.86.27-2.123.315-.214-.2-3.076-2.91-3.299-3.128a37.672 37.672 0 0 0-.339-1.64c.406-.051 1.052-.16 1.254-.19l3.216 2.968a.37.37 0 0 0 .264.087.383.383 0 0 0 .238-.15s2.46-3.625 2.6-3.827l.42-.06zm-8.688 1.255.329 1.536c.173.967.297 2.007.297 3.263 0 .14 0 .29-.005.434-.37.057-1.394.212-1.883.295 0-.119.008-.238.008-.351 0-1.112-.098-2.064-.237-2.948h.003c-.018-.14-.057-.373-.109-.647-.039-.18-.07-.362-.109-.543-.062-.285-.119-.554-.17-.77.162-.027.405-.057.656-.094l1.22-.175zm-9.74 1.422 1.883-.275c.307 1.283.584 2.69.612 4.515v.76c-.375.042-1.411.187-1.898.254.005-.12.005-.249.005-.357 0-2.038-.282-3.543-.602-4.897zm3.178 4.897c.006-.315.006-.626-.005-.915v-.331c.126-.17 3.149-4.375 3.312-4.602.15-.02.424-.052.698-.088.078.383.305 1.489.362 1.752-.187.264-2.632 3.724-2.79 3.935-.124.027-.558.094-.982.161-.197.02-.393.057-.595.088zm17.261-2.58c.003-.105.01-.217.01-.321 0-1.324-.129-2.379-.305-3.3a.106.106 0 0 0 0-.082 20.546 20.546 0 0 0-.33-1.47c.475-.061 1.49-.216 1.892-.268.347 1.427.631 2.844.631 4.747 0 .129-.008.279-.01.413-.52.083-1.154.171-1.887.28zm17.874-3.397c.038-.047.077-.099.124-.145.256-.29.574-.662.718-.827a3.93 3.93 0 0 0 1.862.388c.08.196.17.403.26.615.08.16.161.321.25.466a.246.246 0 0 0 .038.072c.008.026.015.042.02.057-1.019.18-2.324.145-3.488-.383.031-.036.109-.134.215-.242zm-7.05 1.602c-.476-.082-.962-.275-1.477-.486-.568-.238-1.163-.45-1.806-.563.116-.475.165-.941.173-1.38 1.52.201 3.31.806 4.648 1.276l.347.114c-.582.373-1.2.715-1.851 1.025-.007 0-.023.015-.033.015zm4.193-2.766c-.949-.61-2.72-1.995-4.08-3.3.355-.067.719-.13 1.068-.186.297-.052.618-.098.987-.155.722.786 2.152 1.94 3.16 2.539l-.935.925-.155.135c-.01.016-.029.026-.045.041zm-9.9-2.896c.479.052.908.274 1.236.688l.019.02c.106.135.2.285.287.455.243.502.377 1.128.382 1.852.002.02.002.041.002.056a5.67 5.67 0 0 1-.075.864c-.002.041-.01.078-.018.119-.17.967-.586 2.027-1.313 3.077-.147.015-.292.046-.447.051-.024 0-.044.005-.073.005-.359.037-.739.053-1.114.063l-.002-.393h-.011c.672-1.092 1.174-2.504 1.174-3.693 0-.46-.072-.89-.23-1.236a1.627 1.627 0 0 0-.572-.678c.31-.325.558-.728.754-1.25z"/><path d="M151.757 47.673c.114-.392.202-.78.253-1.178a.035.035 0 0 0 .005-.016c.476 0 1.386-.036 1.958-.15.023-.005.03-.02.048-.03a17.14 17.14 0 0 0 4.985-1.417c.471-.135 1.948-.942 2.747-1.546l.005-.016a20.703 20.703 0 0 0 1.523-1.169c.02-.015.052-.025.067-.03l.383-.362.03-.025c1.567-1.422 2.829-2.969 3.855-4.385.111.155.217.35.282.543.034.098.062.2.067.295v.701c-.015.021-.03.047-.03.047-4.267 5.91-8.04 9.003-16.375 9.453.065-.218.137-.46.197-.715zm-71.24 2.736c.45.347.835 1.164 1.003 2.208a7.1 7.1 0 0 1 .096 1.159c0 .9-.189 1.67-.51 2.135l-1.957.3a5.322 5.322 0 0 0 .408-2.017c0-.44-.035-.874-.1-1.252-.155-.977-.501-1.68-.923-2.213.665-.108 1.748-.279 1.983-.32z"/></g></svg>