<svg xmlns="http://www.w3.org/2000/svg" xml:space="preserve" width="300" height="300" viewBox="0 0 86.4 86.4"><path fill="#12284b" d="M43.2 2C20.5 2 2 20.5 2 43.2c0 22.7 18.5 41.2 41.2 41.2 22.7 0 41.2-18.5 41.2-41.2C84.4 20.5 65.9 2 43.2 2"/><path fill="#ffc52f" d="M43.2 0C19.4 0 0 19.4 0 43.2 0 67 19.4 86.4 43.2 86.4 67 86.4 86.4 67 86.4 43.2 86.4 19.4 67 0 43.2 0M2 43.2C2 20.5 20.5 2 43.2 2c22.7 0 41.2 18.5 41.2 41.2 0 22.7-18.5 41.2-41.2 41.2C20.5 84.4 2 65.9 2 43.2"/><path d="M43.2 82.5c-21.7 0-39.3-17.6-39.3-39.3 0-21.7 17.6-39.3 39.3-39.3 21.7 0 39.3 17.6 39.3 39.3 0 21.7-17.6 39.3-39.3 39.3m0-77.6C22.1 4.9 4.9 22.1 4.9 43.2c0 21.1 17.2 38.3 38.3 38.3 21.1 0 38.3-17.2 38.3-38.3 0-21.1-17.2-38.3-38.3-38.3" style="fill:#003ea0"/><path fill="#ffc52f" d="M62.6 34.6v5.8c0 4.8-.8 7.7-4.6 15.8-4 8.4-8.9 10.9-14.8 10.9-3.9 0-7.5-1.3-10.4-3.6l-.7-.6-.1-.1c-.8-.7-1.5-1.5-2.2-2.4l-.2-.2c0-.1-.1-.1-.1-.2-.4-.5-.7-1-1-1.5 0-.1-.1-.1-.1-.2-1-1.7-1.6-3.5-2.1-4.9-.2-.4-.3-.8-.4-1.2-1.1-2.9-3.3-8.4-4.3-11.2-1.1-3-1.3-5-.6-7 .7-2.1 2.4-3.7 4.7-5.6 2.3-1.9 4.2-3.4 6.9-5.3 1.7-1.2 3.5-1.9 5.2-1.9.7 0 1.4.1 2.1.3.1 0 .2.1.4.2.6.2 1.1.5 1.5.9l.1-.1c1.2-.7 2.6-1.1 4-1.1 1.1 0 2.2.2 3.1.7.2.1.3.2.5.2.1 0 .1.1.2.1.7.4 1.4.9 1.9 1.4.8-.3 1.6-.4 2.4-.4 1.2 0 2.2.3 3.2.9l.2.1c.4.3.7.4 1 .7 2.8 2 4.2 4 4.2 9.5"/><path fill="#12284b" d="M57.5 26.7c-.4-.3-.6-.4-1.2-.8-1.2-.8-2.7-1-4.9 0-.1 0-.2.1-.4.1-.5-1-1.3-1.6-2-2-.3-.2-.4-.2-.7-.3-1.5-.7-3.6-.8-5.5.4-.4.2-.9.5-1.4.8-.5-.8-1.1-1.2-1.8-1.5-.2-.1-.3-.1-.4-.1-1.4-.5-3.6-.2-5.7 1.3-2.5 1.8-4.4 3.3-6.8 5.3-4.4 3.6-5.4 5.7-3.6 10.6 1 2.7 3.1 8.1 4.3 11.2.7 1.8 1.4 4.1 2.7 6.3.1.2.2.4.4.6 0 .1.1.1.1.2.6.9 1.3 1.8 2.1 2.6l.2.2.1.1c2.7 2.4 6.2 3.9 10.1 3.9 7.2 0 13.1-5.9 13.1-13.1 0-6.9-5.6-12.5-12.5-12.5-3.7 0-7.5 2.2-9.7 5.6-.9-2.3-3-7.3-4.5-11-.8-2-.6-3 .6-4.2.6-.6 1.4-1.2 2.3-1.8.9-.6 1.9-.2 1.9.9v12.3c2-2 4.5-3.4 7.6-3.9V27.7c.2-.1.4-.3.6-.4.8-.5 1.4.1 1.4.8v9.5h.2c2.7 0 5.2.7 7.3 2V28.9c.2-.1.4-.2.5-.2.8-.3 1.4.2 1.4.9s-.1 11.3-.1 11.3c3 2.4 4.9 6.1 5.2 10.1 1.4-3 2.4-5.8 2.4-10.6v-5.8c.1-4.8-1-6.3-3.3-7.9M43.7 44.9c4.2 0 7.5 3.4 7.5 7.5 0 4.2-3.4 7.5-7.5 7.5-4.2 0-7.5-3.4-7.5-7.5s3.4-7.5 7.5-7.5"/><path d="M38 52.4c0-1.4.5-2.6 1.3-3.6 1.6 2.1 1.6 5.1 0 7.2-.8-.9-1.3-2.2-1.3-3.6m2.3 4.6c2.1-2.7 2.1-6.5 0-9.1 1-.7 2.1-1.1 3.4-1.1 1.3 0 2.5.4 3.4 1.1-2.1 2.7-2.1 6.5 0 9.1-1 .7-2.1 1.2-3.4 1.2-1.3 0-2.5-.5-3.4-1.2m7.9-.9c-1.6-2.1-1.6-5.1 0-7.2.8 1 1.3 2.2 1.3 3.6-.1 1.3-.5 2.6-1.3 3.6M15.6 31.2h-2.2l3.1 1.4-.6 1.3-.9-.4.2-.3-4.1-1.9-.1.3-.9-.4.5-1.2.5.2h3.2l-2.1-2.4-.4-.3.5-1.2.9.4-.1.3 4 1.8.2-.3.9.4-.6 1.3-3.1-1.4 1.5 1.7zm1.5-11.5.8.7-.2.2 3.3 2.9.3-.2.7.6-1.2 1.4-.7-.7.2-.3-3.3-2.9-.3.3-.7-.6Zm9.5-1.5.9-.6.8 1.1-3 2.1-.6-.8.3-.2-2.5-3.7-.3.2-.6-.8 1.5-1 .6.8-.3.2 2.5 3.7.9-.7zm8.8-9.3.3.9-.3.1.6 5 .1.5-1 .3-.1-.4-1.8-2.9.3 3.3.1.5-1 .3-.1-.4-2.5-4.4-.3.1-.3-1 1.2-.4.2.5 1.6 2.9-.3-3.3.9-.3 1.7 2.8-.4-3.2-.1-.5Zm10 4.7h.3v1h-1.4v-1.7h-1.6v1.7h-1.4v-1h.3l.1-3.4 1-2h1.9l.9 2zm-1.1-3.2-.5-1.2h-.6l-.6 1.2v1.5h1.7zm11.7.1-.3.9-.4-.1-1.2 3.9-1 1.1-2.3-.7-.2-1.5 1.2-3.9-.3-.1.3-1 1.3.5-1.4 4.6.1.6.9.3.4-.4 1.5-4.7zm8 4.5.8.5-.5.8-.3-.2-2.1 1.3-.4 2.4.3.2-.6.8-.8-.5.5-3-.4-.3-1.5 2.3-1.2-.8.5-.9.3.2 2.5-3.6-.2-.2.5-.8 1.2.8-1.5 2.2.4.3zm5.9 7.5.3-.2-.7-.8-1.4 1 1.1 1.3-.8.6-1-1.2-1.4 1.1.7.8.3-.2.7.8-1.1.9-2.2-2.8.7-.7.2.3 3.5-2.8-.2-.3.7-.6 2.3 2.8-1 .9zm4.6 8 .4-.1-.5-1-1.6.7.7 1.5-.9.4-.7-1.5-1.6.7.5 1 .3-.2.4 1-1.2.5-1.4-3.3.9-.4.1.4 4.1-1.8-.2-.3 1-.4 1.4 3.3-1.2.5zM16.4 66.1l-2.2-2.8.8-.6.2.3 3.5-2.7-.2-.3.8-.6 2.2 2.8-.5 1-1.1.8-.9.2-.4.8-1.1.9zm1.6-2 .2-.3-.9-1.1-1.4 1.1.8 1.1.4-.1zm1.4-3L18 62.2l.9 1.1.3-.1.9-.7.2-.3zm5.7 11.3.3.2-.6.8-.8-.6.5-2.6-.5-.4-1.4 2-1.2-.8.6-.8.3.2 2.5-3.7-.3-.2.6-.8 2.8 2-.3 1.4-.8 1.1-1.2.7-.2-.1zm-.6-3.4 1.1.8.3-.2.8-1.1.1-.4-1.1-.8zm10.1 3.1.1-.3-1-.3-.6 1.6 1.6.5-.3.9-1.6-.5-.5 1.7 1 .3.2-.3 1 .3-.4 1.3-3.5-1.1.3-1 .4.1 1.4-4.2-.4-.1.3-.9 3.5 1.1-.5 1.3zm12-.1v1h-.3l-.9 4.9v.5h-1.1v-.5l-.8-3.2-.7 3.3v.5h-1.1V78l-1-4.9h-.4v-1h1.3v.4l.7 3.2.7-3.2h.9l.8 3.2.6-3.2V72Zm7.1-.5-.1-.3-1 .3.5 1.7 1.6-.6.3 1-1.6.5.6 1.6 1-.3-.1-.4 1.1-.3.4 1.2-3.4 1.2-.3-.9.3-.1-1.5-4.2-.3.1-.3-.9 3.4-1.2.4 1.2zm11-1.5.3-.2.6.8-.8.6-2.3-1.3-.6.4 1.4 2-1.2.7-.6-.8.3-.2-2.6-3.6-.3.2-.6-.8 2.8-2 1.3.7.8 1.1.3 1.4-.2.1zm-3.5-.6 1.1-.8-.1-.3-.8-1.1-.2-.2-1.1.8zm10.9-6-1.7 2.2-1.1-.2-.5-.4.6-.9.3.2.4.1.7-1-.1-.3-.7-.5-2.9 1.1-1.3-1-.5-1 1.7-2.2 1 .3.6.4-.7.8-.3-.2-.3-.1-.8 1 .2.3.6.5 3-1 1.3.9z" style="fill:#fff"/></svg>