<svg xmlns="http://www.w3.org/2000/svg" xml:space="preserve" width="150" height="143.18" viewBox="0 0 150 143.18028"><path fill="#fff" d="M30.915 131.642c-4.773.86-9.706 1.745-13.924-.342-3.01-1.488-5.429-5.584-5.506-9.322a31.459 31.459 0 0 1 1.605-10.618c.347.37.771.58 1.193.733.942.342 2.301.327 3.434-.057 1.755-.588 3.461-1.166 5.13-1.733-.096.097-.189.186-.284.292-3.558 3.998-5.04 8.724-4.14 13.088-.514.312-1.227.703-1.988 1.065 0 0-1.964.936-2.059.986l-.532.32v.621c-.002.624-.002.624 2.374 2.051.008.008.988.647 1.527 1.77l.633 1.325 1.468-.037c1.342-.032 2.407-.76 3.068-1.342 2.27.994 4.67.761 6.773-.658 1.78 1.06 3.628 1.268 4.584 1.297-1.13.165-2.256.366-3.356.562m83.666-24.685h-6.006l-.05.192a7.46 7.46 0 0 0-2.54.058c-3.329.625-5.878 2.64-7.638 5.996.197-1.749-.004-3.11-.831-4.166-.959-1.224-2.309-1.907-3.907-1.977a6.858 6.858 0 0 0-1.812.18l.044-.19H82.9l.006-.017h-1.193a4.87 4.87 0 0 0 2.738-4.372 4.875 4.875 0 0 0-4.869-4.869 4.874 4.874 0 0 0-4.52 3.068l1.35-5.285-10.476 4.13-1.714 7.502c-3.636-.525-6.092 1.385-7.64 3.294.276-.503.71-1.3.673-1.241l1.063-1.704-10.327-.004.289-1.098H39.96s-1.557 6.252-2.268 8.471c.362-1.605 1.83-7.885 1.83-7.885H32.36c15.285-5.293 26.072-9.31 32.148-11.979 2.84-1.247 17.115-6.437 21.894-8.16a676.817 676.817 0 0 1 12.92-4.473c3.286 5.004 11.703 17.735 16.75 24.547-.314-.017-.773-.017-1.49-.017M80.685 74.84l.637.275-4.699 4.525c-1.879 0-2.52 1.873-2.52 1.873l-3.362.939c-.153-.153-.968-.223-.968-.223l4.21-3.656c3.452-1.066 6.702-3.733 6.702-3.733m4.063 1.55 4.062 1.37-5.637 1.423s-.457-.306-1.065-.355l2.64-2.438zm60.779 46.351a8.857 8.857 0 0 0-3.47-.924c-.111-1.569-.62-3.093-1.058-4.37-.186-.553-.367-1.076-.48-1.512-.549-2.068-.696-2.91-.206-4.253 1.046-2.859-2.595-4.501-4.034-5.152l-.444-.201c-.424-.194-.668-.101-1.313.149-.523.203-1.125.61-1.92 1.338.661-1.084 1.085-2.448 1.196-3.893.426-.31.823-.798 1.144-1.443 1.087-2.163 1.133-5.764-1.981-9.378-1.263-1.468-10.133-9.151-17.936-15.837l-.03-.025c2.743-.885 6.942-2.237 6.907-2.228.589-.158 1.536-.596 2.406.19.77.748 2.277 1.02 3.58.103 2.261-1.59 1.008-5.086.545-6.39-.813-2.29-1.962-3.153-2.783-3.474-.794-.312-1.639-.33-2.365.058-1.131.602-1.406 1.572-1.536 2.363-.145.858-1.516 1.06-3.955 1.673 0 0-8.36 2.282-8.954 2.45l-.044-.037-2.024-1.72c-.393-.652-1.17-1.816-2.084-2.56-.16-2.615-2.19-5.727-3.854-6.998-.087-1.82-1.546-4.454-3.101-5.415C90.75 42.936 84.514 35.03 78.677 31.1l-.192-.13c-1.046-.701-1.135-.8-1.174-1.346-.36-4.854-1.66-9.51-3.31-12.004.653-1.048 1.639-2.913 2.319-5.5l.738-2.79-.845.558c.213-.703.428-1.544.635-2.562l.02-.136c.062-.837-.504-1.15-.68-1.228-.072-.033-.141-.048-.211-.064a7.523 7.523 0 0 0-.512-3.273L74.82.958l-1.195 1.329c-2.445 2.721-6.163 4.139-9.444 5.392-.752.287-1.462.56-2.136.837-5.352 2.212-8.662 4.58-11.782 11.274l-.244.207c-1.418 1.191-4.371 3.672-6.043 8.588l-.277.815.725.467c1.721 1.1 3.585 1.877 5.936 2.7-8.826 19.73 7.976 31.436 22.035 38.606-.813 1.497-1.466 2.9-1.639 4.55l-6.3 6.639c-.604.159-1.749.535-2.415 1.243-.227.24-.438.568-.633.969-.175.039-.328.07-.461.097-3.938.79-10.23 2.229-26.93 6.868-2.414-2.216-6.433-3.636-10.388-3.636-6.264 0-10.31 3.366-14.456 8.42-5.987 7.293-12.75 27.263-3.789 37.833 1.532 1.807 7.294 7.639 17.17 6.884 2.642-.202 4.622-.64 6.367-1.023 3.447-.761 5.022-1.108 8.456 1.199l1.37.924 1.298-1.027c1.957-1.545 5.278-1.026 7.953-.405l5.183 1.209-2.718-4.575c-3.625-6.103-8.764-6.978-13.945-6.527 2.917-.813 4.854-3.405 6.266-6.475-.188 2.022.16 4.172 2.072 5.53 3.08 2.189 6.94 1.228 9.795-.539 1.35 1.153 3.162 1.827 4.832 1.753 1.45-.027 2.696-.314 3.862-.881a5.313 5.313 0 0 0 2.582.965c1.565.15 3.242-.355 4.99-1.498.911.91 2.104 1.41 3.462 1.416a8.011 8.011 0 0 0 1.962-.25l-.068.25H85.7l1.267-4.635c.112.915.387 1.792.918 2.559.589.848 1.728 1.894 3.825 2.068 2.247.186 4.939-.658 7.112-2.184 2.361 2.324 5.34 2.703 8.88 1.115.7.603 1.906 1.313 3.72 1.064 1.244-.082 2.496-.612 3.799-1.596a5.46 5.46 0 0 0 4.005 1.61c2.549-.04 4.691-1.564 6.374-3.133 1.854 1.897 4.664 3.83 8.98 3.101a20.03 20.03 0 0 0 1.893-.436c1.428-.381 1.61-.43 2.749.533l3.368 2.853.35-4.31c.066-.216.535-1.524 2.82-3.03l3.285-2.166-3.517-1.757z"/><path fill="#14264b" d="M83.35 102.668c0-2.079-1.691-3.771-3.77-3.771s-3.77 1.692-3.77 3.77a3.775 3.775 0 0 0 3.77 3.77 3.773 3.773 0 0 0 3.77-3.77m61.684 21.063a7.973 7.973 0 0 0-4.068-.812c.136-1.735-.482-3.556-1.01-5.109-.194-.573-.378-1.113-.504-1.588-.543-2.053-.798-3.201-.173-4.91.694-1.9-2.165-3.19-3.385-3.744l-.52-.232a24.92 24.92 0 0 0-.458.174c-1.592.616-4.844 4.486-10.674 11.885-.684.87-1.377 1.75-1.933 2.444.36-1.64 1.528-6.95 2.09-9.498 2.247.205 3.978-1.218 4.398-3.36 1.866.46 3.934-2.282 3.934-5.77.982.066 3.787-4.286-.604-9.386-1.339-1.553-12.012-10.751-19.318-16.998l-.025-.025 8.83-2.845c.546-.147 1.55-.382 2.041-.34.32.026 1.002.491 1.335.857.321.314 1.209.707 2.249-.05 1.408-1.025.763-3.42.155-5.135-.673-1.898-1.511-2.717-2.117-2.955-.496-.194-1.07-.25-1.621.035-1.265.654-.68 2.027-1.374 2.55 0 0-.201.612-4.137 1.571l-9.043 2.57-.53.15-.043-.037c-1.61-1.37-2.609-2.216-2.609-2.216-.635-1.087-1.532-2.27-2.332-2.714.182-2.659-2.518-6.354-3.897-6.995.378-1.168-1.204-4.48-2.761-5.17-4.972-8.806-11.714-19.243-18.87-24.062-1.143-.769-1.76-1.116-1.848-2.307-.401-5.438-1.943-10.13-3.548-12.056.59-.833 1.805-2.828 2.591-5.807 0 0-.914.604-1.613.827.375-.43 1.3-1.483 2.126-5.56.037-.492-.381.43-1.373 1.001.163-.715 1.005-2.613.045-5.084-3.204 3.562-8.333 5-11.98 6.507-5.537 2.288-8.432 4.674-11.309 10.94-1.018.918-4.363 3.253-6.14 8.467 1.771 1.133 3.696 1.908 6.427 2.841 0 0 .021.876.037.975-8.3 18.133 5.384 29.433 22.43 37.95-1.098 1.974-1.999 3.545-2.098 5.501l-6.78 7.15s-1.546.317-2.189 1.002c-.283.302-.511.802-.653 1.17-.399.09-.745.165-1.026.22-4.13.83-10.777 2.38-27.466 7.018-.057-.058-.11-.124-.169-.182-2.177-2.173-6.062-3.581-9.899-3.581-5.834 0-9.659 3.205-13.607 8.016-5.79 7.056-12.378 26.308-3.8 36.425 1.446 1.706 6.893 7.215 16.246 6.5 2.566-.198 4.505-.624 6.215-1.001 3.535-.78 5.481-1.209 9.306 1.361l.707.475.668-.529c2.323-1.836 5.97-1.292 8.882-.612l2.673.622-1.402-2.357c-4.553-7.664-11.594-6.4-18.404-5.175-4.946.888-10.061 1.807-14.605-.44-3.4-1.681-6.031-6.105-6.118-10.286-.084-4.12.848-8.695 2.277-12.63 1.124 1.446 2.553 2.227 3.845 1.886a3.17 3.17 0 0 0 .488-.178 2.04 2.04 0 0 0 .37-.083c23.154-7.8 38.866-13.502 46.697-16.94 2.869-1.258 17.178-6.462 21.964-8.186 4.24-1.528 9.049-3.178 13.748-4.755 2.825 4.315 13.97 21.239 18.812 27.355-.955 5.625-2.614 12.322-5.43 14.054-.119.075-.264.168-.39.246.612-3.283 2.632-11.962 2.95-13.265l.35-1.447-6.64-.002-.113.437c-.862-.344-1.927-.43-3.128-.205-5.14.967-8.26 5.704-9.27 14.08-.019.15-.036.304-.054.426-1.003 1.153-1.791 1.375-2.028 1.286-.085-.03-.1-.219-.095-.327.033-.99.574-2.857 1.099-4.66 1.328-4.59 2.105-7.726.813-9.378-.755-.965-1.824-1.501-3.091-1.555-1.112-.049-2.254.28-3.293.8l.188-.81h-6.889l-.194.932c-.782 3.798-3.066 11.84-4.632 13.676-.31.362-.92.587-1.344.647.431-2.078 2.384-9.278 3.645-13.788l.414-1.483H74.47l-.205.912c-.023.1-2.301 10.213-4.077 13.311-.513.891-.99 1.137-1.17 1.08-.12-.036-.234-.226-.217-.47.174-2.369 3.992-17.667 5.446-23.364l.566-2.215-7.935 3.13-1.827 8.002a5.01 5.01 0 0 0-.798-.197c-5.105-.86-7.592 3.796-8.527 5.549-1.2 2.242-2.408 5.934-2.52 8.868-.74.872-1.642 1.536-1.947 1.496-.255-.033-.321-.124-.38-.239-.966-1.9 2.062-9.106 4.521-13.617l.94-1.73-9.775.003.288-1.098h-6.02l-.208.904c-1.228 5.272-3.427 12.183-5.36 14.898-.232.325-.433.497-.57.58.12-1.248 1.659-8.215 3.104-14.36l.339-1.438h-6.88l-.292 1.118c-2.23-.823-5.15-.662-7.58 2.07-3.545 3.984-4.878 8.633-3.718 12.85-.515.388-1.65 1.039-2.761 1.565l-1.962.934 1.863 1.121c.006.006 1.24.78 1.929 2.224l.327.683.755-.019c1.261-.031 2.247-.9 2.886-1.569 2.309 1.306 4.838 1.06 6.95-.672 1.907 1.414 4.15 1.54 4.869 1.54 5.901 0 8.16-7.813 9.806-13.521.22-.76.43-1.484.633-2.139h2.26c-.14.34-.284.69-.434 1.05-.658 1.579-1.402 3.37-1.977 5.113-.637 1.943-2.134 6.489.678 8.485 2.771 1.968 6.535.922 9.285-1.042 1.307 1.488 3.223 2.117 4.685 2.053 1.534-.029 2.81-.375 4.001-1.094.74.688 1.6 1.087 2.57 1.182 1.813.176 3.63-.775 5.088-1.889.733 1.149 1.86 1.796 3.262 1.801 1.16.007 2.386-.323 3.58-.923l-.253.923h7.153l2.315-8.473c1.34-5.396 2.68-6.022 2.938-6.095a.346.346 0 0 1 .27.035c-.005.352-.3 1.253-.565 2.062-.24.733-.538 1.643-.844 2.733l-.09.312c-.598 2.117-1.601 5.66-.098 7.825.453.654 1.342 1.46 3.012 1.598 2.29.191 5.14-.874 7.15-2.569 2.867 3.514 6.31 2.638 8.973 1.275.736.815 1.728 1.52 3.425 1.288 1.491-.099 2.856-1 4.009-2.03.916 1.336 2.26 2.063 3.85 2.04 2.582-.037 4.74-1.887 6.438-3.609 2.074 2.412 4.654 4.285 8.749 3.593a19.2 19.2 0 0 0 1.795-.41c1.53-.411 2.163-.582 3.742.753l1.735 1.47.186-2.264c-.002.011.277-1.778 3.302-3.773l1.693-1.114-1.81-.906zm-67.68-43.357c-.809.158-1.202.273-1.752.782-.387.356-.649.856-.79 1.228-1.526.397-3.101.8-4.63 1.19-.348-.206-1.016-.477-2.05-.404-.097-.007-.37-.056-.349-.343.02-.25 5.708-5.4 5.708-5.4 1.59-.325 7.416-3.71 7.416-3.71l1.782.728-.132.293-.254.45-4.613 4.899c-.099.11-.194.26-.335.287m5.337-.06c-.4-.297-.827-.47-1.22-.463-1.478.025-.976-.514-.639-.895l3.955-3.694s3.118 1.296 6.862 2.61a2217.847 2217.847 0 0 1-8.958 2.441m-56.15 43.338c-.015 0-.036 0-.09-.068-.078-.099-.721-1.05.117-4.39.618-2.464 1.527-4.116 2.555-4.65.198-.103.477-.21.872-.194-.53 4.586-1.987 9.302-3.454 9.302m36.438-4.462c-.296 1.179-.6 2.4-.874 3.654-.038.182-.51.556-1.166.618-.236.025-.662.006-.755-.211-.59-1.363.223-5.756 2.134-8.024.562-.668 1.118-1.01 1.656-1.029.022.93-.56 3.247-.995 4.992m41.387 4.5c-.015 0-.038 0-.09-.07-.078-.096-.72-1.049.118-4.39.633-2.516 1.472-4.06 2.498-4.588.347-.178.742-.227 1.178-.174-.603 4.623-2.146 9.223-3.703 9.223m30.128.222c-.27.264-.79.44-1.344.452-.687.015-1.325-.206-1.741-.608-2.127-1.995-2.127-1.995-1.102-3.326.662-.858 1.241-1.658 1.805-2.433.494-.685.965-1.324 1.431-1.927.163 1.191.504 2.297.825 3.334.663 2.136.994 3.408.126 4.508"/><path fill="#fff" d="M60.407 25.105a1.925 1.925 0 0 1-1.768.904 1.91 1.91 0 1 1 .27-3.81c.695.05 1.28.466 1.572 1.049-1.315-.142-1.602 1.129-1.602 1.129-.852-1.044.248-1.646.248-1.646-.732-.097-1.427.462-1.487 1.301a1.525 1.525 0 0 0 1.415 1.629c.568.04 1.056-.145 1.352-.556"/><path fill="#b72126" d="M73.622 5.439c-2.795 2.93-7.225 3.886-11.014 5.48-5.552 2.338-8.436 5.947-9.873 9.434.539.922 3.909 1.007 4.414.707.86-.512 2.026-.769 2.957-.231.68.393 1.048.785 1.358.992.823.351 1.972.641 2.824.44-3.75 3.761-4.182 8.698-3.83 9.533-4.412 0-8.839 5.973-9.646 7.584-4.718 17.77 22.215 29.481 24.888 30.725-1.555 2.485-2.87 4.474-2.754 5.398.093.738.51.758 1.369.584 1.968-1.11 5.44-2.699 6.665-4.119.743-.86-.027-2.111-.391-2.518-.391-.441-.166-.827.734-.277.854.722 1.008 1.123 1.278 1.756.385.916-.717 1.892-.717 1.892 3.031 1.37 13.394 5.447 16.603 6.082l-3.478-5.632c-6.318-2.522-15.203-6.33-20.244-8.832-7.815-3.884-20.751-11.97-14.301-24.358 1.884-3.155 2.6-3.218 2.867-2.48.018.075-.038.287-.117.328-.12.122-.97.94-1.762 2.621-6.062 11.266 6.482 19.341 13.879 22.928 10.709 5.19 20.622 9.188 27.15 11.379 1 .335 1.91.677 2.62.879 1.98.582-.57-6.278-3.07-6.983-13.246-3.893-25.997-9.699-29.528-13.185-2.119-.252-7.775-1.975-8.695-9.637-.037-.207-.027-.385.232-.444.24-.054.338.121.359.227 1.62 6.955 6.359 8.809 8.362 8.857 1.108.026 2.853-1.078 2.396-1.345-3.438-1.995-5.37-6.012-5.506-6.428-.089-.271.012-.345.182-.436.159-.083.343-.017.516.25.887 1.376 4.15 6.752 8.982 6.899 1.278.039 2.684-.006 2.969-1.15 0 0-4.087-1.884-6.092-5.198-.07-.106-.127-.308.131-.465.263-.158.466.113.586.225 3.902 4.003 7.035 5.629 8.93 5.428.766-.049 1.302-.597 1.33-.983.102-1.454-1.369-2.344-1.756-2.607-.056-.037-.086-.169-.022-.254.058-.083.207-.126.403-.031.765.364 2.262 1.44 2.138 3.136-.023.301-.062.501-.289.749 2.214 1.164 5.982 2.662 7.733 3.205-5.371-9.005-11.308-18.472-19.045-23.188-.208.672.439 2.202-.332 1.832-.535-.256-1.002-2.485-1.022-3.49-.101-5.198-1.526-9.533-3.426-12.027-1.051.823-2.959 1.24-2.951 1.252 3.806-3.376 4.295-5.745 4.295-5.745-1.11.858-3.775 2.041-5.162 2.282 0 0 4.343-2.537 6.086-7.063 0-.039-2.771 2.719-6.824 3.635-.002-.006 6.735-3.076 6.611-7.613zm9.563 47.242c-.076.49-.224.956-.996 1.304 7.059 4.196 14.595 6.485 16.248 6.963.34-.244-.522-3.468-2.887-4.306-3.529-1.255-6.469-2.5-8.555-3.81-.736.406-1.829.645-3.81-.151zm-6.967 1.084c-.082.594-1.639 1.472-2.34 1.595 5.076 4.316 22.955 10.973 28.063 12.17.82.192-.37-3.485-2.62-4.992-1.644-1.108-11.975-3.497-18.521-8.21-1.104.18-2.479.223-4.582-.563zm30.453 19.3c.21.458.32 1.05.42 1.6.9 4.26-2.32 1.9-10.541-.867 6.591 10.408 16.631 25.779 22.311 32.967.32-2.12.55-3.98.69-5.19l.12-1.03 1.19-.46-15.48-19.851h1.38s8.82 11.399 15.22 19.416l4.43-1.733c-6.49-6.866-17.29-18.021-17.29-18.021l1.41.037c-.01-.113 20.92 21.622 20.92 21.622 1.15 1.29 3.1-3.08-.04-6.575-1.74-2.778-24.74-21.914-24.74-21.914zm-83.045 17.11c-5.01 0-8.553 2.533-12.703 7.592-5.971 7.278-11.724 25.598-3.81 34.928 2.65 3.13 8.006 6.64 15.263 6.09 7.935-.61 10.09-3.59 16.26.55 2.905-2.29 7.334-1.42 9.873-.83-7.257-12.22-21.143.46-32.522-5.16-3.943-1.95-6.676-6.84-6.769-11.31-.095-4.52.994-9.55 2.652-13.85-.362-.67-.662-1.42-.875-2.22-.875-3.32.226-6.646 2.174-7.396.106-.05.22-.094.344-.126 1.97-.57 3.851-1.056 5.658-1.571a12.316 12.316 0 0 1 1.912-1.42c2.276-1.33 6.627-1.386 9.168.465-1.18 1.387-2.197 3.275-.527 4.828 1.305 1.26 3.454.74 4.338-.756 1.361-2.316.25-4.92-1.362-6.574-1.937-1.935-5.516-3.24-9.074-3.24zm103.68 8.69-1.26 5.82c1.31 1.56 2.19 2.56 2.4 2.65 2.02.9 3.47-3.1 2.69-4.24-.26-.39-1.75-2.01-3.83-4.23zm-54.197.454-5.234 2.066-2.111 9.25s-.019-.87-1.711-1.16c-3.721-.62-5.785 2.11-7.301 4.95-1.133 2.12-2.393 5.95-2.393 8.75 0 0-1.834 2.41-3.256 2.23-4.882-.64 3.264-15.58 3.264-15.58h-9.326l.291-1.1h-3.576c-.988 4.25-3.25 12.09-5.545 15.32-1.244 1.75-2.657 1.26-2.697.05-.041-1.24 3.142-14.78 3.142-14.78h-4.5l-.426 1.63c-1.262-.81-4.554-2.12-7.476 1.17-3.821 4.29-4.457 8.85-3.311 12.28.159.65-3.541 2.41-3.541 2.41s1.521.91 2.383 2.72c1.418-.04 2.613-1.99 2.766-1.89 2.184 1.65 4.858 1.63 7.076-.75 1.352 1.42 3.372 1.94 4.892 1.94 6.063 0 7.888-10.67 9.588-15.66h4.825c-.705 1.93-2.094 4.9-3.016 7.7-.967 2.93-1.555 5.88.244 7.16 2.762 1.96 6.663.17 8.859-1.78.922 1.78 2.844 2.64 4.385 2.58 1.699-.03 2.98-.47 4.24-1.47 2.35 3.24 5.937.77 7.913-1.07.344 1.36 1.197 2.53 2.824 2.54 1.925.01 3.96-1.06 5.549-2.58l-.698 2.58h4.729l2.08-7.61c2.291-9.23 5.123-6.78 5.348-6.41.524.81-.342 2.36-1.293 5.76-.661 2.37-2.422 7.91 1.795 8.26 2.415.2 5.58-1.29 7.21-3.19 2.405 3.87 5.295 3.76 9.105 1.57.83 1.07 1.45 1.83 2.99 1.62 1.77-.08 3.52-1.82 4.48-2.82.54 1.54 1.66 2.85 3.51 2.82 2.57-.04 4.85-2.44 6.53-4.2 2.26 2.93 4.55 4.86 8.48 4.2 2.75-.47 3.82-1.65 6.48.6 0 0 .19-2.25 3.83-4.65-2-1-4.02-.74-5.15-.39 1.27-2.33-.43-5.58-1.04-7.86-.54-2.06-.9-3.52-.14-5.61.34-.93-2.39-2.11-2.84-2.31-2.33.9-12.31 14.52-13.35 15.39-.48.41-1.62 1.07-.93-1.93 0 0 5.01-22.722 4.98-22.746l-5.29 2.066c-.6 5.02-2.17 19.18-6.98 22.14-.44.27-1.9 1.35-2.33.5-.24-.46 3.11-14.64 3.14-14.79h-4.25l-.33 1.29c-.7-1.29-2.47-1.29-3.6-1.08-8.057 1.51-8.185 13.48-8.455 13.89-2.335 2.88-4.437 2.15-4.375.38.107-3.05 3.783-11.19 2.159-13.27-1.788-2.29-5.471-.65-7.315 1.33l.568-2.45h-4.464c-.642 3.1-2.968 11.95-4.891 14.2-1.013 1.18-3.591 1.53-3.479.27.128-1.46 3.768-14.49 3.768-14.49H75.4s-2.318 10.35-4.205 13.64c-1.615 2.82-3.686 1.58-3.566-.06.223-2.99 5.48-23.566 5.48-23.566zm6.467.746a2.604 2.604 0 0 0-2.601 2.6c0 1.44 1.164 2.6 2.601 2.6a2.6 2.6 0 1 0 0-5.2zm46.13 6.24-1.03 4.74c1.69-.05 3.39-1.52 2.55-2.78l-1.52-1.96zm9.12 6.58c-1.2 4.83 3.07 8.7.54 11.81-1.01 1.05-3.41 1.2-4.77-.1-2.76-2.59-2.71-2.96-1.22-4.88 2.14-2.78 3.53-5.11 5.45-6.83zm-70.951.13c.238-.01.482.01.73.07 1.383.34-.303 5.1-1.365 10-.329 1.53-3.428 2.26-4.135.62-1.109-2.56 1.202-10.5 4.77-10.69zm-33.809.16c.37.02.765.11 1.186.27 0 0-.967 11.37-4.719 11.37-1.176 0-2.192-1.58-1.103-5.91.684-2.74 2.048-5.86 4.636-5.73zm77.98.1c.4.03.83.13 1.3.31 0 0-1.14 11.27-4.99 11.27-1.17 0-2.19-1.58-1.1-5.91.68-2.74 1.98-5.9 4.79-5.67z"/><path fill="#fee60e" d="M51.597 22.054c-3.647 2.237-5.287 6.385-5.287 6.385 3.209-.686 3.712-1.606 6.154-1.395.871.076 1.283.473 1.976.984-1.061-.24-1.88-.293-2.773-.314-1.241-.029-3.696.843-4.943.967 0 0 4.09 1.761 5.347 1.947 0 0 2.64 1.038 3.403-2.305.414-1.814-.955-4.439-2.715-3.705-.018.008.315-1.911-1.162-2.564zm73.034 45.025a1.05 1.05 0 0 0-.26.018c-.85.159-.88 1.127-.88 1.127s.14.861-.83 1.584c-.48.366-1.94 1.008-4.29 1.474l-9.04 2.571 2.75 2.31 9.28-2.992s3.43-.857 3.43-2.473c0-2.488 1.3 2.247.77 3.186 0 0 .44.421 1.2-.129.75-.55.61-2.061-.14-4.189-.67-1.865-1.37-2.453-1.99-2.487zM93.112 78.372l-9.463 2.586-.224.074c1.065 1.308 1.613 3.412.183 4.807.868-.312 2.008-.727 2.008-.727a701.72 701.72 0 0 1 13.619-4.714l.057-.016-.18-.275c-1.845-.411-3.964-1.055-6-1.735zM81.356 81.65c-.36.089-.663.148-.841.146-.57.147-7.811 2.025-9.418 2.443 1.679 1.47 1.96 4.476-.022 6.194 4.064-1.515 8.676-3.195 11.203-4.112l.51-.185c.581-1.062.55-3.175-.523-4.051-.24-.196-.581-.335-.909-.435zm-13.074 3.347a3.766 3.766 0 0 1-.193.004c-.726.184-1.317.33-1.317.33-2.684.668-4.557 1.109-5.564 1.311-5.475 1.1-13.784 3.22-26.91 6.867 1.394 1.882 2.245 4.562.769 7.076a4.188 4.188 0 0 1-3.025 2c-1.164.16-2.304-.2-3.113-.98-.928-.86-2.078-2.632-.399-5.321-.672-.288-1.42-.459-2.185-.545l-12.717 3.627c-.064.02-.128.034-.191.051-1.631.588-2.367 3.498-1.637 6.268.751 2.85 2.671 5.03 4.412 4.57 1.737-.46 2.412-3.32 1.66-6.16-.288-1.1-.524-1.84-1.082-2.63 0 0 1.192.99 1.754 3.42.48 2.08.405 3.75-.178 4.88 22.364-7.55 37.584-13.085 45.233-16.442.898-.395 2.934-1.189 6.05-2.357l.553-.205c.713-1.238.853-4.21-.623-5.252-.345-.246-.865-.409-1.297-.512z"/></svg>