<svg xmlns="http://www.w3.org/2000/svg" xml:space="preserve" style="enable-background:new 0 0 324 255.622" viewBox="0 0 324 255.622"><path d="M13.824 249.299zM96.415 195.814l-81.049 51.052-.001.002z" style="fill:#3ec1cd"/><path d="m111.379 243.061-12.902-26.539.35-.577 72.559-119.341 24.056.007 27.4 122.564-17.728 23.978h80.393L234.113 12.449h-56.851l13.646 20.955-36.436 16.391 15.694 27.178-47.877 22.906 16.021 29.698-49.544 31.22 15.26 37.442-72.657 45.053.373-.231zM176.458 11.213l.799 1.229-.79-1.229z" style="fill:#a71930"/><path d="M293.585 249.39 239.473 6.074l-66.395-.036 3.38 5.175.799 1.229.005.007h56.851l51.394 230.704h-80.393l17.728-23.978-27.4-122.564-24.056-.007-72.559 119.341-.35.577 12.902 26.539H31.742l-.373.231-3.527 2.186-.087.054-6.216 3.851h100.836l-15.959-32.899 68.468-114.182h14.911l25.854 115.329-23.226 31.784z"/><path d="m145.621 46.833 36.771-16.346-15.461-22.723-1.175-1.726L11.371 249.383l3.995-2.517 81.049-51.052-15.549-36.987 49.421-30.977L113.2 97.213l47.896-23.117z"/><path d="M188.66 153.194h-30.905s2.325 9.162 2.854 11.203c-1.415 2.443-18.882 32.654-18.882 32.654s24.896-20.58 28.429-23.491c2.441 2.952 20.03 24.283 20.03 24.283s-8.701-29.08-9.533-31.849c1.288-2.067 8.007-12.8 8.007-12.8z" style="fill:#a71930"/><path d="m207.841 216.219-28.646 39.403h122.372L244.637.967 244.42 0l-82.902.059L0 255.616h132.89l-18.649-39.199 37.12-62.304 2.506 9.861-31.088 53.657 46.626-34.606 31.263 34.606-12.98-50.154 7.123-11.393 13.03 60.135zm-37.685-42.66c-3.533 2.911-28.429 23.491-28.429 23.491s17.467-30.211 18.882-32.654c-.529-2.041-2.854-11.203-2.854-11.203h30.905s-6.719 10.733-8.008 12.8c.833 2.769 9.533 31.849 9.533 31.849s-17.588-21.331-20.029-24.283zm-14.763-26.213 23.375-39.234h5.649l8.501 39.234h-37.525zM11.371 249.383 165.756 6.038l1.175 1.727 15.462 22.723-36.771 16.346 15.475 27.262L113.2 97.213l17.087 30.637-49.421 30.977 15.55 36.987-81.05 51.054.001-.002-3.996 2.517zm111.004 0H21.539l82.487-51.144-15.26-37.442 49.544-31.22-16.021-29.698 47.877-22.906-15.693-27.178 36.436-16.391-13.646-20.955-.005-.008-.8-1.228-3.38-5.176 66.395.036 54.112 243.316-101.162.025 23.225-31.784-25.854-115.328h-14.911l-68.468 114.182 15.96 32.899z" style="fill:#3ec1cd"/><path d="m321.368 248.119-1.816 4.89h-.041l-1.738-4.89h-2.664v7.503h1.533v-5.971h.035l2.109 5.971h1.477l2.173-5.971h.032v5.971H324v-7.503zM307.677 249.452h2.268v6.17h1.535v-6.17h2.26v-1.333h-6.063z"/></svg>