<svg xmlns="http://www.w3.org/2000/svg" width="414.87201" height="430" viewBox="0 0 414.87201 430.00001"><path fill="#005a9c" d="M385.946 182.393c-11.986 18.162-44.991 30.885-140.966 65.827.83-6.085 2.398-17.056 3.596-24.432 2.12-3.78 4.702-7.836 7.468-11.893l.737-1.106a79.57 79.572 0 0 1 6.823-8.574c2.212 3.688 5.624 8.666 12.723 8.482 23.786-.646 34.204-45.176 37.891-62.601a26.062 26.063 0 0 0 5.809.645c-1.66 5.624-14.936 35.772 2.673 40.843 17.517 5.163 28.304-43.332 31.439-53.842 10.694 12.354 8.02 25.354 2.581 28.027-2.766 1.383-5.9-2.858-9.035.092-4.61 4.426-1.567 11.71 4.794 12.816 9.127 1.475 15.12-4.702 21.113-11.064 1.936-1.936 9.035-6.27 13.368-3.135 6.638 4.518 1.844 15.581-1.014 19.915zm-157.284 36.601c-9.68 1.844-6.546-35.956 7.836-37.708 2.766-.276 5.624 3.043 5.071 8.575a84.45 84.452 0 0 1-2.858 15.212c-1.844 5.716-4.886 13-10.05 13.921zm56.33-58.912c7.192 3.595-5.347 18.715-11.063 24.892.922-13.921 7.837-26.552 11.064-24.892zm-51.628 92.01s-3.32 1.476-4.886 2.029c2.212-3.227 6.177-10.695 7.006-12.078-.368 2.49-2.12 10.05-2.12 10.05zm-16.134 44.992c-6.362 1.106-3.135-15.028 1.844-22.773 6.453-2.489 11.893-5.07 11.893-5.07-3.32 15.95-6.177 26.46-13.737 27.843zm-24.893-87.125c-.092 1.66-1.936 16.042-2.397 17.61-1.751 7.283-5.44 12.538-10.602 12.261-8.85-.276-4.886-37.615 7.744-36.325a5.482 5.483 0 0 1 5.255 6.454zm-57.805 51.445c-7.192-1.475-6.915-20.744-1.937-29.226 3.227 5.9 11.801 6.546 16.964 5.809.369 8.39-6.085 25.169-15.027 23.417zm14.75-32.453a13.513 13.513 0 0 1-4.61.37c-3.595-.37-6.268-2.121-6.545-3.596-1.752-8.206 10.787-7.007 11.156 3.226zM397.84 162.11c-4.241-12.078-20.375-9.681-24.432-5.901 0-15.858-8.02-20.19-16.41-29.963-1.844-6.823 3.595-9.128 4.333-14.936 1.475-11.893-17.148-8.482-11.893 15.857-2.213 11.34-14.198 46.098-20.468 47.02-3.595.461-3.872-5.347-1.936-12.262 1.844-6.915 11.801-19.453 5.624-25.815-3.595-3.688-10.233 1.844-16.226-1.475 0 0 .184-4.978-1.383-6.822a4.29 4.29 0 0 0-5.9 0c-4.518 3.503-4.702 13.091-2.305 17.886-1.844 11.893-3.32 16.687-9.127 32.637-5.9 16.503-20.007 24.34-23.233 14.29 28.211-27.105 21.942-37.523 17.516-41.211-7.283-5.993-29.778 4.794-30.885 38.998a32.179 32.179 0 0 0 .461 4.887c-2.212 2.673-6.084 7.468-11.063 14.29 2.305-15.12 5.532-37.155 6.638-45.268a31.55 31.55 0 0 1-11.893 4.426l-.83 5.623c-5.992-9.035-34.02-.553-33.005 43.701-1.383 13.645-8.667 15.12-8.943 11.893-.922-16.134 9.127-63.799 12.538-81.04a31.648 31.648 0 0 1-11.708 3.78s-8.667 43.886-8.851 43.886a11.388 11.388 0 0 0-11.063-2.305c-10.51 2.49-18.716 17.333-19.269 26.737a24.544 24.545 0 0 1-6.177 4.61c-1.29-5.625-3.872-10.788-9.68-12.54-19.085-5.808-34.758 22.496-29.687 49.141a22.435 22.435 0 0 0 9.035 12.17c13.46 6.638 30.977-11.525 31.162-39.829a17.666 17.666 0 0 0 4.978-5.162c-1.198 8.574 1.475 24.616 11.156 25.999 10.418 1.567 16.226-10.88 17.793-16.135a8.8 8.8 0 0 0 8.298 5.809c8.943-.369 11.708-11.71 13.368-16.595 7.836 12.538 20.56 1.014 23.417-6.362l-1.014 6.085c-7.191 8.666-20.56 30.148-20.56 30.148-24.892 9.035-73.294 26.921-93.208 56.792a69.357 69.358 0 0 1 30.148.922c3.227-8.758 22.956-26.368 51.997-36.048-7.099 14.382-5.716 35.587 6.454 35.403 21.02-.461 27.935-36.602 30.885-50.339 18.716-8.02 52.09-20.928 87.032-35.864 32.36-13.922 78.826-37.247 68.316-67.118zM17.906 315.984c-1.383-3.411 7.928-11.524 16.226-11.893-3.227 5.531-14.936 15.304-16.226 11.893zM.389 236.788c-1.475 13.553 1.014 22.68 11.524 27.013 7.744 3.227 16.687-3.595 19.176-7.468a30.227 30.228 0 0 0 4.794-13s-14.658 14.107-23.14 1.2c-4.887-7.468-2.305-29.595 26.46-45.269 28.764-15.58 43.054-2.858 43.054-2.858 17.333 9.773 18.07 38.815 13 61.31-3.872 16.78-11.801 34.39-29.871 37.708-6.73 1.199-9.312.461-15.489.277a97.943 97.944 0 0 0 7.837-32.453c4.333-52.92 10.049-57.99 15.304-65.92-39.09 19.915-27.843 87.494-35.495 98.65-28.672 4.24-35.218 27.658-29.502 31.346 4.333 2.766 23.786-2.49 37.062-23.97 9.588-.185 40.289 8.297 59.004-25.816 12.631-23.049 16.688-63.338-3.687-83.252C71.194 165.52 4.998 194.93.389 236.788Z" style="stroke-width:1"/><path fill="#fff" d="M285.53 69.441a34.51 34.51 0 0 0 14.935-18.899 33.984 33.984 0 0 0-1.199-24.154 34.463 34.463 0 0 0-13.736 43.053z" style="stroke-width:1"/><path fill="#fff" d="M257.044 72.76a31.97 31.97 0 0 0 10.601 1.752 34.409 34.41 0 0 0 13-2.581 39.848 39.849 0 0 1 16.132-50.337 34.472 34.472 0 0 0-29.131-16.133 35.947 35.948 0 0 0-13.368 2.581 39.226 39.227 0 0 1 1.383 28.026 39.51 39.51 0 0 1-17.424 22.034 34.256 34.257 0 0 0 18.807 14.658z" style="stroke-width:1"/><path fill="#fff" d="M250.498 34.409a34.343 34.343 0 0 0-1.014-23.878 34.493 34.494 0 0 0-13.736 42.685 34.066 34.066 0 0 0 14.75-18.807Z" style="stroke-width:1"/><path fill="#ef3e42" d="M295.155 75.618a2.663 2.663 0 0 0-3.134 2.213l-10.417 56.697a2.74 2.74 0 0 0 2.12 3.227h.553a2.754 2.754 0 0 0 2.674-2.213l10.417-56.697a2.802 2.802 0 0 0-2.213-3.227zm-22.677 12.907a2.74 2.74 0 0 0-3.227 2.12l-12.722 56.698a2.787 2.787 0 0 0 2.12 3.226c.185 0 .37.093.554.093a2.754 2.754 0 0 0 2.673-2.213l12.63-56.605a2.748 2.748 0 0 0-2.028-3.32zm-12.814 183.829a2.852 2.852 0 0 0-3.227 2.212l-10.14 52.641a2.71 2.71 0 0 0 2.212 3.135 1.169 1.169 0 0 0 .553.092 2.753 2.754 0 0 0 2.581-2.305l10.233-52.549a2.802 2.802 0 0 0-2.212-3.226zm-39.825 51.995a2.884 2.884 0 0 0-3.319 2.12l-8.02 36.047a2.748 2.748 0 0 0 2.028 3.32h.645a2.646 2.646 0 0 0 2.582-2.121l8.112-36.14a2.655 2.655 0 0 0-2.028-3.226zm33.648-237.484a2.81 2.81 0 0 0-3.41 1.844l-21.48 69.512a2.617 2.617 0 0 0 1.751 3.411 1.37 1.37 0 0 0 .83.185 2.737 2.738 0 0 0 2.581-1.936l21.48-69.512a2.826 2.826 0 0 0-1.752-3.504zM188.22 298.167a2.724 2.724 0 0 0-3.411 1.752l-5.162 16.686a2.826 2.826 0 0 0 1.751 3.503c.277 0 .553.093.83.093a2.655 2.655 0 0 0 2.581-1.936l5.163-16.687a2.724 2.724 0 0 0-1.752-3.411zM178.17 330.71a2.703 2.703 0 0 0-3.411 1.844l-29.04 93.85a2.724 2.724 0 0 0 1.752 3.412 2.69 2.69 0 0 0 .83.184 2.982 2.983 0 0 0 2.674-1.936l28.946-93.943a2.724 2.724 0 0 0-1.751-3.41zm37.059-200.423a2.455 2.455 0 0 0 1.106.277 2.708 2.708 0 0 0 2.489-1.66l20.281-46.28a2.724 2.724 0 0 0-4.978-2.212l-20.281 46.28a2.828 2.828 0 0 0 1.383 3.595zm-84.72 193.786a2.697 2.697 0 0 0-3.595 1.382l-14.658 33.466a2.668 2.668 0 0 0 1.383 3.595 2.454 2.455 0 0 0 1.106.277 2.807 2.807 0 0 0 2.49-1.66l14.657-33.465a2.668 2.668 0 0 0-1.383-3.595zm94.584-268a2.713 2.713 0 0 0-3.688 1.015l-28.301 50.89a2.799 2.8 0 0 0 1.014 3.779 3.7 3.7 0 0 0 1.383.276 2.535 2.535 0 0 0 2.304-1.382l28.302-50.89a2.713 2.713 0 0 0-1.014-3.687zM147.84 200.26l41.76-74.674a2.745 2.745 0 0 0-1.106-3.688 2.713 2.713 0 0 0-3.687 1.014l-41.76 74.767a2.666 2.666 0 0 0 1.106 3.687 2.116 2.117 0 0 0 1.29.37 2.763 2.763 0 0 0 2.397-1.476zM83.587 310.705a2.854 2.854 0 0 0-3.78 1.106l-21.663 38.997a2.745 2.745 0 0 0 1.106 3.688 3.253 3.253 0 0 0 1.29.276 2.576 2.576 0 0 0 2.397-1.383l21.664-38.996a2.713 2.713 0 0 0-1.014-3.688ZM255.7 36.068a39.225 39.227 0 0 0-1.383-28.026 35.946 35.948 0 0 1 13.367-2.581 34.47 34.472 0 0 1 29.13 16.133 39.847 39.85 0 0 0-16.132 50.336 34.408 34.41 0 0 1-12.998 2.582 31.969 31.97 0 0 1-10.602-1.752 34.255 34.257 0 0 1-18.806-14.658A39.509 39.51 0 0 0 255.7 36.068Zm-20.927-6.73a34.645 34.647 0 0 1 14.75-18.807 34.32 34.32 0 0 1 1.014 23.878 34.065 34.066 0 0 1-14.75 18.807 34.748 34.75 0 0 1-1.014-23.878zm65.73 21.204a34.509 34.51 0 0 1-14.935 18.9 34.462 34.463 0 0 1 13.736-43.054 33.983 33.984 0 0 1 1.198 24.154zm2.673-28.856a39.962 39.964 0 1 0-47.753 56.33 39.855 39.856 0 0 0 50.242-25.814 39.506 39.508 0 0 0-2.49-30.516Z" style="stroke-width:.999996"/><path fill="#005a9c" d="M409.204 188.122h-1.763v-1.558h1.484c.65 0 1.485 0 1.485.733 0 .642-.464.825-1.206.825zm2.505-.733c0-1.742-1.02-2.017-2.505-2.017h-3.155v6.509h1.392v-2.567h1.113l1.485 2.567h1.484l-1.577-2.567a1.71 1.69 0 0 0 1.763-1.925z" style="stroke-width:1"/><path fill="#005a9c" d="M408.617 193.587a4.876 4.904 0 0 1 0-9.805 4.875 4.903 0 1 1 0 9.805zm0-11.193a6.209 6.244 0 1 0 6.255 6.29 6.203 6.238 0 0 0-6.255-6.29z" style="stroke-width:.999995"/></svg>