<svg xmlns="http://www.w3.org/2000/svg" width="300" height="159.94" viewBox="0 0 300 159.94368"><path fill="none" stroke="#c49d6e" stroke-width="5.0338" d="M147.79 156.43c42.228 0 76.455-34.23 76.455-76.455S190.018 3.52 147.79 3.52c-42.217 0-76.455 34.23-76.455 76.455s34.238 76.455 76.455 76.455z"/><path fill="#fff" d="M147.79 156.43c42.228 0 76.455-34.23 76.455-76.455S190.018 3.52 147.79 3.52c-42.217 0-76.455 34.23-76.455 76.455s34.238 76.455 76.455 76.455"/><path fill="#e8d8c4" d="m72.622 90.401-.563.084a71.94 71.94 0 0 1-.268-2.187c.162.042.5.073.848.073.703 0 .97.705.97 1.043 0 .343-.195.987-.987.987m151.63-10.431c0 42.225-34.227 76.455-76.455 76.455-12.842 0-24.946-3.17-35.571-8.768l.109-.254-.357-.354-.343.293a75.86 75.86 0 0 1-9.566-6.105l.009-.044-.455-.452-.17.03a51.721 51.721 0 0 1-1.595-1.252l.195-.399c0-.276-.22-.499-.5-.499l-.448.28c-.516-.43-1.03-.865-1.54-1.314a.54.54 0 0 0 .463-.539.549.549 0 0 0-.544-.546.548.548 0 0 0-.549.53c-.538-.48-1.063-.97-1.592-1.464l.07.008a.597.597 0 0 0 0-1.194.597.597 0 0 0-.597.597l.01.095a72.023 72.023 0 0 1-1.539-1.528l.056.005a.64.64 0 0 0 .636-.647.643.643 0 0 0-.636-.644.654.654 0 0 0-.653.644l.012.045a53.58 53.58 0 0 1-1.336-1.43.692.692 0 0 0-.095-1.376.697.697 0 0 0-.678.53c-.36-.41-.72-.825-1.076-1.244a.73.73 0 0 0 .424-.666.745.745 0 0 0-.74-.742.746.746 0 0 0-.604.31c-.318-.39-.634-.787-.946-1.183l.17-.452a.695.695 0 0 0-.697-.694l-.296.07a75.275 75.275 0 0 1-5.778-8.796c.354-.037.865-.243.865-.937 0-.893.103-1.024 1.079-1.024.5 0 .962.421.962 1.024 0 .602-.262 1.093-.97 1.093-.712 0-.982.295-.982.979 0 .68.544.981.982.981s.978-.3.978-.981c0-.684.441-.943 1.1-.943.392 0 .917.469.917.943 0 .471-.131 1.048-.926 1.048-.89 0-1.024.313-1.024 1.021 0 .658.502 1.02 1.024 1.02.99 0 1.02-.022 1.02-1.02 0-.658.397-.918 1.06-.918.165 0 .887.313.887.918 0 .421-.072.945-.887.945-1.015 0-1.06.078-1.06 1.127 0 .34.24 1.054 1.05 1.054.992 0 1.009.02 1.009 1.018 0 .421.122 1.065 1.068 1.065.937 0 .976.009.976 1.007 0 .34.15 1.082 1.093 1.082 1.03 0 1.004.037 1.004.985 0 .477.279 1.065 1.068 1.065 1.001 0 1.06-.12 1.06-1.065 0-.497.284-.89 1.02-.89.383 0 .89.393.89.89 0 .633-.29 1.02-.9 1.02-.977 0-1.05.162-1.05 1.052 0 .683.48 1.054 1.05 1.054.571 0 1.05-.424 1.05-1.054 0-.421.252-.89 1.03-.89.362 0 .887.41.887.893 0 .34-.04.995-.887.995-.837 0-1.03.078-1.03 1.071 0 .868.712 1.027 1.021 1.027.304 0 1.013-.21 1.013-1.027 0-.6.488-.942 1.068-.942.438 0 .965.326.965.942 0 .974-.405 1.093-.976 1.093-.778 0-.982.09-.982.982 0 .865.722.985.982.985.256 0 .979-.12.979-.985 0-.867.153-1.023 1.101-1.023.505 0 1.043.499 1.043 1.023 0 1.02.053 1.077 1.03 1.077.76 0 1.014.128 1.014.992 0 .712.034 1.08 1.057 1.08 1.027 0 1.018.047 1.018.993 0 .47.084 1.101 1.054 1.101s1.066-.758 1.066-1.101c0-.34.212-.99.99-.99.78 0 .99.596.99.99 0 .964-.05.99-.99.99-.845 0-.91.741-.91 1.082 0 .343.288.942.924.942.84 0 1.018-.496 1.018-.942 0-.993.036-1.038 1.04-1.038.73 0 1.037.485 1.037 1.038 0 .836.226 1.032 1.035 1.032 1.124 0 1.113-.037 1.113-1.038 0-.343.2-.96.959-.96.753 0 .954.62.954.96 0 .34-.056.96-.954.96-.895 0-1.035.094-1.035 1.115 0 .68.363.945 1.052.945.675 0 1.045-.13 1.045-.945s.728-1.007 1.007-1.007c.285 0 1.01.248 1.01 1.007 0 .92.072.998 1.06.998 1.012 0 1.07.02 1.07 1.074 0 .602.257.943 1.018.943.762 0 .985-.207.985-.943 0-.73.655-1.043 1.07-1.043s1.044.312 1.044 1.043c0 .736.114 1.102 1.043 1.102 1.048 0 1.04-.16 1.04-1.102 0-.521.387-1.015 1.015-1.015.633 0 1.018.36 1.018 1.015 0 1.08.022 1.077 1.068 1.077 1.051 0 1.043.05 1.043.995 0 .734.505.94 1.029.94.522 0 1.046-.178 1.046-.94 0-.758.003-.97 1.026-.97 1.018 0 1.038.265 1.038.97 0 .709.323.94 1.029.94.708 0 1.07-.178 1.07-.94 0-.758.062-.995 1.005-.995.942 0 1.037.262 1.037.995s.326.94 1.032.94c.705 0 1.065-.128 1.065-.94 0-.89.056-.995 1.007-.995 1.049 0 1.065.128 1.065.995s.374.94 1.004.94c.628 0 1.093-.05 1.093-.94s.006-.995.974-.995c.979 0 1.051.078 1.051.995 0 .628.602.918 1.02.918.425 0 1.077-.235 1.077-.918 0-.97-.083-1.085-1.073-1.085-.988 0-.985-.067-.985-.987 0-.55.346-.987.985-.987.635 0 .99.41.99.987 0 1.052.083 1.102 1.079 1.102s1.057-.025 1.057-1.102c0-.521.351-1.015 1.018-1.015.66 0 1.015.438 1.015 1.015 0 .973.424 1.102 1.054 1.102.63 0 1.03-.315 1.03-1.102 0-.784.64-1.043 1.045-1.043.984 0 1.04.1 1.04 1.043 0 .842.714.973 1.03.973.314 0 .995-.214.995-.973 0-1.018-.084-1.087-.996-1.087-.906 0-.981-.112-.981-.985 0-.524.315-.984.981-.984.658 0 .988.432.988.984 0 .97.108.998 1.079.998.984 0 1.065-.027 1.065-.998 0-.577.399-1.007 1.004-1.007.616 0 1.012.301 1.012 1.007 0 .708.645.998 1.069.998.412 0 1.029-.237 1.029-.998 0-1.074-.126-1.115-1.038-1.115-.516 0-.956-.27-.956-.96 0-.686.538-.96.956-.96.424 0 .962.257.962.96 0 .97.112 1.038 1.116 1.038 1.001 0 1.029-.117 1.029-1.032 0-.45.248-1.038 1.04-1.038.97 0 1.035.123 1.035 1.038 0 .471.382.942 1.037.942.656 0 .993-.577.993-.942 0-.787-.455-1.082-.993-1.082-.903 0-.984.002-.984-.99 0-.762.583-.99.984-.99.831 0 .993.156.993.99 0 .786.764 1.073 1.074 1.073.32 0 1.07-.125 1.07-1.073 0-.946.084-.993 1.005-.993.914 0 1.065-.368 1.065-1.08 0-.708.084-.992 1.004-.992 1.102 0 1.068-.1 1.068-1.077 0-.209.343-.998 1.007-.998 1.046 0 1.085.159 1.085.998 0 .497.295.985.981.985.684 0 .988-.488.988-.985 0-.502-.313-.981-.988-.981-.884 0-1.023-.129-1.023-1.094 0-.513.638-1.018 1.023-1.018.904 0 1.049.447 1.049 1.018 0 .452.287 1.027 1.023 1.027.745 0 1.021-.525 1.021-1.027 0-.493-.32-1.018-1.02-1.018s-.846-.63-.846-1.048c0-.547.34-.946.845-.946.709 0 1.021.265 1.021.943 0 .683.443 1.054 1.049 1.054.608 0 1.051-.424 1.051-1.054 0-.627-.404-1.051-1.051-1.051-.653 0-.974-.494-.974-1.021 0-.519.477-.862.974-.862.499 0 1.006.128 1.006.862 0 .736.533 1.065 1.069 1.065.53 0 1.062-.357 1.062-1.065 0-.706-.544-1.063-1.062-1.063-.516 0-1.004-.376-1.004-1.004 0-.34.502-.87 1.004-.87.8 0 .981.137.981.87 0 .6.427 1.083 1.088 1.083.66 0 1.082-.43 1.082-1.083 0-.658-.41-1.084-1.082-1.084-.672 0-.895-.544-.895-.988 0-.329.407-.867.895-.867.917 0 1.007.34 1.007.867 0 .527.217 1.066 1.062 1.066.845 0 1.065-.645 1.065-1.066 0-.942-.192-1.065-1.065-1.065-.803 0-.845-.742-.845-1.007 0-.26.064-.842.845-.842.79 0 1.018.318 1.018.842 0 .912.12 1.055 1.051 1.055.692 0 1.057-.502 1.057-1.055 0-.795-.097-1.054-1.057-1.054-.669 0-.89-.756-.89-1.018 0-.505.467-.887.89-.887 1.024 0 1.057.497 1.057.887 0 .848.081 1.02 1.021 1.02.87 0 1.018-.758 1.018-1.02s-.14-1.02-1.018-1.02c-.733 0-.954-.265-.954-1.05 0-.58.444-1.023.954-1.023 1.099 0 1.09.606 1.09 1.024 0 .418.182.982.98.982.794 0 .978-.667.978-.982 0-.318-.2-.979-.979-.979-.78 0-.978-.881-.978-1.093 0-.21.264-1.024.978-1.024 1.102 0 1.096-.053 1.096-1.045 0-.684.288-1.024.974-1.024.995 0 1.126-.212 1.126-1.051 0-.837.023-.99.949-.99.468 0 1.12-.215 1.12-1.08 0-.864-.604-1.032-1.12-1.032-.522 0-1.038-.304-1.038-1.037 0-.733.558-1.037 1.038-1.037.948 0 1.04.086 1.04 1.037 0 .786.351.945 1.029.945.683 0 .99-.446.99-.945 0-.5-.232-1.032-.99-1.032-.926 0-1.038-.053-1.038-1.037 0-.474.243-1.04 1.038-1.04 1.054 0 1.068-.118 1.068-1.032 0-.92 0-1.052 1.001-1.052.658 0 1.043-.471 1.043-1.02s-.212-1.066-1.043-1.066c-.834 0-1.007-.613-1.007-1.007 0-.39.24-1.006 1.007-1.006 1.026 0 1.096-.12 1.096-1.063 0-.945.025-1.051.97-1.051.564 0 1.03-.5 1.03-1.021 0-.527-.33-1.026-1.03-1.026s-.97-.522-.97-1.046c0-.522.586-1.049.97-1.049.397 0 1.183-.028 1.183-1.02 0-.996-.502-1.088-1.182-1.088-.672 0-.976-.488-.976-.987 0-.494.292-.982.976-.982.984 0 .99.04.99.982 0 .343.293 1.02 1.087 1.02.787 0 1.024-.73 1.024-1.02 0-.285-.19-1.018-1.024-1.018-1.02 0-.948-.318-.948-1.052 0-.733.131-1.048.948-1.048.812 0 1.043-.396 1.043-1.024 0-.63-.175-1.02-1.043-1.02-.864 0-.981-.472-.981-1.046 0-.58.298-1.049.981-1.049.68 0 1.116-.29 1.116-1.023 0-.74-.282-1.035-1.116-1.035-.828 0-1.04-.725-1.04-1.037 0-.318.22-1.038 1.04-1.038.82 0 1.15-.298 1.15-1.034 0-.734-.294-1.054-1.15-1.054-.856 0-1.04-.779-1.04-1.043 0-.26.112-1.038 1.04-1.038.92 0 1.15-.298 1.15-1.007 0-.708-.316-1.051-1.15-1.051-.6 0-.981-.287-.981-1.018 0-.736.298-1.051.981-1.051.68 0 1.116-.39 1.116-1.021s-.304-1.077-1.116-1.077c-.817 0-1.004-.025-1.004-.998 0-.968.184-1.074 1.004-1.074.477 0 1.024-.315 1.024-1.023 0-.706-.508-1.018-1.024-1.018s-1.048.39-1.048 1.018c0 .862-.017 1.023-1.03 1.023-.724 0-1.014-.6-1.014-1.023 0-.421.231-1.018 1.015-1.018 1.004 0 1.149-.078 1.149-1.026 0-.943-.182-1.046-1.15-1.046-.73 0-.97-.655-.97-1.02 0-.372.206-1.083.97-1.083.77 0 1.03-.65 1.03-1.018s-.14-1.018-1.03-1.018c-.875 0-.945-.03-.945-1.026s-.025-1.074-1.12-1.074c-.547 0-.899-.602-.899-.998 0-.39.117-1.077.898-1.077.787 0 1.121-.39 1.121-.995 0-.6-.658-1.13-1.12-1.13-.779 0-.944-.253-.944-.937 0-1.101-.005-1.051-1.126-1.051-.678 0-1.03-.552-1.03-1.024 0-.471.294-1.101 1.03-1.101s.99-.5.99-.968c0-.474-.022-1.104-.99-1.104s-1.247.683-1.247 1.104c0 .421-.25.837-.823.837-.577 0-.828-.5-.828-.837 0-.653.396-.892.828-.892.94 0 1.122-.366 1.122-1.177 0-.815-.452-1.105-1.122-1.105-.34 0-.976.028-.976-.967 0-.999-.03-1.077-1.098-1.077-.527 0-1.055-.315-1.055-.995 0-.684.472-1.08 1.055-1.08.588 0 1.026-.312 1.026-1.023 0-.709-.586-1.021-1.026-1.021-.438 0-1.021.265-1.021 1.02 0 .762-.418 1.052-1.049 1.052-.63 0-.979-.471-.979-1.018 0-.552.419-1.015.98-1.015.554 0 1.081-.323 1.081-1.085 0-.761-.56-1.151-1.082-1.151-.527 0-1.082.496-1.082 1.151 0 .656-.36.918-.987.918-.625 0-.87-.653-.87-.89 0-.658.385-1.012.87-1.012.976 0 1.082-.828 1.082-1.088 0-.26-.148-1.082-1.082-1.082-.94 0-.962-.044-.962-.99 0-.287-.148-1.104-1.116-1.104-.956 0-.965-.02-.965-.965 0-.34-.167-1.107-1.104-1.107s-.965-.023-.965-.965c0-.338-.195-1.105-1.104-1.105-.912 0-.988-.047-.988-.967 0-.444-.217-1.085-1.082-1.085-.867 0-.99-.223-.99-.987 0-.497-.198-1.083-1.084-1.083-1.175 0-1.03-.59-1.03-.959 0-.365-.18-1.048-1.04-1.048-1.001 0-1.04 0-1.04-1.05 0-.891-.697-1.031-1.032-1.031-.337 0-1.032.114-1.032 1.032 0 .917-.825.943-1.034.943-.6 0-1.007-.452-1.007-.915 0-.815.786-1.09 1.007-1.09.209 0 1.01-.09 1.01-.985 0-.89-.704-1.035-1.01-1.035-.313 0-1.015.145-1.015 1.007 0 .865-.64 1.026-1.06 1.026-.416 0-.976-.184-.976-.998 0-.993-.048-1.099-1.093-1.099-.79 0-1.004-.262-1.004-.97 0-.709-.26-1.102-1.071-1.102-.81 0-1.035-.287-1.035-.968 0-.683-.407-1.037-1.032-1.037s-1.04.432-1.04 1.037c0 .6-.457.89-1.032.89-.577 0-1.001-.312-1.001-.89 0-.987.011-1.11 1.001-1.11.555 0 .962-.398.962-.962s-.42-.962-.962-.962-.965.385-.965.962c0 .918-.036.97-1.104.97-.79 0-1.03-.576-1.03-.97 0-.396-.122-1.207-1.04-1.207-.92 0-1.126.577-1.126 1.207 0 .63-.502.957-.954.957-.443 0-.957-.382-.957-.957 0-.577.486-1.076.957-1.076.452 0 .993-.232.993-.996 0-.758-.728-1.012-.993-1.012-.251 0-1.001.095-1.001 1.012 0 .918-.594 1.035-1.068 1.035-.472 0-1.04-.27-1.04-1.035 0-.758-.352-1.151-1.027-1.151-.68 0-1.11.343-1.11 1.151 0 .815-.78.97-.96.97-.189 0-.975-.155-.975-.97 0-.808.471-1.137.976-1.137a.9.9 0 0 0 .923-.932c0-.577-.427-.945-.923-.945-.505 0-.94.443-.94.945 0 .996-.243.968-1.135.968s-1.054-.313-1.054-.968c0-.658-.547-1.037-1.015-1.037-.472 0-1.03.357-1.03 1.037 0 .68-.356.943-1.045.943-.68 0-.957-.262-.957-.943s-.636-1.115-1.115-1.115c-.471 0-1.113.407-1.113 1.115 0 .706-.304.809-.96.809-.646 0-.933-.237-.933-.809 0-.577-.475-1.143-1.133-1.143-.655 0-1.143.619-1.143 1.143 0 .519-.246.809-.926.809s-.94-.262-.94-.809c0-.552-.477-1.143-1.132-1.143-.658 0-1.144.543-1.144 1.143 0 .597-.376.809-.925.809-.555 0-.951-.181-.951-.809 0-.63-.522-1.143-1.124-1.143-.6 0-1.158.485-1.158 1.143 0 .655-.44.837-.909.837-.48 0-.982-.131-.982-.837 0-.708-.647-1.115-1.09-1.115-.449 0-1.132.3-1.132 1.115 0 .814-.525.943-.94.943-.421 0-1.068-.156-1.068-.943a.98.98 0 0 0-.349-.784 75.63 75.63 0 0 1 4.7-1.015.895.895 0 0 0 1.74-.293c.8-.128 1.606-.242 2.415-.345l-.073.329a.91.91 0 0 0 .904.903c.493 0 .9-.407.9-.903l-.161-.513a69.363 69.363 0 0 1 2.967-.26.88.88 0 0 0-.449.773c0 .496.402.903.9.903a.904.904 0 0 0 .358-1.732 77.082 77.082 0 0 1 11.685.226.723.723 0 1 0 1.107.614l-.223-.524c1.015.108 2.033.234 3.034.382l-.014.136c0 .335.268.608.608.608.32 0 .58-.245.605-.56 36.32 5.954 64.04 37.473 64.04 75.47m-98.9-73.11c.74-.222 1.47-.429 2.2-.635l-.038.349c0 .647-.157.917-1.03.917-.75 0-1.056-.078-1.132-.63"/><path fill="#e8d8c4" d="M81.961 114.27c0 .993-.078 1.02-1.037 1.02a.961.961 0 0 0-.762.366c-.195-.374-.379-.75-.574-1.127l.042-.259a.776.776 0 0 0-.553-.753 88.026 88.026 0 0 1-2.027-4.493c.728-.014.747-.12.747-.965 0-.293.156-1.04 1.04-1.04.882 0 1.038.773 1.038 1.04 0 .26-.09 1.035-1.037 1.035-.951 0-1.069.036-1.069 1.034 0 .734.419 1.046 1.083 1.046.911 0 .992.078.992 1.021 0 .945.15 1.076 1.08 1.076.669 0 1.037.29 1.037.999m-9.219-19.668a54.983 54.983 0 0 1-.376-2.114l.273.022c.574 0 1.012.525 1.012 1.046 0 .494-.368.982-.909 1.046m1.95 6.178-.457.092a82.879 82.879 0 0 1-1.068-4.208c.396.05.432.237.432 1.037 0 1.074.109 1.063 1.093 1.063.622 0 1.004.457 1.004 1.009 0 .552-.284 1.007-1.004 1.007m2.076 6.24-.455.128a74.299 74.299 0 0 1-1.52-4.417c.904.01.904.212.904 1.18 0 .995.05 1.031 1.071 1.031.703 0 1.035.488 1.035 1.04 0 .553-.4 1.038-1.035 1.038"/><g fill="#fff"><path d="m219.68 77.175-.19-.184.19-.19.181.19-.181.184zm-6.21 31.065-.184-.184.184-.192.184.192-.184.184zm-4.15 8.29-.178-.187.178-.187.192.187-.192.187zm10.36-31.073-.19-.184.19-.187.181.187-.181.184zm0-4.141-.19-.184.19-.187.181.187-.181.184zm-2.07-1.855-.407-.399.407-.407.404.407-.404.399zm-2.07 2.29a.625.625 0 0 1-.625-.622.622.622 0 0 1 1.244 0 .622.622 0 0 1-.619.622m0-4.142c-.343 0-.625-.276-.625-.62s.282-.621.625-.621a.62.62 0 1 1 0 1.241m2.07 5.963-.37-.37.37-.369.365.368-.365.371zm-2.07 2.251a.548.548 0 0 1-.544-.55.546.546 0 1 1 1.093 0c0 .302-.248.55-.549.55m2.07 1.853-.332-.335.332-.326.33.326-.33.335zm-2.07 2.216a.477.477 0 1 1 0-.953.477.477 0 0 1 0 .953m-2.07 14.318-.293-.293.293-.295.298.295-.298.293zm2.07-2.18-.184-.187.184-.187.184.187-.184.187zm2.07-6.216-.184-.184.184-.19.184.19-.184.184zm-2.07 2.181-.296-.293.296-.295.296.295-.296.293zm-2.07 2.185-.404-.404.404-.405.399.405-.399.404zm0-4.039a.514.514 0 0 1-.516-.513c0-.282.232-.51.516-.51a.51.51 0 0 1 .508.51.51.51 0 0 1-.508.513m0-4.034a.625.625 0 0 1-.625-.622.621.621 0 1 1 .625.622m0-4.033a.727.727 0 0 1-.728-.728.727.727 0 1 1 1.456 0 .73.73 0 0 1-.728.728m0-4.035a.837.837 0 1 1 0-1.673c.46 0 .831.376.831.834 0 .463-.37.839-.831.839m-.95-4.978c0-.524.421-.945.948-.945a.944.944 0 1 1 0 1.888.943.943 0 0 1-.948-.943m3.02 14.901-.404-.404.404-.408.407.408-.407.404zm2.07-2.183-.298-.293.298-.298.293.298-.293.293zm1.88-2.367.19-.19.192.19-.192.187-.19-.187zm-10.17 23.138-.351-.354.351-.354.357.354-.357.354zm0-3.97a.517.517 0 0 1-.516-.519.518.518 0 1 1 1.038 0 .518.518 0 0 1-.522.519m0-3.98c-.38 0-.683-.304-.683-.683s.304-.686.683-.686c.388 0 .689.306.689.686a.68.68 0 0 1-.689.683m0-3.89a.94.94 0 1 1 .01-1.878.94.94 0 0 1-.01 1.878m2.08 9.61-.192-.19.192-.186.19.186-.19.19zm0 4.1-.156-.148.156-.148.148.148-.148.148zm-14.5 18.64-.156-.153.156-.145.148.145-.148.153zm-18.64 14.5-.148-.148.148-.15.156.15-.156.148zm-24.85 8.28-.145-.15.145-.148.148.147-.148.151zm57.99-49.5-.36-.354.36-.354.349.354-.349.354zm0-3.98c-.287 0-.516-.231-.516-.519a.517.517 0 1 1 1.035 0 .52.52 0 0 1-.519.519m0-3.974a.689.689 0 1 1-.006-1.377.689.689 0 0 1 .006 1.377m0-3.972a.855.855 0 1 1-.003-1.71.855.855 0 0 1 .003 1.71m-4.14 20.256-.402-.402.402-.401.402.401-.402.402zm-2.07 2.12-.449-.452.449-.449.446.45-.446.451zm-2.07 2.12a.497.497 0 1 1 .496-.496.498.498 0 0 1-.496.496m-2.08 2.12a.548.548 0 1 1 .003-1.096.548.548 0 0 1-.003 1.096m-2.07 2.12a.599.599 0 0 1-.602-.597.596.596 0 1 1 .602.597m-2.07 2.12c-.351 0-.641-.284-.641-.641s.29-.647.641-.647c.363 0 .644.29.644.647a.637.637 0 0 1-.644.641m-2.07 2.12a.693.693 0 1 1 .003-1.387.693.693 0 0 1-.003 1.387m-14.5 18.13-.192-.187.192-.184.187.184-.187.187zm2.07-2.03-.22-.22.22-.226.22.226-.22.22zm2.07-2.04-.262-.26.262-.259.26.26-.26.259zm2.07-2.03-.293-.298.293-.299.298.299-.298.298zm2.08-2.03-.335-.337.335-.335.332.335-.332.337zm2.07-2.04-.37-.37.37-.375.374.374-.374.371zm2.07-2.03-.407-.41.407-.407.41.407-.41.41zm2.07-2.04-.44-.443.44-.447.452.447-.452.443zm0 3.84-.14-.137.14-.14.145.14-.145.137zm4.14-4.15-.137-.134.137-.14.134.14-.134.134zm-6.21 6.2-.128-.126.128-.122.126.122-.126.126zm-2.07 2.07-.123-.123.123-.125.126.125-.126.123zm10.35-10.35-.125-.128.125-.12.128.12-.128.128z"/><path d="m211.44 114.12.156.148-.156.153-.148-.153.148-.148zm-2.07 2.03.19.187-.19.19-.184-.19.184-.187zm-2.07 2.04.22.226-.22.223-.223-.223.223-.226zm-2.08 2.03.26.26-.26.259-.26-.26.26-.259zm-2.07 2.04.298.296-.298.298-.293-.298.293-.296zm-2.07 2.03.335.337-.335.332-.332-.332.332-.337zm-2.07 2.03.368.374-.368.37-.376-.37.376-.374zm-2.07 2.04.413.407-.413.413-.407-.413.407-.407zm-4.92.4a.74.74 0 1 1 .739.742.737.737 0 0 1-.739-.742m-46.9 26.74.184.184-.184.19-.187-.19.187-.184zm4.14 0 .192.184-.192.19-.184-.19.184-.184zm10.36-2.07.184.19-.184.186-.19-.186.19-.19zm-18.64 2.07.19.184-.19.19-.184-.19.184-.184zm35.21-10.52.357.354-.357.354-.36-.354.36-.354zm2.07-2.12.407.402-.407.404-.402-.404.402-.402zm2.07-2.12a.45.45 0 1 1 0 .9l-.449-.448.449-.452zm2.07-2.12c.279 0 .505.223.505.502a.501.501 0 0 1-.505.496.498.498 0 1 1 0-.998m2.07-2.12a.549.549 0 1 1 0 1.096.542.542 0 0 1-.544-.55c0-.3.24-.546.544-.546m2.07-2.12c.332 0 .6.268.6.597a.6.6 0 0 1-1.196 0c0-.33.267-.597.596-.597m2.08-2.12c.357 0 .641.29.641.644a.643.643 0 0 1-.641.647.646.646 0 1 1 0-1.291m2.07-2.12a.69.69 0 0 1 .692.692.692.692 0 1 1-.692-.692m12.43-3.32-.128-.126.128-.125.123.125-.123.126zm4.14-16.08a.616.616 0 0 1-.616-.614c0-.334.276-.613.616-.613a.615.615 0 0 1 0 1.227m-2.07 2.16a.708.708 0 0 1-.708-.708c0-.388.315-.7.708-.7.388 0 .703.312.703.7 0 .39-.315.708-.703.708m-2.07 2.17a.796.796 0 1 1-.01-1.594.796.796 0 0 1 .01 1.594m-2.08 2.16c-.49 0-.892-.402-.892-.892s.401-.89.892-.89a.892.892 0 0 1 0 1.782m-33.13 31.95.298.298-.298.296-.293-.296.293-.298zm-2.07 2.18.184.184-.184.187-.192-.187.192-.184zm6.21-6.55c.284 0 .516.237.516.522a.522.522 0 0 1-.516.524.523.523 0 0 1 0-1.046m-2.07 2.24.351.354-.351.354-.357-.354.357-.354zm4.14-4.4a.612.612 0 1 1-.614.61c0-.334.274-.61.614-.61m2.07-2.16c.388 0 .708.315.708.703a.709.709 0 0 1-1.416 0c0-.388.315-.703.708-.703m2.07-2.16c.443 0 .8.354.8.798a.796.796 0 1 1-1.592 0c0-.444.354-.798.792-.798m2.07-2.17a.89.89 0 1 1-.004 1.778.89.89 0 0 1 .004-1.778m-16.96 13.32.39-.396.394.396-.394.393-.39-.393zm-4.24 0a.49.49 0 1 1 0 0m-4.24 0a.587.587 0 1 1 1.169-.003.587.587 0 0 1-1.169.003m-4.24 0a.69.69 0 0 1 .689-.686c.385 0 .686.307.686.686a.683.683 0 0 1-.686.683.691.691 0 0 1-.689-.683m-4.24 0c0-.432.351-.786.778-.786.438 0 .79.354.79.786 0 .43-.352.78-.79.78a.783.783 0 0 1-.778-.78m-4.24 0a.881.881 0 1 1 1.762 0 .881.881 0 0 1-1.762 0m-1.73 2.07a.537.537 0 1 1 1.075.004.537.537 0 0 1-1.075-.004m6.43 2.07.32-.33.333.33-.332.326-.321-.326zm4.17 0 .293-.293.295.293-.295.29-.293-.29zm4.18 0 .26-.26.262.26-.263.257-.259-.257zm6.22-2.07.254-.257.256.257-.256.257-.254-.257zm-4.22 0 .33-.326.323.326-.324.33-.329-.33zm-4.21 0 .399-.399.393.399-.393.399-.399-.399zm-4.22 0a.47.47 0 0 1 .94 0 .47.47 0 0 1-.94 0m-6.1 2.07.363-.365.357.365-.357.36-.363-.36zm29.36-4.33.181.187-.181.187-.187-.187.187-.187zm1.7-1.88.363-.363.362.363-.362.36-.363-.36zm-29.16 4.14a.54.54 0 0 1 1.08 0 .539.539 0 1 1-1.08 0m75.28-74.585-.181.187-.193-.187.193-.19.181.19zm-6.21-31.068-.184.184-.187-.184.187-.187.184.187zm-4.14-8.283-.192.184-.182-.184.182-.187.192.187zm10.16 30.881-.19.184.19.187.181-.187-.181-.184zm.19 4.326-.181.19-.193-.19.193-.184.181.184zm-1.85 2.07-.404.407-.405-.407.405-.402.404.402zm-1.86-2.07a.62.62 0 1 1-1.239 0 .62.62 0 0 1 1.239 0m0 4.144a.621.621 0 1 1-1.243-.004.621.621 0 0 1 1.243.004m1.82-6.212-.365.365-.371-.365.37-.368.366.368zm-1.89-2.074a.55.55 0 0 1-.55.55.546.546 0 0 1-.546-.55c0-.301.243-.547.547-.547a.55.55 0 0 1 .549.547m1.85-2.071-.33.335-.331-.335.332-.332.329.332zm-1.92-2.07a.477.477 0 1 1-.954 0 .477.477 0 0 1 .954 0m-2.25-14.498-.298.293-.293-.293.293-.296.298.296zm1.96 2.07-.184.187-.187-.187.187-.184.184.184zm2.07 6.213-.184.187-.187-.187.187-.187.184.187zm-1.96-2.068-.296.29-.295-.29.295-.298.296.298zm-1.97-2.074-.399.407-.404-.407.404-.404.399.404zm.11 4.142a.51.51 0 1 1-1.021.005.51.51 0 0 1 1.021-.005m.15 4.14a.664.664 0 1 1-1.327 0c0-.368.298-.667.666-.667s.661.299.661.667m.11 4.145a.77.77 0 0 1-1.537 0c0-.421.346-.761.773-.761.421 0 .764.34.764.761m.1 4.141c0 .48-.393.87-.87.87a.87.87 0 1 1 0-1.74c.477 0 .87.388.87.87m-.87 3.198a.947.947 0 1 1-.948.943c0-.522.424-.943.948-.943m2.48-13.55-.407.402-.402-.402.402-.407.407.407zm1.96 2.07-.293.298-.298-.298.298-.296.293.296zm1.77 1.886.19.184-.19.195-.19-.195.19-.184zm-10-22.597-.357.351-.351-.351.351-.354.357.354zm.17 4.141a.52.52 0 1 1-1.041.002.52.52 0 0 1 1.041-.002m.21 4.142a.733.733 0 0 1-.733.728.728.728 0 1 1 .733-.728m.2 4.136a.933.933 0 1 1-1.868 0c0-.516.415-.929.937-.929a.93.93 0 0 1 .931.929m1.33-10.349-.19.187-.195-.187.195-.187.19.187zm-.04-4.143-.148.15-.153-.15.153-.148.148.148zm.2 8.284-.349.351-.36-.351.36-.354.349.354zm.21 4.141c0 .31-.245.563-.558.563s-.563-.253-.563-.563c0-.312.25-.566.563-.566s.558.254.558.566m.18 4.171a.736.736 0 1 1-1.472.006.736.736 0 0 1 1.472-.006m.13 4.117a.881.881 0 0 1-.876.878.879.879 0 1 1 .876-.878m-4.61-20.709-.402.399-.398-.399.398-.407.402.407zm-1.98-2.077a.5.5 0 0 1-.998 0 .5.5 0 0 1 .499-.5c.27 0 .499.224.499.5m-1.99-2.074a.575.575 0 0 1-1.149 0 .574.574 0 0 1 1.149 0m-2-2.075a.65.65 0 0 1-1.3 0 .65.65 0 0 1 1.3 0m-2.01-2.066c0 .39-.315.706-.706.706a.705.705 0 1 1 0-1.412c.39 0 .706.318.706.706m-2.02-2.071a.764.764 0 0 1-.759.761.763.763 0 1 1 0-1.525c.416 0 .759.34.759.764m-2.02-2.067a.815.815 0 0 1-.817.812.81.81 0 0 1-.809-.812.814.814 0 1 1 1.626 0m-8.8-12.425-.298.296-.293-.296.293-.301.298.301zm2.11 2.068-.332.337-.335-.337.335-.332.332.332zm2.11 2.075-.374.37-.37-.37.37-.374.374.374zm2.11 2.07-.41.407-.407-.407.407-.407.41.407zm2.11 2.068-.452.449-.44-.449.44-.446.452.446z"/><path d="m211.29 39.687.148-.153.153.153-.153.145-.148-.145zm4.09 8.306.156-.15.148.15-.148.15-.156-.15zm2.08 6.215.15-.148.146.148-.145.15-.151-.15zm-8.28-16.594.184-.187.192.187-.192.184-.184-.184zm-2.11-2.072.223-.223.22.223-.22.226-.223-.226zm-2.1-2.072.26-.26.259.26-.26.26-.259-.26zm-2.11-2.071.293-.296.301.296-.301.298-.293-.298zm-2.11-2.071.332-.332.335.332-.335.335-.332-.335zm-2.11-2.071.376-.37.369.37-.369.374-.376-.374zm-2.11-2.073.407-.407.416.407-.416.413-.407-.413zm-3.77-.807c.449 0 .809.363.809.806a.811.811 0 1 1-.809-.806m-14.94-13.69.438-.44.443.44-.443.44-.44-.44zm1.97 2.07a.55.55 0 0 1 .547-.547c.304 0 .543.246.543.547s-.24.544-.543.544a.547.547 0 0 1-.547-.544m1.99 2.067a.626.626 0 1 1 1.252 0 .625.625 0 1 1-1.252 0m2.02 2.073a.67.67 0 0 1 .672-.672c.377 0 .672.298.672.672a.67.67 0 0 1-.672.678.674.674 0 0 1-.672-.678m2 2.072a.75.75 0 0 1 .745-.753c.415 0 .755.34.755.753a.75.75 0 1 1-1.5 0m2.03 2.073a.786.786 0 1 1 1.57-.002.786.786 0 0 1-1.57.002m2.06 2.07a.804.804 0 1 1 1.61 0 .804.804 0 1 1-1.61 0m18.05 20.711c0 .37-.31.675-.68.675a.675.675 0 0 1 0-1.353c.37 0 .68.304.68.678m-1.93-2.071a.816.816 0 0 1-.82.814.816.816 0 1 1 0-1.634c.452 0 .82.368.82.82m-1.96-2.075a.937.937 0 0 1-1.877 0 .938.938 0 0 1 1.877 0M171.46 8.618c0-.326.265-.586.588-.586.321 0 .58.26.58.586 0 .323-.259.586-.58.586a.588.588 0 0 1-.588-.586m1.96 2.067c0-.387.31-.702.697-.702a.704.704 0 1 1 0 1.408.7.7 0 0 1-.697-.706m1.94 2.072a.83.83 0 0 1 .828-.825.825.825 0 1 1 0 1.65.828.828 0 0 1-.828-.825m1.94 2.072a.962.962 0 1 1 1.921 0 .961.961 0 1 1-1.921 0M151.33 3.65a.827.827 0 1 1 .003 1.654.827.827 0 0 1-.003-1.654m-4.13-.08c.496 0 .898.402.898.898a.902.902 0 0 1-.898.904c-.494 0-.9-.408-.9-.904s.406-.898.9-.898m60.96 44.424a.907.907 0 1 1-1.816 0c0-.5.408-.91.91-.91.499 0 .906.41.906.91M165.18 6.574c0-.362.296-.66.66-.66.36 0 .662.298.662.66a.66.66 0 0 1-1.322 0m1.91 2.071c0-.451.363-.814.82-.814.449 0 .811.363.811.814a.815.815 0 0 1-1.631 0m-6.25-2.07a.846.846 0 0 1 1.693 0 .846.846 0 0 1-1.693 0m4.99 140.31a.526.526 0 1 1 0 1.05.526.526 0 1 1 0-1.05m-4.14-.17c.393 0 .7.311.7.696s-.307.698-.7.698a.697.697 0 0 1 0-1.395m-3.27.7c0 .48-.388.87-.867.87a.872.872 0 1 1 0-1.743c.48 0 .867.39.867.873m6.21-2.08a.872.872 0 0 1-.87.873.874.874 0 0 1-.87-.873c0-.48.396-.87.87-.87.477 0 .87.39.87.87m41.74-39.34c0-.49.396-.884.881-.884s.89.393.89.884c0 .488-.404.881-.89.881s-.881-.393-.881-.88m-35.55 37.27a.84.84 0 0 1-.84.841.837.837 0 0 1-.836-.842c0-.46.37-.837.837-.837a.84.84 0 0 1 .839.837m-2.25 2.07a.667.667 0 1 1-1.336 0 .669.669 0 1 1 1.336 0m-16.18 2.08a1.018 1.018 0 0 1 2.033 0 1.018 1.018 0 0 1-2.033 0m-41.95-2.08a.524.524 0 0 1-.522.522c-.29 0-.518-.235-.518-.522s.228-.521.518-.521c.285 0 .522.234.522.521m-1.99-2.07c0 .34-.276.616-.608.616a.612.612 0 0 1-.61-.616.609.609 0 1 1 1.218 0m-1.98-2.07c0 .39-.312.703-.708.703a.7.7 0 0 1-.7-.703c0-.388.312-.703.7-.703.396 0 .708.315.708.703m-1.97-2.07a.798.798 0 1 1-1.596 0 .798.798 0 0 1 1.596 0m-1.98-2.07a.89.89 0 0 1-1.782 0 .89.89 0 0 1 .89-.887c.493 0 .892.396.892.887m15.68 12.82-.388-.393.388-.396.396.396-.396.393zm4.14.1a.49.49 0 0 1-.496-.488.491.491 0 0 1 .981 0c0 .27-.214.488-.485.488m4.14.09a.586.586 0 1 1 0-1.174.587.587 0 1 1 0 1.174m4.14.1a.683.683 0 1 1 0-1.366.683.683 0 1 1 0 1.367m4.14.1a.787.787 0 0 1-.78-.782c0-.435.353-.786.78-.786.432 0 .786.351.786.786 0 .427-.354.781-.786.781m4.14.1a.88.88 0 1 1 .005-1.764.88.88 0 0 1-.005 1.764m-4.14 3.59-.32-.326.32-.326.33.326-.33.326zm-4.14-.04-.29-.29.29-.29.293.29-.293.29zm-6.21-2.03-.326-.329.326-.326.326.326-.326.33zm4.14.06-.396-.399.396-.396.402.396-.402.4zm4.14.07a.463.463 0 0 1-.463-.468.465.465 0 1 1 .931 0c0 .259-.206.468-.468.468m6.21 1.97-.363-.36.363-.365.368.365-.368.36zm-2.06-1.89a.54.54 0 0 1 0-1.076.54.54 0 0 1 .538.535.543.543 0 0 1-.538.541m-20.71-5.23c.307 0 .541.243.541.547a.539.539 0 0 1-.541.544.55.55 0 0 1-.547-.544.55.55 0 0 1 .547-.547m-2.07-2.22a.696.696 0 1 1 0 1.395.697.697 0 0 1 0-1.394m-2.07-2.23c.471 0 .848.378.848.847a.844.844 0 0 1-.848.848.85.85 0 0 1-.848-.848c0-.469.385-.848.848-.848m8.28 5.7a.695.695 0 0 1-.7-.7.7.7 0 1 1 1.4 0c0 .388-.312.7-.7.7m4.14.15a.859.859 0 1 1 0-1.715c.474 0 .862.385.862.859a.861.861 0 0 1-.862.856m4.14.16a1.015 1.015 0 1 1 .005-2.031 1.015 1.015 0 0 1-.005 2.031m-10.34-2.19a.892.892 0 0 1-.898-.898c0-.494.396-.895.898-.895.494 0 .892.402.892.895 0 .5-.398.898-.892.898"/></g><g fill="#e8d8c4"><path d="m71.593 79.061-.237-.65c-.011.438-.02.879-.02 1.317a.988.988 0 0 0 .257-.667m3.099-19.823c.51 0 .915-.41.915-.915a.907.907 0 0 0-.879-.909 58.81 58.81 0 0 0-.502 1.69l.466.134zm-1.046 5.296c0-.39-.231-.728-.552-.898-.137.633-.27 1.272-.396 1.913.532-.039.948-.474.948-1.015M120.26 9.685a1.04 1.04 0 0 0 1.04-1.04l-.07-.382c-.65.24-1.3.49-1.938.747.148.396.525.675.968.675M76.768 53.076a.94.94 0 0 0 .937-.94.933.933 0 0 0-.77-.92 90.775 90.775 0 0 0-.677 1.71l.51.15zm2.889-7.151-.12-.43c-.212.413-.413.829-.613 1.244a.811.811 0 0 0 .733-.814m1.25-1.303a.77.77 0 0 0 .77-.767.771.771 0 0 0-.77-.77l-.1.012c-.201.36-.396.722-.589 1.084.12.262.385.441.689.441m-8.285 25.025c.519 0 .94-.424.94-.94s-.421-.94-.94-.94l-.32.062a76.01 76.01 0 0 0-.243 1.626l.563.192zm24.865-45.652a.853.853 0 0 0 .856-.85.847.847 0 0 0-.742-.843c-.323.282-.644.566-.962.854.003.462.382.839.848.839m2.073-2.006a.913.913 0 0 0 .46-1.707c-.449.357-.89.717-1.33 1.082a.928.928 0 0 0 .87.625m2.07-2.144a.842.842 0 0 0 .845-.842l-.165-.491c-.443.332-.89.672-1.333 1.012a.82.82 0 0 0 .653.321m2.06-2.027a.89.89 0 0 0 .89-.89l-.009-.041c-.41.29-.82.571-1.221.864l.34.067zm-8.282 8.25a.856.856 0 0 0 .856-.856.855.855 0 0 0-.856-.848l-.1.008-.74.712-.013.128c0 .474.382.856.853.856m-2.07 2.031c.449 0 .817-.365.817-.814s-.368-.815-.817-.815l-.192.025-.608.63-.017.16c0 .449.368.814.817.814m-2.07 2.072a.816.816 0 1 0 0-1.631l-.053.005c-.26.282-.51.563-.759.845.02.435.371.78.812.78m-2.073 2.073a.818.818 0 0 0 .817-.814.806.806 0 0 0-.63-.792 58.2 58.2 0 0 0-.932 1.118.81.81 0 0 0 .745.488m-2.075 2.009c.418 0 .756-.34.756-.753a.743.743 0 0 0-.321-.616c-.31.39-.616.786-.917 1.188l.482.18zm-2.072 2.075c.421 0 .764-.34.764-.756l-.058-.298c-.254.348-.502.697-.742 1.051l.036.003zm26.922-22.572a.97.97 0 0 0 .973-.968.963.963 0 0 0-.323-.72 66.92 66.92 0 0 0-1.601.854.965.965 0 0 0 .951.834m1.59-2.17.488.135c.502 0 .918-.371.993-.85-.497.236-.993.473-1.481.716m95.76 66.23a.825.825 0 1 0-.004-1.649.825.825 0 0 0 .004 1.65m-4.14-.45.382-.376-.382-.379-.382.38.382.376zm-2.07 1.842.148-.148-.148-.148-.153.148.153.148z"/><path d="M210.15 76.981c0-.455-.376-.823-.831-.823s-.823.368-.823.823c0 .46.368.828.823.828a.83.83 0 0 0 .831-.828m-2.29 2.074a.614.614 0 0 0-1.227 0c0 .34.276.61.616.61s.611-.27.611-.61m-2.28 2.071-.399-.399-.401.399.401.396.399-.396zm-2.29 2.07-.184-.184-.187.184.187.184.184-.184zm6.86-2.065a.823.823 0 0 0-1.648 0c0 .457.368.828.825.828.455 0 .823-.37.823-.828m-2.28 2.069a.61.61 0 1 0-1.219 0 .609.609 0 1 0 1.219 0m-2.29 2.073-.399-.399-.393.399.393.399.399-.399zm-2.18 2.072-.287-.29-.29.29.29.287.287-.287zm-2.18 6.212-.181-.187-.187.187.187.184.181-.184zM190.8 112.2l-.117-.117-.114.117.114.117.117-.117z"/><path d="M209.33 76.137c.455 0 .823.37.823.828a.825.825 0 1 1-1.648 0c0-.457.368-.828.825-.828m-4.14.448.382.38-.382.379-.382-.38.382-.379zm-2.07-1.841.148.148-.148.148-.153-.148.153-.148z"/><path d="M210.15 76.971c0 .455-.376.823-.831.823s-.823-.368-.823-.823c0-.46.368-.828.823-.828a.83.83 0 0 1 .831.828m-2.29-2.074a.614.614 0 0 1-1.227 0c0-.335.276-.61.616-.61s.611.275.611.61m-2.28-2.069-.399.399-.401-.399.401-.399.399.399zm-2.29-2.072-.184.187-.187-.187.187-.184.184.184zm6.86 2.065a.82.82 0 0 1-.823.823.821.821 0 0 1-.825-.823c0-.457.368-.823.825-.823a.82.82 0 0 1 .823.823m-2.28-2.072a.613.613 0 0 1-.61.614.61.61 0 0 1-.609-.614.608.608 0 1 1 1.219 0m-2.29-2.07-.399.399-.393-.399.393-.396.399.396zm1.68-11.265c.502 0 .915.407.915.91a.917.917 0 0 1-1.833 0c0-.503.413-.91.918-.91m-14.28-17.702-.223.223-.223-.223.223-.229.223.229zM182.4 22.023a.955.955 0 0 1-.954-.951c0-.524.432-.954.954-.954.865 0 .951-.014.951.954a.949.949 0 0 1-.951.951m-41.42-12.61a.773.773 0 0 0 .773-.767.772.772 0 0 0-.773-.77.768.768 0 0 0 0 1.537m4.14 0a.766.766 0 0 1-.764-.767c0-.427.34-.77.764-.77a.77.77 0 1 1 0 1.537m4.15.07a.835.835 0 0 1-.834-.837.833.833 0 1 1 1.668 0c0 .46-.374.836-.834.836m4.14.069a.904.904 0 0 1 0-1.81.904.904 0 1 1 0 1.81m-9.8 1.165a.556.556 0 0 0-.552-.555.555.555 0 1 0 .552.555m4.14 0a.556.556 0 0 0-.555-.555.555.555 0 0 0 0 1.11.555.555 0 0 0 .555-.555m-2.29 2.071-.34-.337-.34.337.34.34.34-.34zm4.14 0-.34-.337-.338.337.338.34.34-.34zm-2.28 2.071-.128-.126-.117.126.117.123.128-.123zm-5.98-2.071-.363-.363-.365.363.365.363.363-.363zm1.84 2.071-.126-.126-.128.126.129.123.125-.123zm8.15-3.487c-.354 0-.655-.293-.655-.655s.3-.656.655-.656a.65.65 0 0 1 .653.656.65.65 0 0 1-.653.655m4.15.1a.756.756 0 1 1 .001-1.513.756.756 0 0 1-.001 1.513m4.14.103a.864.864 0 0 1-.865-.859c0-.477.39-.856.865-.856s.859.38.859.856a.86.86 0 0 1-.859.859m-6.69 1.212a.476.476 0 1 1 .952-.002.476.476 0 0 1-.952.002m4.01 0a.614.614 0 0 1 1.227 0 .612.612 0 0 1-1.227 0m4.01 0c0-.413.332-.747.742-.747.413 0 .75.334.75.747s-.337.745-.75.745a.742.742 0 0 1-.742-.745m4 0c0-.488.396-.884.89-.884.48 0 .884.396.884.884a.887.887 0 0 1-1.774 0m15.66 14.499-.276.273-.27-.273.27-.273.276.273zm-2.02-2.07-.326.326-.321-.326.32-.332.327.332zm-2.03-2.073-.376.376-.377-.376.377-.376.376.376zm-2.02-2.071-.427.43-.43-.43.43-.43.427.43zm-2.01-2.07a.48.48 0 1 1-.48-.482c.26 0 .48.217.48.482m-21.2-3.883.26-.26-.26-.262-.262.263.262.259zm4.15.134.396-.396-.396-.396-.393.396.393.396zm4.14.135a.533.533 0 0 0 0-1.065c-.298 0-.53.242-.53.535s.232.53.53.53m4.14.138a.663.663 0 0 0 .667-.667.664.664 0 1 0-1.328 0c0 .369.293.667.661.667m-2.07 1.665.265-.262-.265-.262-.254.262.254.262zm4.15.134.393-.396-.393-.396-.402.396.402.396zm4.14.137c.296 0 .527-.237.527-.533s-.231-.532-.527-.532-.53.237-.53.532.234.533.53.533m-2.07 1.802.26-.262-.26-.26-.265.26.265.262zm0-3.602a.798.798 0 0 0 .795-.803c0-.444-.352-.806-.795-.806s-.806.362-.806.806c0 .44.363.803.806.803m4.14.135a.934.934 0 0 0 .931-.937c0-.837.05-.94-.931-.94a.938.938 0 1 0 0 1.877m2.07 2.014c.49 0 .878-.396.878-.881 0-.628-.1-.882-.878-.882a.877.877 0 0 0-.878.882c0 .485.39.881.878.881m2.07 2.015a.83.83 0 0 0 .828-.828.83.83 0 0 0-.828-.823.828.828 0 0 0-.825.823c0 .46.373.828.825.828m2.07 2.012a.768.768 0 0 0 0-1.537.765.765 0 0 0-.764.77c0 .421.337.767.764.767m2.07 2.012a.71.71 0 1 0-.004-1.418.71.71 0 0 0 .004 1.418m2.07 2.018a.65.65 0 0 0 .653-.655.652.652 0 1 0-1.306 0c0 .365.296.655.653.655m2.07 2.012a.595.595 0 1 0 0-1.19c-.33 0-.6.264-.6.59 0 .332.27.6.6.6m2.07 2.014a.536.536 0 0 0 .535-.538.537.537 0 0 0-.535-.541.54.54 0 0 0 0 1.079m2.08 2.015a.48.48 0 0 0 .48-.482.48.48 0 1 0-.962 0 .48.48 0 0 0 .482.482m6.55 9.872-.349.343-.337-.343.337-.34.349.34zm2.19 2.074c0 .254-.21.457-.469.457-.248 0-.46-.203-.46-.457s.212-.466.46-.466c.26 0 .469.212.469.466m2.19 2.07c0 .318-.265.58-.58.58a.586.586 0 0 1-.586-.58.583.583 0 0 1 1.166 0m2.2 2.068c0 .39-.32.703-.706.703a.703.703 0 0 1 0-1.406.71.71 0 0 1 .706.703m2.19 2.075a.819.819 0 0 1-.82.817.82.82 0 1 1 0-1.64.82.82 0 0 1 .82.823m1.25 1.129a.934.934 0 0 0-.937.94c0 .519.415.94.937.94a.94.94 0 0 0 0-1.88m-4.15-8.111a.765.765 0 0 0-.764.77c0 .424.34.767.764.767a.768.768 0 0 0 0-1.537m-2.07-2.015a.711.711 0 1 0 0 1.422c.39 0 .706-.318.706-.71s-.32-.712-.71-.712m-2.07-2.012c-.352 0-.65.29-.65.653 0 .36.298.652.65.652a.652.652 0 1 0 0-1.305m-2.07-2.015c-.33 0-.592.268-.592.597a.593.593 0 1 0 1.188 0 .597.597 0 0 0-.596-.597m-2.07-2.014a.54.54 0 0 0 0 1.08.542.542 0 0 0 .54-.542.541.541 0 0 0-.54-.538m-2.07-2.016a.487.487 0 0 0-.483.485c0 .265.22.483.483.483.273 0 .48-.218.48-.483a.477.477 0 0 0-.48-.485m-4.15.612.125-.125-.125-.131-.137.13.137.126zm2.08 2.074.125-.13-.125-.126-.132.125.132.131zm12.42 24.85.128-.125-.128-.131-.132.13.132.126zm-1.76-10.488-.31.312-.315-.312.315-.312.31.312zm-2.38 2.204.122-.128-.122-.128-.134.128.134.128zm-4.14-8.283.13-.128-.13-.128-.129.128.129.128zm-10.36-14.406.22-.223-.22-.22-.22.22.22.223zm2.07 2.016.167-.167-.167-.165-.17.165.17.167zm6.22 6.247.2-.198-.2-.2-.196.2.196.198zm16.57 25.418a.766.766 0 1 0-.004-1.532.766.766 0 0 0 .004 1.532m-2.07-2.269a.568.568 0 1 0-.005-1.136.568.568 0 0 0 .005 1.136m0 4.02.443-.447-.443-.443-.447.443.45.446zm2.07 2.293c.37 0 .666-.298.666-.67a.669.669 0 1 0-.667.67m2.06 2.344c.522 0 .946-.424.946-.94s-.424-.94-.945-.94c-.516 0-.932.424-.932.94s.416.94.932.94m-6.2-6.88.27-.274-.27-.27-.28.27.28.273zm0-4.045.37-.37-.37-.372-.374.371.374.371zm2.07-1.726a.716.716 0 1 0-.004-1.432.716.716 0 0 0 .004 1.432m-2.07-2.24a.541.541 0 0 0 .54-.547.538.538 0 0 0-.54-.541.539.539 0 0 0-.544.54c0 .305.24.547.544.547m-2.08 1.774.248-.248-.248-.248-.243.248.243.248zm0-3.996.396-.396-.396-.396-.4.396.4.396zm8.28 33.698c.532 0 .962-.43.962-.956s-.43-.957-.962-.957c-.528 0-.951.43-.951.957s.423.956.95.956m-5.84 5.257-.362-.368-.374.368.374.368.363-.368zm2.26-2.073a.551.551 0 1 0-1.102.003.551.551 0 0 0 1.103-.003m2.25-2.069a.736.736 0 1 0-1.473 0c0 .405.326.734.734.734.41 0 .739-.33.739-.734m.12 4.142a.86.86 0 0 0-1.718 0c0 .474.387.86.859.86s.859-.386.859-.86m-.85 5.124c.538 0 .981-.44.981-.982s-.443-.984-.981-.984c-.541 0-.985.443-.985.984s.444.982.985.982m-10.08 9.38-.277-.277-.278.276.278.276.277-.276zm2.22-2.08-.427-.433-.435.432.435.43.427-.43zm2.02-6.212-.385-.385-.385.385.385.388.385-.388zm.21 4.141a.586.586 0 1 0-1.173.001.586.586 0 0 0 1.173 0m-.59 9.27a.988.988 0 1 0-.001-1.979.988.988 0 0 0 0 1.978m4.84-17.553a.688.688 0 1 0-1.378 0 .69.69 0 0 0 1.378 0m.13 4.144a.824.824 0 1 0-1.648.003.824.824 0 0 0 1.649-.003m-2.36-2.072a.537.537 0 0 0-1.074 0 .537.537 0 0 0 1.074 0m.17 4.142a.703.703 0 1 0-.7.703c.387 0 .7-.315.7-.703m-31.89 31.06.122.122.112-.123-.112-.117-.122.117zm-18.64 6.22.12.116.117-.117-.118-.117-.12.117zm16.41-4.14.278.275.274-.276-.274-.27-.278.27zm-2.23 2.07.432.429.427-.43-.427-.43-.432.43zm-3.99 0 .276.272.281-.273-.281-.276-.276.276zm-6.21 2.07.281.275.268-.276-.268-.276-.281.276zm3.99 0 .426.429.435-.43-.435-.432-.43.43zm3.99 0c0 .323.262.59.59.59a.588.588 0 0 0 .584-.59.586.586 0 0 0-.583-.59.59.59 0 0 0-.591.59m-4.38 4.14c0 .45.37.822.822.822a.824.824 0 0 0 0-1.648.827.827 0 0 0-.822.825m2.19-2.07a.704.704 0 0 0 1.408 0 .705.705 0 0 0-1.408 0m43.09-37.28a.961.961 0 0 0-1.922 0c0 .53.43.962.96.962.895 0 .962-.058.962-.962m-19.61 23.38a.589.589 0 0 0 .59-.594.591.591 0 1 0-1.182 0c0 .33.262.594.592.594m12.43-12.11a.912.912 0 0 0 0-1.821.91.91 0 1 0 0 1.821m-2.07 1.99a.834.834 0 0 0 .836-.828.835.835 0 0 0-.836-.834.835.835 0 0 0-.829.834c0 .454.377.828.829.828m-2.07 1.99a.758.758 0 0 0 .758-.75.757.757 0 0 0-1.512 0c0 .413.344.75.754.75m-2.07 2a.673.673 0 0 0 0-1.347c-.371 0-.67.299-.67.672s.299.675.67.675m-2.07 1.98a.595.595 0 0 0 0-1.188.595.595 0 0 0 0 1.188m-2.07 2.07c.326 0 .588-.262.588-.591a.59.59 0 1 0-1.18 0c0 .329.265.591.592.591m-14.5 13a.908.908 0 0 0-.907.912c0 .5.405.91.907.91.981 0 .912.069.912-.91a.909.909 0 0 0-.912-.912m2.07-1.99a.832.832 0 0 0-.829.828c0 .46.377.834.829.834a.832.832 0 0 0 0-1.662m2.08-1.99a.755.755 0 0 0-.759.748c0 .42.34.755.759.755a.751.751 0 0 0 0-1.503m2.06-2a.674.674 0 1 0 0 1.347.671.671 0 0 0 .666-.672.672.672 0 0 0-.666-.675m2.07-1.99a.593.593 0 0 0 0 1.188c.331 0 .59-.268.59-.594s-.259-.594-.59-.594m2.07-2.07a.592.592 0 0 0 0 1.185c.329 0 .596-.265.596-.59s-.267-.595-.596-.595m0-3.33.212-.215-.212-.214-.22.214.22.215zm2.07-2.08.217-.212-.217-.215-.212.215.212.212zm2.08-2.07.212-.212-.212-.215-.215.215.215.212zm2.07-1.98.3-.298-.3-.299-.299.299.299.298zm2.07-1.99.384-.382-.384-.38-.38.38.38.382zm2.07-1.99c.259 0 .463-.203.463-.466a.461.461 0 0 0-.924 0c0 .263.21.466.46.466m2.07-1.99a.545.545 0 0 0 .544-.546c0-.307-.242-.55-.543-.55a.549.549 0 1 0 0 1.096m2.07-1.99a.632.632 0 1 0-.004-1.264.632.632 0 0 0 .004 1.264m2.07-1.98a.711.711 0 0 0 .716-.708.716.716 0 0 0-.716-.717.709.709 0 0 0-.706.717c0 .393.312.708.706.708m2.08-1.99c.44 0 .794-.357.794-.795a.795.795 0 1 0-1.592 0c0 .438.357.795.798.795m-20.72 19.7-.218.215.218.212.22-.212-.22-.215zm-2.07 1.99-.299.296.299.298.292-.298-.292-.296zm-2.07 1.99-.38.38.38.381.387-.382-.387-.379zm-2.07 1.98a.465.465 0 1 0-.002.928.465.465 0 0 0 .002-.928m-2.07 1.99a.549.549 0 0 0 0 1.096.552.552 0 0 0 .546-.552.55.55 0 0 0-.546-.544m-2.07 1.99a.633.633 0 1 0-.007 1.265.633.633 0 0 0 .007-1.265m-2.07 1.99c-.396 0-.72.32-.72.714s.324.711.72.711.71-.318.71-.71-.32-.71-.71-.71m-2.07 1.99c-.443 0-.8.353-.8.797a.8.8 0 0 0 .8.797.798.798 0 0 0 0-1.595m-26.93 7.93a.92.92 0 0 0 .924-.929.921.921 0 0 0-.923-.925.927.927 0 0 0 0 1.854m4.14.03a.954.954 0 1 0 0-1.91.956.956 0 1 0 0 1.91m10.36-2.13a.893.893 0 0 0 .892-.898.891.891 0 1 0-1.785 0c0 .496.402.898.893.898m-4.15-.09a.808.808 0 1 0 .002-1.615.808.808 0 0 0-.002 1.615m-4.14-.09c.401 0 .72-.323.72-.722a.717.717 0 0 0-1.437 0c0 .399.32.722.717.722m-4.14-.08a.632.632 0 0 0 0-1.263.631.631 0 1 0 0 1.263m-2.07-2.32.39-.39-.39-.388-.39.388.39.39zm16.57.32a.715.715 0 1 0 0 0m-4.14-.1a.607.607 0 0 0 0-1.216c-.338 0-.605.273-.605.608s.267.608.605.608m-4.14-.11a.496.496 0 0 0 .496-.5.499.499 0 1 0-.496.5m-4.15-.11.387-.39-.387-.388-.39.388.39.39zm-2.07-2.24.22-.22-.22-.223-.22.223.22.22zm16.57.37a.582.582 0 1 0-.004-1.164.582.582 0 0 0 .004 1.164m-4.14-.11a.463.463 0 0 0 0-.926c-.26 0-.463.21-.463.463a.46.46 0 0 0 .463.463m-4.15-.11.34-.34-.34-.346-.343.346.343.34zm-4.14-.11.226-.223-.226-.223-.218.223.218.223zM72.619 77.82a.829.829 0 0 1-.826-.825.827.827 0 0 1 1.654 0 .831.831 0 0 1-.828.825m4.146-.449-.382-.376.382-.38.376.38-.376.376zm2.069 1.841-.148-.148.148-.148.153.148-.153.148z"/><path d="M71.805 76.981a.824.824 0 0 1 1.648 0 .825.825 0 1 1-1.648 0m2.282 2.074c0-.34.276-.614.616-.614.338 0 .608.274.608.614 0 .34-.27.61-.608.61a.612.612 0 0 1-.616-.61m2.288 2.071.399-.399.393.399-.393.396-.399-.396zm2.285 2.07.184-.184.181.184-.18.184-.185-.184zm-6.863-2.065a.827.827 0 0 1 1.654 0 .832.832 0 0 1-.829.828.83.83 0 0 1-.825-.828m2.282 2.069c0-.337.276-.61.614-.61.343 0 .607.273.607.61 0 .34-.264.614-.607.614a.614.614 0 0 1-.614-.614m2.288 2.073.396-.399.399.399-.399.399-.396-.4zm2.176 2.072.293-.29.293.29-.293.287-.293-.287zm2.182 2.069.181-.184.193.184-.193.187-.181-.187zm0 4.143.181-.187.193.187-.193.184-.181-.184zm2.132 2.072.123-.117.114.117-.114.117-.123-.117zm-.046 4.142.176-.184.192.184-.192.184-.176-.184zm2.132 2.069.114-.12.126.12-.126.117-.114-.117zm2.062 6.22.114-.12.12.12-.12.117-.114-.117zm2.069 2.07.123-.117.117.117-.117.114-.123-.114zm.131 13.36c-.772 0-.931-.184-.931-.934 0-.516.415-.932.931-.932s.931.416.931.932-.415.934-.931.934m4.143 4.14c-.82 0-.931-.011-.931-.931 0-.516.415-.938.931-.938s.929.422.929.938-.413.931-.929.931m-2.07-2.07c-.867 0-.937-.126-.937-.934 0-.516.421-.935.937-.935s.929.419.929.935a.931.931 0 0 1-.929.934"/><path d="M72.622 76.137a.83.83 0 0 0-.825.828c0 .455.373.826.825.826.452 0 .828-.371.828-.826a.832.832 0 0 0-.828-.828m4.146.448-.382.38.382.379.376-.38-.376-.379zm2.069-1.841-.148.148.148.148.153-.148-.153-.148z"/><path d="M71.751 76.971c0 .455.092.823.876.823.46 0 .825-.368.825-.823a.822.822 0 0 0-.825-.828c-.458 0-.876.368-.876.828m2.336-2.074c0 .34.276.614.616.614a.609.609 0 0 0 .608-.614.61.61 0 0 0-.608-.61.615.615 0 0 0-.616.61m2.288-2.069.399.399.393-.399-.393-.399-.399.399zm2.285-2.072.184.187.181-.187-.18-.184-.185.184zm-6.939 2.065c0 .457.449.823.9.823a.827.827 0 0 0 .83-.823.827.827 0 0 0-.83-.823c-.451 0-.9.366-.9.823m2.358-2.072c0 .337.276.614.614.614a.607.607 0 0 0 .608-.614.605.605 0 0 0-.608-.61.613.613 0 0 0-.614.61m2.288-2.07.396.399.399-.399-.399-.396-.396.396zm2.285-2.071.181.187.187-.187-.187-.184-.181.184zm10.316-26.896.229.223.214-.223-.214-.229-.23.23zM136.83 9.413a.768.768 0 0 0 0-1.537.769.769 0 0 0 0 1.537m-4.15.07c.46 0 .842-.377.842-.837a.842.842 0 0 0-1.681 0c0 .46.384.836.839.836m-4.14.069a.906.906 0 1 0 0-1.81c-.5 0-.9.404-.9.903 0 .502.4.907.9.907m-4.14.066a.974.974 0 0 0 .973-.973c0-.968-.435-.97-.973-.97-.535 0-.973.002-.973.97 0 .535.438.973.973.973m13.94 1.099a.554.554 0 1 1 .552.555.552.552 0 0 1-.552-.555m-4.14 0c0-.304.257-.555.552-.555a.556.556 0 1 1-.552.555m2.29 2.071.34-.337.335.337-.335.34-.34-.34zm-4.15 0 .34-.337.34.337-.34.34-.34-.34zm2.29 2.071.12-.126.128.126-.128.123-.12-.123zm4.14 0 .126-.126.128.126-.129.123-.125-.123zm-8.16-3.487c.363 0 .658-.293.658-.655a.657.657 0 0 0-1.316 0c0 .362.298.655.658.655m-4.14.1c.418 0 .761-.337.761-.756s-.343-.758-.761-.758c-.421 0-.756.34-.756.758s.335.756.756.756m-4.14.103c.471 0 .85-.385.85-.859a.85.85 0 0 0-.85-.856.86.86 0 0 0-.867.856c0 .474.39.859.867.859m6.69 1.212a.477.477 0 0 0-.957 0c0 .26.218.474.477.474.268 0 .48-.215.48-.474m-4.01 0a.61.61 0 1 0-1.223-.002.61.61 0 0 0 1.223.002m-4.01 0a.748.748 0 0 0-.75-.747.746.746 0 1 0 .75.747m-1.85-2.071c0-.53-.43-.962-.965-.962a.96.96 0 0 0-.956.962c0 .53.426.962.956.962a.963.963 0 0 0 .965-.962M117 12.786a.884.884 0 1 0-1.767 0 .884.884 0 0 0 1.767 0m-15.66 14.499.276.273.268-.273-.268-.273-.276.273zm2.03-2.07.32.326.327-.326-.326-.332-.321.332zm2.01-2.073.38.376.381-.376-.382-.376-.379.376zm2.02-2.071.432.43.433-.43-.433-.43-.432.43zm2.02-2.07c0 .265.21.477.48.477a.48.48 0 0 0 0-.96c-.27 0-.48.218-.48.483m21.19-3.883-.26-.26.26-.262.265.263-.265.259zm-4.14.134-.399-.396.399-.396.396.396-.396.396zm-4.14.135c-.298 0-.538-.237-.538-.53s.24-.535.538-.535a.531.531 0 0 1 0 1.065m-4.14.138a.669.669 0 1 1 0-1.338.669.669 0 0 1 0 1.338m6.08 1.402.126-.12.12.12-.12.125-.126-.125zm-4.01.263-.257-.262.257-.262.262.262-.262.262zm-4.14.134-.396-.396.396-.396.404.396-.404.396zm-4.15.137c-.293 0-.53-.237-.53-.533s.237-.532.53-.532a.531.531 0 1 1 0 1.065m6.09 1.54.123-.126.128.126-.128.125-.123-.125zm-10.35 6.214.123-.12.12.12-.12.128-.123-.128zm2.03-2.072.167-.167.173.167-.173.173-.167-.173zm2.01-2.072.22-.215.215.215-.215.218-.22-.218zm2.3-1.808-.268-.262.268-.26.265.26-.265.262zm0-3.602a.81.81 0 0 1-.809-.803.81.81 0 0 1 .809-.806.81.81 0 0 1 .806.806.81.81 0 0 1-.806.803m-4.15.135a.94.94 0 1 1 0-1.877.938.938 0 0 1 0 1.877m-2.07 2.014a.886.886 0 0 1-.887-.881.884.884 0 0 1 1.768 0 .887.887 0 0 1-.881.881m-2.07 2.015a.823.823 0 0 1-.82-.828c0-.452.368-.823.82-.823.46 0 .834.37.834.823a.83.83 0 0 1-.834.828m-2.07 2.012a.77.77 0 0 1-.767-.767.765.765 0 1 1 1.531 0 .764.764 0 0 1-.764.767m-2.07 2.012a.708.708 0 0 1-.714-.706c0-.396.318-.714.714-.714s.714.318.714.714c0 .39-.318.706-.714.706m-2.071 2.018a.649.649 0 0 1-.653-.655.65.65 0 1 1 1.3 0 .648.648 0 0 1-.647.655m-2.07 2.012a.596.596 0 1 1-.001-1.193.596.596 0 0 1 .001 1.193m-2.072 2.014a.543.543 0 0 1-.541-.538.539.539 0 1 1 1.076 0c0 .295-.24.538-.535.538m-2.07 2.015a.481.481 0 1 1 0-.965c.262 0 .482.218.482.483s-.22.482-.482.482m-6.558 9.872.34.343.346-.343-.346-.34-.34.34zm-2.19 2.074c0 .254.206.457.46.457.257 0 .466-.203.466-.457s-.21-.466-.466-.466a.465.465 0 0 0-.46.466m-2.192 2.07a.579.579 0 1 0 1.16 0 .58.58 0 0 0-1.16 0m-2.19 2.068a.7.7 0 0 0 .7.703.704.704 0 1 0-.7-.703m-2.192 2.075c0 .452.37.817.823.817a.82.82 0 1 0-.823-.817m4.965-8.997c.393 0 .708.318.708.711s-.315.711-.708.711c-.39 0-.711-.318-.711-.71s.32-.712.71-.712m2.07-2.012c.36 0 .65.29.65.653a.651.651 0 1 1-1.303 0 .65.65 0 0 1 .653-.653m2.07-2.015a.596.596 0 1 1 .002 1.192.596.596 0 0 1-.002-1.192m2.07-2.014c.301 0 .544.243.544.538a.54.54 0 1 1-.544-.538m2.078-2.016a.484.484 0 0 1 0 .968.477.477 0 0 1-.48-.483c0-.267.207-.485.48-.485m4.15.612-.125-.125.126-.131.123.13-.123.126zm-2.08 2.074-.134-.13.134-.126.123.125-.123.131zM82.666 50.061l.312.312.313-.312-.313-.312-.312.312zm6.53-6.079-.13-.128.13-.128.124.128-.123.128zm-2.077 2.09-.148-.148.148-.15.148.15-.148.148zm-2.07 2.122-.2-.2.2-.204.2.203-.2.201zm-2.07 6.142-.125-.128.126-.131.125.13-.125.13zm16.57-24.76-.218-.223.218-.22.223.22-.223.223zm-2.07 2.016-.167-.167.167-.165.159.165-.16.167zm-6.212 6.247-.204-.198.204-.2.195.2-.195.198zM74.692 63.257a.76.76 0 0 1-.759-.767c0-.418.338-.767.759-.767a.768.768 0 0 1 0 1.534m2.076-2.269a.561.561 0 0 1-.566-.566.566.566 0 1 1 1.132 0 .565.565 0 0 1-.566.566m0 4.02-.446-.447.446-.443.446.443-.446.446zM74.692 67.3a.669.669 0 0 1 0-1.336c.374 0 .666.299.666.667 0 .37-.292.67-.666.67m4.145-4.538-.27-.273.27-.27.268.27-.268.273zm0-8.01a.545.545 0 0 1-.544-.547c0-.302.245-.541.544-.541a.545.545 0 1 1 0 1.087m2.07 1.774-.243-.248.243-.248.248.248-.248.248zm0-3.996-.396-.396.396-.396.401.396-.401.396zM72.622 86.23a.958.958 0 1 1 .007-1.915.958.958 0 0 1-.007 1.915m5.848 5.257.368-.368.374.368-.374.368-.368-.368zm-2.256-2.073c0-.304.248-.55.552-.55s.547.246.547.55a.55.55 0 1 1-1.1 0m-2.256-2.069a.735.735 0 1 1 1.47-.003.735.735 0 0 1-1.47.003m-.117 4.142a.858.858 0 1 1 1.716-.001.858.858 0 0 1-1.716.001m.852 5.124c-.541 0-1.068-.44-1.068-.982s.527-.984 1.068-.984c.546 0 .987.443.987.984s-.44.982-.987.982m10.085 9.38.273-.277.273.276-.273.276-.273-.276zm-2.233-2.08.435-.433.435.432-.435.43-.435-.43zm-2.024-6.212.388-.385.382.385-.382.388-.388-.388zm-.196 4.141a.585.585 0 1 1 1.17-.001.585.585 0 0 1-1.17.001m.583 9.27a.994.994 0 0 1-.993-.987c0-.547.45-.99.993-.99a.99.99 0 0 1 .993.99.99.99 0 0 1-.993.987m-4.831-17.553c0-.376.31-.689.691-.689.377 0 .687.313.687.69a.688.688 0 1 1-1.378 0m-.134 4.143c0-.454.365-.823.825-.823a.825.825 0 1 1-.825.823m2.36-2.072c0-.295.24-.535.534-.535.3 0 .532.24.532.535s-.231.536-.532.536a.535.535 0 0 1-.533-.536m-.174 4.142a.71.71 0 0 1 .708-.705.7.7 0 0 1 .7.705.697.697 0 0 1-.7.703.708.708 0 0 1-.708-.703m29.82 28.99-.116.116-.12-.117.12-.117.117.117zm-2.07-2.06-.125.116-.114-.117.114-.12.126.12zm10.36 6.21-.12.122-.116-.123.117-.117.12.117zm6.21 2.07-.113.116-.126-.117.126-.12.114.12zm6.21 2.07-.116.116-.115-.117.115-.117.117.117zm-6.33 5.23a.985.985 0 0 1 0 1.969c-.758-.001-.986-.163-.986-.985 0-.544.437-.985.987-.985m-10.08-9.37-.279.276-.273-.276.273-.27.279.27zm2.23 2.07-.432.43-.435-.43.435-.43.432.43zm3.98 0-.276.273-.274-.273.274-.276.276.276zm6.22 2.07-.276.276-.27-.276.27-.276.276.276zm-3.99 0-.432.43-.427-.43.427-.432.432.432zm-3.99 0a.595.595 0 0 1-.589.591.59.59 0 0 1 0-1.18c.321 0 .589.266.589.59m4.39 4.14a.826.826 0 0 1-1.651 0c0-.455.37-.826.828-.826.452 0 .823.37.823.825m-2.2-2.07c0 .385-.32.7-.7.7a.702.702 0 1 1 0-1.403c.38 0 .7.313.7.703m-43.084-37.28a.961.961 0 0 1 1.924 0c0 .53-.435.962-.962.962a.964.964 0 0 1-.962-.962m19.6 23.38a.595.595 0 1 1-.003-1.19.595.595 0 0 1 .004 1.19M82.98 113.11a.906.906 0 0 1-.906-.915c0-.499.398-.906.906-.906.505 0 .906.407.906.906a.908.908 0 0 1-.906.915m2.069 1.99a.828.828 0 0 1-.828-.828c0-.46.368-.834.828-.834s.834.374.834.834a.833.833 0 0 1-.834.828m2.07 1.99a.752.752 0 0 1 0-1.503c.418 0 .758.337.758.753 0 .413-.34.75-.758.75m4.148 3.98a.595.595 0 1 1 0-1.188c.32 0 .591.268.591.597 0 .326-.27.591-.591.591m2.07 2.07a.593.593 0 1 1 0-1.185.592.592 0 0 1 0 1.185m14.493 13a.91.91 0 1 1 0 1.821.912.912 0 0 1 0-1.82m-2.07-1.99a.831.831 0 1 1 0 1.661.83.83 0 0 1-.823-.834c0-.457.371-.828.823-.828m-2.07-1.99c.415 0 .747.338.747.748a.748.748 0 0 1-.747.755.754.754 0 0 1-.753-.755c0-.41.34-.748.753-.748m-2.07-2c.374 0 .672.301.672.675a.675.675 0 0 1-1.35 0c0-.374.304-.675.678-.675m-2.071-1.99a.594.594 0 0 1 0 1.188.594.594 0 0 1 0-1.188m-2.07-2.07a.592.592 0 0 1 0 1.185.593.593 0 1 1 0-1.185m0-3.33-.218-.215.218-.214.212.214-.212.215zm-2.072-2.08-.218-.212.218-.215.215.215-.215.212zm-2.07-2.07-.22-.212.22-.215.212.215-.212.212zm-2.078-1.98-.293-.298.293-.299.304.299-.304.298zm-4.14-3.98a.464.464 0 0 1-.469-.466c0-.25.21-.46.469-.46.256 0 .468.21.468.46a.465.465 0 0 1-.468.466m-2.07-1.99a.543.543 0 0 1-.544-.546c0-.307.24-.55.544-.55a.548.548 0 0 1 0 1.096m-2.07-1.99a.625.625 0 0 1-.63-.633c0-.349.277-.63.63-.63a.633.633 0 1 1 0 1.263m-2.072-1.98a.711.711 0 0 1-.717-.708.716.716 0 1 1 1.43 0 .705.705 0 0 1-.713.708m-2.07-1.99a.797.797 0 0 1-.8-.795c0-.44.356-.797.8-.797.438 0 .792.357.792.797a.794.794 0 0 1-.792.795m20.712 19.7.212.215-.212.212-.218-.212.218-.215zm2.07 1.99.294.296-.293.298-.299-.298.299-.296zm2.07 1.99.389.38-.388.381-.382-.382.382-.379zm2.07 1.98a.465.465 0 1 1 0 .929.465.465 0 0 1 0-.929m2.07 1.99a.548.548 0 0 1 0 1.096.557.557 0 0 1-.549-.552c0-.296.254-.544.55-.544m2.07 1.99a.632.632 0 1 1 0 1.263.626.626 0 0 1-.628-.633c0-.348.276-.63.628-.63m2.07 1.99c.399 0 .711.32.711.714s-.312.711-.711.711a.712.712 0 0 1 0-1.425m2.08 1.99a.797.797 0 1 1 0 1.595.797.797 0 0 1 0-1.595m22.78 7.96a.953.953 0 0 1-.957-.956c0-.528.427-.954.957-.954.527 0 .954.426.954.954a.952.952 0 0 1-.954.956m-4.15.03c-.9 0-.982-.067-.982-.987a.985.985 0 1 1 1.969 0c0 .92-.053.987-.987.987m-6.21-2.16a.892.892 0 0 1-.887-.898.89.89 0 0 1 .887-.892.896.896 0 1 1 0 1.79m4.14-.09a.808.808 0 0 1 0-1.615.81.81 0 0 1 .806.806.809.809 0 0 1-.806.81m4.14-.09a.717.717 0 0 1-.714-.723.716.716 0 1 1 1.43 0 .716.716 0 0 1-.716.722m4.14-.08a.638.638 0 0 1-.63-.636.633.633 0 0 1 1.263 0 .637.637 0 0 1-.633.636m-14.49-2a.716.716 0 1 1 .004-1.43.716.716 0 0 1-.004 1.43m4.14-.1c-.33 0-.608-.273-.608-.608s.279-.608.608-.608c.337 0 .613.274.613.608s-.276.608-.613.608m4.14-.11a.5.5 0 0 1-.5-.5.5.5 0 0 1 1.002 0c0 .277-.229.5-.502.5m4.15-.11-.393-.39.393-.388.387.388-.387.39zm2.06-2.24-.22-.22.22-.223.226.223-.226.22zm-16.56.37a.585.585 0 0 1-.586-.583c0-.32.265-.583.586-.583a.584.584 0 0 1 0 1.166m4.14-.11a.464.464 0 0 1 0-.926c.256 0 .46.21.46.463a.46.46 0 0 1-.46.463m4.14-.11-.338-.34.338-.346.346.346-.346.34zm4.14-.11-.215-.223.215-.223.229.223-.23.223zm48.77-116.24c0-.527.424-.954.95-.954.899 0 .955.031.955.954 0 .524-.43.951-.954.951a.95.95 0 0 1-.951-.95m2.07 2.068c0-.524.43-.954.956-.954.53 0 .954.43.954.954a.956.956 0 1 1-1.91 0m2.07 2.07a.956.956 0 1 1 1.913 0c0 .532-.424.958-.954.958a.96.96 0 0 1-.96-.959m2.07 2.074a.96.96 0 0 1 .96-.956.957.957 0 1 1-.96.957m2.07 2.07c0-.527.433-.962.96-.962.901 0 .965.073.965.962 0 .53-.435.962-.965.962a.963.963 0 0 1-.96-.962m2.07 2.073c0-.533.422-.965.957-.965.99 0 .965-.008.965.965 0 .53-.432.962-.965.962a.956.956 0 0 1-.956-.962m5.1 66.415.148-.15-.148-.148-.156.148.156.15z"/></g><g fill="#c49d6e"><path d="m95.14 121.24-1.542 5.943-1.169.94s1.635-.75 2.365-.435c.728.318.999.705.999.705l3.617 4.019s-.371 1.383.161 1.704c.533.32 2.17.159 2.17.159l-.864-1.104 1.221-1.138-.36-.092-4.359-4.856c-.63-.348-1.676-.07-1.676-.07l1.347-5.418.85-.602-1.664-1.225s-.346-.65-.084-.85c.254-.201.58-.536.58-.536s-1.45-.304-1.893.625c-.388.792.301 2.231.301 2.231m14.122 9.01s-1.62.073-2.125-.27c-.508-.338-.073-1.682-.073-1.682l-3.357-4.13s-.248-.4-.94-.745c-.7-.348-2.346.307-2.346.307l1.197-.867 1.818-5.76s-.6-1.447-.184-2.208c.488-.89 1.89-.516 1.89-.516s-.334.31-.596.494c-.262.187.034.845.034.845l1.575 1.282-.859.555-1.603 5.252s1.04-.22 1.642.153l4.041 4.995.349.109-1.26 1.057.797 1.13zm7.53-3.02s-1.592-.014-2.072-.374c-.488-.365.011-1.665.011-1.665l-3.084-4.244s-.226-.402-.893-.781c-.669-.38-2.323.176-2.323.176l1.222-.787 2.094-5.583s-.519-1.453-.064-2.184c.519-.85 1.89-.412 1.89-.412s-.34.293-.618.457c-.268.173-.006.834-.006.834l1.478 1.347-.873.502-1.852 5.09s1.032-.162 1.612.24l3.712 5.128.338.125-1.297.977.725 1.154zm7.54-2.37s-1.576-.1-2.03-.482c-.452-.382.109-1.643.109-1.643l-2.823-4.356s-.192-.41-.836-.826c-.645-.41-2.31.053-2.31.053l1.253-.714 2.367-5.399s-.426-1.467.059-2.16c.563-.815 1.888-.305 1.888-.305s-.357.27-.633.418c-.276.154-.053.826-.053.826l1.394 1.411-.898.446-2.102 4.928s1.034-.109 1.58.318l3.39 5.27.331.146-1.341.892.65 1.16zm7.56-1.74s-1.562-.187-1.994-.591c-.424-.407.198-1.623.198-1.623l-2.549-4.473s-.17-.416-.79-.86c-.616-.443-2.283-.075-2.283-.075l1.28-.638 2.64-5.221s-.348-1.472.177-2.136c.596-.775 1.888-.195 1.888-.195s-.369.245-.653.379c-.284.14-.095.811-.095.811l1.303 1.476-.91.393-2.359 4.763s1.03-.047 1.545.407l3.07 5.408.316.156-1.372.814.588 1.205zm7.56-1.04s-1.537-.273-1.941-.697c-.407-.43.282-1.601.282-1.601l-2.282-4.588s-.153-.426-.736-.9c-.585-.474-2.267-.201-2.267-.201l1.302-.56 2.917-5.04s-.253-1.486.293-2.117c.647-.736 1.894-.089 1.894-.089s-.382.223-.667.343c-.287.12-.14.8-.14.8l1.209 1.537-.93.34-2.607 4.602s1.024.01 1.512.49l2.744 5.545.31.175-1.409.731.516 1.23zm7.58-.41s-1.52-.354-1.896-.806c-.38-.446.373-1.578.373-1.578l-2.022-4.702s-.122-.43-.68-.937c-.552-.508-2.245-.33-2.245-.33l1.33-.485 3.205-4.86s-.182-1.493.404-2.092c.68-.695 1.89.02 1.89.02s-.392.206-.685.303c-.293.104-.187.792-.187.792l1.12 1.601-.942.287-2.861 4.437s1.02.07 1.475.572l2.427 5.684.295.198-1.444.644.443 1.252zm7.59.12s-1.498-.446-1.855-.912c-.345-.474.469-1.562.469-1.562l-1.757-4.813s-.1-.444-.627-.979c-.528-.535-2.226-.457-2.226-.457l1.361-.41 3.47-4.677s-.084-1.503.53-2.07c.719-.658 1.887.129 1.887.129s-.404.181-.705.265c-.299.084-.235.778-.235.778l1.032 1.662-.956.234-3.118 4.278s1.023.126 1.453.661l2.1 5.818.284.209-1.483.563.376 1.283zm7.59.78s-1.472-.527-1.802-1.02c-.331-.491.553-1.537.553-1.537l-1.487-4.93s-.072-.444-.574-1.016c-.491-.569-2.209-.583-2.209-.583l1.389-.337 3.745-4.496s-.003-1.514.653-2.044c.756-.62 1.885.232 1.885.232s-.416.156-.722.228c-.307.064-.276.764-.276.764l.937 1.732-.976.179-3.364 4.113s1.015.184 1.414.742l1.785 5.96.27.228-1.522.477.301 1.308zm7.61 1.34s-1.453-.616-1.762-1.13c-.296-.513.647-1.514.647-1.514l-1.22-5.047s-.044-.452-.52-1.052c-.466-.6-2.193-.714-2.193-.714l1.423-.256 4.018-4.317s.073-1.523.767-2.022c.8-.578 1.883.343 1.883.343s-.427.134-.731.184c-.312.055-.32.758-.32.758l.839 1.793-.996.126-3.617 3.954s1.015.24 1.386.826l1.458 6.09.268.243-1.559.402.229 1.333zm7.62 2.06s-1.439-.7-1.718-1.238c-.273-.533.74-1.492.74-1.492l-.955-5.162s-.028-.46-.465-1.09c-.447-.634-2.176-.837-2.176-.837l1.442-.187 4.3-4.133s.165-1.534.876-2.003c.848-.538 1.894.452 1.894.452s-.438.115-.753.148c-.324.034-.368.747-.368.747l.753 1.855-1.01.075-3.87 3.788s1.009.298 1.355.911l1.135 6.233.256.257-1.6.318.164 1.358zm7.63 2.71s-1.417-.786-1.673-1.347c-.248-.555.834-1.47.834-1.47l-.692-5.273s0-.469-.41-1.133c-.418-.66-2.156-.964-2.156-.964l1.473-.11 4.568-3.95s.256-1.546 1.012-1.975c.879-.505 1.883.555 1.883.555s-.45.089-.773.105c-.32.02-.418.737-.418.737l.672 1.921-1.026.02-4.125 3.625s1.004.357 1.32.996l.81 6.37.246.275-1.629.238.084 1.38zm10.37-10.94-4.844 3.77-1.503.031s1.754.402 2.133 1.099c.39.692.365 1.166.365 1.166l.416 5.388s-1.14.873-.918 1.453c.226.577 1.632 1.45 1.632 1.45l-.022-1.406 1.67-.15-.231-.296-.491-6.509c-.287-.664-1.289-1.08-1.289-1.08l4.379-3.463 1.037.033-.572-1.982s.132-.723.458-.723c.329-.005.789-.072.789-.072s-.962-1.124-1.888-.664c-.79.402-1.121 1.955-1.121 1.955"/><path d="m202.39 121.04-4.85 3.768-1.495.033s1.75.402 2.131 1.096c.385.697.36 1.171.36 1.171l.424 5.388s-1.15.873-.92 1.453c.225.578 1.62 1.448 1.62 1.448l-.009-1.406 1.662-.148-.231-.298-.488-6.506c-.29-.664-1.286-1.08-1.286-1.08l4.379-3.463 1.04.033-.577-1.983s.128-.722.451-.725c.332 0 .79-.07.79-.07s-.965-1.123-1.88-.663c-.79.399-1.121 1.952-1.121 1.952m-.5-83.81 1.542-5.946 1.169-.94s-1.632.754-2.36.438c-.728-.318-.995-.705-.995-.705l-3.631-4.013s.373-1.39-.16-1.71c-.53-.318-2.169-.159-2.169-.159l.87 1.102-1.23 1.143.368.09 4.362 4.855c.628.351 1.673.072 1.673.072l-1.35 5.413-.844.608 1.662 1.22s.343.652.086.852c-.268.204-.586.536-.586.536s1.456.304 1.9-.622c.376-.795-.307-2.234-.307-2.234m-14.11-8.992s1.62-.072 2.133.27c.505.338.073 1.682.073 1.682l3.35 4.133s.25.394.947.745c.703.346 2.34-.31 2.34-.31l-1.196.865-1.81 5.764s.597 1.445.178 2.206c-.48.893-1.89.519-1.89.519s.331-.312.602-.494c.26-.19-.042-.845-.042-.845l-1.573-1.285.865-.553 1.6-5.256s-1.048.225-1.648-.151l-4.038-4.995-.349-.108 1.267-1.057-.8-1.13zm-7.53 3.025s1.6.014 2.078.377c.488.362-.017 1.665-.017 1.665l3.093 4.241s.214.405.892.784c.664.38 2.326-.184 2.326-.184l-1.227.795-2.092 5.577s.513 1.459.07 2.19c-.53.85-1.896.41-1.896.41s.343-.293.616-.46c.27-.17.006-.832.006-.832l-1.481-1.347.873-.502 1.857-5.09s-1.04.162-1.61-.24l-3.72-5.125-.34-.128 1.308-.973-.74-1.157zm-7.54 2.37s1.581.098 2.039.483c.46.385-.112 1.645-.112 1.645l2.825 4.356s.195.41.842.82c.639.41 2.301-.05 2.301-.05l-1.247.714-2.37 5.402s.427 1.464-.056 2.158c-.563.815-1.893.304-1.893.304s.357-.268.633-.418c.276-.154.055-.823.055-.823l-1.394-1.41.895-.45 2.109-4.925s-1.04.106-1.576-.323l-3.397-5.271-.335-.142 1.347-.89-.67-1.18zm-7.56 1.738s1.562.184 1.991.589c.43.404-.198 1.623-.198 1.623l2.557 4.473s.165.415.781.862c.614.44 2.29.072 2.29.072l-1.28.636-2.641 5.22s.34 1.479-.179 2.14c-.6.775-1.89.195-1.89.195s.37-.243.652-.377c.285-.14.098-.811.098-.811l-1.303-1.475.915-.394 2.36-4.766s-1.038.048-1.551-.404l-3.068-5.41-.315-.157 1.372-.814-.59-1.201zm-7.56 1.04s1.537.27 1.94.697c.403.424-.286 1.601-.286 1.601l2.29 4.588s.147.424.73.898c.588.474 2.262.2 2.262.2l-1.303.564-2.92 5.04s.257 1.483-.292 2.11c-.636.74-1.891.092-1.891.092s.382-.223.675-.343c.281-.117.139-.797.139-.797l-1.208-1.54.924-.337 2.613-4.607s-1.032-.008-1.517-.488l-2.747-5.544-.31-.179 1.414-.728-.51-1.228zm-7.58.414s1.525.357 1.905.803c.373.45-.38 1.582-.38 1.582l2.02 4.696s.12.438.68.942c.56.505 2.25.33 2.25.33l-1.332.485-3.2 4.86s.176 1.493-.406 2.09c-.68.694-1.894-.02-1.894-.02s.393-.2.686-.301c.298-.103.193-.79.193-.79l-1.122-1.6.94-.29 2.862-4.437s-1.021-.067-1.484-.578l-2.418-5.68-.301-.19 1.453-.65-.45-1.252zm-7.59-.125s1.5.444 1.86.915c.349.471-.477 1.556-.477 1.556l1.757 4.814s.095.437.63.978c.527.539 2.229.458 2.229.458l-1.367.413-3.464 4.674s.087 1.506-.535 2.066c-.714.661-1.885-.123-1.885-.123s.404-.18.705-.265c.299-.083.235-.78.235-.78l-1.035-1.663.96-.234 3.117-4.278s-1.018-.122-1.447-.658l-2.103-5.82-.29-.207 1.49-.563-.37-1.284zm-7.59-.778s1.475.524 1.807 1.02c.33.492-.56 1.535-.56 1.535l1.489 4.933s.072.446.574 1.012c.5.57 2.206.586 2.206.586l-1.383.337-3.746 4.493s.006 1.515-.655 2.044c-.753.62-1.882-.234-1.882-.234s.407-.156.716-.223c.307-.07.285-.767.285-.767l-.94-1.729.973-.181 3.372-4.114s-1.023-.187-1.422-.744l-1.78-5.957-.273-.229 1.523-.48-.31-1.302zm-7.61-1.334s1.456.614 1.76 1.127c.304.513-.645 1.514-.645 1.514l1.222 5.048s.05.452.516 1.054c.468.597 2.195.711 2.195.711l-1.417.26-4.024 4.314s-.081 1.523-.764 2.019c-.8.583-1.888-.337-1.888-.337s.426-.137.739-.19c.312-.05.32-.753.32-.753l-.847-1.796.992-.123 3.62-3.951s-1.015-.246-1.383-.829l-1.461-6.093-.262-.248 1.561-.396-.24-1.331zm-7.62-2.062s1.436.7 1.712 1.233c.28.538-.73 1.497-.73 1.497l.95 5.16s.023.46.463 1.093c.447.627 2.176.837 2.176.837l-1.442.184-4.295 4.133s-.17 1.533-.887 1.996c-.836.544-1.885-.446-1.885-.446s.435-.111.748-.148c.323-.033.373-.744.373-.744l-.887-1.537.79-.206 4.222-3.977s-1.012-.301-1.353-.91l-1.14-6.232-.251-.26 1.603-.317-.167-1.356zm-7.63-2.718s1.417.79 1.673 1.344c.248.558-.825 1.473-.825 1.473l.686 5.276s0 .463.407 1.133c.421.66 2.161.965 2.161.965l-1.475.108-4.57 3.952s-.25 1.545-1.005 1.974c-.876.5-1.882-.554-1.882-.554s.449-.093.77-.112c.323-.014.412-.733.412-.733l-.664-1.92 1.021-.016 4.12-3.628s-1.002-.36-1.317-.999l-.812-6.37-.242-.278 1.631-.231-.09-1.383zM101.6 40.75l4.844-3.77 1.5-.034s-1.748-.399-2.133-1.096c-.388-.694-.363-1.168-.363-1.168l-.418-5.388s1.14-.873.912-1.45c-.223-.58-1.62-1.456-1.62-1.456l.017 1.41-1.665.151.228.293.488 6.51c.285.66 1.289 1.079 1.289 1.079l-4.381 3.466-1.04-.036.577 1.983s-.129.722-.452.722c-.332.003-.79.073-.79.073s.966 1.126 1.88.66c.8-.396 1.13-1.949 1.13-1.949"/><path d="m94.633 37.428 4.85-3.77 1.5-.031s-1.749-.402-2.139-1.096c-.382-.695-.351-1.169-.351-1.169l-.424-5.39s1.14-.876.915-1.45c-.226-.58-1.626-1.454-1.626-1.454l.02 1.406-1.666.153.223.296.494 6.506c.287.661 1.291 1.08 1.291 1.08l-4.375 3.463-1.04-.033.571 1.985s-.134.72-.46.723c-.33 0-.79.07-.79.07s.968 1.126 1.886.663c.789-.402 1.124-1.952 1.124-1.952"/></g><g fill="#f4793e"><path d="m94.434 121.24-1.537 5.943-1.168.94s1.634-.75 2.362-.435c.73.318.996.705.996.705l3.622 4.019s-.368 1.383.168 1.704c.527.32 2.172.159 2.172.159l-.878-1.104 1.227-1.138-.366-.092-4.353-4.856c-.633-.348-1.676-.07-1.676-.07l1.353-5.418.84-.602-1.66-1.225s-.343-.65-.09-.85c.265-.201.58-.536.58-.536s-1.447-.304-1.887.625c-.38.792.295 2.231.295 2.231m14.114 9.01s-1.615.073-2.12-.27c-.51-.338-.069-1.682-.069-1.682l-3.36-4.13s-.24-.4-.94-.745c-.706-.348-2.346.307-2.346.307l1.202-.867 1.807-5.76s-.594-1.447-.175-2.208c.48-.89 1.893-.516 1.893-.516s-.337.31-.602.494c-.262.187.039.845.039.845l1.57 1.282-.859.555-1.606 5.252s1.046-.22 1.65.153l4.033 4.995.352.109-1.264 1.057.795 1.13zm7.54-3.02s-1.6-.014-2.083-.374c-.477-.365.022-1.665.022-1.665l-3.087-4.244s-.22-.402-.892-.781c-.675-.38-2.326.176-2.326.176l1.224-.787 2.089-5.583s-.513-1.453-.061-2.184c.524-.85 1.893-.412 1.893-.412s-.343.293-.61.457c-.277.173-.015.834-.015.834l1.481 1.347-.873.502-1.854 5.09s1.04-.162 1.606.24l3.718 5.128.34.125-1.303.977.731 1.154zm7.54-2.37s-1.581-.1-2.036-.482c-.454-.382.112-1.643.112-1.643l-2.828-4.356s-.192-.41-.842-.826c-.639-.41-2.295.053-2.295.053l1.25-.714 2.361-5.399s-.424-1.467.053-2.16c.57-.815 1.897-.305 1.897-.305s-.36.27-.636.418c-.276.154-.053.826-.053.826l1.394 1.411-.892.446-2.109 4.928s1.032-.109 1.579.318l3.391 5.27.335.146-1.342.892.68 1.16zm7.56-1.74s-1.564-.187-1.997-.591c-.424-.407.201-1.623.201-1.623l-2.557-4.473s-.167-.416-.781-.86c-.62-.443-2.29-.075-2.29-.075l1.286-.638 2.638-5.221s-.34-1.472.176-2.136c.6-.775 1.888-.195 1.888-.195s-.371.245-.653.379c-.279.14-.094.811-.094.811l1.302 1.476-.912.393-2.36 4.763s1.035-.047 1.548.407l3.071 5.408.315.156-1.372.814.591 1.205zm7.56-1.04s-1.54-.273-1.946-.697c-.402-.43.287-1.601.287-1.601l-2.281-4.588s-.154-.426-.737-.9c-.588-.474-2.27-.201-2.27-.201l1.311-.56 2.92-5.04s-.262-1.486.29-2.117c.639-.736 1.888-.089 1.888-.089s-.38.223-.67.343c-.29.12-.136.8-.136.8l1.205 1.537-.926.34-2.613 4.602s1.032.01 1.525.49l2.742 5.545.3.175-1.41.731.521 1.23zm7.58-.41s-1.52-.354-1.899-.806c-.374-.446.37-1.578.37-1.578l-2.013-4.702s-.122-.43-.677-.937c-.558-.508-2.25-.33-2.25-.33l1.332-.485 3.196-4.86s-.178-1.493.413-2.092c.678-.695 1.888.02 1.888.02s-.396.206-.683.303c-.304.104-.193.792-.193.792l1.121 1.601-.94.287-2.866 4.437s1.026.07 1.486.572l2.42 5.684.293.198-1.444.644.446 1.252zm7.59.12s-1.503-.446-1.857-.912c-.354-.474.466-1.562.466-1.562l-1.755-4.813s-.1-.444-.621-.979c-.533-.535-2.231-.457-2.231-.457l1.358-.41 3.472-4.677s-.09-1.503.524-2.07c.725-.658 1.888.129 1.888.129s-.396.181-.7.265c-.298.084-.229.778-.229.778l1.021 1.662-.95.234-3.122 4.278s1.027.126 1.45.661l2.106 5.818.285.209-1.484.563.38 1.283zm7.6.78s-1.48-.527-1.81-1.02c-.326-.491.555-1.537.555-1.537l-1.483-4.93s-.078-.444-.578-1.016c-.499-.569-2.208-.583-2.208-.583l1.386-.337 3.745-4.496s-.003-1.514.644-2.044c.764-.62 1.894.232 1.894.232s-.418.156-.722.228c-.304.064-.276.764-.276.764l.937 1.732-.977.179-3.368 4.113s1.02.184 1.42.742l1.776 5.96.281.228-1.525.477.31 1.308zm7.6 1.34s-1.461-.616-1.765-1.13c-.301-.513.647-1.514.647-1.514l-1.219-5.047s-.047-.452-.516-1.052c-.477-.6-2.197-.714-2.197-.714l1.422-.256 4.019-4.317s.08-1.523.767-2.022c.8-.578 1.882.343 1.882.343s-.424.134-.736.184c-.313.055-.324.758-.324.758l.856 1.793-.995.126-3.62 3.954s1.01.24 1.38.826l1.459 6.09.268.243-1.565.402.237 1.333zm7.62 2.06s-1.444-.7-1.712-1.238c-.285-.533.728-1.492.728-1.492l-.948-5.162s-.028-.46-.466-1.09c-.446-.634-2.178-.837-2.178-.837l1.444-.187 4.298-4.133s.164-1.534.887-2.003c.836-.538 1.885.452 1.885.452s-.438.115-.753.148c-.324.034-.368.747-.368.747l.753 1.855-1.004.075-3.88 3.788s1.016.298 1.359.911l1.14 6.233.251.257-1.603.318.167 1.358zm7.63 2.71s-1.417-.786-1.668-1.347c-.253-.555.823-1.47.823-1.47l-.683-5.273s0-.469-.418-1.133c-.408-.66-2.15-.964-2.15-.964l1.475-.11 4.565-3.95s.254-1.546 1.01-1.975c.875-.505 1.88.555 1.88.555s-.447.089-.768.105c-.32.02-.41.737-.41.737l.661 1.921-1.023.02-4.125 3.625s1.004.357 1.32.996l.81 6.37.246.275-1.634.238.09 1.38zm10.37-10.94-4.847 3.77-1.5.031s1.751.402 2.133 1.099c.385.692.366 1.166.366 1.166l.412 5.388s-1.14.873-.912 1.453c.23.577 1.624 1.45 1.624 1.45l-.02-1.406 1.673-.15-.231-.296-.488-6.509c-.293-.664-1.294-1.08-1.294-1.08l4.384-3.463 1.034.033-.577-1.982s.131-.723.46-.723c.33-.005.79-.072.79-.072s-.965-1.124-1.88-.664c-.79.402-1.127 1.955-1.127 1.955"/><path d="m201.69 121.04-4.855 3.768-1.492.033s1.748.402 2.13 1.096c.39.697.36 1.171.36 1.171l.424 5.388s-1.14.873-.918 1.453c.226.578 1.626 1.448 1.626 1.448l-.016-1.406 1.667-.148-.234-.298-.488-6.506c-.284-.664-1.288-1.08-1.288-1.08l4.38-3.463 1.035.033-.571-1.983s.122-.722.457-.725c.324 0 .784-.07.784-.07s-.965-1.123-1.885-.663c-.781.399-1.116 1.952-1.116 1.952m-.49-83.81 1.545-5.946 1.169-.94s-1.635.754-2.363.438c-.727-.318-.995-.705-.995-.705l-3.617-4.013s.365-1.39-.168-1.71c-.53-.318-2.172-.159-2.172-.159l.876 1.102-1.233 1.143.368.09 4.359 4.855c.63.351 1.679.072 1.679.072l-1.358 5.413-.842.608 1.664 1.22s.338.652.084.852c-.265.204-.58.536-.58.536s1.447.304 1.894-.622c.376-.795-.31-2.234-.31-2.234m-14.09-8.992s1.62-.072 2.128.27c.502.338.064 1.682.064 1.682l3.355 4.133s.243.394.951.745c.697.346 2.34-.31 2.34-.31l-1.2.865-1.812 5.764s.6 1.445.184 2.206c-.485.893-1.896.519-1.896.519s.331-.312.6-.494c.264-.19-.037-.845-.037-.845l-1.576-1.285.865-.553 1.603-5.256s-1.043.225-1.648-.151l-4.038-4.995-.351-.108 1.268-1.057-.78-1.13zm-7.54 3.025s1.604.014 2.086.377c.474.362-.025 1.665-.025 1.665l3.093 4.241s.22.405.892.784c.672.38 2.32-.184 2.32-.184l-1.218.795-2.097 5.577s.518 1.459.067 2.19c-.528.85-1.897.41-1.897.41s.349-.293.62-.46c.273-.17.008-.832.008-.832l-1.484-1.347.876-.502 1.854-5.09s-1.037.162-1.609-.24l-3.709-5.125-.348-.128 1.302-.973-.72-1.157zm-7.54 2.37s1.581.098 2.036.483c.457.385-.109 1.645-.109 1.645l2.82 4.356s.2.41.847.82c.636.41 2.298-.05 2.298-.05l-1.249.714-2.365 5.402s.427 1.464-.053 2.158c-.566.815-1.899.304-1.899.304s.36-.268.636-.418c.281-.154.061-.823.061-.823l-1.4-1.41.895-.45 2.111-4.925s-1.034.106-1.586-.323l-3.386-5.271-.337-.142 1.341-.89-.68-1.18zm-7.55 1.738s1.559.184 1.989.589c.429.404-.196 1.623-.196 1.623l2.555 4.473s.17.415.78.862c.617.44 2.287.072 2.287.072l-1.277.636-2.64 5.22s.34 1.479-.177 2.14c-.602.775-1.885.195-1.885.195s.36-.243.647-.377c.282-.14.098-.811.098-.811l-1.305-1.475.912-.394 2.362-4.766s-1.038.048-1.55-.404l-3.069-5.41-.32-.157 1.377-.814-.58-1.201zm-7.57 1.04s1.54.27 1.941.697c.407.424-.284 1.601-.284 1.601l2.284 4.588s.147.424.739.898c.58.474 2.261.2 2.261.2l-1.305.564-2.92 5.04s.26 1.483-.293 2.11c-.641.74-1.888.092-1.888.092s.377-.223.667-.343c.29-.117.142-.797.142-.797l-1.21-1.54.926-.337 2.613-4.607s-1.03-.008-1.517-.488l-2.744-5.544-.304-.179 1.408-.728-.51-1.228zm-7.57.414s1.514.357 1.89.803c.383.45-.376 1.582-.376 1.582l2.022 4.696s.126.438.68.942c.556.505 2.251.33 2.251.33l-1.333.485-3.198 4.86s.175 1.493-.408 2.09c-.68.694-1.893-.02-1.893-.02s.396-.2.686-.301c.298-.103.195-.79.195-.79l-1.13-1.6.946-.29 2.864-4.437s-1.026-.067-1.484-.578l-2.42-5.68-.299-.19 1.45-.65-.45-1.252zm-7.6-.125s1.5.444 1.855.915c.354.471-.463 1.556-.463 1.556l1.751 4.814s.1.437.625.978c.533.539 2.225.458 2.225.458l-1.352.413-3.472 4.674s.083 1.506-.527 2.066c-.723.661-1.888-.123-1.888-.123s.398-.18.7-.265c.3-.083.234-.78.234-.78l-1.03-1.663.957-.234 3.113-4.278s-1.024-.122-1.448-.658l-2.103-5.82-.284-.207 1.486-.563-.37-1.284zm-7.59-.778s1.478.524 1.805 1.02c.331.492-.553 1.535-.553 1.535l1.487 4.933s.078.446.571 1.012c.5.57 2.212.586 2.212.586l-1.389.337-3.742 4.493s.005 1.515-.647 2.044c-.759.62-1.891-.234-1.891-.234s.418-.156.716-.223c.31-.07.28-.767.28-.767l-.932-1.729.973-.181 3.37-4.114s-1.022-.187-1.42-.744l-1.78-5.957-.276-.229 1.52-.48-.3-1.302zm-7.61-1.334s1.467.614 1.765 1.127c.302.513-.647 1.514-.647 1.514l1.225 5.048s.047.452.518 1.054c.466.597 2.19.711 2.19.711l-1.417.26-4.021 4.314s-.081 1.523-.767 2.019c-.798.583-1.883-.337-1.883-.337s.424-.137.736-.19c.31-.05.321-.753.321-.753l-.85-1.796.99-.123 3.625-3.951s-1.02-.246-1.383-.829l-1.462-6.093-.262-.248 1.56-.396-.238-1.33zm-7.62-2.062s1.44.7 1.715 1.233c.282.538-.736 1.497-.736 1.497l.954 5.16s.028.46.468 1.093c.444.627 2.17.837 2.17.837l-1.442.184-4.297 4.133s-.162 1.533-.887 1.996c-.84.544-1.883-.446-1.883-.446s.435-.111.753-.148c.324-.033.369-.744.369-.744l-.89-1.537.79-.206 4.227-3.977s-1.015-.301-1.358-.91l-1.138-6.232-.251-.26 1.604-.317-.168-1.356zm-7.63-2.718s1.417.79 1.67 1.344c.246.558-.83 1.473-.83 1.473l.683 5.276s0 .463.418 1.133c.41.66 2.15.965 2.15.965l-1.47.108-4.567 3.952s-.251 1.545-1.007 1.974c-.876.5-1.885-.554-1.885-.554s.449-.093.772-.112c.324-.014.41-.733.41-.733l-.661-1.92 1.024-.016 4.121-3.628s-1.006-.36-1.316-.999l-.814-6.37-.246-.278 1.632-.231-.084-1.384zM100.92 40.75l4.847-3.77 1.5-.034s-1.751-.399-2.136-1.096c-.382-.694-.36-1.168-.36-1.168l-.415-5.388s1.138-.873.915-1.45c-.229-.58-1.626-1.456-1.626-1.456l.016 1.41-1.667.151.228.293.488 6.51c.29.66 1.289 1.079 1.289 1.079l-4.379 3.466-1.037-.036.577 1.983s-.128.722-.46.722c-.323.003-.783.073-.783.073s.962 1.126 1.88.66c.801-.396 1.131-1.949 1.131-1.949M93.939 37.428l4.847-3.77 1.492-.031s-1.743-.402-2.134-1.096c-.379-.695-.354-1.169-.354-1.169l-.424-5.39s1.144-.876.918-1.45c-.226-.58-1.62-1.454-1.62-1.454l.014 1.406-1.674.153.24.296.488 6.506c.285.661 1.286 1.08 1.286 1.08l-4.376 3.463-1.043-.033.577 1.985s-.133.72-.457.723c-.329 0-.79.07-.79.07s.969 1.126 1.889.663c.776-.402 1.117-1.952 1.117-1.952"/></g><path fill="#fff" d="M151.48 49.193h-2.934v1.888h2.934v-1.888zm-5.03 63.617 1.19 1.174 4.195-1.057v-10.349h-12.237l.282 10.508 6.57-.28zm-35.66-.79.683.38h4.803v-10.35h-12.23l.176 10.25 6.568-.28z"/><path fill="#fff" d="M151.48 45.244h-2.934v6.15h2.934v-6.15zm6.8-.926h-2.937v6.152h2.937v-6.152z"/><g fill="#c49d6e"><path d="m8.662 72.189 22.308-7.9c2.91 2.15 8.495 3.775 12.693 4.486-.35 2.2-.154 4.504.32 5.854.472 1.35 4.88 11.956 4.88 11.956l-14.345 5.232-5.369-12.812-4.877-1.266-1.244 6.066 15.032 37.403 4.657 1.02 2.583-4.657-3.355-8.737-3.866 1.455-5.047-12.628 18.339-6.72s6.924 17.161 7.644 19.02c.716 1.854 3.059 4.855 4.027 5.789-1.846 1.737-6.228 7.025-5.335 11.889l-22.648 8.79c-2.22-2.331-3.718-7.13-10.695-6.356-.073-1.921-1.61-3.335-2.836-6.4-1.233-3.06-12.664-30.585-13.392-32.439-.725-1.85-2.05-5.004-4.769-7.584 3.439-2.484 5.96-7.128 5.296-11.462m107.75 1.496c-.552-1.77-1.576-6.208-1.576-6.208s-.393 4.867-.624 6.47a5017.86 5017.86 0 0 1-1.253 8.665l6.479-.672s-2.474-6.487-3.026-8.255m-13.531-24.937 20.394-1.944c1.208 4.532 4.392 7.65 6.244 9.17-1.916 2.295-1.386 4.872-.884 6.397 1.807 5.5 11.445 32.113 12.056 33.5 1.213 2.721 3.857 5.156 6.082 6.757-.476.594-3.466 4.97-3.427 10.349l-15.539.956c-.25-1.835-3.031-6.952-5.597-9.786 2.566-1.988 3.55-3.338 2.613-5.984a94.417 94.417 0 0 1-1.113-3.578l-12.05 1.49a86.961 86.961 0 0 1-.147 3.618c-.196 2.88 1.826 4.292 3.815 5.245-1.25 2.747-2.675 6.39-2.482 10.673l-16.8 2.446c-.198-3.076-2.602-7.337-4.513-9.702 2.505-2.379 3.492-5.053 4.295-9.047.508-2.53 1.952-13.512 3.112-22.333.893-6.732.949-11.214 1.155-12.212.563-2.83-.142-4.172-1.442-5.982 1.668-1.899 4.158-5.996 4.23-10.04"/><path d="m182.11 47.48 16.022 1.5c.229 3.907 1.916 8.361 3.185 10.726-2.909 2.072-4.632 3.969-4.864 7.488l-2.089 32.043c-.145 2.181.24 4.047 2.368 6.094-1.062 1.297-4.646 6.877-5.594 10.664l-12.577-1.442-10.542-29.954-1.523-6.216c-.078 1.113.234 5.24.15 6.372-.404 5.904-.797 11.356-.797 11.356-.134 2.014 1.085 6.03 3.75 7.49-1.497 2.037-4.754 5.916-5.27 9.968l-14.175-.279c-.797-4.894-1.458-6.266-4.005-10.246.98-.77 4.507-4.18 4.708-7.253l2.08-32.292c.14-2.137.594-5.031-2.599-7.731 1.788-2.56 3.497-7.078 3.637-9.496l16.052.215 9.903 28.055.953 6.45V74.09l.614-9.384c.162-2.49-.181-5.062-3.003-7.544 1.405-1.863 2.777-7.176 3.617-9.683M77.7 70.721c.85 3.662 7.948 29.796 8.21 30.741.917 3.31 2.925 4.948 6.158 6.624-2.073 3.675-3.155 6.21-1.682 11.04l-15.49 3.885c-.922-3.405-1.572-5.608-6.857-8.874 2.747-3.466 2.862-6.461 2.159-9.222-.703-2.761-7.131-28.078-7.605-29.882-.469-1.813-1.66-5.162-6.557-7.717 1.495-2.175 2.613-6.556 1.749-10.268l16.052-3.7c1.079 4.28 4.395 7.566 6.618 8.419-1.863 2.56-3.61 5.296-2.756 8.955"/><path d="m213.61 101.5 7.859-34.492c-3.199-.03-8.38 1.947-12.162 5.514l-8.763-8.345c4.65-3.118 10.93-7.892 12.948-12.979l37.493 7.862c-.574 4.833 1.891 12.117 4.482 16.995l-10.846 3.62c-1.43-3.798-4.46-8.84-7.544-10.438l-8.447 35.75c-.62 2.945.301 6.626 2.284 8.712-3.31 2.145-5.728 4.498-6.506 9.025l-14.912-3.456c1.447-4.39.12-7.259-1.86-11.138 3.416-1.35 5.181-4.13 5.973-6.629m31.58 9.56 2.881-7.242 14.973 5.79-3.854 10.156 2.13 4.31 4.521-1.847 4.206-11.155-20.063-15.812c1.645-1.863 2.32-3.33 3.037-5.025.702-1.693 4.534-9.786 5.229-12.173.688-2.385 1.333-3.026.917-8.052 3.785.103 9.398-1.397 11.593-5.243l20.771 7.497c.51 3.575 5.898 10.425 7.466 12.034-1.517 1.681-3.157 3.678-3.81 5.577-.66 1.902-3.681 10.121-3.681 10.121l-14.46-5.667 4.228-11.66.162-1.425-1.869-2.961-4.947 1.927-4.909 11.719 19.421 15.492c-1.227 1.456-1.907 2.78-2.688 4.66-1.682 4.18-5.382 13.922-5.382 13.922-.92 2.736-.792 4.824-.815 6.955-4.955.204-10.358 2.028-12.064 5.126l-21.636-8.461c.33-5.146-.546-9.569-4.027-12.505 1.958-1.85 1.777-3.838 2.67-6.055"/></g><path fill="#f4793e" d="M6.293 71.031 29.26 62.91c2.912 2.145 7.837 3.985 12.04 4.7-.344 2.2-.149 4.506.32 5.856.477 1.347 4.841 12.095 4.841 12.095l-14.346 5.19-5.33-12.915-4.882-1.26-1.568 5.688L35.36 119.67l4.945 1.495 2.77-5.165L40 107.625l-4.328 1.601-5.048-12.63 18.339-6.72s6.922 17.158 7.644 19.016c.722 1.857 3.06 4.861 4.024 5.795-1.84 1.735-6.23 7.022-5.33 11.883l-22.655 8.802c-2.22-2.332-5.327-5.079-12.304-4.303-.075-1.919 0-5.388-1.224-8.45-1.236-3.063-13.353-32.54-13.353-32.54-.96-2.726-2.05-5.005-4.766-7.584 3.447-2.485 5.97-7.13 5.293-11.462m108.07.999c-.558-1.766-1.59-6.406-1.59-6.406s-.017 5.075-.24 6.67l-1.255 8.665 6.113-.675s-2.476-6.486-3.028-8.254m-13.515-24.96 20.375-1.922c1.21 4.532 4.395 7.65 6.244 9.17-1.919 2.295-1.39 4.872-.89 6.394 1.818 5.506 11.448 32.116 12.064 33.505 1.417 3.196 3.62 5.232 5.703 6.733-.477.594-3.081 4.992-3.054 10.372l-15.536.959c-.245-1.838-3.037-6.955-5.6-9.792 2.563-1.982 3.556-3.332 2.614-5.982-.187-.53-.684-2.119-1.113-3.578l-12.04 1.5a110.166 110.166 0 0 1-.15 3.617c-.199 2.883 1.826 4.292 3.812 5.248-1.25 2.744-2.672 6.39-2.477 10.673l-16.803 2.443c-.2-3.073-2.144-7.12-4.39-9.708 2.505-2.379 3.367-5.045 4.17-9.038.513-2.532 1.958-13.51 3.118-22.333.887-6.735.967-11.242 1.165-12.243.567-2.83-.136-4.17-1.43-5.98 1.67-1.899 4.152-5.995 4.225-10.036m79.54-1.588 16.013 1.506c.223 3.904 1.907 8.363 3.179 10.726-2.909 2.072-4.632 3.962-4.87 7.485l-2.102 32.04c-.142 2.184.243 4.05 2.368 6.103-1.06 1.29-4.652 6.871-5.592 10.662l-12.59-1.453L166.277 82.6l-1.673-8.23c-.075 1.113.387 7.25.304 8.38-.413 5.907-.803 11.36-.803 11.36-.137 2.01 1.076 6.026 3.74 7.49-1.5 2.033-4.747 5.915-5.277 9.964l-14.173-.287c-.79-4.892-1.155-6.283-3.698-10.266 1.838-1.436 4.208-4.208 4.41-7.231l2.1-32.294c.144-2.131-.023-4.694-3.216-7.393 1.785-2.558 4.116-7.413 4.255-9.831l15.341.237 9.89 28.058 2.052 8.185-.374-8.648.606-9.384c.173-2.49-.848-4.814-3.665-7.299 1.41-1.866 3.46-7.433 4.3-9.93m-105 23.782c.85 3.662 7.91 29.846 8.174 30.794.918 3.31 2.485 5.048 5.723 6.721-2.08 3.679-2.73 6.113-1.258 10.943l-15.486 3.88c-.926-3.411-1.57-5.611-6.86-8.877 2.758-3.464 2.87-6.462 2.164-9.223-.697-2.76-7.697-28.836-8.127-30.652-.435-1.818-1.36-4.258-6.258-6.813 1.498-2.175 2.88-6.74 2.022-10.452l16.058-3.695c1.08 4.278 4.384 7.569 6.61 8.42-1.86 2.56-3.61 5.293-2.761 8.954m136.84 30.001 7.858-34.492c-3.198-.028-8.07 1.746-11.85 5.31l-8.76-8.347c4.65-3.115 10.573-7.658 12.59-12.75l36.834 7.75c-.578 4.836 3.24 12.028 5.828 16.908l-11.532 3.821c-1.436-3.798-4.738-7.962-7.814-9.563l-8.143 34.846c-.61 2.945.304 6.63 2.284 8.715-3.305 2.145-5.72 4.501-6.506 9.028l-14.906-3.456c1.447-4.392.117-7.259-1.858-11.138 3.41-1.35 5.176-4.133 5.974-6.632m31.89 9.39 2.886-7.242 14.976 5.787-3.854 10.16 2.125 4.306 4.53-1.847 4.194-11.155-20.054-15.812c1.64-1.862 2.956-4.732 3.67-6.425.705-1.696 3.829-8.352 4.515-10.742.697-2.384 1.344-3.026.926-8.046 3.787.098 9.398-1.397 11.59-5.245l21.78 7.853c.508 3.578 4.903 10.065 6.47 11.671-1.514 1.682-3.165 3.681-3.817 5.578-.647 1.902-3.668 10.12-3.668 10.12l-14.474-5.669 4.234-11.657-2.449-3.882-4.208 1.42-4.844 11.695 19.424 15.49c-1.236 1.455-1.913 2.777-2.694 4.66-1.685 4.18-5.374 13.919-5.374 13.919-.926 2.738-.795 4.827-.823 6.958-4.95.203-10.355 2.027-12.064 5.125l-21.627-8.458c.324-5.148-2.379-9.128-5.862-12.067 1.96-1.846 3.612-4.28 4.493-6.492"/><path fill="#231f20" d="M33.187 132.96c-2.605-2.727-6.808-4.37-10.871-4.083-.075-1.706.245-3.187-.881-5.996-1.13-2.805-12.572-30.345-13.726-33.488-1.155-3.137-2.524-5.714-3.757-6.835 3.012-2.396 4.766-7.823 4.543-10.123l20.397-7.215c1.95 1.495 7.011 3.088 10.42 3.776-.215 1.425-.213 3.5.373 5.151.574 1.648 3.938 10.015 3.938 10.015L33.26 88.093l-4.867-11.88-7.368-2.1-2.975 7.999 15.737 39.163 7.574 2.493 3.762-7.198-4.428-11.442-3.863 1.458L33.4 97.97l14.399-5.455s6.353 15.83 6.939 17.24c.58 1.417 1.678 3.238 3.363 4.858-2.181 2.056-5.11 6.766-4.925 10.578l-19.991 7.77zm81.163-66.875c-.547-1.322-2.3-6.241-2.3-6.241s-.58 5.519-.74 6.447c-.162.926-2.446 17.001-2.446 17.001l11.362-1.246s-5.33-14.636-5.87-15.961m10.597-11.442c-1.453 1.95-.995 4.652-.312 6.715 1.559 4.747 11.442 32.172 12.137 33.705.96 2.128 2.463 4.306 5.131 6.233-.833 1.049-2.32 5.028-2.54 8.099l-12.067.742c-.357-1.347-3.294-6.197-4.426-7.405 2.173-1.642 2.934-3.831 1.84-6.913-.287-.798-1.567-5.134-1.567-5.134l-15.55 1.907s-.028 4.1-.167 5.176c-.346 2.538.806 4.964 3.38 6.286-1.372 3.007-1.916 5.232-2.014 8.124l-13.146 1.913c-.538-2.786-2.205-5.396-3.798-7.499 2.092-1.985 3.065-4.203 3.946-8.52.868-4.325 3.785-32.074 4.29-34.587.488-2.482.334-4.688-1.102-6.378 2.105-2.387 3.305-5.388 3.681-8.146l17.196-1.595c1.3 3.483 2.848 5.43 5.09 7.276m63.02 57.139-9.655-1.135s-10.497-30.038-11.574-32.961c-1.07-2.92-2.953-9.524-2.953-9.524-.173 2.485-.388 6.607-.608 9.663-.525 7.435-1.057 15.124-1.127 16.136-.176 2.641 1.035 6.4 3.249 7.94-2.158 3.004-3.55 4.47-4.317 7.55l-10.83-.176c-.535-3.31-1.656-5.486-3.262-7.926 1.618-1.263 4.03-3.851 4.27-7.435.15-2.267 1.946-30.03 2.103-32.292.139-2.172.206-5.396-2.823-7.87 1.629-2.538 3.126-5.45 3.506-7.413l12.18.187s10.428 29.642 11.315 32.121c.892 2.485 2.75 8.183 2.75 8.183.142-2.123.376-4.833.549-7.438.48-7.36.996-15.336 1.08-16.552.203-3.165-.74-5.165-3.378-7.62 1.442-2.013 2.566-5.128 3.38-7.54l12.806 1.205c.396 2.507 1.227 5.641 2.563 8.216-1.804 1.319-4.24 3.661-4.532 7.959-.323 4.9-1.974 30.217-2.097 32.04-.176 2.639.357 4.97 1.921 6.354-1.227 1.489-3.56 5.53-4.517 8.327m-102.39 4.45s-.494-2.117-.073-4.356c.413-2.237 1.587-4.256 1.587-4.256s-1.08-.41-2.962-2.404c-1.723-1.82-2.546-4.598-2.546-4.598L73.377 69.66s-.46-2.67.042-4.741c.407-1.715 1.969-3.782 1.969-3.782s-.656-.167-2.714-2.688c-2.07-2.524-2.44-4.122-2.44-4.122L57.74 57.185s.374 1.601-.36 4.764c-.736 3.16-1.252 3.594-1.252 3.594s2.32 1.18 3.45 2.541c1.366 1.645 2.141 4.245 2.141 4.245l8.27 31.2s.607 2.831-.034 5.246c-.697 2.636-1.448 3.509-1.448 3.509s2 1.218 3.439 2.99c1.445 1.77 2.036 3.867 2.036 3.867l11.6-2.92zm162.58-51.278c-1.032-2.995-1.342-6.56-1.342-6.56l-33.527-7.03s-2.381 3.252-4.61 5.514c-3.251 3.304-5.957 5.145-5.957 5.145l5.553 5.26c4.88-4.688 10.296-4.978 14.365-4.41l-8.43 36.919s-.768 2.797-2.46 4.651c-1.838 2.022-2.906 2.454-2.906 2.454s1.213 2 1.667 4.237c.455 2.23.009 4.367.009 4.367l11.016 2.549s.546-2.108 1.946-3.907c1.411-1.799 3.38-3.054 3.38-3.054s-.764-.862-1.511-3.492c-.678-2.409-.126-5.254-.126-5.254l8.67-37.289c4.198 1.38 8.841 4.87 10.495 9.917l7.357-2.568s-2.078-3.068-3.59-7.449m5.15 24.9c-1.096 2.133-1.567 2.594-1.567 2.594l19.711 15.536-5.053 13.406-7.126 2.9-3.368-6.824 3.452-9.095-11.147-4.286c-1.174 3.076-2.323 5.762-2.437 6.063-.44 1.155-2.307 3.692-3.414 4.984 3.168 2.588 5.118 6.89 5.173 10.67l18.967 7.418c2.438-2.923 7.764-4.37 10.756-4.39-.145-2.337.541-4.908.804-5.865l4.445-11.83s1.232-3.179 1.919-4.423c.621-1.132.83-1.33.83-1.33l-19.033-15.182 5.678-13.997 6.684-2.262 3.846 6.083-3.893 10.692 10.611 4.244 3.23-8.846c.716-2.041 1.887-2.82 2.925-4.239-2.217-2.697-5.034-7.68-5.622-10.079l-19.215-6.919c-1.255 1.925-6.479 4.624-10.32 4.577.268 1.656-.437 5.112-1.332 7.694-.12.34-1.046 1.818-2.555 6.166 0 0-2.412 5.48-2.95 6.54m-34.8 39.128c.387 0 .627-.084.627-.466 0-.388-.463-.388-.809-.388h-.814v.854h.996zm1.24 2.035h-.8l-.82-1.402h-.616v1.402h-.728v-3.519h1.704c.812 0 1.364.145 1.364 1.08 0 .646-.332.995-.957 1.037l.854 1.402zm-4.188-1.745c0 1.514 1.174 2.657 2.627 2.657 1.45 0 2.63-1.143 2.63-2.657s-1.18-2.652-2.63-2.652c-1.453 0-2.627 1.137-2.627 2.652m-.74 0c0-1.886 1.487-3.383 3.367-3.383s3.369 1.497 3.369 3.383c0 1.89-1.49 3.394-3.37 3.394s-3.365-1.504-3.365-3.394"/></svg>