<svg xmlns="http://www.w3.org/2000/svg" xml:space="preserve" id="Layer_1" x="0px" y="0px" style="enable-background:new 0 0 200 200" version="1.1" viewBox="0 0 200 200"><style>.st0{fill:#fff}.st1{fill:#e31937}</style><path d="M194.4 95.1c-3.2-7.2-7.7-13.7-13.3-19.3l.6-12.1c.1-2.3-.5-4.5-1.7-6.4-1.2-2-3-3.4-5.2-4.2L70.1 17.6c-1.9-.7-3.9-1-5.9-.9 0 0-10 .5-10.3.6-1.7.2-3.1 1.6-3.2 3.4-.2 3.2.2 6.5 1.3 9.5 0 0-23.8-8.3-31.4-10.5-.9-.3-1.9-.3-2.9-.2l-13.3.6h-.8c-1.8.2-3.1 1.6-3.2 3.4-.3 5 .8 10 3.3 14.3 2.4 4.1 5.7 7.7 9.6 10.5 0 4 1.1 7.9 3.1 11.4 2.2 3.7 5.1 6.9 8.7 9.3.1 3.9 1.3 7.7 3.3 11 1.7 2.7 3.8 5.1 6.4 7 .5 4.3 2.2 8.4 4.9 11.9 1.9 2.5 4.2 4.7 6.8 6.6L62.6 153c.4 1.1 1.2 2 2.3 2.6l18.1 8.9c.5.3 1 .4 1.6.4.3 0 .5 0 .8-.1l4.3-1-.6 4.5c-.2 1.6.6 3.1 2 3.8l19.2 9.5c.8.4 1.8.5 2.6.2l4.8-1.4c33 10.6 68.4-7.6 79-40.6 2-6.2 3-12.7 3-19.2.1-8.8-1.8-17.5-5.3-25.5z" class="st0"/><path d="M136.9 179.7c-6.5 0-13-1.1-19.1-3.2l-5.9 1.7-19.2-9.5L94 159l-9.4 2.1-18.1-8.9c-.2-.1-.4-.3-.4-.5l-16.8-48.5c-3.8-2.3-11-8.8-11.2-18-5-3.5-9.9-9.1-9.6-18.1-8.2-5.3-12.2-12.3-11.7-20.6C8.1 40.4 3.7 33 3.8 24.7V24.1c0-.3.1-.4.4-.4l13.2-.8c.2 0 .7 0 1-.1h.3c.2 0 .4 0 .6.1l41 13.9c-4.3-4.7-6.4-10-6.1-15.7 0-.2.2-.3.4-.3l10.9-.6h1.4c.2 0 .3 0 .5.1l106 36.3c1.4.5 2.6 1.5 3.4 2.8.8 1.3 1.2 2.8 1.1 4.3l-.7 13.7c23.9 22.3 25.1 59.8 2.7 83.7-11 11.9-26.6 18.7-43 18.6z" class="st0"/><path d="M136.6 64.7c.2.3.5.6.7.9.9 1.4 1.3 3 1.2 4.7l-.9 18.2-11.3 2.4-25.9-10.1-6.4 9.7c-.6.7-1.1 1.4-1.5 2.2l-7.8 11.8c-.2.2-.2.5-.1.8 1.2 3.4 9.6 26 10.5 28.7l2.6-.9c.3-.1.6-.4.7-.7l1.3-7.7-7.4-7.1 3-13.1 13.1-2.9 25.7 10.6-9.9 51.9-.4 2-.1.4c1.1.7 2 1.6 2.8 2.6l-1-.1c-.6-.7-1.2-1.4-1.9-1.9v.2l-1.2 6.2c29.6 7.8 59.9-9.9 67.7-39.5s-9.9-59.9-39.5-67.7c-4.5-1-9.2-1.6-14-1.6zm45.4 35.8c.8 1.1 1.9 1.8 3.2 2.1-.3 1.8-.3 3.6-.1 5.4l-.9.8c-.2-1.8-.2-3.5 0-5.3-1.2-.6-2.2-1.4-2.9-2.4.2-.2.5-.4.7-.6zm-2.7 1.9c.8 1.3 2 2.2 3.4 2.5-.5 1.8-.7 3.6-.5 5.5-.3.2-.7.4-1 .7-.2-1.8 0-3.6.4-5.4-1.3-.6-2.4-1.6-3.2-2.8.3-.2.6-.4.9-.5zm-3.1 1.3c.6 1.5 1.8 2.7 3.4 3.3-.8 1.7-1.2 3.6-1.1 5.5-.4.2-.8.3-1.1.5-.1-1.9.3-3.7.9-5.4-1.4-.8-2.5-2.1-3.1-3.6.3-.1.6-.2 1-.3zm-4.1.8c.6 1.8 1.9 3.3 3.6 4.1-1 1.7-1.6 3.6-1.8 5.6-.4.1-.9.2-1.4.3.1-1.9.6-3.8 1.5-5.4-1.5-1.1-2.7-2.7-3.2-4.5.5-.1.9-.1 1.3-.1zm-16.1-1.7 1.4.3c-.1 2.3.9 4.5 2.5 6.1-1.8 1.1-3.2 2.9-3.8 4.9l-1.6-.3c.5-1.9 1.7-3.6 3.4-4.8-1.2-1.8-1.9-4-1.9-6.2zm-5.5-1.6 1.5.5c-.2 2.4.6 4.7 2.2 6.4-2 .8-3.6 2.5-4.4 4.5l-1.6-.5c.7-2 2.1-3.6 4-4.5-1.3-1.9-1.8-4.2-1.7-6.4zm-5.6-2 1.4.5c-.3 2.4.4 4.7 1.9 6.6-2 .8-3.6 2.3-4.5 4.3l-1.5-.6c.8-1.8 2.3-3.3 4.1-4.3-1.2-1.9-1.7-4.2-1.4-6.5zm-4.5 4.2c-1-2-1.4-4.2-1.1-6.4l1.4.6c-.3 2.3.3 4.6 1.6 6.4-2 .8-3.7 2.3-4.7 4.2l-1.5-.6c1-1.8 2.5-3.3 4.3-4.2zM93.8 95l-1 .1c1-1.4 2.1-2.7 3.5-3.7-.1-1.2.3-2.3.9-3.2l.9-.2c-.5.9-1 2.3-.6 3.3-1.4.9-2.7 2.2-3.7 3.7zm3.4-.2h-.9c1-1.5 2.2-2.7 3.7-3.7-.1-1.2.1-2.4.6-3.5l1-.1c-.5 1.2-.7 2.4-.5 3.7-1.5.9-2.9 2.1-3.9 3.6zm4 .3-1.1-.1c1.2-1.5 2.6-2.7 4.1-3.7-.2-1.3 0-2.7.5-3.9h1.1c-.5 1.3-.5 2.7-.2 4.1-1.7.9-3.2 2.1-4.4 3.6zm4.2.7-1.1-.2c1.2-1.5 2.7-2.7 4.3-3.6-.2-1.5-.1-3 .4-4.4.4 0 .8.1 1.2.1-.4 1.5-.4 3.1-.1 4.6-1.8.8-3.4 2-4.7 3.5zm4.8 1.3-1.2-.3c1.3-1.5 2.9-2.7 4.7-3.6-.4-1.6-.4-3.3.1-4.8l1.3.3c-.5 1.6-.4 3.4.2 5-2 .6-3.7 1.8-5.1 3.4zm5.3 1.7-1.2-.4c1.2-1.5 2.8-2.8 4.6-3.7-.6-1.7-.6-3.5-.1-5.2l1.3.4c-.5 1.8-.3 3.7.5 5.4-2.1.7-3.8 1.9-5.1 3.5zm5.4 2.1-1.3-.5c1.2-1.5 2.7-2.8 4.4-3.6-.7-1.8-.8-3.8-.3-5.7l1.3.4c-.5 2-.2 4 .8 5.8-2 .8-3.7 2-4.9 3.6zm5.6 2.4-1.3-.6c1.1-1.6 2.6-3 4.4-3.8-.8-1.9-1-4-.6-6l1.4.5c-.4 2.1 0 4.3 1.1 6.1-2.1.8-3.8 2.1-5 3.8zm5.6 2.5-1.4-.6c1-1.7 2.5-3.1 4.3-3.9-.9-2-1.2-4.2-.8-6.3l1.4.6c-.3 2.2.1 4.5 1.4 6.4-2.1.6-3.8 2-4.9 3.8zm-2.5 63.5c-1.1-1.4-2.5-2.5-4.2-3.2.8-1.2.1-3.4-.2-4.1l1-.1c.3.7 1 2.7.4 4.1 1.6.8 2.9 1.9 3.9 3.3h-.9zm3.8-.4c-1.1-1.4-2.5-2.5-4.2-3.1.9-1.4.2-3.5-.1-4.4l1.1-.2c.6 1.4.7 2.9.4 4.3 1.5.7 2.9 1.8 3.9 3.1-.4.3-.8.4-1.1.3zm4-.8c-1.1-1.4-2.5-2.5-4.2-3 .9-1.5.4-3.5.1-4.5.4-.1.7-.2 1.1-.3.6 1.4.7 3 .2 4.4 1.5.7 2.9 1.7 3.9 3.1l-1.1.3zm4.1-1.3c-1-1.4-2.5-2.4-4.1-2.8.7-1.5.8-3.1.2-4.6.4-.1.7-.2 1.1-.4.5 1.5.6 3.1.1 4.6 1.5.6 2.8 1.6 3.7 2.9l-1 .3zm4.1-1.8c-1-1.3-2.4-2.2-4.1-2.6.7-1.5.8-3.1.4-4.7l1.1-.5c.5 1.5.5 3.1 0 4.6 1.5.5 2.7 1.5 3.6 2.7l-1 .5zm4-2.1c-1-1.2-2.4-2.1-3.9-2.4.8-1.5.9-3.2.5-4.8l1.2-.5c.4 1.5.4 3.1-.2 4.6 1.4.5 2.6 1.3 3.4 2.5l-1 .6zm4.1-2.3c-1-1.1-2.3-1.9-3.8-2.2.8-1.5 1-3.2.7-4.8l1.2-.6c.4 1.6.3 3.2-.3 4.7 1.3.4 2.4 1.2 3.3 2.3l-1.1.6zm3.7-2.3c-.8-1.2-2-2-3.3-2.3.9-1.5 1.2-3.2 1-4.9l1.2-.7c.3 1.6 0 3.3-.7 4.8 1.2.5 2.2 1.3 2.8 2.4l-1 .7zm3.8-2.3c-.6-1.2-1.6-2-2.9-2.4 1-1.5 1.5-3.2 1.4-5l1.2-.6c.1 1.7-.2 3.4-1 4.9 1 .5 1.9 1.4 2.4 2.4l-1.1.7zm-.2-41.2c.4-1.9 1.3-3.7 2.7-5.1-1.4-1.6-2.3-3.6-2.4-5.8.4.1.9.2 1.3.2.1 2.2 1.2 4.2 2.9 5.6-1.6 1.3-2.7 3.2-3.1 5.2l-1.4-.1zm4.1 39c-.4-1.2-1.3-2.2-2.5-2.7 1-1.4 1.6-3 1.7-4.6l1.2-.5c-.1 1.6-.5 3.2-1.4 4.6 1 .7 1.7 1.6 2 2.8l-1 .4zm2.4-49.2c.3 2.1 1.6 3.9 3.3 5.1-1.3 1.5-2.1 3.4-2.4 5.4-.5 0-.9 0-1.4.1.2-1.9 1-3.7 2.1-5.2-1.5-1.4-2.5-3.3-2.9-5.3l1.3-.1zm2.4 47-1 .4c-.2-1.2-.9-2.3-2-2.9 1-1.3 1.7-2.8 2-4.4l1.1-.4c-.2 1.5-.8 3-1.7 4.3.9.8 1.5 1.8 1.6 3zm3.4-1.2-1 .3c0-1.2-.6-2.3-1.5-3 1.1-1.2 1.8-2.6 2.2-4.2l1.1-.3c-.4 1.5-1.1 2.9-2 4.1.8.9 1.2 1.9 1.2 3.1zm3.2-.8-1 .2c.1-1.2-.2-2.4-1-3.3 1.1-1.1 2-2.5 2.5-4l1.1-.2c-.5 1.4-1.3 2.7-2.3 3.9.7 1.1.9 2.3.7 3.4zm3-.2h-.9c.3-1.2.1-2.4-.5-3.5 1.2-1.1 2.1-2.4 2.8-3.8l1-.1c-.6 1.4-1.5 2.7-2.6 3.7.5 1.2.6 2.4.2 3.7zm3.2-3.8c.2 1.3 0 2.7-.5 3.9-.3 0-.6-.1-.9-.1.4-1.2.5-2.6.1-3.9 1.3-1 2.3-2.2 3.1-3.5.3 0 .6 0 .9.1-.5 1.3-1.5 2.5-2.7 3.5zm3.6-44.5c-1.1-.5-2-1.2-2.8-2 .2-.2.4-.4.6-.7.8.9 1.8 1.5 3 1.7-.1 1.8 0 3.7.3 5.5-.2.3-.5.6-.7.8-.3-1.7-.4-3.5-.4-5.3zM51.4 91.6c-1.8-.8-3.3-1.4-4-1.6-2.1-.8-4.1-1.7-6.1-2.7 1.1 6.2 5.8 10.6 9.1 13 .3.2.7.1.9-.2l4.7-6.6c-1.4-.6-3.1-1.3-4.6-1.9z" class="st0"/><path d="M123.6 67.1c1.3.5 2.4 1.3 3.2 2.3.2.3.5.4.8.4 1.1-.1 2.7-.2 4-.4 1-.2 2.1-.4 3.1-.7.4-.1.6-.5.5-.8v-.1c-.1-.2-.2-.4-.3-.5-.5-.9-1.3-1.5-2.2-1.9L100 53.7l-9.8 1.2 33.4 12.2zM92.4 134.9l-10.6-29.1-7.4 2.1L85 137.3zM131.1 113.4l-22.1-9.1-8.7 1.9 22.5 9.2zM163.6 60.3c2.1.8 3 1.4 3.7 2.3.2.3.6.5 1 .5.9-.1 2.5-.2 3.7-.4.9-.1 1.7-.3 2.6-.6.3-.1.5-.4.4-.7v-.1c-.4-.9-1.1-1.6-1.9-2l-31-10.8-8.1 1 29.6 10.8zM127.4 50C115 45.5 94.9 38.1 78.3 31.7c.5 5.9 2.6 10.2 5.6 13.3l37.5 13.3 6-8.3zM137.4 46.9 66.9 22.3l-5.8.3c7.2 2.6 62.7 23.2 68.1 25.2l8.2-.9zM57.7 90.3c.3.2.7.1.9-.2l5.5-7.7-16.8-6.8c.5 7.3 6.6 12.4 10.4 14.7zM49.5 87.4c-3.1-3.3-4.9-7.6-5-12.2 0-.5-.3-.9-.7-1.1-2.8-1.2-5-2-6.2-2.5-2.1-.8-4.1-1.7-6-2.7.6 10.5 9.8 15.3 16.9 18l1 .5zM67.7 39.3l11.7 4.1c-2.3-3.6-3.5-7.7-3.5-12 0-.4-.3-.8-.7-1-7-2.7-13.2-5.2-17.8-7.2.1 6.7 4.4 12 10.3 16.1zM66.3 79.4l6.5-9.1-33.9-13.2c.7 9.7 7.3 14.4 16.4 18.4 3.2 1.3 6.7 2.7 10.2 4.1.3.1.6 0 .8-.2zM41 69.7c-3.2-3.6-5-8.2-5-13 0-.4-.3-.8-.7-1l-3.1-1.2c-4.3-1.6-8.4-3.6-12.3-5.9.3 10.8 10.2 17 18.8 20.3l2.3.8zM75 67.2l8.4-11.7L30 35.6c1 12.3 9.2 17.7 17.2 21.4 6.3 2.5 25.5 9.9 27 10.5.3.1.6 0 .8-.3zM33.8 51.7c-3.9-4.1-6.3-9.2-6.6-16.5 0-.4-.3-.8-.7-1-7.4-2.9-14.1-5.6-19.6-7.9.8 12.4 13.6 20.4 26.7 25.3l.2.1zM95.2 52 19.5 25.2l-8 .4 74 27.6z" class="st0"/><path d="m166.1 69 .1-1.8c.1-1.8-1-3.4-2.7-4.1l-32.9-12-5.9 8.2 6.3 2.3c12.2-1.2 24.4 1.4 35.1 7.4zM125.1 162.9zM95.5 116.7l7.3 7-1.6 9.2c-.2 1.4-1.3 2.6-2.6 3l-15.4 5-12.8-35.4 21.2-31.4 33.5 13 .5-12.9c0-2-1.2-3.7-3-4.4l-35.8-13-33.7 47L69 149.7l16.4 8.1 12.8-7.6-2.3 17 13.9 6.9 10.8-56.3-23-9.4-2.1 8.3z" class="st1"/><path d="m177.4 77.3.7-13.7c.1-1.5-.3-3-1.1-4.3-.8-1.3-2-2.3-3.4-2.8l-106-36.3c-.2 0-.3-.1-.5-.1h-1.4l-10.9.6c-.3 0-.4.1-.4.3-.3 5.7 1.8 11 6.1 15.7l-41-13.9c-.2-.1-.4-.1-.6-.1h-.3c-.3 0-.8.1-1 .1l-13.2.9c-.3 0-.4.1-.5.4V24.7c-.2 8.3 4.2 15.7 13 21.8-.5 8.3 3.4 15.3 11.7 20.6-.3 8.9 4.5 14.6 9.6 18.1.2 9.3 7.4 15.7 11.2 18l16.8 48.5c.1.2.2.4.4.5l18.1 8.9 9.4-2.1-1.3 9.7 19.2 9.5 5.9-1.7c30.9 10.6 64.6-5.9 75.1-36.9 7.5-22 1.4-46.4-15.6-62.3zm-4.5-18c.9.4 1.5 1.1 1.9 2 .1.3 0 .6-.3.8h-.1c-.8.3-1.7.5-2.6.6-1.2.2-2.8.3-3.7.4-.4 0-.8-.2-1-.5-.7-.9-1.6-1.5-3.7-2.3l-29.8-10.8 8.1-1 31.2 10.8zm-40.3 6c.9.4 1.7 1 2.2 1.9.1.2.2.3.3.5.1.3 0 .7-.3.9h-.1c-1 .3-2 .6-3.1.7-1.3.2-2.9.4-4 .4-.3 0-.6-.1-.8-.4-.8-1-2-1.8-3.2-2.3L90.2 54.9l9.8-1.2 32.6 11.6zM84 45c-3-3.2-5.1-7.4-5.6-13.3 16.5 6.4 36.6 13.8 49 18.3l-5.9 8.2L84 45zm47 16.7-6.3-2.2 5.9-8.2 32.9 12c1.7.6 2.8 2.3 2.7 4.1l-.1 1.7c-10.7-6.1-22.9-8.7-35.1-7.4zM66.9 22.3l70.5 24.6-8.1 1c-5.5-2-61-22.6-68.2-25.2l5.8-.4zm-9.6.9c4.6 2 10.8 4.4 17.8 7.2.4.2.7.6.7 1 0 4.3 1.2 8.4 3.5 12l-11.7-4.1c-5.8-4.1-10.1-9.4-10.3-16.1zm-37.8 2L95.2 52l-9.7 1.2-74-27.6 8-.4zm35.8 50.3c-9.1-4-15.7-8.7-16.4-18.4l33.9 13.2-6.5 9.1c-.2.2-.5.3-.8.2-3.5-1.4-7-2.8-10.2-4.1zm8.8 6.9-5.5 7.7c-.2.3-.6.4-.9.2-3.8-2.3-9.9-7.4-10.4-14.6l16.8 6.7zM47.2 57c-8-3.7-16.2-9.2-17.2-21.4l53.4 20L75 67.2c-.2.3-.5.3-.8.2-1.4-.5-20.6-8-27-10.4zM7 26.3c5.4 2.3 12.2 5 19.6 7.9.4.2.7.6.7 1 .3 7.3 2.7 12.4 6.6 16.5l-.2-.1C20.6 46.7 7.8 38.7 7 26.3zm12.9 22.2c3.9 2.3 8 4.3 12.3 5.9l3.1 1.2c.4.2.7.6.7 1 0 4.8 1.8 9.4 5 13l-2.3-.9c-8.6-3.2-18.5-9.3-18.8-20.2zM31.6 69c1.9 1 3.9 1.9 6 2.7 1.1.4 3.3 1.3 6.2 2.5.4.2.7.6.7 1.1.1 4.5 1.9 8.9 5 12.2l-.9-.5c-7.1-2.7-16.4-7.5-17-18zm18.9 31.2c-3.4-2.3-8.1-6.8-9.1-13 2 1.1 4 2 6.1 2.8.6.2 2.2.9 4 1.6 1.5.6 3.1 1.3 4.7 1.9l-4.7 6.6c-.3.3-.7.4-1 .1zm59.3 73.8-13.9-6.9 2.3-17-12.8 7.6-16.4-8.1-15.9-45.9 33.7-47 35.8 13c1.8.7 3 2.5 3 4.4l-.5 12.9-33.5-13-21.2 31.4L83.2 141l15.4-5c1.4-.4 2.4-1.6 2.6-3l1.6-9.2-7.3-7 2-8.5 23 9.4-10.7 56.3zm-28-68.2 10.6 29.1-7.4 2.4-10.6-29.4 7.4-2.1zm18.5.4 8.7-1.9 22.1 9.1-8.2 2.1-22.6-9.3zm36.3 69.4c-4.8 0-9.5-.6-14.1-1.8l1.2-6.2v-.2l.1-.7.1-.4.4-2 9.9-51.9-25.7-10.6-13.1 2.9-3 13.1 7.4 7.1-1.3 7.7c-.1.3-.3.6-.7.7l-2.6.9c-.9-2.7-9.3-25.3-10.5-28.7-.1-.3-.1-.6.1-.8l7.8-11.8c.4-.8.9-1.5 1.5-2.2l6.4-9.7 25.9 10.1 11.2-2.4.9-18.2c.1-1.6-.3-3.3-1.2-4.7-.2-.3-.4-.6-.7-.9 30.6 0 55.4 24.8 55.4 55.5 0 30.4-24.8 55.2-55.4 55.2z" style="fill:#002b5c"/><path d="m98.2 88-.9.2c-.7.9-1 2.1-.9 3.2-1.4 1-2.5 2.3-3.5 3.7l1-.1c1-1.5 2.3-2.8 3.7-3.7-.4-1 .1-2.4.6-3.3zM101.6 87.5l-1 .1c-.5 1.1-.7 2.3-.6 3.5-1.5 1-2.7 2.3-3.7 3.8h.9c1-1.5 2.3-2.8 3.9-3.7-.1-1.2 0-2.5.5-3.7zM105.9 87.4h-1.1c-.5 1.2-.7 2.6-.5 3.9-1.6 1-3 2.2-4.1 3.6l1.1.1c1.2-1.5 2.7-2.8 4.5-3.6-.4-1.3-.4-2.7.1-4zM154.6 113.8l1.6.3c.6-2.1 1.9-3.8 3.8-4.9-1.7-1.6-2.6-3.8-2.5-6.1l-1.4-.3c0 2.2.7 4.4 2 6.2-1.8 1.1-2.9 2.9-3.5 4.8zM169.1 109.9c-1.1 1.5-1.9 3.3-2.1 5.2.5 0 .9 0 1.4-.1.3-2 1.1-3.9 2.4-5.4-1.8-1.1-3-3-3.3-5.1l-1.3-.1c.3 2.2 1.3 4.1 2.9 5.5zM174.1 109c-.9 1.7-1.4 3.5-1.5 5.4.5-.1.9-.2 1.4-.3.1-2 .7-3.9 1.8-5.6-1.7-.8-3-2.3-3.6-4.1-.4 0-.8.1-1.2.1.4 1.8 1.5 3.4 3.1 4.5zM165.6 109.8c-1.7-1.4-2.8-3.4-2.9-5.6-.4-.1-.9-.1-1.3-.2.1 2.1 1 4.2 2.4 5.8-1.4 1.4-2.4 3.2-2.7 5.1l1.5.1c.3-2.1 1.4-3.9 3-5.2zM178.2 107.6c-.7 1.7-1 3.6-.9 5.4.4-.2.8-.3 1.1-.5-.1-1.9.3-3.8 1.1-5.5-1.5-.6-2.7-1.8-3.4-3.3-.3.1-.7.2-1 .3.7 1.5 1.7 2.8 3.1 3.6zM181.6 105.7c-.4 1.8-.6 3.6-.4 5.4.3-.2.7-.4 1-.7-.2-1.8 0-3.7.5-5.5-1.4-.4-2.6-1.3-3.4-2.5-.3.2-.6.3-.9.4.8 1.3 1.9 2.3 3.2 2.9zM184.2 103.5c-.2 1.8-.2 3.5 0 5.3l.9-.8c-.2-1.8-.2-3.6.1-5.4-1.3-.3-2.4-1.1-3.2-2.1-.2.2-.5.4-.7.6.8 1 1.8 1.9 2.9 2.4z" class="st1"/><path d="M187.1 100c-1.2-.2-2.2-.8-3-1.7-.2.2-.4.4-.6.7.8.8 1.7 1.5 2.8 2 0 1.8.1 3.5.4 5.3.2-.3.5-.6.7-.8-.3-1.8-.4-3.7-.3-5.5zM110.2 92.3c-.4-1.5-.3-3.1.1-4.6-.4-.1-.8-.1-1.2-.1-.4 1.4-.6 2.9-.4 4.4-1.7.9-3.2 2.1-4.4 3.7l1.1.2c1.3-1.6 2.9-2.8 4.8-3.6zM148.2 112.1l1.6.5c.8-2 2.4-3.7 4.4-4.5-1.6-1.7-2.4-4.1-2.2-6.4l-1.5-.5c-.2 2.3.4 4.5 1.6 6.4-1.8.9-3.2 2.6-3.9 4.5zM142.2 110l1.5.6c.9-1.9 2.5-3.5 4.5-4.3-1.5-1.8-2.2-4.2-1.9-6.6l-1.4-.5c-.3 2.3.2 4.6 1.3 6.6-1.8.9-3.2 2.4-4 4.2zM137.6 108.2c1-1.9 2.7-3.4 4.7-4.2-1.4-1.9-1.9-4.2-1.6-6.4l-1.4-.6c-.3 2.2 0 4.4 1.1 6.4-1.8.9-3.3 2.4-4.2 4.2l1.4.6zM151.5 157.7c.6-1.5.7-3.1.3-4.7l-1.2.6c.4 1.6.1 3.3-.7 4.8 1.5.2 2.8 1 3.8 2.2l1.1-.6c-.9-1.1-2-1.9-3.3-2.3zM130.6 165.7c.4-1.4.2-3-.4-4.3l-1.1.2c.3.8 1 3 .1 4.4 1.6.6 3.1 1.7 4.2 3.1.4-.1.7-.1 1.1-.2-1.1-1.4-2.4-2.5-3.9-3.2zM126.7 166c.5-1.4-.1-3.3-.4-4.1l-1 .1c.3.7 1 2.8.2 4.1 1.6.7 3.1 1.8 4.2 3.2l1.1-.1c-1.2-1.3-2.5-2.5-4.1-3.2zM125.7 169.2l1 .1c-.8-1-1.7-1.9-2.8-2.6l-.1.7c.6.5 1.3 1.1 1.9 1.8zM181.6 145.5c.4 1.3.3 2.6-.1 3.9.3 0 .6.1.9.1.5-1.3.6-2.6.5-3.9 1.2-1 2.1-2.2 2.9-3.5-.3 0-.6-.1-.9-.1-1 1.4-2.1 2.6-3.3 3.5zM182 142l-1 .1c-.7 1.4-1.6 2.7-2.8 3.8.6 1.1.8 2.3.5 3.5h.9c.3-1.2.3-2.4-.1-3.6 1-1.1 1.9-2.4 2.5-3.8zM173 143.4c-.4 1.6-1.2 3-2.2 4.2.9.7 1.5 1.8 1.5 3l1-.3c0-1.1-.4-2.2-1.1-3.1.9-1.2 1.6-2.6 2-4.1l-1.2.3zM177.1 142.5c-.6 1.5-1.4 2.9-2.5 4 .8.9 1.1 2.1 1 3.3l1-.2c.2-1.2-.1-2.4-.7-3.4 1-1.1 1.7-2.5 2.3-3.9l-1.1.2zM135.5 95.5l-1.4-.5c-.4 2.1-.1 4.3.8 6.3-1.8.9-3.3 2.2-4.3 3.9l1.4.6c1.1-1.8 2.8-3.2 4.8-3.9-1.2-1.9-1.6-4.1-1.3-6.4zM130.3 93.5 129 93c-.4 2-.2 4.1.6 6-1.8.9-3.3 2.2-4.4 3.8l1.3.6c1.2-1.7 2.9-3.1 4.9-3.8-1.2-1.8-1.6-4-1.1-6.1zM125 91.5l-1.3-.4c-.5 1.9-.4 3.9.3 5.7-1.8.8-3.3 2.1-4.5 3.7l1.3.5c1.3-1.7 3-2.9 5-3.7-.9-1.7-1.2-3.8-.8-5.8zM120 89.9l-1.3-.4c-.5 1.7-.5 3.6.1 5.2-1.8.9-3.3 2.1-4.6 3.7l1.2.4c1.4-1.6 3.1-2.9 5.1-3.6-.8-1.6-1-3.5-.5-5.3zM115.1 88.6l-1.3-.3c-.5 1.6-.5 3.3-.1 4.8-1.8.9-3.4 2.1-4.7 3.6l1.2.3c1.4-1.6 3.2-2.7 5.1-3.5-.6-1.5-.7-3.2-.2-4.9zM155.7 155.4c.7-1.5.9-3.2.7-4.8l-1.2.7c.2 1.7-.1 3.4-1 4.9 1.4.3 2.5 1.1 3.3 2.3l1-.6c-.7-1.2-1.7-2-2.8-2.5zM159.9 153c.8-1.5 1.1-3.2 1-4.9l-1.2.6c.1 1.8-.4 3.5-1.4 5 1.2.4 2.3 1.2 2.9 2.4l1-.6c-.5-1.1-1.3-2-2.3-2.5zM164.1 150.6c.8-1.4 1.3-3 1.4-4.6l-1.2.5c-.1 1.7-.7 3.3-1.7 4.6 1.2.5 2.1 1.5 2.5 2.7l1-.5c-.3-1.1-1-2.1-2-2.7zM168.9 144.7c-.3 1.6-1 3.1-2 4.4 1.1.6 1.8 1.7 2 2.9l1-.4c-.1-1.2-.7-2.2-1.6-3 .9-1.3 1.4-2.7 1.7-4.3l-1.1.4zM147.2 160c.5-1.5.6-3.1.2-4.6l-1.2.5c.4 1.6.3 3.3-.5 4.8 1.5.3 2.9 1.2 3.9 2.4l1-.6c-.9-1.2-2.1-2-3.4-2.5zM142.9 161.9c.5-1.5.5-3.1 0-4.6l-1.1.5c.5 1.6.4 3.2-.4 4.7 1.6.4 3 1.3 4.1 2.6l1-.5c-.9-1.2-2.1-2.2-3.6-2.7zM138.8 163.5c.5-1.5.4-3.1-.1-4.6-.4.1-.7.3-1.1.4.6 1.5.5 3.2-.2 4.6 1.7.5 3.1 1.5 4.1 2.8l1-.4c-1-1.2-2.3-2.2-3.7-2.8zM134.6 164.8c.4-1.5.3-3-.2-4.4-.4.1-.7.2-1.1.3.4 1 .8 3-.1 4.5 1.7.5 3.1 1.6 4.2 3l1-.3c-1-1.4-2.3-2.5-3.8-3.1z" class="st1"/></svg>