<svg xmlns="http://www.w3.org/2000/svg" viewBox="0 0 232.651 232.642"><path fill="#FFF" d="M116.33 232.642c64.242 0 116.32-52.07 116.32-116.317C232.65 52.087 180.573 0 116.33 0S0 52.087 0 116.325c0 64.247 52.087 116.317 116.33 116.317z"/><path fill="#005C5C" d="M116.325 211.238c-52.32 0-94.892-42.565-94.892-94.912 0-52.338 42.57-94.922 94.892-94.922 52.318 0 94.892 42.583 94.892 94.922 0 52.346-42.574 94.912-94.892 94.912zm0-192.915c-54.06 0-98.05 43.955-98.05 98.003 0 54.047 43.99 98.01 98.05 98.01s98.045-43.964 98.045-98.01c0-54.048-43.985-98.003-98.045-98.003z"/><path fill="#C4CED4" d="M7.206 116.325c0 60.126 48.95 109.057 109.12 109.057s109.115-48.93 109.115-109.057c0-60.135-48.946-109.048-109.114-109.048S7.206 56.19 7.206 116.325zm5.527 0c0-57.154 46.468-103.64 103.592-103.64s103.597 46.486 103.597 103.64c0 57.153-46.473 103.647-103.597 103.647S12.733 173.48 12.733 116.325z"/><path fill="#C4CED4" d="M101.532 86.27c-4.773-2.906-22-12.042-22-12.042l14.74 16.916a33.701 33.701 0 0 1 7.26-4.874zm36.628 4.648a33.735 33.735 0 0 1 5.763 6.398c2.378-5.778 8.625-21.338 9.236-23.046l-15 16.648zm-49.465 44.266c-2.337 5.678-8.207 20.3-9.024 22.752l14.794-16.304a33.895 33.895 0 0 1-5.77-6.448zm-9.111 23.121s.125-.1.364-.276a5.37 5.37 0 0 1-.352.158c-.012.06-.025.108-.012.117zm51.848-12.125c4.774 2.947 21.45 12.426 21.45 12.426l-14.24-17.342a33.643 33.643 0 0 1-7.21 4.915z"/><path fill="#D50032" d="M95.256 94.292c.256-.067.863-2.227.863-2.227-.04-.117-.332-.385-.47-.52-.155.126-.302.26-.452.394l-.42 1.54-.38-.31c-.046-.01-.347.067-.716.176-.418.402-.812.812-1.2 1.24.556-.126 2.1-.595 2.373-.68.166.186.4.386.4.386z"/><path fill="#D50032" d="M97.518 95.784c.23-.1.833-2.353.833-2.353-.062-.167-.69-.535-.69-.535l-.183-.1-.046.183-.564 2.052-.532-.327c-.138-.01-2.7.77-2.7.77-.04.277.64.678.64.678.126.01 2.4-.677 2.676-.77.203.194.568.404.568.404zm-.591 2.001c.126 0 2.424-.846 2.61-.913.23.16.63.352.63.352.227-.11.617-2.386.617-2.386-.083-.16-.79-.503-.79-.503l-.19-.083-.037.21-.34 2.042-.6-.293c-.125-.008-2.625.922-2.625.922-.012.276.725.653.725.653zm2.307 1.005c.192.25.732.477.732.477.117 0 2.362-.963 2.537-1.03.238.16.674.327.674.327.222-.118.41-2.412.41-2.412-.1-.15-.833-.452-.833-.452l-.2-.075-.018.202-.172 2.05-.645-.25c-.127 0-2.547 1.03-2.547 1.03.002.05.027.09.06.133zm3.036 1.255c.008.05.04.093.08.135h.003c.214.226.834.394.834.394.113-.017 2.17-1.207 2.307-1.29.28.125.78.268.78.268.195-.167-.06-2.453-.06-2.453-.113-.143-.942-.353-.942-.353l-.222-.067.016.243.24 2.026-.72-.202c-.123.025-2.316 1.297-2.316 1.297zm10.802.512h.01-.01zm3.404.217.004.01-.004-.01zm9.974-.871c.038-.167.05-.31.067-.376.285-.042.8-.184.8-.184.012-.025-.013-.075-.06-.142l.022-.008-.04-.025c-.188-.26-.69-.72-1.126-1.105.123.644.23 1.264.336 1.84zm2.533-1.465c-.1.118-.414 2.06-.414 2.06.208.168 1.012-.14 1.012-.14.096-.11.364-1.75.41-2.02.27-.075.658-.226.658-.226 0-.026-.033-.084-.083-.142l.02-.01-.062-.032c-.444-.478-2.077-1.558-2.077-1.558-.155-.016-.9.277-.9.277l-.276.11 2.244 1.472-.533.208zm2.604-1.072c-.087.135-.025 2.06-.025 2.06.226.135.954-.25.954-.25.075-.117.03-1.658.017-1.985.263-.09.615-.258.615-.258 0-.033-.033-.075-.087-.135l.013-.008-.05-.034c-.47-.453-2.2-1.44-2.2-1.44-.146-.01-.832.326-.832.326l-.263.134 2.324 1.34-.463.25zm2.42-1.239c-.083.15.138 2.052.138 2.052.23.116.913-.286.913-.286.07-.126-.093-1.667-.13-1.968.24-.117.558-.302.558-.302 0-.033-.038-.075-.1-.125l.012-.018-.038-.01c-.468-.417-2.273-1.314-2.273-1.314-.155 0-.787.37-.787.37l-.247.15 2.386 1.197-.433.252zm2.323-1.432c-.05.168.63 1.977.63 1.977.243.067.795-.402.795-.402.03-.15-.477-1.55-.607-1.9.206-.135.486-.377.486-.377-.042-.26-2.49-1.198-2.49-1.198-.165.026-.66.46-.66.46l-.188.16 2.424.947-.39.333zm.722 1.767h-.004.004zm1.926-1.466c.247.058.796-.394.796-.394.016-.067-.058-.327-.16-.636-.356-.377-.72-.737-1.097-1.09l-.167.152c-.05.16.628 1.968.628 1.968zm-2.658-3.249 1.7.653c-.403-.36-.81-.72-1.224-1.055-.15.11-.29.243-.29.243l-.187.16zm1.297 46.603c-.263.074-.858 2.227-.858 2.227.025.093.2.276.343.418.22-.184.43-.376.645-.56l.352-1.266.376.3c.026.01.176-.024.394-.074.42-.418.825-.83 1.223-1.264-.683.192-1.842.536-2.08.603-.166-.185-.396-.386-.396-.386z"/><path fill="#D50032" d="M138.6 136.507c-.125-.025-2.385.653-2.67.754-.206-.192-.582-.4-.582-.4-.23.1-.838 2.36-.838 2.36.08.16.712.528.712.528l.176.1.604-2.218.544.31c.126.016 2.7-.762 2.7-.762.03-.277-.645-.67-.645-.67zm-2.65-1.633c-.126-.017-2.475.846-2.62.896a5.447 5.447 0 0 0-.633-.352c-.222.117-.6 2.387-.6 2.387.084.16.775.494.775.494l.193.09.372-2.252.603.293c.13.018 2.617-.91 2.617-.91.026-.278-.707-.646-.707-.646zm-2.32-1.022h.01l-.01-.008c-.188-.243-.715-.46-.715-.46-.13 0-2.408.98-2.542 1.02-.25-.15-.69-.326-.69-.326-.22.117-.407 2.42-.407 2.42.1.142.84.453.84.453l.206.076.184-2.27.64.27c.127 0 2.55-1.04 2.55-1.04.002-.04-.027-.092-.065-.134zm-3.018-1.256a.232.232 0 0 0-.08-.125h-.008c-.218-.233-.834-.393-.834-.393-.113.017-2.21 1.223-2.307 1.29-.268-.134-.787-.268-.787-.268-.202.16.08 2.46.08 2.46.108.127.933.336.933.336l.225.067-.272-2.27.728.202c.128-.017 2.322-1.3 2.322-1.3zm-3.822-1.206c-.04-.033-.068-.058-.113-.083a5.21 5.21 0 0 1-.068.394c.163-.108.272-.183.272-.183a.205.205 0 0 0-.093-.127zm-22.887 2.83c.092-.116.402-2.067.402-2.067-.214-.167-1.022.134-1.022.134-.087.117-.347 1.742-.39 2.026a8.456 8.456 0 0 0-.664.226c0 .024.112.183.112.183.452.478 2.08 1.557 2.08 1.557.142.01.9-.276.9-.276l.276-.117-2.23-1.465.535-.2zm-2.609 1.056c.075-.134.02-2.05.02-2.05-.237-.135-.953.25-.953.25-.074.11-.04 1.666-.028 1.984-.26.1-.603.25-.603.25 0 .034.124.177.124.177.47.453 2.186 1.45 2.186 1.45.15 0 .846-.336.846-.336l.264-.124-2.34-1.34.484-.26zm-2.428 1.231c.08-.142-.134-2.052-.134-2.052-.23-.11-.922.302-.922.302-.067.117.1 1.658.135 1.977-.24.11-.553.292-.553.292a.485.485 0 0 0 .088.118v.01l.012.008c.457.4 2.3 1.34 2.3 1.34.15-.017.778-.395.778-.395l.243-.142-2.382-1.197.436-.26zm-2.32 1.448c.045-.16-.633-1.976-.633-1.976-.247-.068-.79.4-.79.4-.04.143.476 1.55.602 1.894-.206.134-.478.385-.478.385.033.25 2.483 1.188 2.483 1.188.163-.025.66-.468.66-.468l.185-.142-2.424-.938.396-.345zm-2.651-.301c-.25-.067-.796.402-.796.402-.017.075.104.452.242.862.315.32.624.62.947.93l.237-.21c.05-.175-.632-1.984-.632-1.984zm2.667 3.249-1.947-.745c.452.402.92.803 1.4 1.197.18-.134.355-.285.355-.285l.192-.167zm9.752-7.779c-.276.05-.754.176-.754.176-.012.042.013.083.055.15l-.017.01.038.032c.164.21.545.562.922.905-.08-.445-.164-.863-.244-1.273z"/><path fill="#C4CED4" d="M211.745 116.317a1.088 1.088 0 0 0-.164-.025c.064.016.1.033.118.033a.147.147 0 0 0 .047-.008z"/><path fill="#0C2C56" d="M175.184 121.283c-.08.913-.18 1.817-.293 2.738-.008.018-.008.043-.012.07-.12.894-.263 1.774-.414 2.662 0 .025-.013.05-.013.084a58.032 58.032 0 0 1-.543 2.63c0 .016-.004.04-.013.05-2.65 11.556-8.697 21.83-17.04 29.71-.01 0-.01.01-.01.01a67.686 67.686 0 0 1-1.942 1.76c-.017.007-.03.024-.042.032-.666.56-1.323 1.122-2.006 1.65-.017.016-.038.016-.05.033a58.777 58.777 0 0 1-35.15 12.63c-.75 3.374-1.253 5.485-1.316 5.467-.067.017-.57-2.093-1.323-5.468a58.886 58.886 0 0 1-35.184-12.63c-.008-.016-.016-.016-.03-.032a49.808 49.808 0 0 1-2.012-1.658c-.013-.01-.026-.017-.038-.025a66.716 66.716 0 0 1-1.952-1.767c-8.357-7.88-14.416-18.172-17.058-29.745-.01-.017-.01-.017-.013-.033-.2-.88-.376-1.75-.536-2.646-.003-.026-.003-.05-.015-.067a56.098 56.098 0 0 1-.406-2.688c-.01-.01-.01-.034-.014-.052a67.486 67.486 0 0 1-.29-2.747v-.008c-17.97-2.336-34.42-4.547-36.033-4.9.02 52.34 42.582 94.897 94.892 94.897 52.29 0 94.83-42.517 94.888-94.822-3.023.51-18.866 2.63-36.03 4.865zM57.472 111.3c.075-.912.176-1.817.298-2.713.004-.033.004-.067.013-.092.113-.888.25-1.767.406-2.638.012-.042.016-.084.025-.117.154-.87.33-1.742.527-2.587.004-.034.016-.068.025-.1a60.53 60.53 0 0 1 .658-2.58s.004-.017.012-.034c2.93-10.485 8.684-19.78 16.39-27.04l.01-.01a47.09 47.09 0 0 1 1.93-1.742c.022-.025.04-.033.064-.058.646-.56 1.31-1.097 1.985-1.625.017-.025.042-.04.058-.05a54.698 54.698 0 0 1 2.085-1.574c.01-.008.013-.008.02-.024 9.356-6.683 20.73-10.728 33.025-11.004h.01c.757-3.408 1.26-5.527 1.326-5.527.086-.025.606 2.102 1.376 5.527 13.223.32 25.382 4.974 35.088 12.63.02.008.038.024.05.032.684.527 1.34 1.08 1.998 1.65.02.01.038.025.058.042.658.57 1.294 1.147 1.923 1.742.008 0 .012.017.02.017a59.056 59.056 0 0 1 16.364 27.014c0 .016.01.025.01.04.237.855.455 1.71.656 2.572 0 .033.013.067.026.1.19.855.367 1.717.526 2.588.004.033.016.075.025.117.152.87.294 1.742.407 2.638.004.025.012.05.016.092.113.896.214 1.8.29 2.705v.008c17.2 2.236 33.056 4.372 36.04 4.925-.062-52.297-42.606-94.82-94.887-94.82-52.296 0-94.854 42.54-94.892 94.854 1.616-.395 18.076-2.614 36.034-4.96h.004z"/><path fill="#FFF" d="m153.624 170.875 1.41 2.446-3.56 2.06 2.752 4.774 3.564-2.076 1.41 2.47-3.558 2.07 3.79 6.547 3.558-2.077 1.423 2.462-6.75 3.903-10.793-18.65 6.754-3.928zm32.161-32.895-1.373 3.41-2.93-1.232c-.445-.176-.738-.193-.926 0-.05.058-.767 1.984-.804 2.077-.163.394.088.603.64.828l3.096 1.256c.644.26.92.276 1.595-.244l2.52-2.872c1.31-1.047 2.575-1.5 3.873-.964l4.166 1.667c3.308 1.348 3.794 1.977 2.525 5.226-.038.117-.767 2.085-.81 2.21-1.398 3.442-2.21 3.693-5.58 2.32l-3.133-1.29 1.403-3.44 3.588 1.482c.566.218.922.192 1.098-.226.038-.11.724-2.044.695-2.136-.05-.218-.293-.385-.695-.553l-4.238-1.7c-.636-.26-1.528 1.558-2.236 2.094l-2.162 1.683c-1.252.98-2.35.863-3.76.285l-2.85-1.155c-3.4-1.365-3.778-2.12-2.387-5.57.052-.125.772-2.093.817-2.21 1.345-3.2 2.2-3.266 5.43-1.97l2.438 1.024zM110.493 181.945l-2.52 21.413-3.668-.436 2.52-21.404 3.668.427zm-54.897-40.38-8.228 6.825.075.15 10.305-2.3 2.018 4.294-19.554 9.095-1.39-2.974 11.603-5.26-.277-.602-12.523 3.29-.804-1.758 10.402-7.863-.087-.21-11.502 5.51-1.403-2.988 19.554-9.11 1.812 3.9zm34.778 35.448c3.157 1.44 3.232 2.57 1.804 5.653l-1.172 2.546c-.82 1.766-1.416 2.688-3.078 2.68 1.005 1.047.87 2.093.125 3.71l-3.07 6.665-3.32-1.54 3.343-7.252c.18-.41.205-.687.067-.913-.13-.184-2.17-1.18-2.537-1.306l-3.752 8.13-3.354-1.55 9.03-19.578 5.914 2.755zm-6.49 7.327c.268.16 2.29 1.105 2.466 1.13.373.042.59-.192.854-.786l1.742-3.752c.344-.762.5-1.098.105-1.4-.14-.108-2.14-1.062-2.41-1.17l-2.756 5.978zm43.746-3.224 5.394 9.89.155-.025-2.15-10.534 3.128-.636 4.208 21.162-3.21.636-5.478-10.174-.15.042 2.236 10.81-3.153.63-4.207-21.146 3.228-.654zm38.743-22.259c2.283-2.638 3.76-2.78 6.335-.57l2.12 1.852c1.477 1.263 2.193 2.1 1.724 3.69 1.293-.67 2.253-.25 3.6.914l5.545 4.782-2.395 2.78-6.038-5.233c-.327-.277-.603-.386-.846-.31-.226.075-1.69 1.658-1.917 1.985l6.768 5.845-2.412 2.797-16.308-14.103 3.825-4.43zm5.695 7.788c.226-.226 1.637-1.808 1.725-1.976.138-.328-.026-.612-.515-1.03l-3.132-2.714c-.632-.545-.91-.787-1.327-.495-.14.102-1.546 1.677-1.73 1.902l4.978 4.313zM121.702 29.342l-.017 2.864-2.893.01-.08 18.7-3.697-.027.084-18.684-2.99.01.012-2.857 9.58-.018zM45.49 78.398l-1.5 3.325-2.97-1.357c-.464-.2-.732-.218-.93-.033-.054.06-.824 1.86-.862 1.952-.176.376.07.61.603.854l3.058 1.38c.628.26 1.097-.193 1.78-.703l2.64-2.747c1.35-.997 2.408-.813 3.686-.235l4.09 1.85c3.253 1.46 3.71 2.095 2.32 5.302-.05.125-.808 1.96-.87 2.085-1.525 3.39-2.345 3.61-5.666 2.11l-3.547-1.55 1.526-3.4L52.856 89c.558.25.913.233 1.102-.177.038-.11.78-1.935.757-2.036-.05-.2-.276-.385-.67-.57l-4.166-1.866c-.633-.276-1.37.905-2.095 1.424l-2.23 1.59c-1.304.94-2.576 1.257-3.966.637l-2.807-1.263c-3.34-1.49-3.68-2.27-2.164-5.653.053-.117.828-1.977.87-2.077 1.473-3.15 2.332-3.207 5.514-1.766L45.49 78.4zm14.227-28.145 1.955 2.043-3.04 2.856 3.81 3.96 3.04-2.855 1.972 2.043-3.044 2.864 5.242 5.45 3.048-2.863 1.968 2.053-5.698 5.418L54.022 55.69l5.695-5.435zm28.371-16.296L98.48 53.05l-3.325 1.323-2.165-4.095-3.056 1.24 1.23 4.446-3.315 1.323-5.595-21.094 5.833-2.236zm1.1 14.772 2.396-.98-4.556-8.777-.49.26 2.65 9.496zm63.666-11.573-1.047 2.663-2.613-1.064-6.867 17.393-3.437-1.366 6.858-17.384-2.71-1.063 1.05-2.672 8.766 3.49zm23.234 15.652L163.58 66.725l3.007 2.78-1.896 2.11-5.77-5.25 14.43-16.03 2.738 2.473zm20.725 29.175-2.512 1.265-1.904-3.66-4.908 2.453 1.893 3.66-2.536 1.266-1.905-3.65-6.768 3.382 1.888 3.643-2.533 1.282-3.546-6.967 19.29-9.63 3.543 6.958z"/><path fill="#005C5C" d="M116.338 51.785c-.067 0-.57 2.12-1.327 5.527h-.008a58.92 58.92 0 0 0-33.024 11.004c-.008.016-.012.016-.02.025a54.226 54.226 0 0 0-2.086 1.575.194.194 0 0 0-.058.05 49.23 49.23 0 0 0-1.984 1.625c-.026.025-.042.033-.063.058a45.876 45.876 0 0 0-1.93 1.742l-.012.01c-7.7 7.26-13.458 16.555-16.39 27.04l-.01.025c-.24.863-.457 1.724-.66 2.587-.008.033-.02.067-.024.1a50.614 50.614 0 0 0-.526 2.588c-.01.033-.013.075-.026.117-.154.87-.292 1.75-.406 2.638-.01.025-.01.058-.013.092-.123.896-.223 1.8-.3 2.713h-.003c1.06-.142 2.132-.276 3.204-.41 1.404-14.57 8.425-27.518 18.864-36.654-.093.318 6.725 17.09 9.21 23.104a33.427 33.427 0 0 0-4.835 10.577c.443-.058.887-.117 1.314-.176a32.222 32.222 0 0 1 7.256-13.155c.39-.427.783-.837 1.2-1.24.49-.484.997-.953 1.517-1.406.15-.135.297-.27.452-.395a32.074 32.074 0 0 1 13.54-6.732c-1.943 9.547-3.584 18.063-3.82 20.508.064-.008.14-.008.19-.016 2.746 2.537 9.935 9.94 10.78 10.996l-.002-64.515zm-6.892 31.755c-2.777.595-5.435 1.5-7.914 2.73a33.688 33.688 0 0 0-7.26 4.874L79.533 74.228c9.375-8.206 21.492-13.34 34.795-13.817a1784.931 1784.931 0 0 0-4.884 23.13z"/><path fill="#005C5C" d="M57.467 121.25c.075.93.177 1.833.29 2.746.003.017.003.042.012.05.112.913.25 1.793.405 2.69.012.015.012.04.016.066.16.896.336 1.766.537 2.646.004.016.004.016.013.033 2.642 11.574 8.7 21.866 17.058 29.746.64.603 1.285 1.19 1.952 1.767l.038.025c.66.57 1.327 1.13 2.013 1.658.014.016.022.016.03.033a58.907 58.907 0 0 0 35.185 12.627c-.205-.938-.43-1.984-.683-3.107-13.37-.47-25.563-5.678-34.95-13.968.004.017.075-.016.214-.075.088-.033.214-.092.352-.16 2.906-1.44 16.31-8.843 21.422-11.782a34.11 34.11 0 0 0 8.077 2.806c-.088-.426-.168-.845-.256-1.272a31.934 31.934 0 0 1-13.176-6.424 50.656 50.656 0 0 1-1.4-1.197c-.112-.1-.217-.21-.326-.31-.322-.31-.632-.61-.947-.93a32.242 32.242 0 0 1-8.117-14.093c10.246 1.306 18.163 2.278 20.148 2.446.064.008.14.025.19.025 2.746-2.537 9.935-9.94 10.78-10.995l-95.046.016s.058.017.138.025c1.612.353 18.063 2.564 36.034 4.9v.01zm26.434 3.416a33.41 33.41 0 0 0 4.795 10.518 33.832 33.832 0 0 0 5.77 6.45L79.67 157.936l-.292.327c-10.37-9.145-17.342-22.066-18.716-36.603 7.99 1.046 16.116 2.102 23.24 3.006z"/><path fill="#C4CED4" d="M116.35 116.325h-.025s.013-.017.025-.025l.013-.026c.96-1.172 8-8.458 10.715-10.97.067 0 .15.01.24.01-.24-2.438-1.86-10.954-3.786-20.492-.088-.42-.172-.838-.264-1.265-1.64-8.173-3.488-16.89-4.86-23.137-.244-1.122-.48-2.16-.692-3.108-.77-3.425-1.29-5.552-1.377-5.527l.003 64.515c-.846 1.055-8.035 8.458-10.782 10.995-.05 0-.124-.017-.187-.025.234 2.428 1.875 10.953 3.82 20.508.086.427.166.846.255 1.273 1.666 8.183 3.52 16.942 4.886 23.18.25 1.123.478 2.17.683 3.108.754 3.375 1.256 5.486 1.323 5.468l.01-64.48z"/><path fill="#C4CED4" d="M116.343 116.3c-.846-1.055-8.035-8.458-10.782-10.995-.05.01-.124.01-.187.017-1.98.176-9.903 1.14-20.148 2.42-.427.058-.87.118-1.315.176-7.117.896-15.245 1.926-23.238 2.973-1.072.135-2.144.27-3.204.41-17.958 2.346-34.417 4.566-36.034 4.96-.088.015-.142.04-.138.057l95.047-.016zm.02.025c.917 1.122 8.026 8.44 10.765 10.97.05 0 .113-.01.176-.017 1.955-.176 9.873-1.147 20.157-2.437.432-.066.876-.116 1.316-.166 7.118-.905 15.224-1.942 23.213-2.99l3.194-.4c17.163-2.237 33.007-4.355 36.03-4.867.192-.033.334-.058.423-.083l-95.274-.01z"/><path fill="#005C5C" d="M175.17 111.293a70.75 70.75 0 0 0-.288-2.705c-.004-.04-.012-.067-.016-.092a58.824 58.824 0 0 0-.406-2.638c-.01-.042-.02-.084-.025-.117-.16-.87-.335-1.732-.527-2.586-.013-.034-.026-.068-.026-.1a58.35 58.35 0 0 0-.657-2.572c0-.016-.01-.025-.01-.042a59.048 59.048 0 0 0-16.362-27.014c-.01 0-.013-.017-.02-.017a60.195 60.195 0 0 0-1.924-1.743c-.022-.017-.04-.033-.06-.042a46.293 46.293 0 0 0-1.996-1.65c-.013-.01-.03-.025-.05-.033a58.794 58.794 0 0 0-35.09-12.63c.215.948.45 1.986.692 3.11 13.277.484 25.382 5.635 34.74 13.84-.016-.008-16.64 8.978-21.915 12.06a32.402 32.402 0 0 0-7.963-2.764c.092.427.176.846.264 1.265 4.95 1.13 9.468 3.4 13.265 6.523.415.335.82.695 1.223 1.055.17.152.335.32.498.48.377.35.74.71 1.097 1.088a32.237 32.237 0 0 1 7.84 13.775c-10.188-1.28-18.072-2.236-20.136-2.428-.088 0-.172-.01-.24-.01-2.712 2.514-9.755 9.8-10.714 10.97l-.013.027c-.012.008-.02.025-.02.025h.02l-.012 64.48c.063.018.565-2.092 1.315-5.467a58.76 58.76 0 0 0 35.15-12.628c.013-.017.033-.017.05-.033.684-.53 1.34-1.09 2.007-1.65.012-.01.025-.027.042-.034a58.97 58.97 0 0 0 1.938-1.76s.004-.008.013-.008c8.344-7.88 14.39-18.155 17.04-29.71.01-.01.014-.034.014-.052.2-.87.38-1.742.544-2.63 0-.032.014-.058.014-.083.15-.888.293-1.767.414-2.663.004-.026.004-.05.013-.068.114-.92.215-1.825.294-2.738l-3.195.402c-2.652 27.693-25.538 49.54-53.645 50.546 1.36-6.238 3.207-14.998 4.873-23.18a33.02 33.02 0 0 0 8.215-2.873 33.683 33.683 0 0 0 7.21-4.916l14.24 17.342c.202-.075-6.326-17.678-8.737-23.64a33.166 33.166 0 0 0 4.63-10.292c-.44.05-.882.1-1.314.167a32.166 32.166 0 0 1-7.37 13.292c-.397.435-.802.846-1.222 1.264-.368.352-.745.712-1.122 1.038-.214.184-.424.377-.645.56a32.178 32.178 0 0 1-13.62 6.793c1.942-9.563 3.583-18.105 3.822-20.508-.063.008-.126.016-.176.016-2.74-2.53-9.85-9.85-10.766-10.97l95.273.01h.1s-.017 0-.038-.01c-.018 0-.056-.017-.118-.033a8.982 8.982 0 0 0-.37-.067c-2.984-.553-18.84-2.688-36.04-4.925v-.007zm-26.395-3.376a33.29 33.29 0 0 0-4.853-10.6 33.745 33.745 0 0 0-5.762-6.4l14.806-16.455.18-.2c10.417 9.127 17.43 22.065 18.837 36.62a6037.03 6037.03 0 0 0-23.208-2.965z"/><path fill="#FFF" d="m59.73 172.65 1.804 1.818 6.222-7.688-.37-.37-7.657 6.24zm13.037-6.9L59.423 182.9l-2.533-2.52 2.88-3.627-2.303-2.312-3.596 2.89-2.524-2.504 17.104-13.55 4.317 4.474z"/></svg>