<svg xmlns="http://www.w3.org/2000/svg" xml:space="preserve" width="150" height="150" viewBox="0 0 150 149.99792"><path fill="#fff" d="M74.819 148.9c40.867 0 74-33.133 74-74S115.686.902 74.819.902c-40.87 0-74 33.132-74 73.998 0 40.867 33.13 74 74 74"/><path fill="#ff5910" d="M74.819 5.475c-38.288 0-69.433 31.148-69.433 69.433s31.146 69.43 69.433 69.43c38.282 0 69.432-31.145 69.432-69.43S113.101 5.475 74.82 5.475"/><path fill="#fff" d="M134.321 102.338c-.162.35-.326.7-.491 1.049a65.237 65.237 0 0 1-3.087 5.637 64.569 64.569 0 0 1-3.022 4.503 64.99 64.99 0 0 1-6.35 7.452 65.734 65.734 0 0 1-22.86 15.025c.825-.409 1.284-.65 2.549-2.018l-.888-.224c-1.1 1.101-2.275 2.149-4.337 2.972l1.238-.19c-.956.346-1.918.671-2.895.974l1.244-1.197-1.022-.4c-.492.734-1.253 1.49-2.796 2.333a65.348 65.348 0 0 1-16.788 2.184c-18.256 0-34.786-7.506-46.68-19.587a65.694 65.694 0 0 1-11.994-16.785c-.166-.33-.33-.662-.49-.996a65.023 65.023 0 0 1-4.668-13.311c-.08-.349-.155-.701-.23-1.054-.027-.114-.054-.228-.077-.344a65.659 65.659 0 0 1-1.39-13.453c0-8.759 1.73-17.117 4.86-24.757-.205.983-.157 1.819.081 2.775-1.1 1.1-1.87 2.358-2.335 4.121l.898.55c.286-1.438 1.437-3.298 2.4-4.395-.687-2.336.348-3.659.76-5.308l-.744-.19a65.91 65.91 0 0 1 19.346-24.462c-.406.718-.877 1.63-1.093 2.342l.963-.616s1.12-1.863 2.2-3.275a65.892 65.892 0 0 1 6.577-4.167l-1.794 1.035c-1.771 2.089-2.006 3.43-2.653 4.963L40.825 23c.37-1.313 1.363-4.01 3.23-5.938a65.14 65.14 0 0 1 30.762-7.683c24.961 0 46.705 14.03 57.764 34.617.093.649.377 2.294-.092 2.528.16 1.292-.572 2.734-1.07 3.586l.55 1.854c.854-1.03 1.497-2.906 1.406-3.943.597-.441.32-1.269.315-1.866a64.773 64.773 0 0 1 1.427 3.107c-.072.375-.31 1.443-.757 1.997.253 1.199-.3 2.422-.809 3.316l.685 1.718c.309-.206 1.197-2.506 1.182-3.775.33-.436.417-.909.492-1.313a68.9 68.9 0 0 1 1.124 3.123c-.062.523-.23 1.529-.639 1.915.255 1.15-.3 1.972-.647 2.73l.62 1.717s1.03-2.3 1.004-3.128c.17-.384.328-.61.384-.91a67.65 67.65 0 0 1 .968 3.739c-.23 1.074-.838 2.089-1.325 3.184l.135 1.032s.823-1.028 1.555-2.495c.156.778.295 1.562.421 2.348-.133.398-.717 2.101-1.08 2.344l.134.755s.728-.977 1.16-1.666c.408 2.947.622 5.957.622 9.016a65.53 65.53 0 0 1-1.257 12.795 64.842 64.842 0 0 1-4.768 14.635"/><path fill="#002d72" d="m73.972 11.613-.405 3.214-.888.96v6.695l-2.19 1.646v4.812l-1.423.96v9.76h-6.2v-7.615H53.8v7.418l-1.922.823v13.465H45.28V42.483l-.687-.683v-5.908h-.684l-1.62-6.216c.056-.296.094-.673.094-1.092 0-.937-.179-1.303-.392-1.303s-.386.366-.386 1.303c0 .463.042.881.11 1.186l-1.652 6.122h-.687V41.8l-.69.683V54.74h-7.28v-.807c-.414 1.647-1.499 4.399-.962 6.66l-.175-.114.583.418c-1.51.413-3.984 2.471-4.533 3.983l-1.371-1.099c.682-2.045 2.425-2.496 4.465-3.846l-.482-.305c-.083-2.006-.074-4.24 1.024-6.575l1.452.878v-8.254c0-1.238-1.79-1.27-1.79-1.27V42.2l-1.513-.414-.136-.95-.408-.14-.415.14-.136.95-1.513.414v2.207s-1.786-.105-1.786 1.407v11.809l-2.884 1.899v7.006l-1.099.62v5.356l-1.03.62v9.958H16.634v-9.89h-.48l-1.237-10.766-.616-.02-1.31 10.785h-.754v7.898h-1.582s-.983.834-.933 1.25c.228 2.037.547 4.045.956 6.022.023.116.05.23.078.343.074.353.149.708.23 1.057a64.911 64.911 0 0 0 4.67 13.31c1.425-.967 2.851-2.293 2.868-2.308l.162-.149h3.918l.155.127c12.156 10.15 34.718 14.474 48.954 15.16l-1.014-.464c1.373-.96 3.159-3.073 3.296-3.623l1.024 1.238c-.63 1.008-1.657 2.167-2.564 2.884a85.78 85.78 0 0 0 2.541.065c15.945.143 40.686-6.393 52.104-16.352l.152-.136h4.155l.515.518 2.401 2.307a64.836 64.836 0 0 0 4.767-14.635l-.657-1.526h-3.024V79.58h-3.3v3.85h-2.744V48.255h-7.697v17.862H115.9V45.231l-1.047-.897v-2.476l-2.255-1.021v-3.01h-3.756v3.01l-2.256 1.02v2.477l-1.04.897v4.126h-5.587V37.266h-4.67v-5.772h-3.02v-3.02h-6.87v3.02h-2.476v9.618h-3.724V29.9l-1.426-.959v-4.812l-2.19-1.647v-6.695l-.817-.96-.337-3.214h-.457zm53.667 89.002c-1.317 1.128-2.806 2.213-4.424 3.25v14.094h.966a66.19 66.19 0 0 0 3.545-4.43v-12.914h-.087zm3.107 0v8.41a64.933 64.933 0 0 0 3.086-5.636l-2.69-2.586-.188-.188h-.208zm-108.64 1.099v12.081a65.66 65.66 0 0 0 3.23 4.028l1.436.004v-12.898c-1.62-1.001-3.144-2.067-4.534-3.214h-.133zm-3.024.029c-.388.35-1.632 1.46-2.937 2.323a65.167 65.167 0 0 0 2.937 5.27v-7.593zm103.035 2.81a60.281 60.281 0 0 1-4.123 2.274v11.126l4.123.004v-13.404zm-94.247 1.04v12.237l4.122.006V107.76a56.824 56.824 0 0 1-4.122-2.168zm89.025 1.779a80.235 80.235 0 0 1-4.122 1.84v8.734l4.122.007v-10.581zm-83.8.9v9.564l4.118.004V110a73.991 73.991 0 0 1-4.119-1.727zm78.58 1.388a95.018 95.018 0 0 1-4.123 1.533v6.747l4.122.006v-8.286zm-73.363.752v7.43l4.125.007v-6.034a87.616 87.616 0 0 1-4.125-1.404zm68.138 1.16c-1.356.456-2.731.884-4.119 1.286v5.072l4.12.006v-6.364zm-62.915.583v5.694l4.12.006v-4.55a104.324 104.324 0 0 1-4.12-1.15zm57.698 1.018c-1.369.383-2.745.74-4.122 1.072v3.679l4.122.006v-4.757zm-52.476.411v4.275l4.122.006v-3.341a110.946 110.946 0 0 1-4.122-.94zm47.256.92c-1.38.318-2.756.609-4.122.872v2.538l4.122.006v-3.416zm-42.039.25v3.111l4.125.007v-2.363c-1.36-.224-2.735-.475-4.125-.755zm36.814.827c-5.654 1.024-11.104 1.563-15.801 1.52-4.366-.038-9.876-.482-15.79-1.414v2.185l31.59.045v-2.336zm-62.649 5.272c11.893 12.082 28.425 19.586 46.679 19.586 5.801 0 11.427-.763 16.786-2.184 1.543-.844 2.303-1.599 2.797-2.333l1.02.399-1.244 1.195a61.61 61.61 0 0 0 2.897-.972l-1.238.191c2.06-.825 3.237-1.872 4.336-2.971l.888.223c-1.263 1.37-1.721 1.605-2.547 2.016a65.768 65.768 0 0 0 22.86-15.024l-39.507-.055.42.438c-.961 1.512-3.209 3.626-4.72 4.45l-1.1-.96c1.488-.687 3.267-2.598 4.223-3.931l-52.551-.068z"/><path fill="#fff" d="M82.954 83.163c.92-.548 1.661-.42 1.895-.154.067.077.1.178.1.299 0 .244-.141.562-.413.898-1.112 1.396-3.298 2.262-4.766 2.54.57-1.196 1.713-2.71 3.184-3.584m2.692 1.931c.522-.65.726-1.263.726-1.785 0-.504-.19-.927-.453-1.232-.786-.905-2.304-.96-3.691-.135-2.174 1.29-3.85 3.802-4.219 5.486l-.176.807.827.052c1.722.11 5.297-1.079 6.986-3.192m27.43-23.637-9.52.08s-3.194 6.769-3.534 7.486l-6.797.115-3.383 6.894 6.921-.27c-.777 1.695-4.237 9.203-4.237 9.203-1.703 3.285-6.396 9.476-11.888 9.181-.93-.05-1.388-.597-1.653-1.51 6.792-.813 9.868-3.463 11.052-5.048 1.207-1.62 1.82-3.3 1.82-4.853a5.34 5.34 0 0 0-1.034-3.198c-1.84-2.514-5.689-3.296-9.575-1.946-6.264 2.176-11.043 8.763-11.043 14.884 0 .326.031.65.06.975-.304.242-.657.462-.85.444-.014-.003-.043-.004-.095-.083-2.562-4.25 9.69-26.607 14.302-35.025l.577-1.052H73.103l-.21.21C69.191 61.665 64.595 69.31 60.9 75.451c0 0-.888 1.452-1.748 2.862l.922-3.725c1.342-5.685 3.014-12.76 4.682-15.875l.562-1.053-1.197.009-9.134.068-.21.253c-2.15 2.59-4.745 8.59-7.489 14.944-3.767 8.707-8.918 20.632-12.046 19.732-.141-.041-.251-.112-.324-.321-.468-1.313 1.158-5.04 2.914-7.564l1.268-1.825-7.728 2.775-.119.133c-2.573 2.835-4.884 8.147-4.129 11.787.357 1.713 1.359 2.984 2.895 3.679 2.06.931 4.205.977 6.374.135 5.714-2.215 10.23-9.97 12.654-15.004-1.2 5.654-3.101 11.637-4.462 13.774l-.696 1.093h8.783l.214-.28c1.078-1.41 2.68-4.055 4.534-7.118a306.28 306.28 0 0 1 3.934-6.33c-.713 2.038-1.2 4.12-1.2 6.062 0 1.636.269 3.146.831 4.366.902 1.95 2.485 3.136 4.577 3.424 3.155.357 5.833-1.61 7.034-2.791.508.539 1.003 1.08 1.692 1.51l.02.012c2.546 1.49 9.689 2.043 14.99-3.107.727 1.885 2.28 3.277 4.38 3.76 2.638.606 5.685-.354 7.993-2.329 1.284.892 2.732 1.78 4.192 2.041 8.19 1.46 12.237-4.868 12.824-7.979.213-1.134.302-2.16.302-3.103 0-2.364-.551-4.17-1.024-5.707-.34-1.116-.622-2.03-.622-2.91 0-.792.23-1.556.846-2.406l.49-.67-4.246-2.182c1.997-.03 4.917-.077 4.917-.077l2.79-6.8-12.616.195c.734-1.535 3.552-7.452 3.552-7.452m-.823 14.167c-1.458 1.062-4.015 4.09-9.368 10.864-1.444 1.83-2.985 3.773-3.978 4.938.105-.296.217-.603.402-.964 0 0 6.913-14.686 6.94-14.746l6.004-.092m-5.2 14.575c1.26-1.968 2.359-3.347 3.404-4.606l.064.661c.135 1.087.266 2.13.266 3.306 0 .583-.033 1.2-.112 1.87-.106.887-.734 2.202-1.688 2.886a2.44 2.44 0 0 1-2 .42c-.23-.048-.512-.268-.624-.648a1.23 1.23 0 0 1-.054-.363c0-.618.402-1.362 1.139-2.1l.485-.488-.88-.938m-2.05 4.296c.242.825.908 1.466 1.69 1.632a3.872 3.872 0 0 0 3.125-.655c1.357-.977 2.126-2.695 2.267-3.877.26-2.188.048-3.878-.151-5.515l-.407-3.996-1.088 1.29-.948 1.153c-1.203 1.448-2.448 2.943-3.947 5.37l-.29.462.777.83c-.792.991-1.138 1.887-1.138 2.532 0 .311.047.572.11.774"/><path fill="#ff5910" d="m66.849 13.15-2.402.344c-.48.962-1.786 2.403-2.404 2.884.65.274 1.167.892 1.03 5.36l2.162-.136c-.137-4.949-1.063-4.949-1.407-4.949.755-.48 3.02-3.503 3.02-3.503zm4.33.207c-.345.824-2.886 2.403-3.504 2.885.118.097.517.223.856.499.611.493 1.473 1.918 1.413 5.03l1.918.135c-.102-3.571-.994-4.714-1.345-5-.253-.28-.8-.324-1.056-.392 1.452-.575 3.707-2.952 3.707-2.952l-1.99-.205zm-10.925.068-2.058.205c-.21 1.099-.827 2.474-1.445 2.955.686 1.238.687 3.022-.412 5.289l2.061-.136c1.1-2.748.824-4.125.208-5.085.754-.481 1.646-3.228 1.646-3.228zm-5.493.684-2.269.622c-.273 1.237-.826 2.06-1.442 2.541.656.22.335 1.016-.084 2.055-.37.92-.843 1.62-1.361 2.686l2.061-.14c1.377-2.337 2.406-4.603 1.377-4.876.755-.482 1.718-2.888 1.718-2.888zm25.206.071c-1.44 1.65-2.748 2.267-3.364 2.749 1.097.55 1.992 2.404 1.718 5.22l2.2.548c-.139-3.572-.964-4.947-1.993-5.22.755-.482 3.708-3.092 3.708-3.092l-2.269-.205zm-30.462 1.18-2.058.386c-.363 1-.898 1.785-1.579 2.281.177 1.072-.194 2.031-1.756 4.398l1.935-.25c1.885-2.426 1.719-3.567 1.698-4.4.813-.496 1.76-2.415 1.76-2.415zm36.373.058c-.823.963-2.404 1.715-3.02 2.194.682 1.239 2.471 3.231 2.197 6.048l1.922.275c-.55-4.534-1.37-5.22-2.401-5.496.755-.481 3.57-2.68 3.57-2.68l-2.268-.34zm6.456 1.647c-.481.962-1.717 1.443-2.337 1.925.689 1.236 1.927 3.298 1.653 6.115l2.13.616c-.414-4.121-.895-5.907-1.926-6.18.755-.482 2.612-2.133 2.612-2.133l-2.132-.343zm6.047 2.129c-.481.962-1.719 1.444-2.337 1.925.69 1.236 1.788 2.748 1.514 5.564l2.058.823c-.413-4.26-.822-5.356-1.85-5.632 1.235-.687 2.747-2.13 2.747-2.13l-2.132-.55zm6.455 2.408c-.48.96-1.717 1.165-2.333 1.646.685 1.236 1.923 3.091 1.65 5.908l2.197 1.098c-.139-3.434-.962-5.77-1.993-6.044 1.373-.618 2.544-1.925 2.544-1.925l-2.064-.683zm5.429 2.608c-.482.687-1.714 1.169-2.334 1.65.687 1.236 1.992 2.816 1.718 5.632l2.194 1.235c-.135-3.572-.959-5.838-1.99-6.112 1.031-.481 2.269-1.718 2.269-1.718l-1.857-.687zm5.152 3.02c-.48.963-1.097.897-1.717 1.378.688 1.236 1.991 3.776 1.717 6.595l1.922 1.37c-.276-4.396-.755-6.798-1.786-7.074.755-.481 1.51-1.306 1.51-1.306l-1.646-.962zm5.5 3.507c-.208.755-1.037 1.03-1.653 1.51.687 1.237 1.236 3.983.963 6.8l1.921 1.377c.14-4.26-.482-5.978-1.166-7.282.755-.481 1.166-1.17 1.166-1.17l-1.231-1.235zm4.874 4.187c-.208.757-.822 1.033-1.442 1.514.342 1.512 1.03 3.709.619 5.907l1.507 1.579c.346-2.473.14-5.083-.273-6.388.482-.344.963-1.098.963-1.098l-1.374-1.514zm3.778 4.81c0 .292.033 2.185-.515 2.46.162 1.291-.227 2.734-.722 3.587l1.306 1.581c.647-1.306.947-3.321.852-4.358.162-.542.335-.47.382-1.07l-1.303-2.2zm-111.768 8.38c-1.1 2.335-.827 4.534-.412 6.183-1.101 1.1-1.975 1.763-2.664 3.824l1.09.687c.136-1.51 1.3-2.997 2.673-4.096-.687-2.335.287-4.557.7-6.206l-1.387-.392zm3.435.966c-.739 2.497-.824 4.804-.412 6.455-1.101 1.1-2.66 1.889-3.347 3.95l1.36.697c.55-1.51 1.988-3.547 3.498-3.96-.69-2.337.076-4.884.489-6.533l-1.588-.61zm4.323 1.698c-.826 2.335-.475 4.112-.201 6.86l.246.12c-1.107 1.08-3.274 1.639-3.957 3.682l1.374 1.102c.548-1.512 2.888-3.436 4.398-3.847l-.411-.233c-.69-2.336-.275-5.222.136-6.87l-1.585-.814zm4.394 2.275c-1.097 2.337-1.107 4.566-1.024 6.572l.483.308c-2.04 1.35-3.785 1.798-4.465 3.843l1.374 1.102c.55-1.512 3.021-3.573 4.533-3.986l-.59-.415.179.11c-.54-2.26.547-5.007.962-6.656l-1.452-.878zm4.748 3.296c-.962 2.227-2.198 6.056-1.41 6.54l.399.495c-1.796.685-5.04 1.507-5.425 3.108l1.3 1.173c.255-1.066 2.659-2.24 5.272-2.926l-.45-.558c-.067-2.256 1.218-5.091 1.76-6.585L34.7 56.35zM63.057 59.1c-1.576.013-6.76.051-7.356.055-1.997 2.543-4.476 8.255-7.11 14.346-5.687 13.158-9.715 21.695-13.74 20.533-.612-.176-1.053-.595-1.27-1.209a3.038 3.038 0 0 1-.16-1.034c0-1.819 1.144-4.27 2.162-6.06-1.53.548-3.135 1.127-3.367 1.212-2.018 2.28-3.818 6.186-3.818 9.181 0 .436.036.85.117 1.238.268 1.286.953 2.16 2.087 2.674 1.726.78 3.45.816 5.273.107 6.47-2.51 11.612-13.473 13.031-16.774.774-1.794 1.065-2.47 1.805-2.252.41.118.545.383.545.83 0 .31-.065.71-.146 1.215 0 0-.107.664-.107.677-.9 5.303-2.874 12.51-4.631 16.071h5.58c1.031-1.408 2.526-3.857 4.255-6.715 2.02-3.337 4.311-7.122 6.359-10 1.914-2.699 2.16-3.043 2.842-2.632.676.409.487.778-1.015 3.74-2.667 4.162-3.594 9.934-2.12 13.135.7 1.51 1.874 2.389 3.468 2.609 3.035.342 5.72-2.117 6.271-2.797l.567-.7.548.716c.508.664 1.119 1.202 1.909 1.698 1.99 1.157 8.712 1.887 13.588-3.16l.078-.107.833-.495.405-.185.305.774s.153.382.223.525c.772 2.104 2.346 2.866 3.526 3.137 2.363.542 5.18-.356 7.188-2.29l.425-.409.48.34c1.244.884 2.697 1.82 4.024 2.058 7.867 1.402 10.861-5.144 11.18-6.841.2-1.045.28-1.985.28-2.845 0-2.143-.505-3.789-.963-5.286-.357-1.166-.69-2.25-.69-3.35 0-.804.269-1.633.742-2.496-1.035-.535-2.986-1.534-3.351-1.721-1.25.572-6.273 6.918-9.307 10.76-5.322 6.738-5.382 6.709-6.106 6.354l-.6-.7c-.306-.919.337-2.402.746-3.205 0 0 6.926-14.712 6.916-14.684l.337-.826 13.102-.2c.237-.588 1.125-2.751 1.614-3.942-1.804.03-12.752.198-12.752.198s2.828-5.943 3.558-7.47c-1.56.015-5.68.05-6.352.055-.344.722-3.536 7.477-3.536 7.477l-6.808.116c-.264.531-1.334 2.716-1.954 3.973l6.857-.265-5.218 11.336c-1.999 3.861-7.04 10.31-13.245 9.978-1.29-.07-2.892-.716-3.211-3.4l-.084-.726.726-.064c6.937-.61 9.81-3.17 10.908-4.638 1.744-2.337 2.026-4.657.778-6.361-1.467-2.008-4.668-2.585-7.96-1.443-6.05 2.1-10.73 8.995-10.017 14.752l.043.343-.243.243c-.191.191-1.192 1.138-2.227 1.034-.467-.048-.861-.293-1.154-.739-.35-.578-.515-1.36-.515-2.317 0-6.085 6.665-19.287 14.204-33.094h-8.082c-3.553 3.665-8.01 11.049-11.609 17.03 0 0-3.14 5.135-3.23 5.276-.782 1.187-1.046 1.585-1.666 1.303-.31-.139-.435-.326-.435-.645 0-.334.138-.812.337-1.53l1.566-6.325c1.308-5.544 2.788-11.635 4.368-15.167zm-24.435.47c-1.238 3.571-1.859 5.447-1.448 7.233l.385.418c-1.122.415-4.222 1.282-5.447 3.192l1.076 1.472c.962-1.373 3.849-2.884 5.771-3.16l-.415-.46c-.255-2.601.97-5.732 1.517-7.233l-1.439-1.462zm5.432 5.973c-1.5 2.165-3.031 4.968-2.894 6.617l.379.418c-2.796.612-4.293.537-6.21 2.045l1.229 1.795c.96-1.373 4.465-2.062 6.387-2.336l-.415-.454c-.112-2.19 1.534-4.922 2.762-6.287l-1.238-1.798zM42.67 78.48c-.963.274-2.474.688-3.847 1.374l-.298.15.606 1.441c.898-.612 2.18-1.06 3.4-1.25l.139-1.715zm41.63 2.884c.651.024 1.227.264 1.62.716.264.305.45.728.45 1.232 0 .523-.203 1.134-.725 1.786-1.688 2.113-5.262 3.304-6.984 3.192l-.826-.052.175-.807c.369-1.684 2.045-4.197 4.219-5.487.694-.412 1.42-.604 2.07-.58zm27.225.723.408 3.996c.2 1.636.412 3.327.152 5.515-.14 1.183-.912 2.9-2.268 3.876a3.868 3.868 0 0 1-3.124.658c-.782-.166-1.449-.808-1.692-1.633a2.708 2.708 0 0 1-.11-.775c0-.645.345-1.54 1.138-2.53-.204-.216-.778-.83-.778-.83l.292-.464c1.5-2.426 2.744-3.922 3.947-5.37l.946-1.153 1.089-1.29zM59.292 98.362c-.414 1.101-.826 1.647-.55 2.748l.657.82c-1.632-.27-2.728-.202-4.365-.065l-1.102 1.446c1.1 0 4.944-.141 6.32.272l-.778-1.556.366.457s-.001-1.65.412-2.612l-.96-1.51zm5.843 4.598c-1.29 1.417-2.832 3.425-2.816 4.34l.473.583c-1.14-.261-4.582-.067-7.158.204l.998 1.585c1.37-.137 6.33-.211 7.703.065l-.545-.671c-.257-.732-.071-1.674.574-2.534.67-.892 1.87-2.175 3.06-3.513-.89.222-2.289-.059-2.289-.059zm5.023 3.633c-.551.826-4.484 4.632-3.798 6.28l.97.328s.898.541-.069 0c-.987-.552-5.995-.825-8.604-.55l1.3 1.86c1.373-.138 7.178-.348 8.555-.072-.076-.066-1.127-1.05-.84-1.513.486-.784 1.15-2.114 3.624-4.628l-1.137-1.705zm3.834 5.182c-.137.55-1.926 2.663-3.299 3.623l1.021.464c.247.012.494.025.739.035.908-.717 1.933-1.881 2.563-2.887l-1.024-1.235zm6.699 9.11c-.956 1.331-2.739 3.238-4.226 3.924l1.098.963c1.512-.826 3.76-2.937 4.722-4.446l-.421-.441H80.69zm-6.287 1.316c-3.022.41-6.617.548-8.264.272l1.257 1.445c2.61.137 5.633-.137 7.833-.687l-.826-1.03zm10.532 1.539c-.537.865-2.858 3.877-4.644 4.702l1.235.823c1.512-.823 3.41-2.829 4.372-4.414l-.963-1.111zm-7.44 2.1c-.963.413-2.13.756-8.015.693l1.39 1.374c4.397-.136 5.592-.418 7.791-.965l-1.167-1.102zm10.771 1.063c-.684 1.234-2.598 3.137-4.384 3.96l1.098.687c1.512-.823 3.426-2.176 4.388-3.688l-1.102-.959zm-6.88 2.362c-2.198.755-5.958 1.31-8.156 1.034l1.785 1.238c2.472.137 5.547-.76 7.745-1.31l-1.374-.962zm10.167.12c-.685 1.236-2.454 2.57-4.24 3.393l.668.376c-.55.69-1.379 1.904-5.852 2.852l1.6.541c4.256-.823 5.785-2.877 4.823-3.014l-.321-.24.32.179c1.513-.824 3.14-1.815 4.103-3.325l-1.102-.762zm3.107 1.867c-1.37 1.649-2.124 2.391-4.183 3.215l.794.34-.107-.036c-.71.938-1.877 2-5.11 2.735l1.872.406c2.356-.276 4.884-2.591 4.06-2.865l-.375-.127c1.49-.813 2.514-1.347 4.012-3.12l-.963-.548zm-10.023.152c-1.786 1.512-3.844 2.135-6.592 2.411l1.591.956c2.883-.139 6.58-2.198 5.892-2.887l-.891-.48zm12.85 1.277c-.962 1.236-1.786 2.065-3.571 2.89l.956.406c1.512-.823 1.926-1.235 3.577-3.02l-.962-.276z"/><path fill="#002d72" d="M84.161 82.775c-.33.004-.745.108-1.205.382-1.47.872-2.614 2.388-3.186 3.585 1.47-.278 3.653-1.147 4.767-2.541.27-.338.412-.656.412-.901a.44.44 0 0 0-.1-.298c-.117-.133-.359-.23-.688-.227zm26.295 2.813c-1.043 1.257-2.144 2.637-3.403 4.605.204.22.879.936.879.936l-.483.49c-.737.74-1.141 1.482-1.141 2.1 0 .126.02.25.055.366.112.38.395.6.626.645a2.44 2.44 0 0 0 1.999-.418c.954-.685 1.58-2 1.685-2.888.079-.668.114-1.285.114-1.87 0-1.176-.133-2.218-.27-3.305 0 0-.034-.398-.061-.661z"/></svg>