<svg xmlns="http://www.w3.org/2000/svg" width="480" height="480" version="1.2"><g style="display:inline"><path d="M490 250a240 240 0 1 1-480 0 240 240 0 1 1 480 0z" style="display:inline;fill:#fff;fill-opacity:1;stroke:none" transform="translate(-10 -10)"/></g><g style="display:inline"><path d="M479.73 252.6a228.43 227.13 0 1 1-456.86 0 228.43 227.13 0 1 1 456.86 0z" style="fill:#ab0003;fill-opacity:1;stroke:#000;stroke-width:.2;stroke-linecap:butt;stroke-linejoin:miter;stroke-miterlimit:4;stroke-dasharray:none;stroke-opacity:1" transform="matrix(1.0064 0 0 1.0122 -12.918 -15.675)"/></g><g style="display:inline"><path d="M467.26 249.22a217.78 218.56 0 1 1-435.56 0 217.78 218.56 0 1 1 435.56 0z" style="fill:#14264b;fill-opacity:1;stroke:#000;stroke-width:.2;stroke-linecap:butt;stroke-linejoin:miter;stroke-miterlimit:4;stroke-dasharray:none;stroke-opacity:1" transform="matrix(.99826 0 0 .99469 -9.545 -7.398)"/></g><g style="display:inline"><path d="M373.18 267.41a162.16 154.63 0 1 1-324.32 0 162.16 154.63 0 1 1 324.32 0z" style="fill:none;stroke:#ab0003;stroke-width:9;stroke-linecap:butt;stroke-linejoin:miter;stroke-miterlimit:4;stroke-dasharray:none;stroke-opacity:1" transform="matrix(.93843 0 0 .98413 41.972 -23.197)"/></g><g style="display:inline"><path d="M359.67 224.53a145.01 145.01 0 1 1-290.02 0 145.01 145.01 0 1 1 290.02 0z" style="fill:#fff;fill-opacity:1;stroke:none" transform="translate(32.756 23.227) scale(.96545)"/></g><g style="display:inline"><path d="m64.428 270.63-11.144-7.26-10.318 8.4 3.466-12.85-11.176-7.21 13.287-.68 3.41-12.86 4.745 12.43 13.284-.73-10.354 8.36z" style="fill:#ab0003;fill-opacity:1;stroke:none" transform="matrix(1.0202 .05012 -.0499 1.0247 12.637 -4.829)"/><path d="m64.428 270.63-11.144-7.26-10.318 8.4 3.466-12.85-11.176-7.21 13.287-.68 3.41-12.86 4.745 12.43 13.284-.73-10.354 8.36z" style="fill:#ab0003;fill-opacity:1;stroke:none" transform="matrix(1.0202 .05012 -.0499 1.0247 384.53 -4.59)"/><g style="fill:#fff;fill-opacity:1;stroke:none"><path d="M106.6 114.96 83.19 90.25l33.91.1.84-1.97-39.758-35.94-3.964 9.26 22.231 19.5-31.627.14-.821 1.9 21.861 22.85-29.541-2.31-4.14 9.73 53.639 3.39.78-1.89zM161.4-3.659c2.06 0 4.35-.298 7.22-.924l3.51-.745c1.83-.378 3.56-.745 5.05-.745 1.99 0 3.32.666 4.43 2.2.73.986 1 2.069.82 3.206-.27 1.718-1.57 3.508-3.65 5.02-3.55 2.579-7.4 2.94-11.19 1.031l-1.1-.542-4.41 8.472 1.16.554c2.85 1.395 5.81 2.103 8.8 2.103 4.27 0 8.38-1.414 12.21-4.215 8.47-6.16 10.49-14.454 5.26-21.629-3.08-4.213-6.87-6.185-11.93-6.185-2.05 0-4.39.304-7.56.981l-3.53.75c-2.15.455-3.86.763-5.24.763-1.85 0-2.93-.529-3.98-1.977-1.57-2.165-1.05-4.525 1.39-6.301 2.46-1.795 4.75-1.989 7.76-.701l1.2.516 3.28-8.664-1.1-.47c-5.75-2.456-11.34-1.758-16.59 2.074-3.31 2.415-5.51 5.674-6.17 9.193-.66 3.53.23 7.2 2.5 10.333 2.93 4.027 6.71 5.902 11.86 5.902M224.27-12.239l-5.23-13.572 18.94-7.29 5.23 13.574 9.3-3.589-17.97-46.697-9.32 3.589 9.46 24.588-18.94 7.299-9.45-24.595-9.32 3.58 17.98 46.693zM285.54-28.849l-7.17-49.512-9.88 1.428 7.17 49.511zM320.76-59.861l26.28 32.2 2.34.171 3.91-50.574-9.46-.725-2.26 29.28-26.3-32.191-2.32-.18-3.93 50.571 9.47.735zM393.18-14.229c4.04 1.553 7.82 2.315 11.54 2.315 2.93 0 5.8-.483 8.78-1.475l.55-.185 6.93-17.978-20.65-7.955-3.3 8.528 11.89 4.572-1.92 4.933c-3.18.558-6.56.09-10.48-1.419-9.17-3.53-12.98-12.045-9.47-21.176 2.59-6.722 8.15-10.893 14.49-10.893 1.86 0 3.73.36 5.58 1.065 6.33 2.443 8.14 5.919 9.45 9.278l.46 1.183 8.86-3.657-.42-1.129c-2.55-6.812-7.26-11.342-14.83-14.254a26.426 26.426 0 0 0-9.58-1.81c-10.61 0-19.64 6.334-23.57 16.533-5.25 13.644 1.49 28.051 15.69 33.524M444.59 14.281l24.07-33.04 11.41 8.31 5.39-7.38-30.89-22.508-5.37 7.38 11.41 8.316-24.08 33.04zM476.49 33.19c-.68 6.68 1.35 13.36 5.72 18.81 5.02 6.27 12.33 9.88 20.07 9.88 5.77 0 11.34-2 16.06-5.78 5.52-4.42 8.93-10.58 9.63-17.36.66-6.67-1.37-13.35-5.73-18.79-5.02-6.282-12.34-9.886-20.07-9.886-5.78 0-11.33 2.002-16.06 5.775-5.52 4.421-8.94 10.591-9.62 17.351m16.02-9.34c3.26-2.61 6.96-3.98 10.7-3.98 4.57 0 8.76 2.09 11.79 5.87 5.62 7.03 4.33 16.43-3.07 22.35-3.25 2.61-6.95 3.99-10.69 3.99-4.57 0-8.75-2.1-11.79-5.89-5.62-7.01-4.34-16.42 3.06-22.34M511.29 97.69l27.31-10.8-17.2 37.26-.21.48.83 2.19 47.22-18.66-3.51-8.82-27.31 10.79 17.41-37.73-.83-2.19-47.22 18.65ZM134.6 315.26l-24.68 15.94 9.68-40.42-1.26-1.99-42.612 27.55 5.155 7.97 24.677-15.94-9.713 40.44 1.313 1.94 42.59-27.53zM189 379.99l12.46 6.62-19.13 36.14 8.8 4.66 19.15-36.13 12.48 6.61 4.28-8.07-33.76-17.9zM232.6 444.18l9.59 2.78 13.92-48.06-9.59-2.78zM302.14 405.25c-14.58-.67-26.27 10.07-26.93 24.45-.65 14.37 10.16 26.14 24.6 26.79h1.28c13.99 0 25.02-10.53 25.64-24.49.65-14.36-10.15-26.12-24.59-26.78m-1.91 41.97c-8.99-.41-15.2-7.57-14.77-17.05.42-9.23 6.78-15.67 15.45-15.67h.81c4.38.2 8.28 2.03 10.95 5.15 2.67 3.11 4.02 7.34 3.81 11.92-.43 9.5-7.14 16.03-16.25 15.64M377.09 396.59l7.29 28.46-34.81-21.72-.44-.28-2.29.58 12.62 49.14 9.19-2.37-7.3-28.45 34.82 21.73.44.28 2.28-.59-12.61-49.13zM492.06 374.44l-28.85-28.98-7.08 7.04 35.3 35.46 21.94-21.84-6.45-6.47zM537.95 306.7c-2.63-1.61-5.16-2.4-7.72-2.4-4.13 0-7.9 1.98-12.28 4.97l-2.98 2.04c-3 2.04-4.93 3.14-6.58 3.14-.78 0-1.56-.25-2.41-.78-2.29-1.4-2.7-3.77-1.11-6.34 1.55-2.52 3.56-3.6 6.68-3.6h1.55l-.26-9.27h-1.49c-6.1 0-10.9 2.76-14.27 8.2-2.14 3.5-2.93 7.35-2.22 10.85.72 3.53 2.93 6.59 6.23 8.61 2.43 1.5 4.82 2.23 7.34 2.23 3.64 0 7.3-1.45 12.21-4.84l2.96-2.03c2.45-1.66 4.57-3.1 6.62-3.1.9 0 1.79.28 2.71.84 1.04.64 1.7 1.55 1.97 2.65.4 1.71-.12 3.85-1.48 6.05-2.31 3.75-5.69 5.51-9.96 5.19l-1.23-.1-.86 9.5 1.28.1h1.44c7.14 0 13.24-3.55 17.19-9.97 2.96-4.79 4-9.5 3.03-13.65-.82-3.41-3.01-6.29-6.36-8.35M118.05 374.56l7.67 6.71 8-3.92 13.82 12.07-2.87 8.45 7.94 6.93 17.07-52.91-1.51-1.29zm33.16 4.01-.54 1.6-8.13-7.14 1.5-.73 11.15-5.47zM420.93 375.91l7.11 55.1 8.76-5.19-1.23-8.83 15.78-9.36 7.14 5.36 9.07-5.36-44.93-32.76zm21.28 24.85 1.35 1.02-9.33 5.49-.23-1.66-1.72-12.3zM135.25 59.25l-4.17-7.89 11.63-14.17 8.53 2.59 6.69-8.14-53.43-15.408-1.24 1.545 25.53 49.353zm-15.36-29.01 11.88 3.61 1.61.5-6.89 8.35z" style="fill:#fff;fill-opacity:1;fill-rule:nonzero;stroke:none" transform="matrix(.76972 0 0 .76847 -.664 95.86)"/></g></g><g style="display:inline"><path d="M327.58 151.42c-19.7-15.79-37.56 3.95-37.56 15.24 19.68 4.21 37.29 23.94 29.42 75.2-6.44 41.92-31.14 68.02-46.65 68.54 12.86-17.67 21.52-37.59 26.21-57.05 14.13-58.21-8.47-76.97-26.35-77.83-21.73-1.12-43.52 28.53-49.58 63.52-4.81 27.72-4.18 56.04 12.64 76.8-14.91 18.8-50.67 24.63-44.4-20.74 5.26-37.94 24.08-79.81 34.53-100.37l.31-.55c5.58-11.49 10.03-19.62 11.92-22.87l-4.21-.1c-40.66.7-73.09 10.12-88.14 30.76-14.15 19.33-14.56 39.7-2.89 51.72l1.72 1.74c3.43 3.42 7.9 5.2 12.37 5.2 4.05 0 8.11-1.49 11.19-4.58 3.1-3.06 4.63-7.19 4.63-11.25 0-4.48-1.8-8.95-5.21-12.38-1.86-1.79-3.93-3.16-6.14-4.04l.1-.12 1.05-2.17c2.75-4.79 7.54-9.17 13.74-12.27 4.91-2.45 10.63-4.15 16.85-4.77l-.95 2.05c-8.63 16.05-21.24 46.56-25.25 62.43-12.39 49.74 7.68 78.85 29.38 82.93 26.14 4.89 46.17-7.8 56.78-24.18 12.63 8.04 46.01 12.65 71.11-32.11 28.87-51.53 29.93-127.52 3.41-148.8m-73.88 147.29c-4.94-12.07-7.21-26.28-7.21-39.79 0-16.3 3.26-31.45 8.88-40.36 3.67-5.87 8.11-8.7 13.05-8.37 1.77.1 3.77.71 5.21 4.12 1.15 2.76 1.66 6.43 1.66 10.68 0 21.25-12.69 57.5-21.59 73.72" style="fill:#14264b;fill-opacity:1" transform="translate(-10 -10)"/><path d="M324.63 155.11c-6.3-5.04-12.81-6.19-18.84-3.26-5.07 2.44-8.9 7.29-10.38 11.43 12.16 4.11 30.65 16.71 30.65 55.49 0 7.08-.63 14.96-2.01 23.83-6.04 39.54-28.02 66.42-45.62 71.59-5.2 1.53-9.9 1.1-13.75-1.01 17.43-21.48 25.79-44.57 29.75-60.97 3.09-12.74 4.34-23.2 4.34-31.76 0-15.28-3.89-24.57-8.01-30.1-6.26-8.34-14.17-9.94-18.37-10.16-18.47-.9-38.92 26.44-44.66 59.65-1.66 9.6-2.54 18.47-2.54 26.58 0 20.84 5.51 37.02 16.5 49.04-8.14 12.79-24.72 21.53-37.85 18.54-5.8-1.31-17.95-6.73-17.95-29.05 0-3.17.24-6.63.77-10.47 4.78-34.23 20.45-72.13 31.52-95.02l.27-.49c4.81-10.07 8.94-18.02 11.7-22.87h-.74c-39.54 1.33-67.12 11.2-79.91 28.67 0 0-10.67 13.67-10.3 27.54.21 8.06 3.04 15.17 9.19 20.15l.8.63c4.8 3.76 11.46 3.68 15.52-.43 4.45-4.48 4.16-11.98-.6-16.77-2.48-2.48-5.65-3.77-8.77-3.81h-.1c2.81-15.87 21.07-28.14 43.15-28.14l2.91.1-.41.8-4.59 8.58c-8.18 15.19-20.81 45.27-24.81 61.3-6.27 25.11-4.45 47.16 5.09 62.06 5.29 8.27 12.61 13.61 20.54 15.11 17.49 3.28 30.25-2.29 37.89-7.53 6.36-4.37 12.59-11.2 16.96-18.43 5.21 3.38 13.98 7 21.34 6.9 12.49-.18 30.76-6.39 46.73-34.89 13.32-23.77 21.32-54.22 21.87-83.52.58-28.01-5.9-50.15-17.28-59.3m-55.93 50.39c27.9 1.74-3.55 88.89-15.69 102.83-19.95-36.1-12.5-104.61 15.69-102.83" style="fill:#ab0003;fill-opacity:1" transform="translate(-10 -10)"/></g></svg>