<svg xmlns="http://www.w3.org/2000/svg" width="453.47424" height="407.85449" viewBox="0 0 453.47427 407.85452"><path d="M220.377 402.928h28.203v-14.483c6.86-6.67 11.136-13.916 10.861-21.057-.297-7.734-4.954-13.244-7.812-15.911h119.484l.953-3.432c.26-.936 6.289-25.535-24.773-56.787-8.004-8.194-13.53-16.77-17.342-26.299 6.48 5.907 14.674 9.148 23.63 9.148 2.668 0 8.382-.389 15.245-3.24 5.523-2.294 10.291-5.526 14.674-9.719 0 0 1.728 1.631 3.81 3.758 5.948 6.076 11.244 9.177 20.772 8.957 15.246-.352 26.983-12.219 26.983-26.7 0-3.666-.201-6.609-2.9-12.884-4.352-10.113-13.097-19.903-26.179-28.77-4.07-2.758-5.26-5.205-5.812-6.097-.836-1.349-2.192-1.906-3.526-1.906-.762 0-1.63.291-2.287.764l-9.527 6.859c-1.673 1.204-2.66 3.238-2.287 5.336 1.151 6.478.543 13.401-2.287 20.004-5.747 13.41-15.816 20.96-27.25 20.96h-1.334c11.052-5.526 16.604-12.945 19.246-18.484 3.266-6.848 3.24-12.387 3.24-12.959 0-21.533-20.581-21.724-21.438-21.724-13.625 0-25.25 8.005-31.349 19.82-.19-7.813-.19-15.818-.19-24.203v-9.527c.382-45.355-33.92-65.555-46.878-65.555h-5.909v-6.67c5.908-1.334 9.148-4.954 10.672-8.574l37.541.38 11.053 33.54h58.313V86.02h-7.432V32.09l-16.77-16.006h-84.42l-16.388-9.53h-53.168l-16.389 9.53h-84.42L90.22 32.09v54.312h-7.43v44.726s-.949-.526-1.335-.706c-7.808-3.632-17.34-5.527-27.25-5.527-18.103 0-35.02 6.144-45.353 16.199-10.819 10.526-16.022 23.25-14.104 33.92 1.131 6.29 4.55 11.105 9.719 13.34 5.12 2.214 11.036 2.824 15.627.189 7.679-4.409 10.457-13.04 11.433-21.342 0 0-2.095.19-3.43.19-.952 0-2.422-.174-2.476-1.144-.137-2.473 2.668-6.669 7.05-9.718v81.942c-7.05 7.622-11.888 17.019-10.48 24.488 1.335 7.088 5.464 10.303 12.577 10.958 7.402.682 13.367-2.062 17.912-5.907 5.364-4.54 8.384-10.672 8.384-17.342V207.98c13.53-4.954 26.68-10.861 34.493-21.533v75.463c0 6.67 5.527 12.197 12.197 12.197 6.67 0 12.195-5.527 12.195-12.197v-37.73c0-2.287 1.906-4.383 4.383-4.383 2.477 0 4.383 1.905 4.383 4.383v27.06c0 7.242 3.43 13.529 8.576 17.72-3.62 7.814-8.706 15.115-15.627 22.106-31.001 31.313-25.08 55.624-24.773 56.79l.953 3.62h119.484c-2.858 2.668-7.52 7.989-7.814 15.722-.279 7.332 4.003 14.577 10.863 21.056zm-30.682-299.186c1.525 3.43 4.765 7.242 10.672 8.576v6.67h-5.906c-12.958 0-46.879 20.199-46.879 65.553v21.344c-4.192-5.717-10.864-9.528-18.486-9.528-3.24 0-6.288.57-9.147 1.905v-39.256c0-6.67-5.525-12.195-12.195-12.195-2.668 0-5.146.953-7.242 2.287-1.906-4.383-4.764-8.195-8.385-11.625h48.975l11.052-33.35zm-127.867 46.88 2.477-.19c8.93-.683 14.372 4.321 14.959 14.29.56 9.513-6.316 16.433-16.866 17.915l-.57.08zm289.848 69.556c3.57-.24.896 5.302.38 6.289-2.682 5.137-8.957 7.811-12.577 8.955 0-8.004 5.139-14.77 12.197-15.244zm49.355 7.431c12.387 7.051 12.201 17.913 12.196 18.104-.186 6.48-6.045 7.71-10.1 5.527-3.663-1.971-5.431-4.629-8.004-7.814 2.287-4.764 4.384-10.1 5.908-15.817z" style="fill:#fff;stroke:none;stroke-width:1.90564" transform="matrix(1.02897 0 0 1.02897 5.807 -6.745)"/><path d="M208.309 188.7v-4.574h123.485s5.855-22.434-23.63-52.215c-8.438-8.523-14.292-17.532-18.294-27.25-3.81 4.382-9.909 7.05-16.388 7.05-7.051 0-13.53-3.24-17.913-8.575-5.336 5.526-12.958 8.575-21.343 8.575-8.957 0-16.77-3.62-22.106-10.1-5.336 6.67-12.958 10.1-22.105 10.1-8.766 0-16.389-3.43-21.724-9.528a22.666 22.666 0 0 1-18.485 9.528c-6.289 0-12.196-2.668-16.58-7.05-4.192 4.573-10.1 7.05-16.578 7.05-3.621 0-7.051-.953-10.1-2.477-3.811 8.004-9.147 15.626-16.198 22.677-29.728 29.728-23.82 52.215-23.82 52.215h118.512l-1.328-4.002-6.467-8.385-5.907-24.392-7.242-10.672v-24.01h4.574v22.287l7.241 10.672 5.908 23.517 5.717 8.385 2.477 6.79v4.574c-5.958 4.61-10.862 9.885-10.862 16.293 0 5.812 3.049 11.338 8.766 17.055l1.905 1.906v12.006H208.5v-12.197l1.905-1.905c5.908-5.717 8.766-11.243 8.766-17.056 0-7.02-5.307-12.325-10.862-16.293zM182.964 77.6c0 5.717 4.574 10.29 10.29 10.29 5.527 0 9.72-4.382 9.72-10.29V22.908c-1.525 25.536-13.53 41.925-20.01 48.975Zm45.164-70.127c-.19-1.144-.572-1.715-1.144-1.715-.38 0-.762.571-.762 1.524v28.394c3.049-12.768 1.906-27.06 1.906-28.203zm-43.258 0c-.103-1.011-.484-1.715-1.055-1.715-.381 0-.851.571-.851 1.524v28.394c3.049-12.768 2.022-27.05 1.906-28.203zm-29.919 80.99c2.668 0 4.955-2.287 4.955-4.955v-60.79l-11.434 8.385 6.098 19.056-16.198-11.815-16.198 11.815 6.098-19.056-11.243-8.004-.381 60.6c-.017 2.667 2.287 4.954 4.954 4.954 2.668 0 4.955-2.287 4.955-4.955V55.495c0-6.289 5.145-11.434 11.624-11.434 6.29 0 11.434 5.145 11.434 11.434v28.203c0 2.507 2.478 4.764 5.336 4.764zm126.725-64.411-9.337 6.86 6.098 19.057-16.198-11.815-16.198 11.815 6.098-19.057-6.104-4.573c-2.287 23.63-13.905 38.875-20.194 45.735v3.43c0 6.86 5.526 12.387 12.387 12.387 6.86 0 12.386-5.527 12.386-12.387v-20.2c0-6.288 5.145-11.434 11.434-11.434s11.624 5.146 11.624 11.434v28.204c0 2.668 2.287 4.954 4.955 4.954 2.287 0 4.383-1.524 4.764-3.81-.953-3.622-1.524-7.242-1.524-10.863 0-1.715.19-3.43.38-5.145-.952-14.102-.57-44.592-.57-44.592zM113.79-63.226l44.592-.382s.572 8.957 11.815 8.957v15.626h-10.671c-9.91 0-40.781 17.341-42.115 58.122h14.864L138.372.041l6.098 19.056h15.51V5.377c0-11.625 9.529-21.153 21.153-21.153 10.862 0 19.764 8.583 21.351 20.962.32 2.486.564 7.432.564 7.432v-7.05c0-11.625 9.263-21.153 20.887-21.153 10.862 0 20.405 8.572 21.903 20.962.598 4.951.953 9.528.762 14.101h9.534L262.232.422l6.099 19.056h13.148c-1.334-40.971-32.205-58.122-42.114-58.122h-11.047V-54.27c11.243 0 11.815-8.956 11.815-8.956l44.592.38 11.053 33.54h50.118V-71.23h-7.432v-57.17l-13.911-13.339h-83.848l-16.389-9.528h-50.5l-16.388 9.528H73.58l-13.91 13.34v56.788h-7.433v41.924h50.5z" style="fill:#002d72;fill-opacity:1;stroke:none;stroke-width:1.90564" transform="matrix(1.02897 0 0 1.02897 41.95 160.355)"/><path d="m90.5 97.5-2.1 6.5 5.5-4 5.6 4-2.2-6.5 5.6-4H96L93.9 87l-2.1 6.5h-6.9zm59.4-4 5.6 4-2.1 6.5 5.5-4 5.5 4-2.1-6.5 5.6-4H161l-2.1-6.5-2.1 6.5z" style="fill:#002d72;fill-opacity:1;stroke:none" transform="matrix(1.96084 0 0 1.96084 .207 -.196)"/><path d="M45.377-29.497c-7.432-3.43-16.58-5.335-26.107-5.335-16.96 0-33.73 5.907-43.449 15.435-10.1 9.91-15.055 21.725-13.34 31.443.953 5.336 3.812 9.147 8.004 11.053 2.668 1.143 4.574 1.715 7.432 1.715 2.096 0 4.002-.381 5.717-1.334 7.242-4.002 9.338-14.673 9.719-16.007h-.19c-4.003 0-5.327-1.886-5.432-3.716-.277-4.853 5.24-11.339 11.72-14.197l1.143-.572V77.22l-.19.19c-6.86 7.242-10.672 14.865-10.672 20.772 0 1.334.19 2.668.572 3.811 1.143 3.43 4.002 5.717 8.194 6.48.953.19 1.906.19 3.05.19 4.954 0 10.29-1.905 14.291-5.336 4.765-4.001 7.242-9.337 7.242-15.054V43.68l.572-.19c21.152-7.623 40.502-16.552 41.733-42.401.675-14.182-7.05-24.488-20.01-30.586ZM28.035 22.908c-.956.172-4.001.572-4.001.572v-38.303s4.764-.381 5.526-.381c10.481 0 17.239 5.284 17.818 16.96.566 11.42-7.531 19.037-19.343 21.152Zm165.22 67.65c-7.242 0-13.15-5.907-13.15-13.148v-6.67l.191-.19c7.242-7.814 23.913-29.74 19.247-65.173-1.432-10.875-8.956-18.485-18.294-18.485-10.1 0-18.294 8.194-18.294 18.294v77.94c0 4.384-3.62 7.814-7.813 7.814-4.383 0-8.697-3.62-8.697-7.813V54.923a8.54 8.54 0 0 0-8.576-8.575 8.54 8.54 0 0 0-8.575 8.575v28.204c0 4.383-3.62 7.813-7.813 7.813-4.383 0-7.774-3.621-7.813-7.813V56.067c0-10.863-8.957-19.82-19.819-19.82-3.811 0-7.623 1.144-10.862 3.24l-1.144.763V-3.58c0-5.145-4.192-9.147-9.147-9.147-2.286 0-4.383.953-6.098 2.287A36.632 36.632 0 0 1 68.123.04v2.478c-.381 6.67-2.096 12.196-4.574 16.96v80.037c0 5.145 4.193 9.147 9.147 9.147 5.146 0 9.147-4.192 9.147-9.147V61.783a7.238 7.238 0 0 1 7.242-7.24c4.002 0 7.05 3.048 7.241 7.05v27.441c.19 10.672 8.957 19.819 19.819 19.819 6.289 0 12.89-2.859 16.7-8.004l.572-.762.572.762c3.811 5.145 9.528 8.004 15.817 8.004 7.432 0 14.216-4.23 17.532-10.862l.571-1.144.763 1.144c4.78 7.17 12.577 10.862 21.343 10.862 9.337 0 17.02-3.53 21.534-11.053l.571-.953.572.953c4.514 7.524 12.577 11.053 21.534 11.053 8.766 0 15.96-3.467 20.962-9.719l.762-.953.572.953c3.648 6.081 9.909 9.528 16.96 9.528 8.004 0 15.282-4.457 18.675-11.243l.572-1.143.762.952c5.991 7.49 15.055 11.434 24.678 11.434 2.382 0 7.703-.416 14.007-3.049 8.751-3.655 16.007-10.1 21.533-19.247 4.383-6.86 8.36-15.12 10.29-24.773l.191-.953.763.381c8.31 4.155 12.34 9.738 14.101 13.911 1.86 4.403 1.906 7.814 1.906 8.004 0 8.004-6.76 10.103-11.815 8.957-4.196-.952-7.623-4.955-10.672-8.385 0 0-3.43 6.479-8.766 12.768 0 0 1.184 1.296 4.193 4.573 5.566 6.061 11.434 8.205 18.294 7.813 6.48-.37 12.58-2.854 17.341-7.241 4.959-4.57 7.623-10.608 7.623-16.96 0-.572 2.39-18.734-27.822-38.875-4.664-3.11-6.25-6.307-6.575-6.956-.248-.497-.667-.667-1.048-.667-.19 0-.544.033-.762.19l-9.528 6.86c-.774.558-1.279 1.535-1.144 2.478 1.01 7.071.381 14.102-2.477 21.343-9.147 20.581-24.011 22.868-29.919 22.868-2.668 0-5.106-.838-7.622-2.096l-1.525-.762 1.525-.572c7.622-2.859 17.722-8.385 22.867-19.247 3.05-6.48 2.859-11.624 2.859-11.624 0-18.295-16.58-18.866-18.485-18.866-18.103 0-32.777 15.626-32.777 35.063 0 3.621.572 7.242 1.525 10.863-.572 4.001-3.812 6.86-7.813 6.86-4.383 0-7.814-3.62-7.814-7.813V55.304a8.54 8.54 0 0 0-8.575-8.575 8.54 8.54 0 0 0-8.575 8.575v20.2c0 8.385-6.86 15.245-15.245 15.245-8.385 0-15.246-6.86-15.246-15.245v-4.573C230.224 63.117 247.086 41 242.42 5.567c-1.432-10.875-8.957-18.485-18.294-18.485-10.1 0-18.294 8.195-18.294 18.295V77.79c0 7.244-5.717 12.768-12.578 12.768zm29.918-83.657c0-2.477 1.715-4.383 3.811-4.383 1.334 0 3.423.573 4.002 4.193.183 1.144 2.179 25.582-6.288 40.4l-1.525 2.667zm-43.067 0c0-2.477 1.715-4.383 3.81-4.383 1.335 0 3.424.573 4.003 4.193.183 1.144 2.178 25.582-6.289 40.4l-1.524 2.667zm121.389 67.27c-.722-10.104 5.907-18.676 14.864-19.438 2.096-.19 3.62.571 4.573 2.096 1.144 1.905.763 4.764-1.334 8.385-4.001 7.432-14.673 10.671-17.722 11.243 0 0-.34-1.717-.381-2.287z" style="fill:#e81828;fill-opacity:1;stroke:none;stroke-width:1.90564" transform="matrix(1.02897 0 0 1.02897 41.95 160.355)"/></svg>