<svg xmlns="http://www.w3.org/2000/svg" width="162.76" height="228.03" viewBox="0 0 162.76157 228.02858"><path fill="#fdb827" d="M122.263 1.175c-7.91 7.726-15.66 9.521-27.925 9.521l-81.94-.115L1.245 38.47c6.74 2.907 11.153 9.3 11.153 16.97v127.763c0 7.67-4.413 14.06-11.153 16.962L12.398 227.2h31.29l11.16-27.035c-6.74-2.79-11.16-9.413-11.16-16.962v-50.37l50.65.025c12.266 0 20.013 3.023 27.925 10.749 5.165-15.889 20.68-27.735 39.745-32.46-7.228-12.422-10.065-23.448-10.065-34.958 0-11.509 1.611-24.016 8.84-36.432-19.065-4.733-33.76-22.7-38.52-38.586zM43.845 37.513h64.851c10.273 0 16.707 6.474 16.707 15.053v38.62c0 9.01-5.09 13.925-16.707 13.925H43.845V37.513z"/></svg>