<svg xmlns="http://www.w3.org/2000/svg" width="200" height="200" viewBox="0 0 200 200"><path fill="#fff" d="M100.003 0C44.862 0 0 44.862 0 100.002 0 155.143 44.862 200 100.003 200 155.14 200 200 155.143 200 100.002 200 44.862 155.14 0 100.003 0Zm0 196.612c-53.359 0-96.612-43.256-96.612-96.61 0-53.353 43.253-96.612 96.612-96.612 53.356 0 96.607 43.259 96.607 96.612-.001 53.354-43.252 96.61-96.607 96.61z"/><path fill="#fff" d="M75.238 158.125c1.193.514 2.399.97 3.616 1.408a7.347 7.347 0 0 1-1.908-1.54c-.6.127-1.14.166-1.708.132z"/><path fill="#fff" d="M192.164 98.275h-28.761c-.128-4.391-.758-8.761-1.789-13.054-.487-.73-.958-1.228-1.428-1.566l.428-.967.471.528c-.184-.672-.326-1.354-.533-2.021-.647-1.363-1.428-2.306-2.238-3.183l.252-.861c.376.372.638.657.858.917-3.051-8.248-7.813-16.004-14.443-22.632-13.931-13.935-32.753-19.994-50.945-18.197.07-.006.14-.017.21-.023.644.449 1.544 1.178 1.544 1.178l-.736.11c-.207-.348-1.64-.92-2.126-1.104-.769.09-1.535.214-2.302.332a15.2 15.2 0 0 1 2.266 1.544l-.995.09c-1.03-.505-1.986-1.109-3.011-1.382-1.213.221-2.409.521-3.609.813.255.071.468.202.812.364.795.018 2.98 1.093 2.98 1.093l-1.682.536c-.713-.364-1.493-.929-2.616-.731-.365-.412-1.324-.612-1.822-.693-1.018.288-2.017.646-3.023.988.377.08.806.188 1.216.513 1.223.024 3.411.975 3.599 1.285l-1.693.597c-.843-.536-2-1.116-3.175-.916-.537-.463-1.581-.724-1.896-.798-1.03.388-2.047.808-3.06 1.252.578.02 1.386-.223 1.787.377 1.021-.052 2.798.638 3.769 1.513l-1.805.462c-.82-.518-2.18-1.285-3.441-1.164-.205-.472-1.837-.256-2.456-.191-6.2 3-12.032 7.007-17.177 12.151-11.912 11.907-18.017 27.387-18.437 42.99l-29.33-.031v-.001c-.009.537-.041 1.07-.041 1.61 0-.01.007-.008.008-.018-.003.157-.008.303-.008.469 0 .417.025.825.032 1.241H37.15c.222 9.038 2.417 18.014 6.478 26.306 1.779 1.749 4.183 2.779 5.39 3.16l.433 2.026c-1.417-.672-2.695-.967-4.567-2.669a62.036 62.036 0 0 0 2.896 4.795c1.294 1.054 2.903 2.113 2.903 2.113l.564.952c-.585-.208-1.306-.606-1.931-.98 1.892 2.584 3.937 5.091 6.273 7.427 4.936 4.934 10.5 8.838 16.416 11.799l.144-.483c1.575.464 2.816 1.516 5.098.934 1.026.977 2.772 2.15 4.16 2.493l-.472.694c21.834 7.004 46.712 1.893 64.043-15.441 11.982-11.98 18.094-27.575 18.444-43.275h28.761c.006-.416.032-.825.032-1.241 0-.103-.007-.204-.008-.307-.007-.576-.031-1.148-.043-1.723zm-34.645-18.646c1.652 1.669 2.041 2.072 2.78 3.581l-.436.9c-.726-1.752-1.5-2.57-2.652-3.56zm-5.274 8.583c1.424.988 2.662 2.885 3.396 4.383l-.697 1.044c-.739-1.763-2.503-3.683-3.667-4.396zm-13.818 13.078c.989.676 2.13 1.791 3.834 4.285l1.311-.845c.338 2.507.413 5.251.128 7.613l-1.411 1.095c.354-1.476.096-4.541-.068-7.769l-1.168.965c-1.955-2.911-3.334-4.286-3.847-4.435zm.133 15.07-1.824 1.167c-.128-2.511.593-7.368.593-7.368-1.59.592-4.988-3.332-5.74-3.899l1.667-1.016c2.252 2.473 3.471 3.165 4.186 3.665.451.315 1.542-.81 1.472-.741-.328 1.301-.415 6.871-.354 8.192zm-7.281-1.798c-.879-.028-5.178-3.445-6.491-4.798l2.267-1.237s2.75 3.26 3.576 3.968c.833.708 1.764.932 2.498.674l.071.125c-.118 1.978-.172 5.658 1.013 6.892l-2.055.859c-1.101-2.209-.741-3.702-.755-6.577zm.01-51.733 4.56 4.263V94.25h-8.227l-5.035-4.768h8.703V62.829Zm-1.698 1.591v23.364h-5.416l.008-1.002c0-8.799-6.397-13.841-17.553-13.841l-.764-.001-.896-.006V91.79c0 2.983 2.747 4.968 4.619 6.014-1.896.885-4.619 2.646-4.619 5.85v20.423c0 2.659 1.695 4.008 5.044 4.008h3.527v9.097H83.457v-9.097h3.729c3.034 0 4.842-1.568 4.842-4.196v-20.235c0-3.237-2.333-4.945-4.032-5.818 1.685-.963 4.032-2.808 4.032-6.046V72.899h-1.834c-11.51 0-16.639 4.442-16.639 14.403l.143-.473s-.041.478-.085.955h-7.256V64.42h63.234zm-15.565 33.508-2.129-.835c-.054-.021-5.229-2.083-5.229-5.303V74.649c5.814.017 10.075 1.461 12.719 4.103-1.63-1.233-3.927-2.076-7.11-2.348l-.818-.051v17.35c0 1.779 1.24 3.195 2.567 4.225zM70.732 44.854c.582.072.51.236 1.016.413 1.01-.049 2.944.318 4.18.988l-1.577 1.197c-.8-.499-2.183-.935-3.434-.829-.243-.538-2.077-.574-2.352-.59zm-5.45 3.383s.718.49 1.028.967c1.28-.335 3.806-.457 6.188-.039l-1.584 1.405c-2.109-.474-4.268.111-5.74.386-.439-.616-.682-1.224-1.401-1.449zm-4.496 4.67s.643.434 1.082 1.178c1.279-.621 2.967-1.144 7.076-.849l-1.398 1.801c-2.711-.368-5.391.062-6.609.666-.449-.605-.68-1.421-1.4-1.644zM50.833 67.29s1.225 1.169 1.769 2.531c.298-.992 2.593-1.708 5.915-1.708l-1.129 2.075c-2.732-.365-4.565.767-5.786 1.37-.442-.598-.59-1.808-1.505-2.306zm-5.184 11.828s1.523 1.857 1.961 2.601c.318-.998 2.062-1.39 6.05-1.629l-.68 2.026c-2.713-.362-4.75.752-5.96 1.375-.451-.623-.862-1.829-1.78-2.336zm-5.142 32.9s2.618.962 3.062 1.721c.957-.567 2.298-.774 4.906.396l.06 1.987c-2.151-1.151-3.883-1.211-5.098-.587-.451-.613-1.744-1.267-2.806-1.518zm.005-6.614s2.749 2.352 3.157 3.111c.151-.613.085-1.044 4.86-.811l-.021 1.931c-4.05-.854-4.683-.364-5.248.582-.413-.636-1.813-2.047-2.708-2.583zm.456 11.949s2.288 1.036 2.718 1.78c.308-.982 2.462.095 4.663 1.508l.051 2c-1.005-.552-1.657-1.015-2.534-1.421-.985-.436-1.747-.782-1.98-.156-.444-.621-1.22-1.183-2.406-1.491zm3.448 8.745c-.451-.672-1.191-1.218-2.15-1.611l-.279-2.014s1.808.993 2.252 1.803c.81 0 1.919-.107 4.198 1.798l.164 1.892c-2.231-1.596-3.145-1.996-4.185-1.868zm4.542-23.693c-3.004-.126-4.402.703-4.886 1.287-.272.334-.403.703-.503.816-.446-.608-1.923-3.083-2.724-3.439l.139-2.029s2.288 2.281 2.821 3.696c.075-.259.182-.721.457-.962.292-.341 1.405-1.188 4.867-1.229zm.782-6.934c-2.729-.226-4.724.758-5.252 1.807-.467-.574-1.128-1.895-2.732-3.275l.318-2.105s2.409 2.498 2.886 3.239c.426-.929 1.882-1.462 5.119-1.647zm1.513-7.061c-2.698-.385-4.611 1.316-5.833 1.939-.441-.628-1.116-2.182-2.016-3.021l.426-2.172s1.877 2.601 2.311 3.349c.961-1.177 1.59-1.616 5.537-1.911zm3.488-11.933c-2.721-.374-4.219.636-5.442 1.259-.441-.623-.862-1.833-1.767-2.341l.605-2.037s1.344 1.519 1.96 2.737c.31-.98 1.382-1.326 5.514-1.58zm5.093-11.485c-2.703-.392-4.278.803-5.498 1.434-.451-.616-.86-1.826-1.513-2.321l.738-1.769s1.144 1.234 1.575 2.264c.308-.997 2.531-1.7 5.981-1.7zm-2.631-4.05c-.436-.615-.349-1.203-1.257-1.7l.988-1.557s.774.757 1.2 1.503c.311-.985 2.653-1.359 6.907-1.454l-1.39 1.801c-2.722-.378-5.222.792-6.448 1.407zm12.321 33.023-4.781-4.484h10.488l.012-2.078c.01-9.126 4.339-12.807 14.952-12.807h.137v1.469c-9.912.988-10.826 6.88-10.826 16.224l-.01 1.675h-9.972zm12.236 43.676v.994c-.225-.1-.449-.202-.649-.297zm.228 20.06c-1.964-.731-2.713-1.442-3.601-2.703-1.613.346-3.744.52-5.955-.623l.436-1.339c1.57.467 3.683 1.487 5.964.908.949 1.413 1.769 2.485 3.859 2.739zm1.421-2.594c-1.973-.736-2.868-2.026-3.691-3.382-1.621.338-3.84.169-6.23-.65l.658-1.51c1.582.464 4.001 1.303 6.297.723.533 1.993 2.056 2.862 3.69 3.532zm2.052-3.962c-2.298-1.347-2.527-2.322-3.42-3.957l-.124.226c-2.454.275-4.376.167-6.581-.518l.811-1.433c1.577.461 4.35.969 6.632.382l.243-.382c.347 1.482 2.108 3.814 3.555 4.398zm2.38-2.801c-1.959-.741-2.738-2.595-3.545-4.384l-.117.168c-1.939 0-4.093-.088-6.304-1.246l.903-1.357c1.571.46 4.175 1.604 6.372 1.185l.127-.182c.349 1.484 2.237 3.947 3.678 4.524zm2.744-3.398c-.48-.135-.868-.559-1.205-1.108h-2.274l-5.243-4.958h33.378v-12.384l1.224 1.14c-.593-1.741-.383-3.212-.401-5.699l-.503.292c-1.148-.128-2.663-1.166-4.103-2.432v6.182c.006.141 0 .276-.006.407h-1.439c-2.777 0-3.346-.925-3.346-2.311v-20.423c0-3.463 5.096-4.938 5.15-4.952l2.346-.662a14.936 14.936 0 0 0 3.076 1.754s-5.781 1.601-5.781 5.776v11.577l.136-.057c1.109 1.504 3.503 3.71 5.718 4.075l.55-.326c-.123 1.985-.169 5.652 1.016 6.894l-1.591.667 1.995 1.857v13.58h-27.61zm33.069-26.734-.504.295c-1.68-.195-4.163-2.331-6.035-4.285l2.067-.859c1.111 1.512 3.503 3.718 5.723 4.075l.544-.32c-.118 1.976-.169 5.655 1.021 6.891l-2.065.858c-1.105-2.231-.729-3.72-.751-6.655zm23.949-8.91-1.452 1.156c.322-1.469.339-4.622.106-7.428l-.785.832c-.726-1.758-3.147-4.006-4.326-4.706l1.18-1.046c1.311.906 3.038 2.874 3.883 4.344l1.024-.749c.45 2.142.603 5.068.37 7.597zm1.201-8.73c-.724-1.762-3.147-4.009-4.32-4.706l1.175-1.046c1.426.982 3.375 3.234 4.113 4.724zm2.785 5.527-1.382 1.29c.285-5.684.003-6.83-.362-7.771l1.095-1.09c.459 2.144.69 3.308.649 7.571zm-3.494-13.757 1.114-.898c1.479 1 3.359 2.9 4.098 4.401l-.852 1.175c-.727-1.767-3.549-4.137-4.36-4.678zm7.167 9.887-1.277 1.682c.354-2.121-.046-5.783-.688-7.934l.985-1.286c.443 2.142 1.195 5.137.98 7.538zm2.313-2.835c-.16-2.679-.693-4.685-2.083-6.468l.498-.852c.692-.638 2.537 3.013 2.567 5.812zm2.272-3.887c-.752-4.355-1.904-5.195-2.543-5.749l-.38.622c-.739-1.76-1.952-3.503-3.116-4.224l.77-1.028c1.418.985 2.318 2.598 3.06 4.088l-.204.332.27-.332c.159-.923 2.088.636 2.724 4.775zm1.595-3.712c-.595-3.175-1.58-4.329-2.45-5.05l.042-.118-.363.772c-.723-2.024-1.408-2.788-2.957-4.17l.572-.913c1.653 1.511 2.132 2.522 2.865 3.991l.131-.359c.305-.788 2.436 1.754 2.611 4.044z"/><path fill="#c0111f" d="M134.449 26.878c-.875.82-3.655 3.416-4.158 3.888l3.519 1.662c.074-.652.5-4.36.639-5.55z"/><path fill="#c0111f" d="M37.157 98.425c.42-15.603 6.525-31.083 18.433-42.991 5.145-5.144 10.977-9.151 17.177-12.151-.096.01-.17.017-.209.017l2.231-1.013c.037.006.084-.002.124 0a62.545 62.545 0 0 1 3.06-1.252 1.09 1.09 0 0 0-.084-.02c.644-.242 1.288-.47 1.936-.688.031.006.067.019.098.026 1.006-.342 2.005-.699 3.023-.988l-.04-.007a64.784 64.784 0 0 1 2.249-.602c.044.007.078.03.119.041 1.2-.292 2.397-.593 3.609-.813-.01-.004-.02-.01-.03-.012.556-.1 1.11-.21 1.672-.298.036.019.063.038.099.059.766-.118 1.532-.242 2.302-.332l-.074-.029c.392-.046.788-.091 1.182-.131 18.192-1.797 37.014 4.262 50.945 18.197 6.63 6.628 11.393 14.384 14.443 22.632.062.073.14.156.193.224.38 1.042.738 2.091 1.065 3.157-.041-.092-.087-.165-.13-.254.208.667.349 1.349.533 2.021l.145.162c.182.667.356 1.341.513 2.013-.044-.069-.085-.105-.128-.17 1.031 4.293 1.661 8.664 1.789 13.054h28.761c.012.575.035 1.147.044 1.722 0 .003.008.003.008.005 0-50.85-41.366-92.219-92.214-92.219-50.31 0-91.309 40.502-92.175 90.609v.001zm136.924-29.181 2.262 6.961h7.325l-5.93 4.306 2.265 6.961-5.922-4.304-5.924 4.304 2.262-6.961-5.924-4.306h7.324zm-22.749-21.821.149-.179 1.626.71-.226.311c-.672.928-1.272 2.48-.302 4.575.867 1.59 1.949 2.152 2.703 2.342.8.202 1.621.084 2.259-.329.5-.316.882-1.183.911-2.037 0 0-.101-1.892-.101-2.272 0-.041 0-.064.003-.064a662.594 662.594 0 0 0-1.103-2.014l.174-.164s.893-.856.944-.823c.005-.041.036-.369.036-.336l.041-.652c.087-.931.38-1.803.823-2.452.362-.528.959-.854 1.39-1.034 2.78-1.194 5.64.929 6.922 3.537.549 1.131 1.393 3.27.869 4.911l-.103.313-1.547-.603.075-.269c.31-1.112.177-2.064-.492-3.509-.788-1.705-2.616-1.751-3.419-1.395-.664.287-1.02 1.181-1.02 2.513l.003.352c0 .056-.003.105-.01.11.026.047 1.042 1.777 1.042 1.777s-.898.913-1.054 1.077c.015.203.067.798.067.826l-.028 1.502c-.003.31-.131 1.293-.613 2.113-.243.43-.795 1.052-1.431 1.385-1.318.713-2.726.867-4.068.446-1.734-.541-3.263-2.034-4.42-4.316-1.315-2.597-1.028-5.21-.1-6.352zM122.71 34.11s1.493-.931 1.451-.9c0 0 4.037-3.629 4.232-3.807-.003-.238-.012-2.062-.012-2.062l.261-.041s2.029-.313 2.037-.27c.018-.013 5.383-4.973 5.383-4.973l.154-.14 2.195 1.051-.013.205s-.326 7.094-.397 7.099a650.51 650.51 0 0 1 1.544 1.959l-.213.193s-1.513 1.356-1.562 1.316c-.013.08-.749 5.432-.767 5.432l.439 2.331-5.581-2.616s1.303-1.108 1.463-1.241c.022-.211.261-2.349.302-2.708-.356-.17-4.786-2.26-5.137-2.424l-1.962 1.962c-.01.21-.056 1.921-.056 1.921l-4.237-1.988zm-31.173-3.001s1.508-1.426 1.516-1.426c0-.003 3.949-5.219 4.252-5.622l-1.144-1.105s.6-.972.747-1.218c-.524-.792-3.573-5.434-3.573-5.439l-1.749-2 5.488-.016.031.275s.118 1.059.118 1.257c0 .02 0 .031-.006.031.011.015 2.445 3.747 2.852 4.37l3.216-4.268c-.107-.256-.528-1.236-.528-1.236l-.182-.428 5.291.016-1.703 1.967-3.966 5.316.99 1.11-.746 1.182c.549.816 3.824 5.673 3.824 5.683l2.144 2.103-5.881.008-.031-.275s-.121-1.054-.121-1.249c0-.018 0-.028.003-.03l-3.07-4.573c-.441.569-3.293 4.257-3.452 4.459.051.228.364 1.59.364 1.59l-5.257.059zM66.936 20.515l.272-.146 1.736 3.36-.492.01s-2.323.046-2.326.017c-.01.004-3.832 1.986-4.314 2.237.238.451 1.869 3.598 2.103 4.047.649-.336 2.875-1.495 2.88-1.483.006-.002 1.417-1.508 1.417-1.508l1.574 3.161-.425.058s-1.518.2-1.518.182c-.01.002-2.462 1.287-2.913 1.523.236.464 2.339 4.575 2.585 5.053.712-.377 4.106-2.172 4.123-2.149 0-.006 1.77-2.38 1.77-2.38l1.611 3.232-10.648 5.591.005-.513s.011-1.508.042-1.512l-2.375-4.808c-.228-.067-2.172-.628-2.172-.628s.7-1.824.787-2.047c-.313-.608-2.334-4.516-2.334-4.599l-1.893-1.177zM39.235 39.881l.187-.231 2.941 2.301-.466.208s-2.165.969-2.18.944c-.005.01-1.365 1.654-1.673 2.031.395.334 3.201 2.695 3.381 2.845.22-.021 2.036-.211 2.036-.211l.051.281s.27 1.504.27 1.774c0 .023-.003.036-.008.036.066.056 4.103 3.462 4.103 3.516.008.003 2.203.341 2.203.341l-3.813 4.563-.205-.441s-.677-1.462-.677-1.524l-4.109-3.457c-.213.011-2.072.095-2.072.095s-.21-1.849-.239-2.067l-3.39-2.791c-.439.526-1.737 2.068-1.755 2.055l-.687 2.729-2.835-2.334zM23.051 76.204l2.26-6.961 2.265 6.961h7.319l-5.919 4.301 2.262 6.966-5.927-4.304-5.917 4.304 2.26-6.966-5.922-4.301z"/><path fill="#003278" d="M41.697 152.73c.313-.546 1.872-3.252 2.442-4.244-1.082.387-4.067 1.451-4.698 1.674l2.256 2.57zm-8.489-29.571c.092-.239.138-.498.138-.775 0-.341-.069-.71-.212-1.102 0 0-.311-.867-.449-1.241-.483.164-4.381 1.475-4.881 1.644.174.472.534 1.437.534 1.437.208.559.582.997 1.085 1.267h.003c.659.359 1.505.407 2.306.123.732-.278 1.245-.742 1.476-1.353zm121.874 23.134c-.564.077-1.103.408-1.59.985 0 0-.605.7-.857.997l3.819 3.468c.326-.39.982-1.172.982-1.175.377-.442.573-.964.573-1.521v-.049c-.013-.752-.388-1.516-1.037-2.075-.592-.51-1.244-.728-1.89-.63z"/><path fill="#003278" d="M100.003 3.39c-53.359 0-96.612 43.259-96.612 96.612 0 53.354 43.253 96.61 96.612 96.61 53.356 0 96.607-43.256 96.607-96.61-.001-53.353-43.252-96.612-96.607-96.612Zm-76.69 128.792c-.039.057-1.442 2.2-1.442 2.2l-1.585-4.514s5.432-5.993 5.663-6.251c-.077-.228-.326-.923-.367-1.044-1.1.408-5.07 1.885-5.091 1.867l-1.564 1.641-1.996-5.568.462.028s1.605.09 1.611.108c.01-.002 4.724-1.723 4.945-1.806l.977-2.162.279.115s1.775.744 1.775.819c.03-.013 2.975-1.072 2.975-1.072s1.469-.531 1.493-.518l1.231-1.184.341-.329 2.216 6.035c.787 2.144.9 4.353.3 5.909-.436 1.13-1.195 1.903-2.296 2.31-1.652.595-3.603-.141-5.001-1.749-.33.351-4.833 5.067-4.926 5.165zm26.35 14.213s-2.98 6.137-3.032 6.127c.003.007.354 2.377.354 2.377l-.231.087s-1.718.674-1.739.62c-.016.021-1.783 2.96-1.783 2.96s-1.121 1.872-1.126 1.823l-.564 2.552-4.35-4.973 1.964-.595c.09-.164 1.085-1.905 1.252-2.198-.239-.274-3.303-3.755-3.55-4.034l-2.406.957c-.086.192-.866 1.844-.866 1.844l-3.339-3.834.779-.131c.985-.149 1.437-.213 1.683-.223a.898.898 0 0 0-.041-.018s5.222-1.754 5.465-1.837c.098-.202.875-1.849.875-1.849l.246.059s1.952.48 1.955.523l6.55-2.287.283-.098 1.708 1.965zm28.812 19.685s-1.275 1.005-1.305.997c-.008.012-.816 1.674-.816 1.674s-1.231 2.524-1.3 2.524l.505 2.064-.228.108s-1.644.759-1.677.706c-.013.03-3.252 6.658-3.252 6.658l-2-1.011-2.41-13.942c-1.101 2.213-4.145 8.333-4.186 8.333.005.006.297 2.46.297 2.46l-4.863-2.414.405-.298s1.336-.979 1.357-.954c.01-.016.874-1.762.874-1.762s1.487-3.006 1.555-2.995l-.6-2.252 2.052-.784c.095-.201.81-1.66.81-1.66s1.139-2.326 1.165-2.285l-.131-1.998-.036-.526 4.268 2.088s1.823 10.051 2.111 11.628l1.066-2.183s2.19-4.47 2.226-4.444l-.21-2.413 4.701 2.383zm-3.237-7.955a6.21 6.21 0 0 0 1.708-.132 7.338 7.338 0 0 0 1.908 1.54 63.128 63.128 0 0 1-3.616-1.408zm34.228 19.675s-.818 1.457-.859 1.457l-.028 6.037-.656.328c-1.126.56-2.088 1.04-5.388 1.008-4.701-.041-8.825-3.29-9.556-7.574l-1.357-1.784.18-.19s1.22-1.269 1.234-1.241c.008-.016.216-.785.22-.804 1.301-3.795 5.196-6.418 9.477-6.378 2.226.02 3.473.362 4.924 1.347l.202.139-.097 3.216-.521-.646-.251-.31c-.714-.854-2.221-1.347-4.248-1.39-2.811-.067-4.467 2.19-5.078 4.291l-.087.52c.164.197 1.374 1.634 1.374 1.634l-.2.197s-1.308 1.305-1.334 1.323c.416 2.626 2.165 5.289 5.137 5.314 1.21.01 1.605-.31 1.95-.415l.01-2.988s.008-1.531.038-1.531c-.008-.02-1.067-2.06-1.067-2.06l6.237.045zm21.482 2.89.041-.51s.133-1.665.159-1.67c-.005-.015-1.872-4.594-1.962-4.817l-2.162-.795s.852-1.819.949-2.034c-.154-.369-1.937-4.527-1.937-4.606l-1.929-1.41 10.967-4.765.415-.179 1.475 3.493s-2.878-.156-3.041-.169c-.134.062-3.719 1.605-4.145 1.787.2.469 1.585 3.681 1.785 4.153.016-.005.052-.021.052-.021s2.708-1.175 2.713-1.165c.003 0 1.632-1.51 1.632-1.51l1.493 3.598-.431.023s-1.697.098-1.703.085l-2.803 1.207c.205.498 2.019 4.827 2.142 5.122.395-.175 1.406-.616 1.406-.616s2.6-1.141 2.61-1.113c.011-.008 2.057-2.37 2.057-2.37l1.444 3.393zm36.3-26.393-8.202-1.888c-.143.164-.579.657-.731.834.895.757 4.137 3.511 4.137 3.536l2.178.562-3.86 4.475-.205-.418s-.685-1.405-.685-1.457l-4.006-3.442-2.362.208-.033-.298s-.167-1.443-.167-1.849c0-.064.005-.1.015-.1-.036-.033-3.524-3.075-3.524-3.123v-.003c-.01 0-2.147-.633-2.147-.633l4.16-4.902c1.474-1.738 3.339-2.924 4.988-3.165 1.195-.177 2.241.11 3.133.877.887.767 1.352 1.939 1.352 3.234 0 .644-.178 1.324-.418 1.996l6.912 1.77 2.608.184zm14.825-26.378c-.954 3.008-3.193 4.536-4.475 4.662l-.32.031-.61-1.557.035-.391.38-.06c1.084-.177 2.533-.826 3.275-2.894.351-1.224.3-2.34-.154-3.225-.365-.71-.972-1.239-1.855-1.49-.523-.126-1.341.197-1.924.748 0 0-1.518 1.713-1.544 1.706 0 .008-.636 2.257-.636 2.257l-.236-.002s-1.293-.021-1.308-.077c-.026.021-.223.182-.21.169l-.477.439c-.723.597-1.554 1.018-2.347 1.18-.648.125-1.32-.082-1.771-.252-2.87-1.131-3.422-4.717-2.488-7.517.693-2.08 1.713-3.563 2.878-4.17l.405-.213.67 1.51-.013.331-.241.136c-.951.533-1.498 1.274-2.016 2.721-.631 1.746.68 2.929 1.449 3.229.366.11 1.156.107 2.349-1.155 0 0 .162-.176.19-.179l.52-2.072s1.324-.016 1.544-.021c.123-.149.464-.562.492-.588l1.062-1.043c.323-.298 1.097-.859 1.97-1.098l.002-.002c.523-.131 1.354-.178 2.045.036 1.559.464 2.767 1.5 3.4 2.921.705 1.588.692 3.64-.041 5.93zm10.111-26.374h-28.761c-.35 15.7-6.462 31.295-18.444 43.275-17.331 17.333-42.208 22.445-64.043 15.441l.472-.694c-1.388-.343-3.134-1.516-4.16-2.493-2.283.582-3.524-.47-5.098-.934l-.144.483c-5.916-2.961-11.48-6.864-16.416-11.799-2.336-2.337-4.382-4.844-6.273-7.427.626.374 1.347.772 1.931.98l-.564-.952s-1.608-1.059-2.903-2.113a62.036 62.036 0 0 1-2.896-4.795c1.872 1.702 3.151 1.997 4.567 2.669l-.433-2.026c-1.207-.38-3.611-1.411-5.39-3.16-4.061-8.292-6.256-17.268-6.478-26.306H7.818c-.006-.416-.032-.825-.032-1.241 0-.166.006-.313.008-.469-.002.01-.008.008-.008.018 0-.54.032-1.072.041-1.61.866-50.107 41.865-90.608 92.176-90.608 50.847 0 92.214 41.369 92.214 92.219 0-.003-.008-.003-.008-.005.001.103.008.204.008.307-.001.415-.026.825-.033 1.24z"/><path fill="#fff" d="M33.241 128.768c1.101-.407 1.86-1.18 2.296-2.31.6-1.557.487-3.765-.3-5.909l-2.216-6.035-.341.329-1.231 1.184c-.023-.012-1.493.518-1.493.518s-2.945 1.059-2.975 1.072c0-.075-1.775-.819-1.775-.819l-.279-.115-.977 2.162c-.221.083-4.935 1.804-4.945 1.806-.006-.018-1.611-.108-1.611-.108l-.462-.028 1.996 5.568 1.564-1.641c.021.018 3.99-1.46 5.091-1.867.041.121.29.816.367 1.044-.231.257-5.663 6.251-5.663 6.251l1.585 4.514s1.403-2.144 1.442-2.2c.092-.098 4.596-4.814 4.927-5.163 1.397 1.606 3.348 2.342 5 1.747zm-3.816-4.38h-.003a2.328 2.328 0 0 1-1.085-1.267l-.534-1.437c.5-.169 4.398-1.479 4.881-1.644.138.374.449 1.241.449 1.241.143.392.212.762.212 1.102 0 .277-.046.536-.138.775-.231.61-.744 1.074-1.477 1.351-.8.286-1.646.238-2.305-.121zm18.334 19.958s-6.53 2.282-6.55 2.287c-.003-.044-1.955-.523-1.955-.523l-.246-.059s-.777 1.647-.875 1.849l-5.465 1.837.041.018c-.246.01-.698.074-1.683.223l-.779.131 3.339 3.834s.78-1.652.866-1.844l2.406-.957c.247.279 3.311 3.76 3.55 4.034-.167.293-1.162 2.034-1.252 2.198l-1.964.595 4.35 4.973.564-2.552c.006.049 1.126-1.823 1.126-1.823s1.767-2.939 1.783-2.96c.02.054 1.739-.62 1.739-.62l.231-.087s-.351-2.37-.354-2.377c.052.01 3.032-6.127 3.032-6.127l.088-.182-1.708-1.965zm-6.062 8.384-2.257-2.57c.631-.222 3.616-1.287 4.698-1.674-.569.992-2.129 3.698-2.441 4.244zm32.664 13.082c-.036-.026-2.226 4.444-2.226 4.444l-1.066 2.183c-.288-1.578-2.111-11.628-2.111-11.628l-4.268-2.088.036.526.131 1.998c-.026-.041-1.165 2.285-1.165 2.285s-.715 1.459-.81 1.66l-2.052.784.6 2.252c-.067-.011-1.555 2.995-1.555 2.995s-.864 1.746-.874 1.762c-.021-.026-1.357.954-1.357.954l-.405.298 4.863 2.414s-.292-2.454-.297-2.46c.041 0 3.085-6.12 4.186-8.333l2.41 13.942 2 1.011s3.239-6.628 3.252-6.658c.033.054 1.677-.706 1.677-.706l.228-.108-.505-2.064c.069 0 1.3-2.524 1.3-2.524s.808-1.662.816-1.674c.031.007 1.305-.997 1.305-.997l.377-.298-4.701-2.383.211 2.413zm30.191 13.548c-.031 0-.038 1.531-.038 1.531l-.01 2.988c-.344.105-.739.425-1.95.415-2.972-.025-4.722-2.687-5.137-5.314.026-.018 1.334-1.323 1.334-1.323l.2-.197s-1.21-1.437-1.374-1.634l.087-.52c.611-2.101 2.267-4.358 5.078-4.291 2.026.044 3.534.536 4.248 1.39-.003-.006.251.31.251.31l.521.646.097-3.216-.202-.139c-1.451-.985-2.698-1.326-4.924-1.347-4.281-.041-8.176 2.582-9.477 6.378-.005.018-.213.788-.22.804-.013-.028-1.234 1.241-1.234 1.241l-.18.19 1.357 1.784c.731 4.283 4.855 7.533 9.556 7.574 3.301.032 4.262-.448 5.388-1.008l.656-.328.028-6.037c.041 0 .859-1.457.859-1.457l.256-.454-6.237-.045c.001-.001 1.06 2.039 1.067 2.059zm34.121-4.581c-.01-.028-2.61 1.113-2.61 1.113s-1.011.441-1.406.616c-.123-.295-1.937-4.624-2.142-5.122l2.803-1.207c.005.012 1.703-.085 1.703-.085l.431-.023-1.493-3.598s-1.629 1.51-1.632 1.51c-.005-.01-2.713 1.165-2.713 1.165l-.052.021c-.2-.472-1.584-3.683-1.785-4.153.426-.182 4.011-1.726 4.145-1.787.164.013 3.041.169 3.041.169l-1.475-3.493-.415.179-10.967 4.765 1.929 1.41c0 .08 1.783 4.237 1.937 4.606-.098.216-.949 2.034-.949 2.034l2.162.795c.09.223 1.957 4.802 1.962 4.817-.026.004-.159 1.67-.159 1.67l-.041.51 11.225-4.888-1.444-3.393c.002-.001-2.045 2.361-2.055 2.369zm22.2-26.037c.241-.672.418-1.352.418-1.996 0-1.295-.465-2.467-1.352-3.234-.893-.767-1.939-1.054-3.133-.877-1.65.241-3.514 1.427-4.988 3.165l-4.16 4.902s2.136.633 2.147.633v.003c0 .048 3.488 3.09 3.524 3.123-.01 0-.015.036-.015.1 0 .406.167 1.849.167 1.849l.033.298 2.362-.208 4.006 3.442c0 .052.685 1.457.685 1.457l.205.418 3.86-4.475-2.178-.562c0-.026-3.242-2.78-4.137-3.536.151-.177.587-.67.731-.834.339.077 8.202 1.888 8.202 1.888l3.145-3.601-2.608-.184-6.914-1.771zm-2.864.305c0 .557-.196 1.079-.573 1.521 0 .003-.656.785-.982 1.175l-3.819-3.468c.251-.297.857-.997.857-.997.487-.577 1.026-.908 1.59-.985.647-.098 1.298.121 1.89.631.649.559 1.024 1.323 1.037 2.075v.048zm20.704-29.979c-.69-.213-1.521-.167-2.045-.036l-.002.002c-.872.239-1.647.8-1.97 1.098l-1.062 1.043a31.52 31.52 0 0 0-.492.588 394 394 0 0 1-1.544.021s-.5 1.985-.52 2.072c-.028.003-.19.179-.19.179-1.193 1.262-1.983 1.265-2.349 1.155-.769-.3-2.08-1.483-1.449-3.229.518-1.446 1.065-2.188 2.016-2.721l.241-.136.013-.331-.67-1.51-.405.213c-1.165.608-2.185 2.091-2.878 4.17-.934 2.801-.382 6.386 2.488 7.517.451.169 1.123.377 1.771.252.793-.162 1.623-.583 2.347-1.18l.477-.439c-.013.013.185-.148.21-.169.015.056 1.308.077 1.308.077l.236.002s.636-2.249.636-2.257c.026.008 1.544-1.706 1.544-1.706.582-.551 1.401-.874 1.924-.748.882.251 1.49.78 1.855 1.49.453.885.505 2.001.154 3.225-.742 2.068-2.191 2.718-3.275 2.894l-.38.06-.035.391.61 1.557.32-.031c1.282-.126 3.522-1.654 4.475-4.662.733-2.29.746-4.342.041-5.93-.633-1.42-1.84-2.456-3.4-2.921zM33.82 50.147c.018.013 1.316-1.528 1.755-2.055.402.332 3.223 2.652 3.39 2.791.028.218.239 2.067.239 2.067s1.859-.084 2.072-.095l4.109 3.457c0 .062.677 1.524.677 1.524l.205.441 3.813-4.563s-2.196-.338-2.203-.341c0-.054-4.037-3.46-4.103-3.516.005 0 .008-.013.008-.036 0-.27-.27-1.774-.27-1.774l-.051-.281s-1.815.19-2.036.211c-.18-.149-2.985-2.511-3.381-2.845.308-.377 1.667-2.021 1.673-2.031.015.026 2.18-.944 2.18-.944l.466-.208-2.941-2.301-.187.231-8.936 10.661 2.835 2.334.686-2.727zm26.835-18.335c-.087.223-.787 2.047-.787 2.047s1.944.561 2.172.628l2.375 4.808c-.031.003-.042 1.512-.042 1.512l-.005.513 10.648-5.591-1.611-3.232s-1.77 2.375-1.77 2.38c-.018-.023-3.411 1.772-4.123 2.149-.246-.478-2.349-4.588-2.585-5.053.451-.236 2.903-1.521 2.913-1.523 0 .018 1.518-.182 1.518-.182l.425-.058-1.574-3.161s-1.411 1.506-1.417 1.508c-.005-.013-2.231 1.147-2.88 1.483-.234-.449-1.865-3.596-2.103-4.047.482-.251 4.304-2.234 4.314-2.237.003.03 2.326-.017 2.326-.017l.492-.01-1.736-3.36-.272.146-10.507 5.521 1.893 1.177c.002.083 2.023 3.992 2.336 4.599zm65.872 2.665 1.962-1.962c.352.164 4.781 2.254 5.137 2.424-.041.359-.28 2.497-.302 2.708-.16.133-1.463 1.241-1.463 1.241l5.581 2.616-.439-2.331c.018 0 .753-5.352.767-5.432.048.041 1.562-1.316 1.562-1.316l.213-.193s-1.537-1.954-1.544-1.959c.072-.005.397-7.099.397-7.099l.013-.205-2.195-1.051-.154.14s-5.366 4.96-5.383 4.973c-.008-.044-2.037.27-2.037.27l-.261.041.012 2.062c-.195.178-4.232 3.807-4.232 3.807.041-.031-1.451.9-1.451.9l-.477.3 4.237 1.988c0-.001.047-1.711.057-1.922zm7.922-7.599c-.139 1.19-.565 4.898-.639 5.55a3290.93 3290.93 0 0 0-3.519-1.662c.503-.472 3.283-3.068 4.158-3.888zm21.403 31.217c1.341.421 2.749.267 4.068-.446.636-.333 1.187-.956 1.431-1.385.482-.82.61-1.803.613-2.113l.028-1.502c0-.029-.052-.623-.067-.826.157-.164 1.054-1.077 1.054-1.077l-1.042-1.777c.008-.005.01-.054.01-.11l-.003-.352c0-1.332.356-2.226 1.02-2.513.804-.356 2.632-.31 3.419 1.395.669 1.445.803 2.396.492 3.509l-.075.269 1.547.603.103-.313c.523-1.641-.32-3.78-.869-4.911-1.282-2.608-4.142-4.732-6.922-3.537-.431.18-1.028.506-1.39 1.034-.444.649-.736 1.521-.823 2.452l-.041.652c0-.033-.031.295-.036.336-.051-.033-.944.823-.944.823l-.174.164s1.1 2.003 1.103 2.014c-.003 0-.003.023-.003.064 0 .38.101 2.272.101 2.272-.028.854-.411 1.721-.911 2.037-.638.412-1.459.531-2.259.329-.754-.19-1.836-.752-2.703-2.342-.97-2.095-.37-3.647.302-4.575l.226-.311-1.626-.71-.149.179c-.928 1.141-1.215 3.755.1 6.355 1.157 2.279 2.686 3.772 4.42 4.313zM95.858 30.001c.159-.202 3.011-3.89 3.452-4.459l3.07 4.573c-.003.003-.003.012-.003.03 0 .195.121 1.249.121 1.249l.031.275 5.881-.008-2.144-2.103c0-.01-3.275-4.867-3.824-5.683.154-.246.746-1.182.746-1.182l-.99-1.11c.277-.374 3.966-5.316 3.966-5.316l1.703-1.967-5.291-.016.182.428s.42.98.528 1.236l-3.216 4.268c-.408-.623-2.842-4.355-2.852-4.37.006 0 .006-.011.006-.031 0-.198-.118-1.257-.118-1.257l-.031-.275-5.488.016 1.749 2c0 .005 3.049 4.647 3.573 5.439-.146.246-.747 1.218-.747 1.218l1.144 1.105c-.303.403-4.252 5.619-4.252 5.622-.008 0-1.516 1.426-1.516 1.426l-.572.542 5.257-.059c-.001 0-.314-1.363-.365-1.591zm74.561 50.51-2.262 6.961 5.924-4.304 5.922 4.304-2.265-6.961 5.93-4.307h-7.325l-2.262-6.96-2.262 6.96h-7.324zM19.394 87.472l5.917-4.304 5.927 4.304-2.262-6.966 5.919-4.302h-7.319l-2.265-6.96-2.26 6.96h-7.319l5.922 4.302z"/><path fill="#003278" d="M92.927 37.4c.486.185 1.919.757 2.126 1.104l.736-.11s-.9-.729-1.544-1.178c-.071.006-.14.017-.21.023-.395.04-.79.085-1.182.131l.074.03zm-4.073.57c.01.002.021.009.03.012 1.025.273 1.981.877 3.011 1.382l.995-.09s-.926-.796-2.266-1.544c-.036-.021-.063-.04-.099-.059-.561.089-1.115.199-1.671.299zm-5.948 1.388.04.007c.498.08 1.458.281 1.822.693 1.123-.198 1.903.367 2.616.731l1.682-.536s-2.185-1.075-2.98-1.093c-.344-.162-.557-.292-.812-.364-.042-.01-.076-.034-.119-.041-.756.187-1.5.39-2.249.603zm-5.016 1.657c.015.002.062.015.084.02.315.074 1.359.335 1.896.798 1.174-.2 2.331.38 3.175.916l1.693-.597c-.187-.31-2.375-1.262-3.599-1.285-.41-.324-.838-.432-1.216-.513-.031-.007-.066-.02-.098-.026-.647.217-1.292.445-1.935.687zM72.558 43.3c.038 0 .113-.007.209-.017.619-.065 2.251-.281 2.456.191 1.262-.12 2.621.646 3.441 1.164l1.805-.462c-.972-.874-2.749-1.564-3.769-1.513-.4-.601-1.209-.357-1.787-.377-.04-.002-.087.006-.124 0zm1.793 4.152 1.577-1.197c-1.236-.67-3.17-1.037-4.18-.988-.506-.178-.434-.341-1.016-.413l-2.167 1.18c.274.015 2.108.051 2.352.59 1.251-.107 2.633.329 3.434.828zm-9.177 3.504c1.472-.275 3.631-.859 5.74-.386l1.584-1.405c-2.382-.418-4.908-.297-6.188.039-.31-.477-1.028-.967-1.028-.967l-1.508 1.27c.718.225.961.832 1.4 1.449zm-4.236 4.746c1.218-.605 3.898-1.034 6.609-.666l1.398-1.801c-4.109-.294-5.797.228-7.076.849-.439-.744-1.082-1.178-1.082-1.178l-1.249 1.151c.72.225.951 1.04 1.4 1.645zm4.103 2.032c-4.254.095-6.596.469-6.907 1.454-.426-.747-1.2-1.503-1.2-1.503l-.988 1.557c.908.498.821 1.085 1.257 1.7 1.226-.615 3.726-1.785 6.448-1.408zm-9.905 6.865c-.431-1.03-1.575-2.264-1.575-2.264l-.738 1.769c.654.495 1.062 1.706 1.513 2.321 1.22-.631 2.795-1.826 5.498-1.434l1.282-2.093c-3.449.001-5.672.704-5.98 1.701zm-3.534 6.959c1.221-.603 3.054-1.734 5.786-1.37l1.129-2.075c-3.322 0-5.617.715-5.915 1.708-.543-1.362-1.769-2.531-1.769-2.531l-.736 1.961c.915.498 1.063 1.709 1.505 2.307zm-1.506 4.536c-.616-1.218-1.96-2.737-1.96-2.737l-.605 2.037c.905.508 1.326 1.718 1.767 2.341 1.223-.623 2.721-1.633 5.442-1.259l.869-1.962c-4.131.254-5.203.601-5.513 1.58zm-3.075 7.397c1.21-.623 3.247-1.736 5.96-1.375l.68-2.026c-3.988.239-5.732.631-6.05 1.629-.439-.744-1.961-2.601-1.961-2.601l-.408 2.037c.917.507 1.328 1.713 1.779 2.336zm-.88 5.014c-.434-.748-2.311-3.349-2.311-3.349l-.426 2.172c.9.839 1.575 2.393 2.016 3.021 1.221-.623 3.134-2.323 5.833-1.939l.426-1.816c-3.948.295-4.576.734-5.538 1.911zm-1.182 6.632c-.477-.741-2.886-3.239-2.886-3.239l-.318 2.105c1.603 1.38 2.264 2.701 2.732 3.275.529-1.049 2.523-2.034 5.252-1.807l.338-1.981c-3.235.186-4.692.719-5.118 1.647zm-1.154 7.6c-.533-1.415-2.821-3.696-2.821-3.696l-.139 2.029c.801.356 2.278 2.831 2.724 3.439.1-.113.231-.482.503-.816.484-.584 1.882-1.413 4.886-1.287l.171-1.86c-3.462.041-4.575.887-4.867 1.229-.275.24-.382.702-.457.962zm4.729 13.384-.06-1.987c-2.608-1.17-3.949-.962-4.906-.396-.444-.759-3.062-1.721-3.062-1.721l.123 1.998c1.062.251 2.355.905 2.806 1.518 1.217-.623 2.948-.563 5.099.588zm-5.273-5.903c.565-.946 1.198-1.437 5.248-.582l.021-1.931c-4.775-.233-4.709.198-4.86.811-.408-.76-3.157-3.111-3.157-3.111l.041 2.231c.894.535 2.294 1.946 2.707 2.582zm.626 10.846c.233-.626.995-.28 1.98.156.877.406 1.529.869 2.534 1.421l-.051-2c-2.201-1.414-4.355-2.491-4.663-1.508-.43-.744-2.718-1.78-2.718-1.78l.513 2.22c1.185.308 1.961.87 2.405 1.491zm.351 3.213c-.444-.81-2.252-1.803-2.252-1.803l.279 2.014c.959.393 1.698.939 2.15 1.611 1.041-.128 1.954.272 4.185 1.869l-.164-1.892c-2.279-1.906-3.387-1.799-4.198-1.799zm93.204-15.368c-.715-.5-1.935-1.192-4.186-3.665l-1.667 1.016c.752.567 4.15 4.491 5.74 3.899 0 0-.721 4.857-.593 7.368l1.824-1.167c-.062-1.321.026-6.892.354-8.191.07-.07-1.021 1.056-1.472.74zm3.611-2.274 1.168-.965c.164 3.228.422 6.293.068 7.769l1.411-1.095c.285-2.362.21-5.106-.128-7.613l-1.311.845c-1.704-2.494-2.845-3.61-3.834-4.285l-1.22.91c.512.148 1.891 1.523 3.846 4.434zm-62.222 47.308c-2.281.579-4.394-.441-5.964-.908l-.436 1.339c2.211 1.144 4.342.97 5.955.623.888 1.261 1.636 1.972 3.601 2.703l.703-1.019c-2.089-.253-2.91-1.325-3.859-2.738zm1.614-3.655c-2.296.579-4.715-.259-6.297-.723l-.658 1.51c2.39.818 4.608.988 6.23.65.823 1.356 1.718 2.646 3.691 3.382l.725-1.287c-1.635-.669-3.159-1.539-3.691-3.532zm2.577-4.826-.243.382c-2.283.587-5.055.079-6.632-.382l-.811 1.433c2.205.685 4.127.793 6.581.518l.124-.226c.893 1.635 1.122 2.61 3.42 3.957l1.116-1.285c-1.447-.583-3.209-2.915-3.555-4.397z"/><path fill="#003278" d="m85.276 142.528-.127.182c-2.197.419-4.801-.725-6.372-1.185l-.903 1.357c2.211 1.158 4.365 1.246 6.304 1.246l.117-.168c.808 1.789 1.586 3.643 3.545 4.384l1.113-1.293c-1.441-.576-3.328-3.039-3.677-4.523zm-3.516-4.887-.649.696c.2.096.424.197.649.297zm37.524-7.383-1.995-1.857 1.591-.667c-1.185-1.241-1.139-4.909-1.016-6.894l-.55.326c-2.215-.365-4.609-2.571-5.718-4.075l-.136.057v-11.577c0-4.175 5.781-5.776 5.781-5.776s-1.571-.623-3.076-1.754l-2.346.662c-.054.015-5.15 1.49-5.15 4.952v20.423c0 1.386.57 2.311 3.346 2.311h1.439a4.56 4.56 0 0 0 .006-.407V119.8c1.441 1.266 2.956 2.304 4.103 2.432l.503-.292c.018 2.487-.193 3.958.401 5.699l-1.224-1.14v12.384H81.864l5.243 4.958h2.274c.336.549.725.973 1.205 1.108l1.087-1.108h27.611z"/><path fill="#003278" d="m125.449 117.117-.544.32c-2.22-.358-4.613-2.563-5.723-4.075l-2.067.859c1.872 1.954 4.355 4.09 6.035 4.285l.504-.295c.022 2.935-.354 4.424.752 6.655l2.065-.858c-1.191-1.236-1.14-4.914-1.022-6.891zm6.71 3.929 2.055-.859c-1.185-1.234-1.131-4.914-1.013-6.892l-.071-.125c-.734.257-1.665.034-2.498-.674-.826-.708-3.576-3.968-3.576-3.968l-2.267 1.237c1.313 1.354 5.612 4.77 6.491 4.798l.125-.094c.012 2.874-.348 4.367.754 6.577zm14.049-18.592c-.845-1.471-2.572-3.438-3.883-4.344l-1.18 1.046c1.18.7 3.601 2.948 4.326 4.706l.785-.832c.233 2.806.217 5.959-.106 7.428l1.452-1.156c.233-2.529.08-5.456-.372-7.597zm3.637-2.836c.364.941.647 2.088.362 7.771l1.382-1.29c.042-4.263-.189-5.427-.649-7.571zm3.452-3.641c.641 2.151 1.041 5.813.688 7.934l1.277-1.682c.215-2.4-.536-5.396-.98-7.538zm2.693-3.902-.498.852c1.39 1.783 1.923 3.789 2.083 6.468l.982-1.507c-.03-2.8-1.875-6.452-2.567-5.813zm1.713-2.859-.27.332.204-.332c-.742-1.491-1.642-3.103-3.06-4.088l-.77 1.028c1.165.721 2.377 2.465 3.116 4.224l.38-.622c.639.554 1.791 1.394 2.543 5.749l.58-1.516c-.635-4.139-2.564-5.699-2.723-4.775zm1.58-3.268-.131.359c-.733-1.469-1.212-2.48-2.865-3.991l-.572.913c1.549 1.382 2.234 2.147 2.957 4.17l.363-.772-.042.118c.87.721 1.855 1.875 2.45 5.05l.451-1.804c-.175-2.289-2.306-4.83-2.611-4.043zm-13.624 8.871-1.175 1.046c1.173.697 3.596 2.945 4.32 4.706l.969-1.028c-.739-1.49-2.688-3.742-4.114-4.724zm3.55-3.375-1.114.898c.811.541 3.632 2.911 4.36 4.678l.852-1.175c-.739-1.501-2.619-3.401-4.098-4.401zm5.735 2.196.697-1.044c-.733-1.498-1.972-3.396-3.396-4.383l-.969 1.032c1.164.712 2.929 2.632 3.668 4.395zm4.919-9.531.436-.9c-.739-1.509-1.128-1.911-2.78-3.581l-.308.92c1.151.991 1.925 1.81 2.652 3.561zm1.367-.731-.145-.162-.471-.528-.428.967c.471.338.941.836 1.428 1.566.044.066.085.101.128.17a54.416 54.416 0 0 0-.512-2.013zm-1.614-5.086c-.054-.068-.131-.151-.193-.224-.22-.259-.482-.545-.858-.917l-.252.861c.81.878 1.591 1.82 2.238 3.183.043.089.089.161.13.254a62.9 62.9 0 0 0-1.065-3.157zM127.622 94.25h8.227V67.092l-4.56-4.263v26.653h-8.703zm-15.345-17.846c3.183.272 5.48 1.115 7.11 2.348-2.643-2.643-6.904-4.087-12.719-4.103V91.79c0 3.22 5.176 5.282 5.229 5.303l2.129.835c-1.327-1.03-2.567-2.446-2.567-4.224v-17.35zM79.505 92.29c0-9.344.914-15.235 10.826-16.224v-1.469h-.137c-10.612 0-14.942 3.681-14.952 12.807l-.012 2.078H64.743l4.781 4.484h9.972z"/><path fill="#c0111f" d="M66.358 87.784h7.256c.044-.477.085-.955.085-.955l-.143.473c0-9.961 5.13-14.403 16.639-14.403h1.834V91.79c0 3.238-2.347 5.083-4.032 6.046 1.699.873 4.032 2.581 4.032 5.818v20.235c0 2.628-1.808 4.196-4.842 4.196h-3.729v9.097h30.084v-9.097h-3.527c-3.349 0-5.044-1.349-5.044-4.008v-20.423c0-3.204 2.724-4.965 4.619-5.85-1.872-1.046-4.619-3.031-4.619-6.014V72.935l.896.006.764.001c11.156 0 17.553 5.042 17.553 13.841l-.008 1.002h5.416V64.421H66.359l-.001 23.363z"/></svg>