<svg xmlns="http://www.w3.org/2000/svg" width="250" height="127.03" viewBox="0 0 250.00001 127.02646"><g fill="#8fbce6"><path d="M135.057 38.399c-.746-1.306-1.305-2.145-1.399-2.424-1.118-.187-4.661-.933-7.179-1.399v2.144c-.093 0 5.688 1.12 8.578 1.679zm14.637 59.11H111.75v2.703h57.338c1.958-.839 4.009-1.678 6.06-2.704h-25.453zm9.603-62.094c2.052 3.916 6.62 12.68 9.324 17.808.466-.746.932-1.585 1.398-2.424-2.61-5.128-5.594-11.095-7.086-13.985a530.662 530.662 0 0 1 5.874-1.399v-7.552h-2.704v6.154c-.093 0-4.568.932-6.806 1.398zm14.918-.839v2.144s1.678.28 3.45.653c.372-.746.745-1.398 1.118-1.958-1.212-.186-3.077-.56-4.568-.839z"/><path d="m183.538 97.511 2.704 3.17-1.772 1.772c-3.17 3.263-34.216 24.706-68.34 20.51-15.01-1.864-28.342-8.39-39.717-19.298 11.934 12.493 26.012 19.858 42.048 21.816 34.403 4.289 64.89-17.341 68.34-20.79l1.772-1.772-2.331-2.704h4.475v-8.857s-1.119-.187-2.704-.373v6.62h-4.475v-.094zm9.79-58.457c-4.662 7.832-16.503 27.597-17.062 28.623v19.206c.652.093 1.585.28 2.704.373v-18.18c.466-.747 7.645-12.867 13.052-21.817 0-2.984.466-5.688 1.305-8.205zm30.393 38.412c-2.33-1.865-5.314-3.17-8.484-4.568l-4.848-2.238c-4.475-2.237-8.018-4.475-10.722-6.806 2.984 3.45 7.366 6.526 13.426 9.51l4.848 2.237c2.704 1.212 5.314 2.331 7.459 3.823a8.48 8.48 0 0 0-1.679-1.958zm-15.197 8.205c-1.771-2.424-2.983-5.688-3.636-9.883l-.373-2.33h-2.237c.932 5.78 2.983 9.882 6.246 12.213zm26.012-34.963c0 .187.094.28.094.466l.466 2.238h10.162l-.932-22.749-1.772-.652-.839-.28.84 20.977h-8.019zm-13.891-16.222c-4.196 0-8.578 1.958-8.578 5.687 0 2.33.84 3.822 3.077 5.407-.466-.839-.746-1.771-.746-2.983 0-3.73 4.475-5.687 8.578-5.687 5.314 0 9.136 2.237 11.467 12.96l-.28-1.493c-1.864-9.323-6.246-13.891-13.518-13.891z"/><path d="M243.3 63.012c2.331 3.543 3.543 7.739 3.543 12.96 0 14.264-10.908 23.215-28.622 23.215-8.112 0-15.29-1.492-21.91-4.569v1.399l1.492.746c6.992 3.45 14.264 5.127 22.562 5.127 17.621 0 28.623-8.857 28.623-23.215 0-6.62-1.865-11.747-5.688-15.663zm-97.521 24.8c-3.17-8.204-15.664-39.904-21.071-53.609l-1.026-2.424v-.093l-1.491-3.73h-2.518c4.569 11.561 22.376 56.966 23.215 59.017.56.093 1.772.466 2.89.84zm-46.524-5.874h16.503c-.373-1.025-.653-1.957-.933-2.703H97.018c-.653 1.678-1.585 4.382-2.424 6.62 1.398 1.491 2.89 3.076 4.568 4.66-.746-.745-1.492-1.584-2.144-2.33.746-2.237 1.771-4.941 2.237-6.247zm1.585-13.518h3.636c.28-.653.467-1.212.467-1.212h-.373c.932-2.61 1.958-5.221 3.263-8.857-.466-1.492-1.026-3.077-1.585-4.755-2.331 6.433-5.408 14.824-5.408 14.824zM86.482 41.569l-4.288.466c-2.145 3.543-5.035 6.713-8.671 9.043l2.144 2.984c4.942-3.077 8.578-7.459 10.815-12.493zM43.595 14.718c.56 0 1.026-.094 1.585-.094 4.755 0 8.484 1.026 11.281 3.17-2.797-3.916-7.458-5.78-13.985-5.78-.466 0-1.025 0-1.585.093v10.442l2.704 1.678v-9.51zm2.797 43.912-.56-1.025-.092-.094a367.89 367.89 0 0 0-4.849-1.678v28.81c.653.092 1.585.279 2.704.465V58.444c.56.186 2.051.652 3.357 1.119l-.373-.653-.187-.28zm-42.7 38.972v2.703h53.142V89.677s-1.118-.187-2.703-.466v8.297H3.69v.094zm80.646-59.95 3.356.56c.84-2.704 1.212-5.594 1.212-8.67 0-8.764-3.076-14.638-7.738-18.46 3.077 3.729 5.035 8.857 5.035 15.756.093 3.822-.653 7.458-1.865 10.815zm-42.421 7.553 1.678-.746V26.838l-2.704-2.797v22.562h2.704v-1.771l-1.678.373zm41.116 25.918c0-.093-5.967-8.763-5.967-8.763s-2.61-3.823-4.475-6.527c.093-.093.466-.186.466-.186.373-.187.746-.373 1.119-.653l-3.077-2.424c-.28.093-.466.28-.746.373 0 0-.28.187-.466.187 1.865 2.703 4.475 6.526 4.475 6.526l5.967 8.764c.093.093.466.652.466.652l2.797 3.636.187-.559c-.094-.093-.187-.28-.28-.373.093 0-.373-.653-.466-.653zM14.04 13.878c-2.144-.373-7.179-1.398-10.348-1.957v3.076s6.153 1.212 10.348 1.958v-3.077z"/></g><g fill="#fff"><path d="M246.75 75.878c0-5.127-1.212-9.416-3.543-12.959a15.871 15.871 0 0 0-3.077-3.543c-4.475-4.195-9.696-6.433-14.357-8.484l-2.797-1.212-.467-.187c-3.45-1.585-5.873-2.797-7.458-3.915-2.238-1.492-3.077-3.077-3.077-5.408 0-3.73 4.475-5.687 8.577-5.687 7.273 0 11.655 4.568 13.52 13.892l.279 1.491.186.746h8.018l-.745-20.977-.094-1.772-1.771-.652c-7.365-2.61-13.24-3.73-19.02-3.73-4.475 0-8.484.56-12.027 1.679h-37.386v8.857s1.212.186 2.704.56c1.491.279 3.356.652 4.568.931-.28.56-.653 1.212-1.119 1.958-2.144 3.73-5.22 9.137-7.738 13.426-.466.839-.932 1.678-1.399 2.424-2.703-5.128-7.272-13.892-9.323-17.808l6.713-1.398v-8.764h-42.328v8.857l1.026.187c.466.093 1.025.186 1.678.28 2.517.466 6.06 1.211 7.179 1.398.186.28.652 1.119 1.398 2.424 4.382 7.365 16.782 28.25 17.342 29.275v19.3c-1.306.279-3.73.745-5.78 1.118l-.84-.28c-1.212-.373-2.33-.652-2.89-.839-.84-2.144-18.647-47.455-23.215-59.016-.653-1.678-1.026-2.704-1.026-2.704h-15.476l-5.967 14.638 2.517.466-2.797.28-12.866 31.419-.187.56-2.797-3.637s-.373-.56-.466-.652-5.967-8.764-5.967-8.764-2.61-3.823-4.475-6.526c.093 0 .466-.187.466-.187.28-.093.467-.28.746-.373l-2.424-1.865c-.839.373-1.678.746-2.424 1.026l-.466.28c4.662 6.806 8.67 12.866 12.307 18.087 1.958 2.61 4.102 5.407 6.246 8.204l20.605-50.252h11.747l24.054 61.254 5.687 1.678 8.671-1.678V66.928l-19.858-33.377-8.858-1.772v-3.73h36.827v3.73l-8.11 1.772 13.331 25.545 14.638-25.545-8.857-1.772v-3.73h35.056c3.356-1.025 7.178-1.677 11.56-1.677 6.06 0 11.841 1.305 18.088 3.542l.745 17.994h-2.89c-2.144-10.815-7.738-16.129-16.222-16.129-6.247 0-11.375 3.357-11.375 8.484 0 6.34 4.942 8.485 12.587 12.027 5.034 2.331 11.374 4.569 16.502 9.23 3.916 3.543 5.687 8.298 5.687 14.452 0 12.306-9.043 20.418-25.825 20.418-8.018 0-15.197-1.492-21.817-4.849l-.466-17.9h3.636c1.771 11.56 7.925 17.434 17.9 17.434 7.086 0 11.282-3.729 11.282-8.95 0-2.704-1.212-5.128-3.263-6.713-3.823-3.077-8.857-4.661-13.799-7.086-11.28-5.593-16.875-11.374-16.875-20.884 0-6.246 2.238-11.374 6.433-14.917l-7.738 1.119-19.952 33.377v22.376l11.84 1.865v3.73h-73.467v-3.73l9.23-1.865-4.382-12.68H95.06l-3.73 9.976c.187.187.28.373.467.56 17.714 19.392 41.582 34.869 88.571 11.095l2.144 2.517c-5.78 5.78-77.57 52.863-120.923-20.418l-1.958-3.077-.28 1.772-.28-2.984c-3.728-6.247-6.898-12.866-10.161-18.553 0 0-.187-.466-.746-1.399-.187-.373-.373-.746-.56-1.025l-6.526-2.145v-3.543h3.17c3.636 0 6.62-.559 9.137-1.585 0 0 1.118-.372 2.424-1.212a14.059 14.059 0 0 0 1.864-1.585l1.958 16.13 2.984-17.901 5.873 4.289-3.822-6.154 15.29-1.585-15.29-3.356 2.237-5.78-4.475 2.983c.094-1.026.094-2.051.094-2.89V29.542c-.373-13.333-7.086-20.325-20.046-20.325-1.398 0-2.797.093-4.288.28v11.187l2.797 1.772V12.014c.56 0 1.025-.093 1.585-.093 6.526 0 11.188 1.957 13.985 5.78 1.958 2.704 3.076 6.34 3.263 10.908l1.305 2.424c-4.755 4.382-5.5 9.697-5.5 12.866l-.747.094c-2.424 1.771-5.966 2.703-10.535 2.703h-3.45V24.134l-2.797-2.89v65.73l13.24 2.33v5.407H3.784v-5.407l12.96-2.33V11.547L3.784 9.124V3.809H48.91c23.494 0 34.589 6.62 34.589 23.122 0 3.636-.653 7.086-1.958 10.349l2.797.466c1.305-3.356 1.958-6.992 1.958-10.722 0-6.992-1.958-12.027-5.035-15.756C73.99 2.318 60.191 1.012 48.91 1.012H.988v10.35s1.119.186 2.704.465c3.17.56 8.204 1.585 10.348 1.958V84.55c-3.076.56-12.959 2.33-12.959 2.33v10.536h53.143V86.88s-6.34-1.119-10.536-1.865c-1.118-.186-2.05-.373-2.703-.466V55.74c.839.28 3.636 1.212 4.848 1.678l.093.093c0 .094.56 1.026.56 1.026l.186.28.373.652 3.73 6.9c2.61 5.034 5.407 10.162 8.577 15.103 5.127 8.671 10.908 16.036 17.154 22.097 11.468 11.001 24.8 17.434 39.718 19.299 34.123 4.289 65.076-17.248 68.34-20.511l1.771-1.772-2.704-3.17h4.569v-8.764s-5.408-.839-9.137-1.398c-1.026-.187-2.051-.28-2.704-.373V67.674c.56-1.026 12.307-20.884 16.968-28.623-.932 2.518-1.398 5.221-1.398 8.298v.093c0 6.713 2.33 11.934 7.645 16.503 2.797 2.424 6.247 4.661 10.722 6.806l4.848 2.237c3.17 1.399 6.153 2.704 8.484 4.569.746.559 1.212 1.212 1.678 1.957.467.84.653 1.679.653 2.611 0 3.823-3.263 6.153-8.577 6.153-3.543 0-6.527-.839-8.858-2.61-3.263-2.331-5.314-6.433-6.246-12.214 0-.093 0-.186-.093-.373l-.373-2.33h-8.858l.653 22.375 1.492.746 1.119.56c6.62 3.076 13.798 4.568 21.91 4.568 17.714.093 28.622-8.764 28.622-23.122zm-121.016 30.208c-11.282-2.704-19.952-9.044-26.665-15.477-1.678-1.585-3.17-3.17-4.569-4.661.84-2.238 1.772-4.849 2.425-6.62h17.807c.28.746.56 1.678.932 2.704.56 1.585 1.212 3.45 1.772 5.128-2.704.559-8.298 1.678-8.298 1.678v8.764h66.009c-2.051.932-4.102 1.864-6.06 2.703-16.596 6.806-30.86 8.671-43.353 5.78z"/><path d="M106.528 45.205 98.323 67.3l-1.492 3.916 18.18-.094-8.483-25.918zm1.398 13.146c1.305 4.009 2.424 7.458 3.263 10.069H100.84s3.17-8.391 5.501-14.824c.56 1.678 1.026 3.263 1.585 4.755zM82.194 41.94l-3.45.373c-1.771 2.518-4.009 4.662-6.806 6.527l1.585 2.237c3.636-2.424 6.526-5.5 8.67-9.136z"/></g><g fill="#092c5c"><path d="m64.293 47.07-4.662 30.114 1.958 3.076c43.447 73.281 115.143 26.199 120.923 20.418l-2.144-2.517c-47.083 23.868-70.95 8.391-88.571-11.095-.187-.186-.28-.373-.466-.56l3.729-9.975h21.723l4.382 12.68-9.23 1.864v3.73h73.374v-3.73l-11.84-1.864V66.835l19.952-33.378 7.738-1.118c-4.195 3.636-6.433 8.67-6.433 14.917 0 9.51 5.5 15.29 16.875 20.884 5.035 2.517 9.976 4.009 13.799 7.086 2.144 1.678 3.263 4.009 3.263 6.712 0 5.222-4.196 8.95-11.281 8.95-10.07 0-16.13-5.873-17.901-17.434h-3.636l.466 17.901c6.62 3.263 13.798 4.848 21.816 4.848 16.782 0 25.826-8.111 25.826-20.418 0-6.153-1.771-10.908-5.687-14.451-5.128-4.755-11.468-6.9-16.503-9.23-7.738-3.543-12.586-5.687-12.586-12.027 0-5.128 5.128-8.484 11.374-8.484 8.485 0 14.172 5.407 16.223 16.129h2.89l-.652-17.808c-6.34-2.237-12.12-3.542-18.088-3.542-4.382 0-8.204.559-11.56 1.678h-35.056v3.73l8.857 1.77-14.638 25.546-13.332-25.545 8.111-1.772v-3.73H126.48v3.73l8.858 1.772 19.858 33.377v22.376l-8.67 1.678-5.688-1.678-24.054-61.254h-11.747L84.338 78.21c-2.144-2.798-4.289-5.502-6.247-8.205-3.636-5.221-7.645-11.282-12.306-18.088l.466-.28c.746-.279 1.585-.652 2.424-1.025l-4.382-3.543zm50.719 24.053-18.18.094 1.491-3.916 8.205-22.096 8.484 25.918z"/><path d="M78.744 42.314 68.022 43.34l3.916 5.408c2.704-1.772 5.035-3.916 6.806-6.434z"/><path d="m74.269 18.54-5.874 16.502 13.146 2.238c1.305-3.17 1.958-6.713 1.958-10.349 0-16.502-11.095-23.122-34.59-23.122H3.786v5.315l12.96 2.424v75.425l-12.96 2.33v5.408h47.549v-5.407l-13.24-2.33v-65.73l-1.305-1.399 1.305.84V9.495c1.492-.093 2.984-.28 4.29-.28 12.959 0 19.671 6.993 20.044 20.326v1.305l11.84-12.307z"/><path d="M55.902 46.696c-1.305.933-2.424 1.306-2.424 1.306-2.517 1.025-5.594 1.585-9.137 1.585h-3.17v3.543l6.526 2.144c.187.28.373.652.56 1.025.56.84.746 1.399.746 1.399 3.17 5.594 6.34 12.213 10.069 18.46l-3.17-29.462z"/></g><path fill="#f5d130" d="m84.338 37.653-2.797-.466-13.146-2.145L74.27 18.54 62.615 30.754c0 .839 0 1.864-.093 2.89l4.475-2.984-2.331 5.874 15.29 3.356-15.29 1.585 3.822 6.06-5.873-4.288-2.984 17.9-1.958-16.129c-.559.653-1.212 1.212-1.864 1.585l3.263 29.555.28 2.704.28-1.772 4.661-30.114 4.475 3.543 2.424 1.865 3.077 2.424 4.941 3.915-3.45-4.848-2.144-2.983-1.585-2.238-4.009-5.314 10.629-1.026 3.45-.372 4.288-.467 10.349-1.025 2.797-.28-2.517-.466-9.51-1.585-3.17-.466zM36.79 19.845l1.305 1.399 2.797 2.89 2.704 2.797 12.027 12.4-12.027 5.128-1.678.746 1.678-.187 11.281-.932.746-.093c0-3.17.746-8.391 5.501-12.866l-1.305-2.425-3.543-6.433 2.424 11.561-15.104-9.603-2.704-1.678-2.797-1.771-1.305-.933z"/></svg>