<svg xmlns="http://www.w3.org/2000/svg" viewBox="0 0 177.714 121.492"><path fill="#c6011f" d="M71.943 58.183h5.091l1.334-1.113v-1.574h-6.425v2.687zm60.391 9.98h4.214l1.333-1.116V55.496h-5.547v12.667z"/><path fill="#c6011f" d="M177.714 59.86c0-35.116-39.22-59.86-81.101-59.86-33.621 0-56.927 19.894-69.6 34.96C9.612 55.647 0 58.283 0 58.283c13.477 11.807 19.817 17.811 26.072 24.58 17.647 19.096 32.264 38.63 73.818 38.63 49.49 0 77.824-32.309 77.824-61.633zm-14.763-1.698 5.53 4.618 2.72 2.721.025 4.099-7.16 5.871h-5.307l-1.452-1.223v1.289h-5.495l-2.722-2.724v-7.356h5.497l2.826 2.68 4.228.028 1.344-1.122V65.5h-5.134l-8.761-7.339v-5.416l5.645-4.674h6.824l1.426 1.197v-1.197h5.496l2.72 2.72v7.354h-5.494l-2.807-2.66-4.055.005-1.42 1.183v1.488zm-62.199 59.024c-35.95 0-49.844-13.913-66.49-31.594-6.827-7.246-11.219-13.527-21.846-22.225l-2.272-5.253s4.473-1.458 21.465-21.586C44.43 21.345 66.766 4.482 96.002 4.482c29.761 0 59.524 13.722 71.054 36.488 0 0 1.163 3.157 1.64 4.105h-26.033c-5.24-8.284-20.843-17.828-41.519-17.828-34.378 0-47.652 22.56-47.652 33.758 0 3.85.496 9.804 2.602 13.76 8.338 12.595 25.61 19.491 42.145 19.491 17.91 0 32.003-7.047 43.501-15.783h24.584l1.724 4.028c-11.457 19.138-35.82 34.685-67.296 34.685zm22.406-61.69h-.038l-2.681-2.722h-.04v-4.702h17.452l5.559 4.674 2.723 2.719v13.98l-7.295 5.976H123.12l-2.681-2.722h-.04v-4.533h.04v-.003h3.646V55.496zm-15.554 2.666 2.721 2.72v4.62h-6.801v2.661h5.541v-2.655h5.534l2.72 2.723v7.19H94.307L91.621 72.7h-.034v-4.533h.034v-.003h3.652V55.496h-.966l-2.686-2.722h-.034v-4.702h23.012l2.72 2.72v7.354h-5.532l-2.814-2.65h-5.45v2.666zM72.905 68.166l2.724 2.722v4.533H62.723L60.004 72.7v-4.533h3.686v-12.67h-.967l-2.719-2.722v-4.702h18.332l5.563 4.674 2.723 2.719v5.417l-4.097 3.359 1.696 3.925h1.534l2.722 2.722v4.533h-7.03l-2.72-2.722-3.118-7.257h-3.666v2.724z"/><path d="M166.324 78.473c-11.455 19.14-35.82 34.69-67.294 34.69-35.951 0-50.086-15.418-66.734-33.1-6.827-7.245-11.097-13.793-22.152-21.949l2.272 5.253c10.627 8.698 15.019 14.98 21.846 22.225 16.646 17.681 30.54 31.594 66.49 31.594 31.477 0 55.839-15.547 67.296-34.685z"/><path d="M99.951 23.144c-35.16 0-48.964 23.373-48.964 34.565a30.416 30.416 0 0 0 5.107 17.055c-2.106-3.955-2.602-9.908-2.602-13.76 0-11.197 13.274-33.757 47.652-33.757 20.676 0 36.279 9.544 41.519 17.828h26.032c-.476-.948-1.639-4.105-1.639-4.105h-24.86c-5.238-8.282-21.57-17.826-42.245-17.826z"/><path fill="#fff" d="M32.296 80.064c16.648 17.681 30.783 33.1 66.734 33.1 31.474 0 55.839-15.551 67.294-34.69H141.74c-11.498 8.735-25.59 15.782-43.501 15.782-16.534 0-33.807-6.896-42.145-19.492a30.416 30.416 0 0 1-5.107-17.055c0-11.192 13.804-34.565 48.964-34.565 20.676 0 37.007 9.544 42.246 17.826h24.859c-11.53-22.766-41.293-36.488-71.054-36.488-29.236 0-51.571 16.863-64.393 32.046-16.992 20.128-21.465 21.586-21.465 21.586C21.2 66.27 25.47 72.818 32.296 80.064z"/><path d="m108.973 55.496 2.815 2.65h5.531v-7.355l-2.72-2.719v7.352h-5.534v-2.65h-8.263v5.388h2.722v-2.666h5.449zM91.621 72.699l2.686 2.722h23.012v-7.19l-2.72-2.723v7.191H91.621zm9.181-9.919v5.383h2.722v-2.662h6.801v-4.619l-2.721-2.72v4.618h-6.802zm-9.181-10.006 2.686 2.722h.966v-2.722h-3.652zm-31.617 0 2.719 2.722h.967v-2.722h-3.686zm0 19.925 2.719 2.722h12.906v-4.533l-2.724-2.722v4.533H60.004zM79.805 61.52l2.868 6.646h1.548l-1.696-3.925 4.097-3.359v-5.417l-2.723-2.719v5.416l-4.094 3.358zm-4.196 3.922-1.17-2.719h-5.22v5.443h2.724v-2.724h3.666zm3.118 7.257 2.721 2.722h7.029v-4.533l-2.722-2.722v4.533h-7.028zm-6.784-17.203h6.425v-1.555l-1.398-1.167h-7.751v5.409h2.724v-2.687z"/><path fill="#fff" d="M100.802 52.774h8.263v2.65h5.534v-7.352H91.587v4.702h3.686v15.389h-3.652v.003h-.034v4.533h23.012v-7.191h-5.534v2.655h-8.263V62.78h6.802v-4.618h-6.802v-5.388zm-31.583 9.949h5.22l1.17 2.72 3.118 7.256h7.028v-4.533h-3.082l-2.868-6.646 4.094-3.358v-5.416l-5.563-4.674H60.004v4.702h3.686v15.392h-3.686V72.7h12.901v-4.533H69.22zm0-9.95h7.751l1.398 1.168v3.129l-1.334 1.113H69.22z"/><path d="m120.439 52.774 2.681 2.722h.965v-2.722h-3.646zm11.895 2.722h5.547v-1.555l-1.395-1.167h-6.869v15.389h2.717V55.496z"/><path d="M137.851 72.699h-17.412l2.681 2.722h15.718l7.296-5.976v-13.98l-2.724-2.719v15.392l-5.559 4.561zm23.744-9.919h-6.974l-5.531-4.618 8.761 7.339h5.134V63.94l-1.39-1.16zm1.361 9.971h-6.919l-1.45-1.222v1.284h-5.497l2.722 2.724h5.495v-1.289l1.452 1.223h5.306l7.161-5.871-.026-4.099-2.719-2.721.033 5.294-5.558 4.677zm-4.111-17.26 4.055-.005 2.807 2.66h5.493v-7.355l-2.719-2.719v7.352h-5.496v-1.479l-1.414-1.183-5.448.008-1.419 1.185v3.055l1.381 1.152h1.341v-1.488l1.419-1.183zm-2.909 12.632 1.477.013-2.826-2.679v1.546l1.349 1.12z"/><path fill="#fff" d="M120.439 68.163v.003h-.04V72.7h17.452l5.559-4.561V52.746l-5.559-4.674H120.4v4.702h3.686v15.39zm9.178-15.39h6.869l1.395 1.168v13.106l-1.333 1.116h-6.93zm25.087 4.237v-3.055l1.419-1.185 5.448-.008 1.414 1.183v1.479h5.496v-7.352h-5.496v1.197l-1.426-1.197h-6.824l-5.645 4.674v5.416l5.531 4.618h6.974l1.39 1.16v3.103l-1.344 1.122-4.228-.029-1.477-.013-1.349-1.12v-1.546h-5.497v7.356h5.497v-1.284l1.45 1.222h6.919l5.558-4.677-.033-5.294-5.53-4.618h-6.866l-1.381-1.152z"/></svg>