<svg xmlns="http://www.w3.org/2000/svg" width="253.99023" height="248.4043" viewBox="0 0 253.99024 248.40429"><defs><clipPath id="a" clipPathUnits="userSpaceOnUse"><path d="M0-.002v248.404h253.99V-.002Zm215.838 204.703c.51-.011.987.313 1.209.924.107-.02.213-.043.318-.076.244-.062.489-.115.73-.184 1.013-.287.352-.197 1.69-.435.08-.015.165-.004.246 0 .091.005.181.013.272.021.187-.046.375-.09.57-.076h4.019l1.167-.002c.314 0 .63.005.945-.004.06-.007.167-.06.17-.004.037.684.018 1.37.002 2.055 0 .015.003.03.004.047l.234.093c.123.051.244.114.37.158.204.073.46.047.62.192.405.364 1.087.955.995 1.623a3.96 3.96 0 0 1-.092.44c.031.04 0 .118-.096.386.048.101.098.203.154.315.02.039-.036.084-.07.113-.252.212-.49.45-.781.603-.163.085-.36.06-.541.09l-.46-.006a.448.448 0 0 1-.214.06c-.116.06-.232.118-.35.172-.195.091-.386.199-.593.258-.28.08-.569.127-.858.159-.557.06-1.127-.116-1.681-.004-.705-.004-1.496-.007-2.196-.008-.196 0-.661.005-.838.011-.111.005-.222.019-.334.024-.178.008-.355.009-.533.013-.476-.023-.53-.014-1.072-.103-.114-.019-.224-.054-.336-.08-.54-.127-1.084-.22-1.6-.438-.132-.22-.322-.42-.484-.63-.55-.08-.642-.086-1.135-.128-.332-.077-.865-.167-1.205-.427-.576-.106-.957-.277-.314-.522a.756.756 0 0 0 .314.522c.219.04.456.072.68.093l-.069-.023c-.009-.001-.018 0-.027-.002a.464.464 0 0 1-.22-.078l-.057-.043-.014-.008a.883.883 0 0 1-.197-.145c-.2-.145-.323-.236-.39-.324l-.02.006v-.035l-.002-.004-.01-.01c-.042-.007-.074-.01-.117-.018-.175-.03-.344-.082-.516-.123a6.286 6.286 0 0 0-.03-.357l-.07-.035c-.317-.071-.64-.189-.554-.358l.496-.564c-.069-.52-.11-1.036.013-1.537.05-.2 1.044-.146 1.301-.125l.06-.162c-.27-.107-.697-.155-.796-.159-.076-.003-.151.018-.227.026l-.119.035c.08-.023.157-.055.239-.07.15-.03.304-.045.457-.063.027-.003.054 0 .082 0 .194 0 .315 0 .468-.002.354-.716.89-1.057 1.393-1.068zm-2.07 4.59v-.008l-.006-.002.006.01zm13.53 1.744.122-.062h-.074l-.307-.002c.1.046.185.065.26.064zm.122-.062.094.002c.033-.019.067-.044.1-.069-.022 0-.037 0-.055-.002h-.002c-.046.023-.092.045-.137.069zm1.79-1.114-.001-.006a2.47 2.47 0 0 0-.012.047l.014-.04zm-.001-.006c.03-.127.065-.253.098-.38-.045-.059-.212-.071-.479-.536.084.243.204.543.381.916zm-8.871-4.904-.02.002c.085.007.17.015.254.02.044.002-.087-.015-.13-.022h-.104zm-.06.006-.046.006a.586.586 0 0 0-.101.03l.146-.036zm-5.717 1.211a1.75 1.75 0 0 0-.047.027c.02 0 .03-.002.052-.004a.093.093 0 0 0-.006-.023zm-.7 3.13-.066.024c.03.033.064.063.105.082.037.018.101.045.147.067a1.149 1.149 0 0 1-.065-.155c-.04-.006-.08-.01-.12-.017zm.721.128.207.353c.255.09.483.145.576.1-.04-.019-.082-.035-.123-.055-.083-.04-.146-.113-.219-.17-.04-.044-.069-.105-.123-.13-.1-.049-.21-.07-.318-.098zm.3.512.015.021c.419.035.732.039.552.006-.186-.034-.377-.024-.566-.027zm.038.064.049.082c.075.012.293.074.226.037a1.814 1.814 0 0 0-.275-.12zm.385.148a.955.955 0 0 0-.17.006c-.123.018.23.067.377.002-.068 0-.138-.005-.207-.008zm11.912.52-.108.05c.074.041.146.056.13.007l-.022-.057zm.197.232c0 .016.06.003.045.002-.015 0-.03 0-.045-.002z" style="fill:red;fill-opacity:1;fill-rule:nonzero;stroke:none"/></clipPath><clipPath id="b" clipPathUnits="userSpaceOnUse"><path d="M4.52 19.277v224.688h220.832v-32.332c-.51.021-1.03-.115-1.536-.014-.704-.004-1.495-.007-2.195-.008-.196 0-.661.005-.838.012-.111.005-.222.018-.334.023-.178.008-.355.01-.533.014-.476-.023-.53-.014-1.072-.104-.114-.018-.224-.054-.336-.08-.54-.126-1.084-.219-1.6-.437-.132-.22-.322-.42-.484-.631-.55-.08-.642-.086-1.135-.127-.332-.078-.865-.167-1.205-.428-.576-.106-.957-.276-.314-.521a.756.756 0 0 0 .314.521c.219.04.456.072.68.094l-.069-.023-.027-.002a.464.464 0 0 1-.22-.079c-.027-.018-.034-.025-.057-.043l-.014-.008a.883.883 0 0 1-.197-.144c-.2-.145-.323-.236-.39-.324l-.02.006v-.036l-.002-.004-.01-.01-.118-.017c-.174-.03-.343-.082-.515-.123a6.286 6.286 0 0 0-.03-.358c-.023-.012-.047-.022-.07-.035-.317-.07-.64-.188-.555-.357l.497-.565c-.069-.519-.11-1.035.013-1.537.05-.2 1.043-.146 1.301-.125.019-.055.04-.11.06-.162-.27-.106-.697-.154-.796-.158-.076-.003-.151.017-.227.025-.04.013-.159.047-.119.036.08-.023.157-.055.238-.07.15-.03.305-.045.457-.063.028-.003.055 0 .082 0l.47-.002c.353-.716.888-1.057 1.392-1.069.51-.011.987.314 1.209.924.107-.02.213-.043.318-.076.244-.061.489-.115.73-.184 1.013-.287.352-.196 1.69-.435.08-.014.164-.004.246 0 .09.005.181.014.272.021.187-.045.375-.089.57-.076h4.479V19.277Zm209.248 190.014v-.008l-.006-.002.006.01zm6.57-4.342-.02.002c.085.007.17.016.254.02.044.002-.087-.015-.13-.022h-.104zm-.06.006-.046.006a.586.586 0 0 0-.101.03l.146-.036zm-5.717 1.211a1.75 1.75 0 0 0-.047.027c.02 0 .03-.002.052-.004a.093.093 0 0 0-.006-.023zm-.7 3.131-.066.023c.03.033.064.063.105.082.037.018.101.046.147.067a1.149 1.149 0 0 1-.065-.154l-.12-.018zm.721.127.207.353c.255.09.483.145.576.1-.04-.018-.082-.035-.123-.055-.083-.04-.146-.113-.219-.17-.04-.044-.069-.104-.123-.13-.1-.049-.21-.07-.318-.098zm.3.512.015.021c.419.035.732.039.552.006-.186-.034-.377-.024-.566-.027zm.038.064.049.082c.075.012.293.074.226.037a1.814 1.814 0 0 0-.275-.119zm.385.149a.955.955 0 0 0-.17.006c-.123.017.23.066.377.002-.068 0-.138-.005-.207-.008z" style="fill:red;fill-opacity:1;fill-rule:nonzero;stroke:none"/></clipPath></defs><path fill="#fff" d="M228.772 147.07c-9.004-6.408-19.88-7.828-30.4-9.203-20.068-2.624-35.905-4.703-38.216-37.557-3.357-47.78-4.504-58.755-16.563-67.537-.404-3.35-2.812-22.436-2.812-22.436C139.97 3.862 134.063-.716 127.6.09L90.916 4.694a11.616 11.616 0 0 0-7.85 4.475 11.588 11.588 0 0 0-2.364 5.658c-5.135-.33-10.053 2.76-11.854 7.815 0 0-6.327 17.78-7.526 21.166-7.328 3.25-13.206 13.61-19.704 34.477l-3.71 12.042c-7.202 23.71-12.888 42.453-23.634 54.006C4.947 154.376 0 165.134 0 174.96c0 2.986.45 5.86 1.363 8.62 2.75 8.237 11.008 18.983 34.837 23.3 13.07 2.26 28.224 11.656 42.88 20.767 10.075 6.26 20.88 12.882 30.575 16.937 6.226 2.648 16.972 7.215 46.89-.284 1.545-.34 4.794-1.67 5.9-6.85.245-1.102.36-2.328.36-3.715 0-10.053-7.045-27.594-26.068-43.907 13.6 1.375 28.798 4.6 40.017 8.555 18.636 6.554 53.58 10.985 73.62-3.556 1.618-1.046 3.47-3.465 3.617-7.85 0-9.235-7.668-27.434-25.218-39.908" clip-path="url(#a)" transform="translate(0 .002)"/><path fill="#bd3039" d="M226.148 150.73c-24.095-17.097-66.61 4.885-70.467-50.11-3.516-50.007-4.77-57.686-16.295-65.31l-3.05-24.423c-.512-4-4.17-6.84-8.174-6.328L91.473 9.136c-3.515.455-6.146 3.34-6.362 6.76 1.296.454 3.613 1.283 6.425 2.282l-.29-2.328a1.14 1.14 0 0 1 1-1.26c.635-.08 1.215.35 1.29.987l.425 3.465c1.596.556 3.283 1.17 4.993 1.772l-.676-5.476a1.483 1.483 0 0 1 1.29-1.66c.817-.112 1.544.478 1.652 1.297l.852 6.94c1.47.523 2.908 1.023 4.31 1.523l-1.08-8.646c-.12-1 .58-1.908 1.58-2.022.983-.136 1.89.58 2.023 1.58l1.295 10.44c1.425.52 2.76.988 3.937 1.42l-1.523-12.315a1.78 1.78 0 0 1 1.556-2.022c.993-.136 1.89.57 2.022 1.568l1.744 14.12c.528.182.818.273.818.273a11.656 11.656 0 0 1 3.584 2.058l-2.14-17.29a1.502 1.502 0 0 1 1.3-1.647c.8-.08 1.552.478 1.637 1.307l2.85 22.935c.4 1.227.637 2.5.637 3.773 0 1.317-.238 2.646-.7 3.964 0 0-6.4 18.04-7.553 21.277 1.425 2.794 2.06 5.748 2.06 8.77 0 9.042-5.327 18.778-10.207 27.695-2.08 3.783-4.044 7.362-5.515 10.724-7.526 18.37-11.178 29.742-11.178 37.5 0 4.135 1.023 7.203 3.027 9.792.07-4.873.983-8.644 1.517-10.473 4.845 1.533 19.165 6.032 26.35 7.6 0 0-.608 14.734 1.193 25.32.84.672 1.54 1.252 2.073 1.717.943.658 1.84 1.295 2.738 1.954 16.21.93 35.427 4.987 47.82 9.338 19.266 6.77 51.887 9.94 69.632-3.033 5.015-3.076-1.34-25.91-21.732-40.382M132.272 38.037c-.64.067-1.214-.364-1.29-1l-3.19-25.696a1.165 1.165 0 0 1 1.01-1.285 1.133 1.133 0 0 1 1.278 1l3.18 25.684a1.146 1.146 0 0 1-.988 1.295m110.842 148.5c-6.175 4.135-14.462 6.17-23.283 6.794-1.896.056-3.174-.626-3.6-2.125l-6.357-17.347c-.62-1.454-.715-2.795 1.24-3.76 0 0 13.114-5.715 14.568-6.487 1.45-.817 3.285-2.214 5.045-.43 8.73 9.224 12.405 19.334 12.405 23.253 0 .033-.01.068-.016.102"/><path fill="#bd3039" d="M125.513 186.876c-1.767-1.397-12.15-10.36-26.838-20.29-14.678-9.917-11.287-24.787 1.89-56.97 6.448-14.576 21.198-32.718 12.89-45.01l8.23-23.197c1.374-3.806-.637-7.975-4.442-9.327L82.423 19.7a7.316 7.316 0 0 0-9.342 4.452L64.846 47.34c-6.43 1.384-12.23 10.77-18.938 32.273-9.172 29.41-15.018 53.46-28.326 67.775-18.96 20.39-21.056 47.712 19.426 55.073 23.26 4.022 50.757 28.107 74.04 37.843 5.583 2.34 14.717 7.1 44.47-.376 6.395-1.204 3.942-29.48-30.003-53.05m-90.847 8.542c-12.655-2.898-20.556-8.124-22.93-15.292-2.42-7.282.783-16.904 8.593-26.162 8.854 3.43 16.335 7.554 21.873 11.258-3.964 8.315-6.662 18.698-7.537 30.195m80.686-158.147c.596.228.914.864.692 1.466l-8.696 24.39c-.21.58-.88.91-1.483.682-.6-.205-.903-.875-.692-1.466l8.696-24.38c.232-.59.88-.908 1.482-.693m-6.935-2.487c.76.284 1.17 1.113.89 1.886l-8.485 23.766a1.455 1.455 0 0 1-1.902.885 1.492 1.492 0 0 1-.892-1.886l8.492-23.754a1.493 1.493 0 0 1 1.897-.897m-6.953-2.477c.954.328 1.432 1.362 1.102 2.316l-8.27 23.14a1.814 1.814 0 0 1-2.306 1.09 1.818 1.818 0 0 1-1.097-2.316l8.265-23.13a1.803 1.803 0 0 1 2.306-1.1m-30.28 19.118a1.169 1.169 0 0 1-.706-1.476l8.708-24.367c.22-.59.88-.91 1.488-.705.58.216.892.875.688 1.466l-8.713 24.38c-.217.6-.87.907-1.467.702m6.952 2.476c-.772-.26-1.18-1.113-.903-1.897l8.48-23.743c.29-.772 1.125-1.192 1.88-.897.784.26 1.17 1.113.904 1.897L80.02 53.007c-.277.773-1.13 1.18-1.885.897m6.93 2.477a1.803 1.803 0 0 1-1.096-2.305l8.264-23.13a1.82 1.82 0 0 1 2.317-1.113 1.8 1.8 0 0 1 1.085 2.317l-8.258 23.14a1.792 1.792 0 0 1-2.312 1.09m66.798 177.8c-10.985 2.623-18.7 3.43-24.276 3.305-2 .25-3.624-.682-3.947-3.01l-2.05-18.12c.05-1.864.624-3.42 2.92-3.476 5.378.033 11.853-.49 13.853-1.16 2.982-.977 3.754-.66 4.1-.102 7.272 9.77 9.492 18.153 9.492 22.05 0 .216-.07.318-.092.51" clip-path="url(#b)" transform="translate(0 .002)"/></svg>