<svg xmlns="http://www.w3.org/2000/svg" width="101.86459mm" height="68.262497mm" viewBox="0 0 101.86458 68.262497"><g style="clip-rule:evenodd;fill-rule:evenodd"><path d="m44.97 99.789-6.712 13.922h15.785l44.125-33.56-37.04 33.435h2.735l35.051-25.107-28.215 25.232h3.107l28.837-19.267-22.001 19.142 3.108.125 25.854-15.289-19.267 15.164 2.983.248 25.231-13.547-18.52 13.299h56.678l-12.428-16.531-4.972.746-4.848-8.328L109.604 67.1 95.806 54.422 79.026 75.8l-9.321-2.859-15.537 24.735-4.226-.746-1.864 3.232z" style="fill:#51407f" transform="matrix(.54783 0 0 .5481 -1.553 -17.43)"/><path d="m60.134 94.693 10.813-17.774 9.322 2.486 15.413-20.136 11.111 12.939-.496 1.367-2.535-1.628-2.86 2.611-1.492-6.464-3.604 4.351-1.864-2.736-14.916 12.43-2.983-2.486-7.83 9.571-1.367-1.243zm75.321 3.108-3.285-6.114-2.297 1.346s2.352 2.53 2.973 2.903 2.609 1.865 2.609 1.865" style="fill:#fff" transform="matrix(.54783 0 0 .5481 -1.553 -17.43)"/><path d="M81.883 41.625h19.914v-1.499s-3.54-.068-3.54 0c-.484-5.23-4.693-19.829-18.486-30.052C72.714 4.528 63.334.388 51.137 0c-15.593.545-21.79 4.973-28.258 9.129C5.924 21.119 3.746 39.99 3.746 39.99H.409v1.566h20.603l.742-1.498h-4.39S21.109 16.35 48.89 13.42c-.069.068 2.179-2.452 2.179-2.452l2.452 2.452s3.744.409 6.196 1.158c2.452.75 4.767 1.771 4.767 1.771s-8.099.755-8.445 9.402c.604 7.522 7.014 8.856 8.785 8.856s8.715-.204 9.6-8.856c0-1.975-.477-3.202-.477-3.202s3.474 2.52 6.606 7.63c3.133 5.11 3.881 9.81 3.881 9.81h-3.767zm-15.221 5.893v-1.227h7.183v1.397s-1.293-.272-1.668.613c-.374.886-.272 5.893-.272 5.893s-.102 4.87.068 5.28c.17.409.306 1.328 1.055 1.43.749.103.852.239.852.239v1.09h-7.184V61.04s1.089-.069 1.43-.648c.34-.58.272-1.158.272-1.158v-5.212l-.069-4.973s.103-.58-.237-.92c-.341-.34-.817-.612-1.43-.612m-39.425-1.737c4.426 0 7.66 2.997 7.66 8.413s-3.234 8.243-8.069 8.516c-4.766-.273-7.422-3.236-7.422-8.584s3.541-8.074 7.83-8.345m-4.086 8.822c.613 6.574 3.269 6.71 4.596 6.71 1.328 0 4.154-1.976 3.303-7.936-.852-5.962-3.303-6.2-4.529-6.2-.986.137-3.982.852-3.37 7.426"/><path d="M11.746 60.802v1.362H2.963v-1.328s1.804-.136 2.11-.92c.307-.784.239-1.022.239-1.022V46.768c0-.716-.647-1.124-1.26-1.295s-1.055-.17-1.055-.17v-1.43s.987.068 2.11 0c1.124-.069 3.133-.273 5.107-.273s8.172.034 8.172 5.075c.238 3.917-3.61 4.872-3.61 4.872s-.101.442.273.647c.375.204.477.409.477.409s1.396 2.52 1.6 2.895 1.09 2.35 1.6 2.725c.511.375 1.804.613 1.804.613V62.2h-5.31l-4.563-7.528s-.51-.204-.715-.204-.545.102-.545.102l-.068 4.19s-.102 1.124.443 1.567 1.974.476 1.974.476m-.783-7.937c.545-.068 3.098-.68 2.86-4.121 0-3.577-2.622-3.781-3.54-3.781-.92 0-.954.136-.954.136v7.835s1.09 0 1.634-.069"/><path d="m54.541 100.41-3.107-.621-2.611 3.977zm84.395.994 3.603-.869 2.486 3.356zm-16.657-37.411s5.471.249 8.328 2.734c6.713 5.096 5.469 9.695 5.469 9.695l-.869.124s-.621-1.864-1.119-1.864c-.496 0-.559.373-.559.373l.311 1.119h-1.057s-.373-1.678-1.057-1.678-.436.684-.436.684l-.061 1.118-.871-.062s-.809-1.989-1.43-1.429-.186.808-.186.808.621.995-.062.995-1.305-.808-1.305-.808-.373-.932-.746-.621-.311.745-.311.745l.496.995-.746.311s-1.365-1.119-1.678-1.119c-.311 0-.994.497-.559.746s.871.497.871.808-.436.435-.436.435l-.623.186s-1.242-1.305-1.678-.808c-.434.497.188.994.188.994l.436.622-.498.373s-.869-.125-1.119-.311c-.248-.187-.807-.498-.994-.125-.186.374.188.746.188.746l.869.621-.994.622s-1.242-.746-1.492-.497c-.248.249-.373.933-.373.933l.996.559-.188.497-.621.187s-.932-.311-1.242-.187-.311.932-.311.932.434.497.682.497c.25 0 .934.062.498.435s-.621.373-.621.373-1.555-.373-1.803.311.684.808.684.808.932-.062.871.249-.311.621-.311.621l-.996.125s-.869.124-.932.684c-.062.559.684.622.684.622s1.057-.187.871.435c-.188.622-1.182.684-1.182.684s-.809 0-.809.497a.93.93 0 0 0 .373.745s1.43-.124 1.305.436c-.123.56-.684.497-.684.497s-8.326-3.356-8.326-11.994c-.125-1.492-.062-3.17-.062-3.17s.186-.746.621-.124c.436.621.498.684.871.684.371 0 .248-.933.248-.933l-.125-.745s.311-.249.621-.249c.312 0 .871 1.554 1.244 1.554s.869-.373.869-.373-.062-.498-.186-.746c-.125-.249-.373-.622-.373-.622l.932-.373s.498.622.746.87c.248.249.684.498.932.373.248-.124.125-.621.125-.621l-.621-1.057.932-.311s.994 1.056 1.305 1.056.559-.373.559-.373.062-.373-.123-.684c-.188-.311-.746-.498-.188-.932.561-.435.934 0 .934 0s.621.746.932.746.809-.56.498-.994c-.312-.436-.746-.436-.746-.436l.248-.684s.559-.186 1.057.062c.498.249 1.492.498 1.492-.062 0-.559-.436-.746-.436-.746l-.559-.249s.061-.684.371-.684c.312 0 .623-.187 1.057 0 .436.187.498.249.871.124.373-.124.248-.684-.248-.994-.498-.311-.871-.062-.809-.622s.932-.373.932-.373l1.242.062.436-.746s-.248-.436-.496-.436c-.25 0-.871-.124-.871-.559s.498-.435.932-.435c.436 0 1.307 0 1.367-.249.062-.249.062-.808.062-.808s-.869.062-1.117-.062c-.248-.122-.311-.557-.311-.557" style="fill:#fff" transform="matrix(.54783 0 0 .5481 -1.553 -17.43)"/><path d="M14.394 114.145h3.542v28.525h-3.542zm13.361 0s6.339.746 6.339 6.773c0 6.029-6.215 7.209-6.215 7.209s1.927-1.738 1.927-7.27-2.051-6.712-2.051-6.712m-3.728 17.277s1.989-.684 2.61-.684h1.615s1.803 1.803 2.237 2.734c.436.932 5.221 9.012 5.221 9.012h-5.22zm21.627-12.367s-2.734 4.039-2.237 11.248c0 7.893 3.542 12.244 3.542 12.244s-7.209.061-7.209-11.436c.124-9.632 5.904-12.056 5.904-12.056m12.056-.621s7.271 1.74 7.271 11.373-5.469 12.49-5.469 12.49 1.74-2.299 1.74-12.242c-.807-8.576-3.542-11.621-3.542-11.621" style="fill:#bec1c8" transform="matrix(.54783 0 0 .5481 -1.553 -17.43)"/><path d="M0 63.97h101.865v1.703h-4.29v2.59H4.36v-2.726H0Zm36.02-9.538c0-4.769 2.996-8.55 8.546-8.55 2.111 0 3.438.784 3.438.784s.783-.511.988-.511.204.272.204.272l.204 5.212h-.953s-.817-4.259-4.12-4.259-4.664 3.51-4.664 6.983c0 3.475 1.906 6.813 4.766 6.813s4.494-3.78 4.494-3.78.103-.24.34-.24c.24 0 .545.103.545.103l.034.34-1.225 4.872s-1.226-.136-1.77-.136c-.545 0-3.54.34-4.017.34s-6.81-.68-6.81-8.243"/><path d="M73.682 131.111c0 6.773 3.542 11.248 3.542 11.248s-7.209-1.18-7.209-10.938 6.339-12.057 6.339-12.057.373.125.125.621c-.249.499-2.797 4.353-2.797 11.126m55.714-12.461h3.293v24.114h-3.293z" style="fill:#bec1c8" transform="matrix(.54783 0 0 .5481 -1.553 -17.43)"/><path d="m50.15 47.518.068-1.227H57.4v1.26s-1.6-.033-1.702.853c-.102.885-.136 5.075-.136 5.075l4.392-4.973s.205-.238.136-.477c0-.443-.749-.544-.749-.544v-1.227h5.856v1.329s-1.737-.068-2.417.51c-.953.478-4.086 4.293-4.086 4.293s1.362 1.703 2.145 2.862c.783 1.157 2.757 4.393 3.065 4.632.306.239.442.749 1.26.988.816.238.952.136.952.136v1.26h-7.694v-1.329s1.225.136 1.225-.442c0-.58-.476-1.737-1.328-2.726-.85-.988-2.077-2.657-2.655-2.724-.034.612 0 4.7 0 4.7s.068.681.578 1.021c.512.34 1.192.24 1.192.24v1.26h-7.251v-1.226s1.53 0 1.668-.92c.136-.92.136-1.124.136-1.124V48.847s0-.817-.647-1.056-1.192-.273-1.192-.273m24.853.102v-1.294h11.915l.24 3.848h-1.124s.307-2.145-1.225-2.145h-4.291v5.348s1.192.136 1.635.136c.442 0 1.804-.17 1.872-.75.068-.578.306-1.226.306-1.226h.818v5.416h-.886s-.117-1.58-1.02-1.736c-.784-.137-1.124-.17-1.43-.17-.307 0-1.26.204-1.26.204v4.734s.17.613.885.613h3.234c.238 0 1.123-.205 1.362-.58.238-.374.851-2.077.851-2.077h.987l-.375 4.326H74.8v-1.329s1.293.103 1.735-.238.546-.477.546-.477l-.069-10.969s.102-1.055-.646-1.43c-.75-.374-1.362-.204-1.362-.204"/><path d="M145.057 118.527h3.295v24.485h-3.295z" style="fill:#bec1c8" transform="matrix(.54783 0 0 .5481 -1.553 -17.43)"/><path d="M93.183 43.6c2.35 0 3.78.58 3.78.58s.238.103.374 0a7 7 0 0 0 .443-.41h.68l.307 5.383-1.191-.103s-.545-3.883-4.018-3.883c-2.757.34-2.077 2.896-1.192 3.338 1.872 1.976 7.15 3.781 7.15 8.652 0 4.872-4.426 5.689-5.414 5.689s-3.676-.716-4.05-.75c-.375-.034-.682.512-.682.512h-.58l-.611-5.757.988-.034s.816 2.112 1.36 2.623 1.158 1.703 2.929 1.703 2.383-1.465 2.383-2.759-2.179-3.066-2.996-3.576-4.494-2.078-4.494-6.132 2.486-5.076 4.834-5.076"/><path d="M167.586 116.383s-.125 2.486 1.863 4.598c3.107 4.227 13.113 6.773 13.113 14.48-.436 5.656-3.17 6.961-3.17 6.961s.311-1.182.311-4.289c0-4.225-6.275-7.705-6.275-7.705s-7.459-4.227-7.459-9.322c0-4.227 1.617-4.723 1.617-4.723" style="fill:#bec1c8" transform="matrix(.54783 0 0 .5481 -1.553 -17.43)"/><path d="m116.625 92.021.125-.435s1.305.622 1.428.373c.125-.249.062-.932.062-.932l-.807-.498s-.871 0-.746-.683c.125-.684.684-.187.684-.187l.807.373v-1.305s-.994-.373-.994-.87.311-.497.311-.497l.996.683s.496-.124.496-.435-.062-.56-.062-.56l-.994-.932s-.123-.684.373-.684c.498 0 .871.808.871.808s.559-.249.496-.684c-.062-.435-.373-.808-.373-.808s-.559-.56-.434-.932c.123-.373.559-.311.559-.311s.373.933.746.933.807-.56.621-.933c-.188-.372-.684-1.181-.684-1.181s.062-.497.373-.497.932.994.932.994.684.249.684-.311-.186-1.181-.186-1.181-.436-.559.061-.808c.498-.249.498.249.623.497.123.249.434.932.684.622.248-.311.434-.87.434-.87s-.248-.435-.248-.87.248-.622.248-.622.498-.621.561-.249c.062.374.062.995.123 1.181.062.186.809.186.871-.125s.123-.497.123-.497-.248-.497-.061-.87c.186-.373-.062-.56.311-.56s.621.808.621.808 0 .746.311.684.684-.622.684-1.119.186-1.056.621-1.118c.436-.062.062 1.181.062 1.181s.311.56.559.435c.25-.124.561-.435.561-.435l.496-1.43h.684s-.248 1.305.062 1.367c.311.062.746-.124.746-.124s.188-.808.373-1.057.809-.311.809-.311.186 0 .123.373c-.062.373-.496.994 0 1.118.498.125.934 0 .934 0s.311-1.616.994-1.554c.684.062-.125 1.119-.125 1.119s.062.559.498.684c.434.124.994-.684.994-.684s.311-.622.684-.498c.373.125-.373 1.119-.373 1.119s.746.994.746 1.305-.686 6.401-6.465 10.316c-6.156 4.729-13.613 1.684-13.613 1.684m-8.203-17.836c-.248.311-.621.249-.621.249l-.311-.187s1.988-5.406 5.965-7.706c3.979-2.299 6.525-2.424 6.525-2.424l-.434.932.186.56s1.057.622.621 1.056c-.436.436-1.057-.248-1.057-.248s0-.746-.496-.249c-.498.497-.125 1.181-.125 1.181s.932.808.498 1.243c-.436.435-.809-.373-.809-.373s-.311-.684-.684-.311-.188.994-.188.994.871 1.367.188 1.43-.994-1.243-.994-1.243-.684.684-.684.994c0 .312.809 1.119.123 1.554-.684.436-.807-.683-.807-.683s-.373-.871-.746-.435c-.373.435-.125 1.118-.125 1.118s.25 1.181-.311 1.181c-.559 0-.684-.435-.684-.435s.062-1.305-.373-1.057c-.434.249-.496.933-.496.933s.373 1.491-.436 1.491-.436-.994-.436-.994-.123-.994-.559-.808c-.436.187-.436.746-.436.746l-.186 1.305-.871.186s.188-.808.062-1.119c-.123-.311-.311-.435-.621-.435s-.621.56-.621.56.191.683-.057.994" style="fill:#fff" transform="matrix(.54783 0 0 .5481 -1.553 -17.43)"/><path d="M64.45 17.611s.612.306.441.51-.374-.033-.374-.033l-.205-.273z"/><path d="M169.76 81.58c1.99 3.542 3.418 8.514-1.367 11.684s-9.818-.373-11.248-3.294-3.293-7.396 1.926-11.249c4.04-2.175 8.7-.683 10.689 2.859" style="fill:#bec1c8" transform="matrix(.54783 0 0 .5481 -1.553 -17.43)"/><path d="M91.072 27.795c.307.511 1.26 2.147-1.36 4.088-2.623 1.941-4.563.375-4.802-.306-.239-.682-1.022-2.692 1.737-4.19 2.757-1.5 4.12-.103 4.425.408"/><path d="M149.004 56.1s3.666 3.232 4.723 4.289 7.768 6.898 2.236 12.429c-5.529 5.531-12.428-1.803-13.111-2.548s-1.678-1.864-2.238-2.423c-.559-.559-2.113-1.927-2.113-1.927l.498-.683s.932.745 1.182.808c.248.062.869 0 .869 0s7.084-6.401 7.52-6.898.311-1.367.311-1.678-.496-.994-.496-.994z" style="fill:#bec1c8" transform="matrix(.54783 0 0 .5481 -1.553 -17.43)"/><path d="m77.08 19.859 4.12-3.815s.306-.511.68-.17 1.906 1.498 1.702 3.168c-.204 1.668-1.872 3.474-3.779 3.202s-2.723-1.567-2.723-1.567-.409-.273 0-.818"/><path d="m130.484 44.541 2.672 1.616s-1.242 13.175-1.182 13.486c.062.311.125.746.498 1.181s.559.435.559.435l-.123.435-6.588-2.921.373-.808 1.18.621s1.057.311 1.182-.684c.125-.994.186-3.542.186-3.542l-4.287-2.299-2.549 2.299s-.559.746-.186 1.181 1.367.933 1.367.933l-.25.745-5.469-2.485.498-.746s.994.933 2.299-.187c1.305-1.119 9.82-9.26 9.82-9.26" style="fill:#bec1c8" transform="matrix(.54783 0 0 .5481 -1.553 -17.43)"/><path d="m69.419 8.754-.102 2.691-1.838-.885z"/><path d="m102.766 45.722 1.43.186s.25.187.498.622 2.361 4.847 2.361 4.847.869 1.119 2.113 1.305c1.242.187 3.729.373 3.729.373s.125-.435-.498-.808c-.621-.373-1.801-1.181-2.609-3.418-.994-1.802-1.803-3.169-1.803-3.169s3.48-.559 3.791-3.169-1.449-4.223-4.412-4.848c-3.221-.676-5.221-.684-5.221-.684l-3.729-.311-.311.684 1.988.932s-1.057 11-1.18 11.311c-.125.311-1.244.684-1.617.684s-.87-.062-.87-.062l-.062.621 7.83 1.057.125-.684-1.244-.373s-.994 0-.869-1.429c.126-1.431.56-3.667.56-3.667" style="fill:#bec1c8" transform="matrix(.54783 0 0 .5481 -1.553 -17.43)"/><path d="m54.848 7.017.443-3.406s.51-.069 1.02.068c.51.136 1.771.647 1.533 1.805-.239 1.158-.682 1.806-1.838 1.737-1.158-.068-1.158-.204-1.158-.204"/><path d="M77.162 38.823c3.353-1.732 9.757-1.305 11.373 2.61s1.119 8.203-4.039 10.565-10.503-.124-11.622-3.604.435-7.582 4.288-9.571" style="fill:#bec1c8" transform="matrix(.54783 0 0 .5481 -1.553 -17.43)"/><path d="M41.706 4.02c.987-.273 2.792.136 3.575 2.282s.306 3.985-1.056 4.428-3.268.273-4.154-2.793c-.645-2.725.648-3.645 1.635-3.917"/><path d="m50.625 50.009 6.774-3.604.249.56s-.87.373-1.119.87-.435.746-.435.746l5.407 10.13 4.102-2.299s.995-.684 1.057-1.181.435-2.673.435-2.673l.497.125.622 3.667-10.875 6.153-.311-.808s1.615-.684 1.181-1.864c-.435-1.181-4.785-8.825-4.785-8.825s-.311-.808-.933-.808c-.621 0-1.243.373-1.243.373zm-15.412 12.43c3.542-4.102 7.831-4.786 11.124-2.237s4.351 7.146 1.056 11.186c-3.293 4.04-7.457 4.599-11.249 2.299-2.857-2.113-4.101-6.587-.931-11.248" style="fill:#bec1c8" transform="matrix(.54783 0 0 .5481 -1.553 -17.43)"/><path d="M18.215 17.134c.666-1.043 2.315-1.499 4.187-.307s2.792 3.304 1.498 4.633c-1.293 1.328-3.064 1.055-4.494-.103s-2.212-2.622-1.191-4.223"/><path d="M24.461 93.512c-3.562-1.25-5.22-6.277-3.231-10.876 1.74-3.231 2.486-3.169 2.983-3.729.062-.435 0-.684.124-.994.124-.311 3.667 1.492 3.667 1.492l-.311.435s-.311.062-.87.062c-.56 0-2.61-.435-4.475 3.045s1.492 6.463 3.294 7.333 6.549 2.132 8.576-2.548c1.154-2.673-.125-4.475-.125-4.475l-.745-1.056.435-.808 2.858 2.672s-.621.994-.746 1.491c-.124.498-.808 3.17-1.119 3.729-.309.561-3.478 6.713-10.315 4.227M99.316 118.527h3.295v24.299h-3.295zm7.055 12.832 2.361-2.486s2.299 2.113 4.537 5.594c2.236 3.48 5.221 8.203 5.221 8.203h-4.848s.186-1.988-2.113-4.785c-2.05-3.108-5.158-6.526-5.158-6.526" style="fill:#bec1c8" transform="matrix(.54783 0 0 .5481 -1.553 -17.43)"/></g></svg>