<svg xmlns="http://www.w3.org/2000/svg" xml:space="preserve" width="147.7" height="229.39999" viewBox="0 0 147.7 229.4"><path fill="#fff" d="M147.7 11.3c0-6.2-5-11.2-11.2-11.2-6.2 0-11.2 5-11.2 11.2 0 4 2.2 7.6 5.4 9.5v3.3c0 8.3-6.7 15-15 15-8.2 0-14.9-6.7-14.9-15v-3.3c3.2-2 5.4-5.5 5.4-9.5 0-6.2-5-11.2-11.2-11.2-6.2 0-11.2 5-11.2 11.2 0 4 2.1 7.5 5.2 9.4v3.4c0 8.3-6.7 15-15 15-8.2 0-14.9-6.8-14.9-15.1v-3.2c3.3-2 5.5-5.5 5.5-9.6C64.6 5 59.6 0 53.4 0c-6.2 0-11.2 5-11.2 11.2 0 3.9 2.1 7.4 5.1 9.4h-.1v3.5c0 8.3-6.7 15-15 15-8.2 0-15-6.8-15-15.1v-3.4c3.1-2 5.2-5.5 5.2-9.4C22.4 5 17.4 0 11.2 0 5 0 0 5 0 11.2c0 3.9 2 7.3 5 9.3v43.1h.1v125.6l68.7 40.2 68.7-40.2V63.8h.1v-43c3-2 5.1-5.5 5.1-9.5z"/><path fill="#004687" d="M8.4 63.8v123.5l65.3 38.2 65.2-38.2V63.8Z"/><path fill="#c09a5b" d="M136.5 19c4.3 0 7.7-3.5 7.7-7.7s-3.5-7.7-7.7-7.7c-4.3 0-7.7 3.5-7.7 7.7s3.4 7.7 7.7 7.7zm-.8 5.1h-1.6c0 10.2-8.3 18.5-18.5 18.5s-18.4-8.3-18.4-18.5h-4.9c0 10.2-8.3 18.5-18.5 18.5s-18.4-8.3-18.4-18.5h-4.9c0 10.2-8.3 18.5-18.5 18.5s-18.4-8.3-18.4-18.5L8.3 24v36.3h130.6V24.1H134M11.1 19c4.3 0 7.7-3.5 7.7-7.7s-3.5-7.7-7.7-7.7c-4.3 0-7.7 3.5-7.7 7.7S6.8 19 11.1 19zm42.1 0c4.3 0 7.7-3.5 7.7-7.7s-3.5-7.7-7.7-7.7c-4.3 0-7.7 3.5-7.7 7.7s3.4 7.7 7.7 7.7zm41.7 0c4.3 0 7.7-3.5 7.7-7.7s-3.5-7.7-7.7-7.7c-4.3 0-7.8 3.5-7.8 7.7s3.5 7.7 7.8 7.7z"/><path fill="#fff" d="M127.7 163.6c0-.1-.1-.1-.1-.2-4.5-7.6-12.4 1.3-5.5 4.6 0 0 .1 0 .1.1.5.3.8.6.8 1.3 0 .5-.1 1-.4 1.9-3.5 8.9-16.4 12.9-26 4.8-6.4-5.4-11.2-16.1-10.9-34.4.2-12.4 3.2-30.5 18.8-30 6.1.2 10.1 2.8 12.8 6.2 4.1 5.2 5.1 12.1 5.3 15h3.8v-27.8H122c-.8 3.2-1.3 6.1-7.2 4.5-5.8-1.6-8.4-1.4-10.4-1.5-18-.8-30.3 19.5-28.4 36.2 0 .3 0 .6.1 1-2.8-2-6.5-12.3-13.2-19.9-3-3.4-6.6-6.2-11.1-7.5-1.2-.4-2.5-.6-3.9-.7 0 0 11.2-16.9 16.9-23.9 4.4-5.5 7.7-5.5 10.4-5.5h1.7v-3.7H52.3v3.7c.9 0 1.8 0 2.6.1 2.1.2 3.7.7 3.6 2.7-.1.7-.3 1.5-.8 2.5-2.1 4.1-11.6 17.8-16 24-.2.3-.5.7-.7.9l-1.9 1.1v-22c0-6.5 4.1-9 8-9.3v-3.7H19.4v3.7h1.4c.4 0 .8 0 1.2.1 2.5.2 5 1.4 6.5 3.8.8 1.4 1.4 3.1 1.4 5.4v49.2c0 7.1-4.8 9.3-9 9.3h-1.4v3.7h30.2v-3.7h-1.4c-1.7 0-3.5-.4-5-1.3-2.3-1.3-4-3.8-4-8l-.1-12.8.1-7.2c2.6-2.5 9.3-7 17.6 2.5.2.3.4.5.7.8 7.9 9.7 14.6 33.6 28.7 46.5 5.6 5.1 12.3 8.5 20.8 8.5 19-.3 22.7-17.4 20.6-21z"/></svg>