<svg xmlns="http://www.w3.org/2000/svg" width="168.58104" height="245.67352" viewBox="0 0 168.58104 245.67353"><defs><clipPath id="a" clipPathUnits="userSpaceOnUse"><path d="M.002 0v245.674h191.451v-19.592c-.58.12-1.158.245-1.742.344-.11.018-.223-.015-.334-.01-.649.027-1.298.06-1.945.105-.964.068-1.925.16-2.889.233-1.16.087-2.553.944-3.484.246-.69-.516-1.291-1.12-1.852-1.77-.33.097-.656.207-.988.297-.884.24-1.77.48-2.658.701-.703.176-1.41.333-2.116.492-.574.13-1.16.205-1.724.372-.344.101-.657.286-.985.43-.543.2-1.083.42-1.632.605-.658.22-2.305.609-2.82.707-.026.005-.03-.044-.036-.069l-.232-1.095c-.027.479-.063.958-.077 1.437-1.945.102-2.969.224-3.478-.2-.455-.013-.909-.04-1.363-.042-1.56-.01-3.12.013-4.68.057-5.9.165-3.92-.07-8.418.835-7.524.039-10.1 2.064-6.682-11.15.185-.714.884-.993 1.7-1.16.999-.96 2.363-1.82 4.146-2.473.08-.267.168-.533.272-.797-1.749-2.96.267-5.152 1.761-7.072.488-1.364 1.434-2.386 3.137-2.441.045-.101.085-.184.13-.287.158-.357.733-.122 1.155-.094.279-.259.533-.55.842-.77 2.373-1.686 1.926-1.422 3.922-2.086.347-.059.694-.124 1.04-.187 2.18-.994 4.572-1.51 6.829-2.274.82-.104 1.633-.252 2.457-.314.448-.034.899.016 1.348.025 1.422.028 2.845.06 4.267.084.29-.225.573-.459.873-.671.306-.217.748.042 1.121.068.64.044 1.42.112 2.057.31 2.482-.755 5.06-1.122 7.623-1.501.413.476.882.923 1.363 1.363.268.067.592.363.858.474.05.022.136.065.19.088.44.008.882.005 1.323.016l1.721.078V0Zm152.332 204.664-.066.147a3.11 3.11 0 0 1 .388-.141c-.109-.004-.219-.01-.322-.006zm-.066.147c-.079.033-.16.062-.23.109-.919.603-1.772 1.3-2.657 1.95l-.184.235c-.476 1.333-.513 2.99-.367 4.416.104-.162.215-.305.322-.462.694-1.294 1.74-3.173 3.116-6.248zm29.689-6.67c-.339.004-.72.29-1.105.718.073 0 .147 0 .22-.002.084-.016.168-.036.252-.052.34-.066.685-.09 1.031-.116.024-.035.041-.075.065-.11.022-.034.079-.077.115-.114-.172-.226-.367-.327-.578-.324zm-27.453 6.93c-.007.001-.03 0-.022.003l.096.026-.074-.03z" style="fill:red;fill-opacity:1;fill-rule:nonzero;stroke:none"/></clipPath></defs><path fill="#FFF" d="M157.836 164.452V66.587c.583-8.34 2.687-11.033 8.74-16.695-13.52-5.083-29.043-20.885-37.38-37.602C87.402 33.767 40.86 33.767 5.675 2.748 2.167-.328-1.8-1.902.884 3.95 10.836 25.54 31.48 38.97 54.67 44.933c-13.347 11.564-21.213 18.4-22.97 33.05-11.404.84-23.65 9.203-27.518 16.947-4.42 8.84 2.124 9.02 6.554 5.973 5.662-3.866 13.73-5.36 20.585-5.07v11.084c-11.424.85-22.668 9.21-26.537 16.956-4.42 8.84 2.126 9.033 6.555 5.963 5.66-3.86 13.128-5.963 19.983-5.66v33.41c0 13.14-6.55 19.704-10.422 23.293-3.9 3.566-1.744 7.302 3.87 5.058 11.803-4.7 24.072-15.913 26.855-32.953 4.493.592 9.903.662 13.712.032v4.57c0 13.138-6.554 19.703-10.444 23.292a.572.572 0 0 0-.147.177c-12.54 1.092-23.784 5.32-32.722 12.267C1.638 209.21-1.51 239.044 1.638 245.67c.198.42 11.484-36.89 44.956-40.858 19.384-2.284 43.196 3.534 63.503 21.114 12.525-20.885 33.723-32.82 58.486-37.04-8.358-9.53-10.466-13.7-10.746-24.434zm-26.87-109.8v29.324c-13.378 4.028-32.698 3.9-44.747-.43v-3.82c0-10.36.884-23.53 9.42-31.82 8.16-.9 16.078-2.583 23.393-5.17l11.934 11.917zM86.22 93.7c12.047 4.3 31.368 4.46 44.747.42v28.503c-13.38-4.038-32.7-3.898-44.748.43V93.7Zm-.802-45.15c-6.273 5.484-11.665 10.584-15.27 16.486-4.77-1.552-9.16-2.505-13.43-2.746 2.773-5.532 6.713-10.712 11.466-14.7 5.72.73 11.503 1.042 17.234.96zm-33.2 95.98V79.727c0-2.853.45-5.873 1.27-8.928 4.723-.532 9.42-.042 13.45 1.374-.96 3.047-1.543 6.302-1.52 9.98l-.082 61.997c-3.347.722-8.51.82-13.12.38zm51.303 46.785C90.56 184.928 77.803 181.6 65.88 180.9c10.702-7.187 20.34-19.876 20.34-36.723v-10.973c12.05-4.34 31.37-4.49 44.75-.442v42.425c-8.348 2.405-18.49 8.378-27.447 16.126z" clip-path="url(#a)" style="fill:#0c2c56;fill-opacity:1" transform="translate(-.002)"/></svg>