<svg xmlns="http://www.w3.org/2000/svg" width="180.687" height="199.99879" viewBox="0 0 180.687 199.99879"><path fill="#fff" d="m109.156 58.44-1.193-2.778-1.496 2.508-3.038.24 1.898 2.202-.76 2.951 2.755-1.225 2.561 1.703-.194-3.029 2.331-1.799zm-12.118-.301-1.172-1.617-.589 1.834-1.928.605 1.548 1.14-.064 2.009 1.596-1.184 1.899.717-.565-1.93L99 58.224Zm34.32 17.47-1.236-1.769-.664 1.942-2.073.586 1.727 1.249-.121 2.17 1.781-1.195 1.928.781-.55-2.029 1.271-1.716zM35.24 147.603c.079-.066.163-.13.242-.197-.012-.022-.044-.075-.047-.086-.096-.034-.441-.172-.845-.325.209.207.434.402.65.608zm89.293-85.72-3.115 1.43-3.102-1.8.365 3.395-2.71 2.335 3.473.662 1.344 3.353 1.836-3.051 3.448-.182-2.246-2.661zm-20.454 24.38c-3.678-1.735-7.619-1.369-8.8.38-.293.435-.651.997-.725 1.225-.076.25-.163.501-.24.75.075-.23.163-.488.238-.718.067-.228.424-.79.718-1.225 1.182-1.757 5.122-2.116 8.8-.38 3.689 1.736 6.314 5.825 5.285 8.506l.009-.01c1.042-2.68-1.587-6.782-5.285-8.528zm-62.77 36.262c2.635 2.919 10.588-6.315 8.962-8.929-2.15-2.703-11.309 6.316-8.962 8.929zM33.68 105.35c-5.208 5.166-13.715 6.194-17.872 1.693-5.142-5.547 1.246-15.202 6.512-24.384 5.392-9.397 9.472-17.685 3.125-18.933-4.092-.803-8.714 4.47-10.884 8.464-2.114 3.884-4.697 9.612-4.07 18.554 0 14.062 3.833 27.213 10.406 38.617zm2.45 43.087c-.022-.041-.043-.073-.064-.107-.01.01-.02.012-.023.021.025.032.056.055.087.086zm106.988-37.946c-1.41-1.973-6.899 2.52-7.203 5.252 4.385-.173 8.333-3.677 7.203-5.252zm-27.342 6.232c3.852-.5 7.715-3.712 7.065-5.179-.905-2.061-6.231 1.651-7.065 5.179zm27.985-85.722c-.402.446-.836.956-1.282 1.488 1.129.391 3.356 1.169 4.473 1.551a78.357 78.357 0 0 0-3.191-3.039zm12.356 82.53c-.91.87-1.918 1.651-2.863 2.302-.022 2.941-3.058 3.059-3.213 2.906-.522.567-.12 3.038 2.493 3.168 4.343.218 4.277-5.499 3.702-7.617-.072-.249-.094-.508-.119-.759zm-52.819-.944c-.553-1.236-3.832-.771-5.828.022l-2.03 3.155-.812 1.292c4.46.359 9.624-2.352 8.67-4.469z"/><path fill="#fff" d="M90.342 0C40.527 0 0 40.527 0 90.342c0 34.626 19.281 65.624 50.314 80.99l-.433.833c-1.435 2.814-4.439 8.671-5.352 9.099l-1.701.528c-.836.202-1.695.411-2.463.997-.816.631-2.073 3.016-2.073 4.248l-.064.419c-.067.369-.164.883-.164 1.512 0 2.002.988 5.165 7.009 8.492l1.216.644c8.184 3.851 11.047.826 12.122-.312l.304-.295c.998-.718 2.201-3.14 2.233-4.168l.001-.122c0-.911-.325-1.694-.639-2.455l-.563-1.691a.909.909 0 0 1-.003-.08c0-1.142 3.148-7.197 4.679-10.142 0 0 .672-1.295.879-1.7a90.385 90.385 0 0 0 25.043 3.543c49.815 0 90.342-40.527 90.342-90.342C180.684 40.527 140.157 0 90.342 0Zm.01 176.347a85.891 85.891 0 0 1-27.236-4.427c-2.962 5.806-5.607 11.182-7.127 14.704-1.066 2.466-1.323 3.589-.26 4.832.206.24.532.841.587 1.059.226.846-.74 1.95-1.249 2.279-1.052.687-3.32.861-7.389-1.001-4.07-1.865-5.09-4.129-5.155-5.388-.032-.606.292-2.033 1.107-2.351.207-.08.889-.174 1.204-.144 1.629.129 2.527-.933 3.895-3.25 1.943-3.29 4.664-8.102 7.543-13.334-30.535-13.175-51.924-43.512-52.009-78.872 0 .053-.011.097-.011.149l.009-.347.002.197c.162-7.976 4.729-14.445 7.152-18.666 2.984-5.184 12.402-16.101 21.071-8.788 10.86 9.159-18.641 37.328-11.11 42.534 3.797 2.617 10.436-.898 14.526-4.728l12.676-23.591 7.182-.204-30.97 58.472a82.186 82.186 0 0 0 8.105 9.787c.024.002.047-.011.078-.008l2.994 1.15a.53.53 0 0 1 .251.215l.075.111c.771-.708 1.487-1.477 2.226-2.224-.009-.003-.032-.034-.033-.035a3156.04 3156.04 0 0 1-4.578-1.343.512.512 0 0 1-.349-.641.513.513 0 0 1 .641-.349l4.72 1.379c.096.03.175.085.24.152l.096.108a75.362 75.362 0 0 0 1.855-1.977 1.385 1.385 0 0 0-.087-.095l-5.165-1.574a.51.51 0 0 1-.347-.642.52.52 0 0 1 .649-.346l5.295 1.607c.087.03.164.076.228.149l.099.101c.956-1.098 1.909-2.205 2.799-3.366-.034-.053-.097-.13-.109-.152-.432-.043-5.295-.552-5.295-.552a.516.516 0 0 1-.466-.512l.001-.054a.52.52 0 0 1 .573-.465l5.524.576a.53.53 0 0 1 .369.216l.033.053c.759-1.028 1.517-2.05 2.223-3.114-1.399-.163-5.152-.607-5.152-.607a.521.521 0 0 1-.455-.575.524.524 0 0 1 .575-.455l5.662.663c.607-.945 1.162-1.931 1.726-2.908l-4.383-.411a.512.512 0 0 1-.467-.564.52.52 0 0 1 .564-.467l4.872.455c.065-.118.14-.226.197-.337.019-.02.009-.044.029-.064.002-.009.013-.001.014-.01.065-.12.141-.228.206-.347a.518.518 0 0 1 .704-.207c.25.131.347.447.208.696-.022.052-.054.095-.077.139l4.048 3.725a.518.518 0 0 1 .031.736.525.525 0 0 1-.736.031l-3.885-3.58a69.254 69.254 0 0 1-2.202 3.702l3.623 4.588a.513.513 0 0 1-.086.727.519.519 0 0 1-.727-.086s-2.444-3.102-3.399-4.308c-.789 1.192-1.624 2.333-2.472 3.471l3.016 4.242a.518.518 0 0 1-.846.597s-1.758-2.474-2.809-3.948c-.859 1.117-1.791 2.171-2.714 3.234l3.095 3.277a.517.517 0 1 1-.751.715s-1.898-2.008-3.017-3.2a67.162 67.162 0 0 1-1.887 2.004l2.678 3.029a.514.514 0 0 1-.051.728.51.51 0 0 1-.728-.044l-2.636-2.984c-.762.77-1.5 1.563-2.302 2.3-.02.02-.031.031-.052.043l1.671 2.671c.063.097.063.205.053.312 6.251 5.352 13.281 9.767 20.824 13.02 4.491-8.244 8.898-16.567 11.12-21.08 1.183-2.409 4.96-9.808 9.29-18.945-2.15 1.649-6.578 3.808-7.715 2.049-2.356-3.667 4.851-9.483 3.492-11.11-.824-.977-4.209 1.572-6.975 4.753 0 0-1.532 2.942-3.626 6.652l-4.925.044c-.296-.229 6.26-9.831 4.99-10.949-1.812-1.583-12.424 15.572-17.415 11.935-.422-.313-1.542-1.584-.044-4.794-2.234 2.95-7.66 5.337-9.948 3.353-4.896-4.245 8.409-18.5 13.778-13.563.422.389.567.767.542 1.062l.718-1.139 4.852-.044c-2.204 5.936-6.773 11.307-5.601 12.153 2.04 1.473 13.78-16.517 17.773-12.599 1.238 1.217 1.152 2.812.827 3.68 2.832-2.951 8.809-5.794 10.741-3.788 2.353 2.44-4.798 9.634-3.224 10.635.642.412 2.235-.554 3.083-1.13 3.384-7.236 6.955-15.278 9.843-22.754-.144-.065-6.304-2.766-12.132-5.036-6.793-2.655-13.812-10.014-12.088-18.652 2.029-10.177 15.008-10.382 20.835-10.827 1.659-.122 2.724.42 0 .693-3.073.313-4.72.457-7.714 1.844 7.257-.237 20.343 2.311 31.031 7.652 7.825 3.916 16.344 10.262 21.237 15.255 2.484 2.538 3.373 2.981 1.497-.576-.358-.674-.761-1.323-1.608-2.411-1.193-1.55-2.907-4.067.686-.693 3.688 3.451 8.376 12.261 6.075 23.08 0 0-.042.586-.109.88-.064.085-2.225.965-3.025 1.529 1.116-2.335 2.027-5.286 2.015-8.563-.347-5.368-1.269-7.063-6.521-12.131-4.588-4.426-13.911-11.206-20.885-14.701-16.081-8.063-40.29-12.305-41.906.575-.968 7.767 6.446 13.475 10.598 15.083 3.182 1.246 9.204 3.223 12.662 5.067l-.542 1.66a188.303 188.303 0 0 0 2.105-5.707c.219-.642.403-1.248.609-1.876-.196.584-.393 1.16-.608 1.769-5.828-3.887-9.255-8.073-7.671-11.091 2.94-5.608 12.119-4.664 21.71.045 9.584 4.708 16.071 11.858 13.359 17.002-1.607 3.049-7.098 2.986-13.803.75-.011.02-.021.031-.033.051-9.603 13.349-24.197 37.525-29.675 47.084-2.442 4.272-6.772 12.261-10.983 20.343 7.717 2.527 15.853 3.875 24.144 3.808 23.177-.202 44.02-9.647 58.647-25.063l-3.203 2.193a.52.52 0 0 1-.724-.132.53.53 0 0 1 .137-.725l3.388-2.314a26.71 26.71 0 0 1-2.158-1.636l-4.797 3.2a.513.513 0 0 1-.717-.142.51.51 0 0 1 .142-.716s3.84-2.561 4.569-3.036a45.918 45.918 0 0 1-1.205-1.088.511.511 0 0 1-.389-.096c-.141-.099-.186-.26-.185-.424-.043.085-.077.172-.164.219l-5.067 2.994a.512.512 0 0 1-.706-.176.523.523 0 0 1 .176-.714l5.067-2.994.022-.001c-.49-.489-.989-.997-1.487-1.517l-5.883 2.668a.524.524 0 0 1-.691-.259.522.522 0 0 1 .259-.684s4.362-1.975 5.595-2.496a98.585 98.585 0 0 1-2.015-2.212.473.473 0 0 1-.228.151l-5.524 1.614a.517.517 0 0 1-.641-.356.514.514 0 0 1 .348-.64l5.35-1.562a128.351 128.351 0 0 1-2.095-2.485l-6.773.228a.52.52 0 0 1-.041-1.04l6-.197a100.569 100.569 0 0 1-2.919-3.831l-5.044.913a.514.514 0 0 1-.608-.51.52.52 0 0 1 .432-.51s3.451-.629 4.569-.827a32.72 32.72 0 0 1-1.484-2.322.522.522 0 0 1 .91-.507c.326.596.823 1.366 1.422 2.245.518-.511 1.213-1.206 1.213-1.206a.509.509 0 0 1 .729 0 .508.508 0 0 1 0 .728l-1.336 1.344a90.434 90.434 0 0 0 2.615 3.462l3.037-3.441a.508.508 0 0 1 .728-.044.51.51 0 0 1 .044.728l-3.156 3.58c.77.955 1.584 1.932 2.431 2.91 1.04-1.228 2.938-3.483 2.938-3.483a.523.523 0 0 1 .728-.064.526.526 0 0 1 .064.736l-3.039 3.612a90.18 90.18 0 0 0 2.106 2.314c.9-1.11 2.897-3.594 2.897-3.594a.512.512 0 0 1 .728-.076.516.516 0 0 1 .076.727s-2.028 2.517-3.006 3.69a61.045 61.045 0 0 0 1.953 1.955l3.223-4.43a.521.521 0 0 1 .726-.118c.229.164.282.49.111.726l-3.302 4.547c.394.378.793.727 1.184 1.065l2.682-3.256a.524.524 0 0 1 .735-.067c.218.184.25.51.067.728 0 0-1.735 2.105-2.701 3.266a24.934 24.934 0 0 0 2.377 1.769l1.53-3.061a.523.523 0 0 1 .703-.236.521.521 0 0 1 .229.695l-1.194 2.386a77.178 77.178 0 0 0 15.291-26.085s6.39-5.656 8.809-9.462c0 0-.369 1.693-.716 3.08-9.136 37.723-43.132 65.742-83.67 65.742zm-34.224-51.899a.515.515 0 0 1 .729-.034l2.419 2.191a.515.515 0 0 1 .034.728.51.51 0 0 1-.729.034l-2.419-2.182a.519.519 0 0 1-.034-.737zm3.907-4.417a.512.512 0 0 1 .716-.153l1.141.729a.523.523 0 0 1 .161.716.524.524 0 0 1-.716.161l-1.149-.737a.513.513 0 0 1-.153-.716zm-2.16-2.193a.516.516 0 0 1 .068.727.523.523 0 0 1-.727.076l-1.269-1.04a.518.518 0 0 1-.068-.728.515.515 0 0 1 .727-.075zM90.94 56.835c5.24-3.625 17.912-6.747 29.243-.63 8.354 4.495 14.389 11.915 16.122 22.734l-6.335 3.624c-5.988-6.792-11.395-10.819-15.54-12.891-4.145-2.072-13.814-6.217-23.025-6.682Zm27.331 53.255c-.488.175-1.705.826-2.648 1.422-1.899-2.16-8.581-6.791-12.152-8.029-.054-.02.902-1.279.902-1.279 3.687 1.497 12.456 6.586 13.842 7.854zm7.715 12.685a.51.51 0 0 1 .466-.565l2.301-.236a.524.524 0 0 1 .565.466.51.51 0 0 1-.466.565l-2.301.229a.514.514 0 0 1-.565-.459zm19.641 5.392v-.812h3.658v.812h-1.367v3.723h-.924v-3.723zm8.91.12-1.306 3.603h-.898l-1.27-3.603h-.021v3.603h-.924v-4.535h1.605l1.053 2.962h.022l1.097-2.962h1.594v4.535h-.931v-3.603zm6.887-8.919c-.208.728-.51 1.445-1.008 2.118-1.908 2.581-5.165 2.928-7.876 2.472-1.728-.301-3.668-1.451-4.471-2.745a6.735 6.735 0 0 1-.695-1.563c-6.837 4.111-15.322 5.231-17.395 1.203a4.626 4.626 0 0 1-.489-1.658c-7.595 5.456-17.598 7.16-19.724 2.506a4.58 4.58 0 0 1-.402-1.749l-.198.826c-4.882 4.428-10.133 6.087-11.86 4.763-2.886-2.203-.259-5.067-1.724-6.304-.401-.336-1.073-.422-2.169-.338l2.027-3.136 1.943-3.123c.023-.011.056-.021.087-.032l1.617-2.508c3.047-1.562 8.017-2.398 8.853.446 1.163 3.981-4.392 7.422-8.244 8.06 2.93.534.032 3.799 3.036 4.19 1.303.173 5.046-2.486 7.117-5.231 2.748-6.443 16.277-12.109 18.167-7.27 1.637 4.168-6.11 7.901-12.49 7.964-.27.001-.175-.073-.205.001-.555 1.617.236 3.386 3.223 3.363 2.898-.03 7.161-1.214 11.263-4.709 2.376-6.381 16.283-11.761 17.556-7.268 1.118 3.938-5.784 7.302-11.632 7.757-.262.022-.174-.066-.197.001-.562 1.617.229 3.395 3.223 3.363 2.452-.022 5.103-1.021 8.409-2.854.229-3.169 3.822-4.913 5.512-3.364 1.203-.855 2.466-1.909 3.451-3.06a32.84 32.84 0 0 1 .23-1.638c.575-3.503 5.109-7.148 6.715-6 1.096.783.491 3.387-2.474 5.938-.554.542-.921.629-.118 2.287.391.802.889 2.116 1.126 3.604 5.264-3.876 8.15-10.309 8.662-25.132l-.045-.064c0-21.539-8.518-41.08-22.352-55.479-.12.206-.351.326-.587.248l-5.522-1.911c-.599.737-1.195 1.477-1.748 2.172 1.292.618 4.209 2.006 4.209 2.006a.514.514 0 0 1 .241.693.52.52 0 0 1-.686.241s-3.123-1.486-4.414-2.116c-.412.521-.782.998-1.064 1.358 9.678 6.997 16.429 17.911 17.676 30.164-.01.128-14.575 8.407-18.568 10.675a31.452 31.452 0 0 0-.669-3.211l15.993-10.331c.152-1.16-.792-5.121-1.12-5.771l-16.481 11.405a31.645 31.645 0 0 0-4.19-6.937l15.986-14.039c-2.31-3.626-4.666-6.121-7.629-8.704l-13.695 17.438a31.812 31.812 0 0 0-9.712-5.197l7.728-20.095c-3.744-1.206-7.998-1.671-12.261-1.269l-3.309 19.89c-.652-.035-1.303-.099-1.966-.099-2.168 0-4.277.226-6.325.639l.378-18.067c-1.757.63-4.034 1.725-5.704 3.049l.323 16.513a30.563 30.563 0 0 0-3.852 1.748c-.291-4.6-1.128-18.099-1.031-18.172a41.534 41.534 0 0 1 24.087-7.651c8.64 0 16.733 2.779 23.494 7.431.292-.378.652-.845 1.052-1.346l-4.088-4.088a.522.522 0 0 1 0-.729.52.52 0 0 1 .736 0s3.093 3.093 3.983 4.006c.552-.695 1.15-1.443 1.756-2.173l-3.071-4.394a.518.518 0 1 1 .847-.595s2.195 3.145 2.909 4.156a66.84 66.84 0 0 1 1.4-1.62c-14.107-12.41-32.597-19.943-52.856-19.943-22.188 0-42.262 9.019-56.769 23.591.259.207.509.423.759.639l5.869-2.17a.515.515 0 1 1 .359.967l-5.318 1.973c.858.75 1.684 1.531 2.507 2.322l5.438-2.041a.522.522 0 0 1 .671.303.513.513 0 0 1-.303.664l-4.97 1.865c.403.401.792.823 1.184 1.226l5.521-1.768a.52.52 0 0 1 .315.988l-5.044 1.622c.596.631 1.183 1.27 1.756 1.921l6.958-1.086a.519.519 0 0 1 .595.433.527.527 0 0 1-.433.596l-6.339.988c.576.684 1.161 1.368 1.714 2.072l6.882-.986a.508.508 0 0 1 .586.435.518.518 0 0 1-.436.594l-6.325.901a71.213 71.213 0 0 1 2.886 4.059l7.932-.693a.525.525 0 0 1 .563.476.513.513 0 0 1-.475.555l-7.359.64a79.251 79.251 0 0 1 2.571 4.306l7.726-.218a.514.514 0 0 1 .532.501v.012c0 .281-.226.51-.508.52 0 0-5.37.152-7.227.206a72.354 72.354 0 0 1 2.006 4.08l7.313.435c.283.02.5.26.488.552a.52.52 0 0 1-.552.48s-4.894-.293-6.771-.403c.739 1.702 1.444 3.418 2.061 5.174l7.781.643c.283.022.499.28.469.563a.507.507 0 0 1-.555.468l-7.347-.609a75.388 75.388 0 0 1 1.544 5.296l7.246 1.897a.526.526 0 0 1 .369.63.517.517 0 0 1-.638.369l-6.675-1.746a77.723 77.723 0 0 1 1.129 5.729.504.504 0 0 1 .053.356l.001.034 6.717 2.354a.527.527 0 0 1 .323.662.517.517 0 0 1-.661.316l-6.216-2.171c.336 2.431.554 4.884.652 7.367l7.203 3.051a.514.514 0 0 1 .273.674.511.511 0 0 1-.675.28l-6.769-2.874c.02.649.055 1.29.055 1.932 0 1.713-.064 3.363-.165 4.991l6.696 2.71a.515.515 0 0 1 .284.673.516.516 0 0 1-.673.284l-6.404-2.583a70.89 70.89 0 0 1-.845 6.586l6.837 2.866c.269.109.39.413.281.682a.522.522 0 0 1-.682.274s-5.231-2.193-6.611-2.777a85.215 85.215 0 0 1-.9 4.066l3.322 2.79a.518.518 0 0 1-.663.793l-3.569-2.995c-.023-.02-.022-.054-.043-.077a.43.43 0 0 1-.087-.172.387.387 0 0 1-.024-.186c0-.032-.022-.055-.012-.087.337-1.345.618-2.649.87-3.949-1.749.715-5.817 2.366-5.817 2.366a.518.518 0 0 1-.673-.283.52.52 0 0 1 .283-.674l6.434-2.616c.39-2.147.652-4.272.835-6.411-1.444.965-5.057 3.375-5.057 3.375a.53.53 0 0 1-.725-.142.532.532 0 0 1 .149-.725l5.753-3.832c.108-1.616.172-3.254.172-4.946 0-.597-.041-1.184-.053-1.782l-5.382 4.264a.517.517 0 1 1-.641-.814l5.989-4.743a77.414 77.414 0 0 0-.684-7.507l-4.621 4.62a.517.517 0 1 1-.729-.736l5.166-5.165a76.588 76.588 0 0 0-1.152-5.783l-1.56 1.552a.517.517 0 1 1-.729-.736l1.985-1.985a79.813 79.813 0 0 0-1.498-5.09l-4.817 4.818a.52.52 0 0 1-.736 0 .518.518 0 0 1 0-.737l5.187-5.179a75.212 75.212 0 0 0-2.051-5.131l-4.591 4.492a.524.524 0 0 1-.736-.01.514.514 0 0 1 .011-.728l4.863-4.762a72.42 72.42 0 0 0-1.977-4.014c-1.087 1.148-4.34 4.547-4.34 4.547a.516.516 0 0 1-.729.02.524.524 0 0 1-.02-.736l4.588-4.798a78.837 78.837 0 0 0-2.561-4.273l-4.035 4.372a.519.519 0 0 1-.761-.705l4.145-4.491c.021-.021.054-.013.075-.033a72.29 72.29 0 0 0-2.245-3.202l-3.35 5.03a.527.527 0 0 1-.717.141.514.514 0 0 1-.142-.716l3.55-5.337c-.131-.174-.259-.348-.391-.521a.468.468 0 0 1-.217-.292c-.444-.564-.901-1.107-1.358-1.66l-2.884 5.456a.519.519 0 0 1-.697.217.512.512 0 0 1-.216-.704l3.072-5.818c-.044-.053-.087-.108-.132-.161-.173-.064-.323-.176-.348-.371-.008-.01.003-.02.002-.032-.34-.391-.695-.782-1.052-1.172l-2.224 5.459a.508.508 0 0 1-.673.283.516.516 0 0 1-.283-.673l2.407-5.894a79.281 79.281 0 0 0-2.125-2.181l-2.321 5.481a.518.518 0 0 1-.955-.402l2.473-5.837a69.536 69.536 0 0 0-2.292-2.115l-1.854 5.664a.52.52 0 1 1-.987-.325l1.985-6.065c-.247-.198-.488-.413-.736-.611-8.475 8.735-14.986 19.383-18.795 31.253l-8.354 8.852C12.661 34.527 47.873 3.93 90.234 3.93c47.547 0 86.09 38.55 86.09 86.098l.054.142c.042 2.223-.293 8.616-1.489 11.1-4.176 8.603-10.763 15.798-13.465 18.098z"/><path fill="#e4002b" d="M97.47 112.609c-.031.011-.064.021-.087.032l-1.943 3.123z"/><path fill="#003087" d="M94.553 87.869c.074-.228.432-.79.725-1.225 1.181-1.749 5.123-2.115 8.8-.38 3.699 1.746 6.327 5.847 5.284 8.529l-.009.01-.001.022c-.194.489-.575 1.149-.717 1.336-.595.79-1.214 1.628-1.855 2.518 6.705 2.235 12.196 2.299 13.803-.75 2.711-5.144-3.776-12.294-13.359-17.002-9.591-4.709-18.77-5.653-21.71-.045-1.585 3.019 1.843 7.205 7.671 11.091.215-.609.412-1.185.608-1.769.174-.531.357-1.064.52-1.584.077-.25.164-.501.24-.751zm8.918 15.614c3.571 1.238 10.253 5.869 12.152 8.029.943-.596 2.159-1.247 2.648-1.422l-.055-.031c-1.386-1.268-10.155-6.357-13.842-7.854-.001 0-.957 1.258-.903 1.278z"/><path fill="#e4002b" d="m176.379 90.169-.054-.142c0-47.548-38.543-86.098-86.09-86.098-42.361 0-77.573 30.598-84.755 70.897l8.354-8.852c3.809-11.871 10.32-22.518 18.795-31.253.248.198.488.412.736.611l-1.985 6.065a.52.52 0 1 0 .987.325l1.854-5.664a69.536 69.536 0 0 1 2.292 2.115L34.04 44.01a.518.518 0 0 0 .955.402l2.321-5.481a79.281 79.281 0 0 1 2.125 2.181l-2.407 5.894a.516.516 0 0 0 .283.673.507.507 0 0 0 .673-.283l2.224-5.459c.357.39.713.78 1.052 1.172 0 .012-.01.022-.002.032.025.195.174.307.348.371l.132.161-3.072 5.818a.518.518 0 1 0 .913.487l2.884-5.456c.457.553.914 1.096 1.358 1.66a.468.468 0 0 0 .217.292c.132.174.26.348.391.521l-3.55 5.337a.514.514 0 0 0 .142.716.528.528 0 0 0 .717-.141l3.353-5.033a71.132 71.132 0 0 1 2.245 3.202c-.022.02-.054.012-.075.033L43.119 55.6a.518.518 0 0 0 .032.736.516.516 0 0 0 .729-.031l4.035-4.372a79.096 79.096 0 0 1 2.561 4.273l-4.588 4.798a.524.524 0 0 0 .02.736.516.516 0 0 0 .729-.02s3.253-3.399 4.34-4.547a73.857 73.857 0 0 1 1.977 4.014l-4.863 4.762a.515.515 0 0 0-.011.728.524.524 0 0 0 .736.01s3.496-3.419 4.591-4.492a74.904 74.904 0 0 1 2.051 5.131l-5.187 5.179a.518.518 0 0 0 0 .737.52.52 0 0 0 .736 0l4.817-4.818a80.005 80.005 0 0 1 1.498 5.09l-1.985 1.985a.517.517 0 1 0 .729.736l1.56-1.552a77.288 77.288 0 0 1 1.152 5.783l-5.166 5.165a.517.517 0 1 0 .729.736l4.621-4.62c.348 2.474.577 4.979.684 7.507L53.655 94a.518.518 0 1 0 .641.813l5.382-4.264c.012.597.053 1.184.053 1.782 0 1.692-.064 3.33-.172 4.946l-5.753 3.832a.532.532 0 0 0-.149.725.53.53 0 0 0 .725.142s3.613-2.409 5.057-3.375a68.59 68.59 0 0 1-.835 6.411l-6.434 2.616a.519.519 0 0 0-.283.674.518.518 0 0 0 .673.283s4.068-1.651 5.817-2.366a74.335 74.335 0 0 1-.87 3.949c-.01.032.012.056.012.087a.387.387 0 0 0 .024.186.43.43 0 0 0 .087.172c.021.023.02.056.043.077l3.569 2.995a.518.518 0 0 0 .663-.793l-3.322-2.79a86.46 86.46 0 0 0 .9-4.066c1.379.584 6.611 2.777 6.611 2.777a.522.522 0 0 0 .682-.274.52.52 0 0 0-.281-.682l-6.837-2.866a70.89 70.89 0 0 0 .845-6.586l6.404 2.583a.515.515 0 0 0 .673-.284.514.514 0 0 0-.284-.673l-6.696-2.71c.101-1.628.165-3.278.165-4.991 0-.642-.034-1.282-.055-1.932l6.769 2.874a.513.513 0 0 0 .675-.28.513.513 0 0 0-.273-.674l-7.203-3.051a75.493 75.493 0 0 0-.652-7.367l6.216 2.171a.515.515 0 0 0 .661-.316.527.527 0 0 0-.323-.662l-6.717-2.354-.001-.034a.493.493 0 0 0-.053-.356 77.723 77.723 0 0 0-1.129-5.729l6.675 1.746a.518.518 0 0 0 .638-.369.526.526 0 0 0-.369-.63l-7.246-1.897a75.076 75.076 0 0 0-1.544-5.296l7.347.609a.508.508 0 0 0 .555-.468.516.516 0 0 0-.469-.563l-7.781-.643c-.617-1.756-1.321-3.472-2.061-5.174 1.877.11 6.771.403 6.771.403a.52.52 0 0 0 .552-.48.525.525 0 0 0-.488-.552l-7.313-.435a72.354 72.354 0 0 0-2.006-4.08c1.856-.054 7.227-.206 7.227-.206a.524.524 0 0 0 .508-.52v-.012a.514.514 0 0 0-.532-.501l-7.726.218a79.9 79.9 0 0 0-2.571-4.306l7.359-.64a.514.514 0 0 0 .475-.555.526.526 0 0 0-.563-.476l-7.932.693a71.57 71.57 0 0 0-2.886-4.059l6.325-.901a.52.52 0 0 0 .436-.594.509.509 0 0 0-.586-.435l-6.882.986c-.554-.704-1.138-1.388-1.714-2.072l6.339-.988a.527.527 0 0 0 .433-.596.52.52 0 0 0-.595-.433l-6.958 1.086a75.948 75.948 0 0 0-1.756-1.921l5.044-1.616a.52.52 0 0 0-.315-.988l-5.521 1.768c-.392-.404-.781-.825-1.184-1.226l4.97-1.865a.513.513 0 0 0 .303-.664.52.52 0 0 0-.671-.303l-5.438 2.041a72.272 72.272 0 0 0-2.507-2.322l5.319-1.973a.515.515 0 1 0-.359-.967l-5.869 2.17c-.25-.216-.501-.432-.759-.639 14.507-14.572 34.581-23.591 56.769-23.591 20.26 0 38.75 7.533 52.856 19.943a61.05 61.05 0 0 0-1.4 1.62c-.714-1.012-2.909-4.156-2.909-4.156a.518.518 0 1 0-.847.595l3.071 4.394c-.606.73-1.204 1.477-1.756 2.173-.89-.913-3.983-4.006-3.983-4.006a.52.52 0 0 0-.736 0 .522.522 0 0 0 0 .729l4.088 4.088c-.399.501-.76.968-1.052 1.346-6.76-4.652-14.854-7.431-23.494-7.431a41.534 41.534 0 0 0-24.087 7.651c-.097.074.739 13.572 1.031 18.172a30.563 30.563 0 0 1 3.852-1.748l-.323-16.513c1.671-1.324 3.948-2.419 5.704-3.049l-.378 18.067a31.934 31.934 0 0 1 6.325-.639c.663 0 1.314.064 1.966.099l3.309-19.89c4.263-.402 8.518.063 12.261 1.269l-7.728 20.095a31.812 31.812 0 0 1 9.712 5.197l13.695-17.438c2.963 2.583 5.319 5.078 7.629 8.704l-15.986 14.039a31.645 31.645 0 0 1 4.19 6.937l16.481-11.405c.328.65 1.272 4.61 1.12 5.771l-15.993 10.327a31.24 31.24 0 0 1 .669 3.211c3.993-2.267 18.558-10.547 18.568-10.675-1.247-12.253-7.998-23.167-17.676-30.164.282-.36.652-.837 1.064-1.358 1.291.63 4.414 2.116 4.414 2.116a.52.52 0 0 0 .739-.467.515.515 0 0 0-.294-.467s-2.917-1.388-4.209-2.006c.553-.695 1.149-1.435 1.748-2.172l5.522 1.911c.236.077.467-.042.587-.248 13.833 14.399 22.352 33.94 22.352 55.479l.045.064c-.512 14.823-3.398 21.256-8.662 25.132a13.387 13.387 0 0 0-1.126-3.604c-.803-1.658-.436-1.746.118-2.287 2.965-2.551 3.57-5.155 2.474-5.938-1.606-1.147-6.14 2.498-6.715 6a34.413 34.413 0 0 0-.23 1.638c-.985 1.151-2.248 2.204-3.451 3.06-1.69-1.549-5.283.196-5.512 3.364-3.307 1.833-5.958 2.833-8.409 2.854-2.994.032-3.785-1.746-3.223-3.363.022-.066-.065.021.197-.001 5.848-.455 12.75-3.819 11.632-7.757-1.273-4.493-15.18.887-17.556 7.268-4.102 3.495-8.365 4.678-11.263 4.709-2.987.023-3.778-1.746-3.223-3.363.03-.074-.066 0 .205-.001 6.381-.064 14.128-3.796 12.49-7.964-1.89-4.839-15.419.827-18.167 7.27-2.071 2.746-5.813 5.404-7.117 5.231-3.004-.391-.106-3.656-3.036-4.19 3.851-.638 9.406-4.079 8.244-8.06-.836-2.844-5.805-2.008-8.853-.446l-1.617 2.508c1.996-.794 5.275-1.258 5.828-.022.954 2.117-4.21 4.828-8.67 4.47l.812-1.292-2.027 3.136c1.096-.084 1.768.003 2.169.338 1.465 1.236-1.162 4.101 1.724 6.304 1.726 1.323 6.978-.335 11.86-4.763l.198-.826a4.58 4.58 0 0 0 .402 1.749c2.127 4.654 12.129 2.95 19.724-2.506.056.553.207 1.106.489 1.658 2.072 4.028 10.558 2.908 17.395-1.203.152.501.365 1.021.695 1.563.803 1.293 2.743 2.444 4.471 2.745 2.711.457 5.969.109 7.876-2.472.499-.673.8-1.39 1.008-2.118 2.702-2.3 9.289-9.495 13.465-18.099 1.195-2.485 1.531-8.879 1.489-11.102zm-33.9-57.68c.446-.532.88-1.042 1.282-1.488a79.05 79.05 0 0 1 3.191 3.039c-1.117-.382-3.345-1.161-4.473-1.551zm.639 78.002c1.129 1.575-2.818 5.079-7.203 5.252.305-2.732 5.794-7.225 7.203-5.252zm-20.277 1.053c.65 1.467-3.213 4.679-7.065 5.179.834-3.528 6.16-7.24 7.065-5.179zm29.694 10.362c-2.613-.13-3.015-2.601-2.493-3.168.154.153 3.191.035 3.213-2.906a23.381 23.381 0 0 0 2.863-2.302c.025.251.047.51.12.759.574 2.118.64 7.835-3.703 7.617z"/><path fill="#e4002b" d="M174.739 107.521c-2.419 3.806-8.809 9.462-8.809 9.462a77.188 77.188 0 0 1-15.291 26.085l1.194-2.386a.52.52 0 0 0-.229-.695.524.524 0 0 0-.703.236l-1.53 3.061a24.764 24.764 0 0 1-2.377-1.769c.966-1.161 2.701-3.266 2.701-3.266a.518.518 0 0 0-.067-.728.524.524 0 0 0-.735.067l-2.682 3.256c-.391-.338-.79-.687-1.184-1.065l3.302-4.547a.519.519 0 0 0-.111-.726.521.521 0 0 0-.726.118l-3.223 4.43a60.028 60.028 0 0 1-1.953-1.955c.978-1.174 3.006-3.69 3.006-3.69a.516.516 0 0 0-.076-.727.511.511 0 0 0-.728.076s-1.997 2.485-2.897 3.594a90.18 90.18 0 0 1-2.106-2.314l3.039-3.612a.528.528 0 0 0-.064-.736.525.525 0 0 0-.728.064s-1.898 2.256-2.938 3.483a109.962 109.962 0 0 1-2.431-2.91l3.156-3.58a.508.508 0 0 0-.044-.728.508.508 0 0 0-.728.044l-3.037 3.441a90.434 90.434 0 0 1-2.615-3.462l1.336-1.344a.508.508 0 0 0 0-.728.509.509 0 0 0-.729 0s-.695.695-1.213 1.206c-.599-.879-1.096-1.65-1.422-2.245a.522.522 0 0 0-.91.507c.344.609.854 1.411 1.484 2.322-1.118.198-4.569.827-4.569.827a.52.52 0 0 0-.422.606.514.514 0 0 0 .598.414l5.044-.913a100.569 100.569 0 0 0 2.919 3.831l-6 .197a.52.52 0 0 0 .041 1.04l6.773-.228c.672.824 1.377 1.65 2.095 2.485l-5.35 1.562a.514.514 0 0 0-.348.64c.077.28.369.434.641.356l5.524-1.614a.473.473 0 0 0 .228-.151 96.44 96.44 0 0 0 2.015 2.212c-1.233.521-5.595 2.496-5.595 2.496a.522.522 0 0 0-.259.684c.119.26.431.379.691.259l5.883-2.668c.498.52.996 1.028 1.487 1.517l-.022.001-5.067 2.994a.521.521 0 0 0-.176.714.512.512 0 0 0 .706.176l5.067-2.994c.087-.047.12-.133.164-.219-.001.163.044.325.185.424a.517.517 0 0 0 .389.096c.41.381.805.74 1.205 1.088-.728.475-4.569 3.036-4.569 3.036a.512.512 0 0 0-.142.716.513.513 0 0 0 .717.142l4.797-3.2a26.71 26.71 0 0 0 2.158 1.636l-3.388 2.314a.53.53 0 0 0-.137.725.52.52 0 0 0 .724.132l3.203-2.193c-14.627 15.416-35.47 24.861-58.647 25.063-8.291.068-16.427-1.28-24.144-3.808 4.211-8.082 8.541-16.071 10.983-20.343 5.478-9.56 20.072-33.736 29.675-47.084.012-.02.022-.031.033-.051.641-.89 1.259-1.728 1.855-2.518.142-.187.523-.847.717-1.336l.001-.022c1.029-2.681-1.596-6.77-5.285-8.506-3.678-1.736-7.619-1.377-8.8.38-.294.435-.651.997-.718 1.225-.074.229-.162.488-.238.718-.163.52-.346 1.053-.52 1.584-.207.629-.391 1.235-.609 1.876a188.303 188.303 0 0 1-2.105 5.707c-.033.088-.074.176-.107.271-2.888 7.476-6.459 15.518-9.843 22.754-.847.576-2.441 1.542-3.083 1.13-1.574-1 5.577-8.195 3.224-10.635-1.932-2.006-7.909.837-10.741 3.788.325-.868.411-2.463-.827-3.68-3.993-3.918-15.733 14.072-17.773 12.599-1.172-.846 3.397-6.217 5.601-12.153l-4.852.044-.718 1.139c.025-.295-.12-.673-.542-1.062-5.369-4.937-18.674 9.318-13.778 13.563 2.288 1.984 7.714-.403 9.948-3.353-1.498 3.21-.378 4.481.044 4.794 4.99 3.637 15.603-13.518 17.415-11.935 1.271 1.118-5.286 10.721-4.99 10.949l4.925-.044c2.093-3.711 3.626-6.652 3.626-6.652 2.766-3.181 6.152-5.729 6.975-4.753 1.358 1.627-5.848 7.443-3.492 11.11 1.138 1.759 5.565-.4 7.715-2.049-4.33 9.137-8.107 16.537-9.29 18.945-2.223 4.513-6.629 12.836-11.12 21.08-7.543-3.253-14.573-7.668-20.824-13.02.009-.106.01-.215-.053-.312l-1.671-2.671c.021-.012.032-.023.052-.043.803-.737 1.541-1.53 2.302-2.3l2.636 2.984a.51.51 0 0 0 .728.044.516.516 0 0 0 .051-.728l-2.678-3.029c.639-.661 1.279-1.321 1.887-2.004 1.119 1.192 3.017 3.2 3.017 3.2a.518.518 0 0 0 .751-.715l-3.095-3.277c.923-1.063 1.855-2.117 2.714-3.234 1.05 1.474 2.809 3.948 2.809 3.948a.517.517 0 0 0 .846-.597l-3.016-4.242c.848-1.138 1.683-2.279 2.472-3.471.956 1.206 3.399 4.308 3.399 4.308a.52.52 0 0 0 .727.086.512.512 0 0 0 .086-.727l-3.623-4.588a69.254 69.254 0 0 0 2.202-3.702l3.885 3.58a.525.525 0 0 0 .736-.031.518.518 0 0 0-.031-.736l-4.048-3.725c.023-.044.055-.087.077-.139a.507.507 0 0 0-.208-.696.519.519 0 0 0-.704.207c-.065.119-.141.228-.206.347-.002.009-.012.001-.014.01-.02.02-.01.044-.029.064-.058.111-.133.219-.197.337l-4.872-.455a.52.52 0 0 0-.564.467.511.511 0 0 0 .467.564l4.383.411c-.564.977-1.119 1.963-1.726 2.908l-5.662-.663a.524.524 0 0 0-.575.455l-.001.064c0 .252.195.479.456.511 0 0 3.754.444 5.152.607-.706 1.064-1.464 2.086-2.223 3.114l-.033-.053a.53.53 0 0 0-.369-.216l-5.524-.576a.52.52 0 0 0-.573.465l-.001.054c0 .261.196.48.466.512 0 0 4.863.509 5.295.552.012.022.075.099.109.152-.89 1.161-1.843 2.268-2.799 3.366l-.099-.101a.527.527 0 0 0-.228-.149l-5.295-1.607a.52.52 0 0 0-.671.498.51.51 0 0 0 .369.49l5.165 1.574c.01.01.064.064.087.095a77.09 77.09 0 0 1-1.855 1.977l-.096-.108a.581.581 0 0 0-.24-.152l-4.72-1.379a.512.512 0 0 0-.662.499c0 .219.143.425.37.491 0 0 4.307 1.266 4.578 1.343.001.001.024.032.033.035-.738.747-1.454 1.517-2.226 2.224l-.075-.111a.53.53 0 0 0-.251-.215l-2.994-1.15c-.031-.003-.054.01-.078.008a82.107 82.107 0 0 1-8.105-9.787l30.97-58.472-7.182.204-12.675 23.596c-4.09 3.83-10.729 7.345-14.526 4.728-7.531-5.206 21.97-33.375 11.11-42.534-8.669-7.313-18.087 3.604-21.071 8.788-2.423 4.221-6.99 10.69-7.152 18.666.085 35.359 21.474 65.697 52.009 78.872-2.879 5.233-5.6 10.044-7.543 13.334-1.368 2.316-2.266 3.378-3.895 3.25-.315-.029-.997.064-1.204.144-.815.318-1.139 1.745-1.107 2.351.064 1.259 1.085 3.523 5.155 5.388 4.069 1.862 6.336 1.689 7.389 1.001.509-.328 1.475-1.432 1.249-2.279-.055-.218-.381-.819-.587-1.059-1.063-1.243-.806-2.365.26-4.832 1.52-3.522 4.165-8.898 7.127-14.704a85.891 85.891 0 0 0 27.236 4.427c40.538 0 74.533-28.019 83.671-65.747.347-1.386.716-3.078.716-3.078zm-133.43 15.004c-2.347-2.613 6.812-11.632 8.962-8.929 1.626 2.614-6.327 11.848-8.962 8.929zM14.56 72.191c2.17-3.994 6.792-9.266 10.884-8.464 6.348 1.247 2.267 9.536-3.125 18.933-5.265 9.182-11.653 18.837-6.512 24.384 4.157 4.5 12.664 3.473 17.872-1.693l-12.783 24.011c-6.573-11.403-10.406-24.555-10.406-38.617-.627-8.942 1.956-14.67 4.07-18.554Zm21.57 76.246c-.031-.031-.063-.054-.088-.085.003-.009.013-.012.023-.021a.927.927 0 0 1 .065.106zm-.695-1.117c.003.012.035.064.047.086-.079.067-.163.131-.242.197-.216-.206-.441-.401-.65-.608.404.153.749.291.845.325zm60.853-59.407.662-.14c-5.175 15.614-15.529 37.358-17.644 40.266 11.078-21.073 16.429-38.087 16.982-40.126Zm-12.217 38.152c1.441-2.81 18.726-31.827 21.482-35.973.122-.671-.681-1.127-.681-1.127-2.735 4.711-32.976 56.218-33.986 58.171 1.311-2.4 10.037-20.021 13.271-26.259 3.397-6.545 14.42-33.518 14.671-34.713 3.06-.097 6.413 1.281 8.214 3.745.032-.065-.685 1.119-.685 1.119-.694 1.061-12.133 19.542-13.164 21.386-1.051 1.876-27.495 46.941-27.495 46.941 6.533-12.697 16.94-30.482 18.373-33.29zm-21.92 38.115c.522-.907.066-.007.001.197-.032.09-1.336 2.484-2.875 5.315a284.186 284.186 0 0 0 2.874-5.512zm-15.452 22.186c.954-.248 2.768-2.554 2.866-2.75.098-.201.36-.405.23.029-.196 1.005-.891 1.975-1.466 2.613-.339.382-.554.635-.826.701-.683.165-.933-.09-.999-.289-.009-.335.057-.27.195-.304zm4.234 1.656a65.409 65.409 0 0 0-.828 3.4c-.161.723-.541.875-.944.723-.249-.088-.507-.267-.716-.441-.128-.102-.292-.13-.487-.232-.055-.023-.118.069-.175.027-.105-.065-.206-.267-.314-.316-.163-.066-.401-.218-.575-.305-.15-.078-.28-.268-.402-.32-.097-.043-.194.045-.301-.006-.262-.138-.446-.333-.653-.449a3.784 3.784 0 0 1-.454-.281c-.173-.14-.141-.262-.077-.356.088-.138.39-.21.521-.23.143-.022.652.167 1.226.44.457.225.956.515 1.346.637.325.094.716.006.891-.168.13-.129.055-.301.066-.476.019-.224.215-.464.095-.631-.152-.21-.303-.266-.454-.361-.184-.109-.369-.224-.553-.296-.335-.129-.468-.664-.075-.731 0 0 .358-.136.585-.353.129-.123.075-.27.227-.43.066-.08.249-.152.295-.236.043-.065-.045-.125.018-.195.066-.059.025-.152.132-.26.087-.09.315-.204.403-.327.087-.107.174-.216.27-.331 1.814-2.347 4.829-7.612 7.421-12.371-1.193 2.234-2.276 4.295-2.753 5.331-1 2.178-2.585 5.954-3.364 8.086-.035.11.054.22.02.326a23.4 23.4 0 0 0-.391 1.132zm7.574-12.068c-.013.058.02.14-.012.188-.183.26-.165.508-.26.803-.011.031-.108.052-.107.072.021.284-.315.472-.372.726-.118.461-.323.818-.497 1.272-.012.035-.107.045-.109.073-.023.186-.217.252-.271.404-.012.042.011.107-.011.122-.118.081-.162.195-.248.289-.033.036.009.125-.013.183-.043.122-.151.216-.174.34a6.826 6.826 0 0 1-.499 1.546c-.054.123-.142.288-.097.45-.152-.001.044.217-.13.201 0 .136.033.277-.012.391-.14.355-.175.702-.26 1.072-.013.064-.107.13-.099.202.012.282-.302.518-.303.802 0 .246-.151.405-.251.658-.064.145-.185.276-.291.427-.152.217-.403.433-.531.666-.034.072.14.202.053.244-.053.022-.098.029-.128.081-.088.181.107.441-.123.529-.149.496-.683.925-.835 1.411-.053.165.163.368.097.514-.173.367-.184.635-.312 1.011-.013.053-.067.102-.12.059-.054-.043-.066-.11-.078-.183-.011-.055-.149-.057-.129-.207.055-.499.369-.701.489-1.166.163-.62.269-1.172.379-1.759.032-.157.096-.295.109-.468.009-.051-.033-.087-.024-.144.023-.182.186-.327.141-.524.283-.353.207-.838.501-1.214.044-.064.193-.181.227-.253.217-.406.162-.811.412-1.222.023-.045.054-.023.076-.08.043-.092.282-.26.313-.361.022-.087-.106-.187-.042-.282.022-.035-.001-.087.011-.125.074-.193.227-.331.291-.526.068-.232.153-.477.316-.659.042-.043.096-.095.098-.158.009-.065-.055-.132.14-.197-.013-.262.229-.411.293-.659.023-.113.163-.23.207-.354.054-.146.119-.29.16-.456.011-.052.056-.092.121-.071 0-.067-.021-.14.01-.195.206-.392.531-.687.653-1.137.01-.035.096-.038.117-.078.023-.052-.02-.14.013-.182.247-.295.303-.624.507-.955.024-.045-.01-.13.013-.188.065-.167.174-.311.248-.476.022-.053-.019-.133.013-.186.076-.12.161-.234.237-.356.142-.227.293-.536.445-.846-.075.251.034.613-.117.845-.007.021-.216.03-.235.086zm1.139-2.178-.078.152v.097c-.052-.036-.02.077-.065.034.013.065-.009.13-.042.16-.076.074-.085.122-.119.21-.001.007.031.037.011.05-.065.054-.046.145-.108.217-.076.102-.296.172-.361.291.153-.311.306-.616.478-.833.122-.172.011-.057.088-.224.054-.122.368-.99.423-1.12 1.442-3.378 26.218-47.247 40.355-70.174 3.287-5.108 7.054-11.196 7.391-11.738.204.171.585.779.55 1.292-.04.464-6.782 10.511-7.213 11.154-15.422 23.469-39.49 67.025-41.31 70.432zM4.252 90.603c0-.052.011-.096.011-.149l-.002-.197z"/><path fill="#e4002b" d="M55.879 116.873a.517.517 0 0 0 .068.728l1.269 1.04a.523.523 0 0 0 .727-.076.515.515 0 0 0-.068-.727l-1.269-1.04a.516.516 0 0 0-.727.075zm5.458 4.61a.523.523 0 0 0 .716-.161.522.522 0 0 0-.161-.716l-1.141-.729a.513.513 0 0 0-.716.153.513.513 0 0 0 .153.715zm-2.027 5.85a.515.515 0 0 0-.034-.728l-2.419-2.191a.518.518 0 1 0-.695.77l2.419 2.182a.509.509 0 0 0 .729-.033zm69.542-4.328a.51.51 0 0 0 .466-.565.525.525 0 0 0-.565-.466l-2.301.236a.51.51 0 0 0-.466.565c.03.283.282.49.565.458z"/><path fill="#003087" d="M114.43 69.672c4.145 2.072 9.551 6.099 15.54 12.891l6.335-3.624c-1.733-10.819-7.769-18.239-16.123-22.734-11.331-6.117-24.002-2.995-29.243.63l.465 6.155c9.212.465 18.881 4.61 23.026 6.682zm-16.102-8.029-1.899-.717-1.595 1.184.064-2.009-1.548-1.139 1.928-.606.589-1.833 1.172 1.616 1.962.085-1.237 1.489zm11.555 2.398-2.562-1.702-2.755 1.225.76-2.951-1.898-2.201 3.038-.241 1.496-2.507 1.192 2.778 2.865.773-2.331 1.799zm12.741 4.166-1.837 3.051-1.344-3.353-3.473-.662 2.711-2.336-.365-3.395 3.102 1.8 3.115-1.43-.706 3.481 2.246 2.661zM132.7 79.373l-1.928-.781-1.781 1.195.121-2.17-1.727-1.248 2.073-.586.664-1.942 1.236 1.769 2.063.02-1.271 1.716zM91.62 96.126c-3.459-1.844-9.48-3.821-12.662-5.067-4.153-1.607-11.567-7.315-10.598-15.083 1.616-12.88 25.824-8.639 41.906-.575 6.974 3.494 16.297 10.275 20.885 14.701 5.252 5.068 6.174 6.763 6.521 12.131.012 3.277-.899 6.228-2.015 8.563.8-.564 2.961-1.445 3.025-1.529.067-.294.109-.88.109-.88 2.301-10.82-2.388-19.629-6.075-23.08-3.593-3.374-1.879-.856-.686.693.847 1.088 1.25 1.736 1.608 2.411 1.876 3.557.987 3.113-1.497.576-4.893-4.994-13.412-11.339-21.237-15.255-10.688-5.341-23.774-7.888-31.031-7.652 2.994-1.387 4.641-1.531 7.714-1.844 2.724-.273 1.659-.815 0-.693-5.827.445-18.806.65-20.835 10.827-1.724 8.637 5.295 15.996 12.088 18.652 5.829 2.27 11.989 4.971 12.132 5.036.033-.096.074-.183.107-.271z"/><path fill="#fff" d="M47.502 186.959c.272-.067.488-.32.826-.701.574-.639 1.269-1.609 1.466-2.613.13-.434-.132-.23-.23-.029-.098.197-1.911 2.503-2.866 2.75-.138.034-.204-.031-.196.304.067.199.318.454 1 .289z"/><path fill="#fff" d="M54.666 178.479c.477-1.035 1.56-3.097 2.753-5.331-2.593 4.76-5.607 10.025-7.421 12.371l-.27.331c-.087.123-.315.237-.403.327-.108.109-.066.201-.132.26-.063.071.025.13-.018.195-.046.084-.23.156-.295.236-.152.16-.098.307-.227.43-.227.217-.585.353-.585.353-.393.067-.26.602.075.731.184.072.369.188.553.296.151.094.303.151.454.361.119.167-.076.407-.095.631-.011.175.064.347-.066.476-.175.174-.566.262-.891.168-.39-.122-.889-.412-1.346-.637-.574-.273-1.083-.461-1.226-.44-.131.02-.433.092-.521.23-.064.094-.096.216.077.356.076.065.315.207.454.281.207.115.392.311.653.449.108.05.204-.038.301.006.123.052.252.242.402.32.174.087.412.239.575.305.108.049.209.251.314.316.057.042.12-.05.175-.027.195.102.359.13.487.232.209.174.468.353.716.441.402.152.783 0 .944-.723.252-1.166.575-2.497.828-3.4.054-.19.194-.589.389-1.131.034-.106-.055-.216-.02-.326.782-2.133 2.367-5.909 3.366-8.087zm51.692-87.451s.717-1.185.685-1.119c-1.801-2.464-5.155-3.842-8.214-3.745-.251 1.195-11.274 28.168-14.671 34.713-3.234 6.237-11.96 23.859-13.271 26.259 1.01-1.953 31.251-53.46 33.986-58.171 0 0 .803.456.681 1.127-2.756 4.146-20.041 33.163-21.482 35.973-1.434 2.809-11.84 20.594-18.373 33.29 0 0 26.445-45.065 27.495-46.941 1.031-1.845 12.47-20.325 13.164-21.386zM58.419 175.87c-.076.122-.161.236-.237.356-.032.053.01.133-.013.186-.075.165-.183.309-.248.476-.022.058.012.144-.013.188-.204.331-.26.659-.507.955-.033.042.01.13-.013.182-.021.041-.107.043-.117.078-.122.449-.447.745-.653 1.137-.031.055-.01.129-.01.195-.065-.022-.11.019-.121.071-.041.165-.106.31-.16.456-.044.123-.184.24-.207.354-.065.249-.306.398-.293.659-.195.065-.131.132-.14.197-.002.062-.056.114-.098.158-.163.181-.248.427-.316.659-.064.195-.218.334-.291.526-.012.038.011.09-.011.125-.064.095.064.195.042.282-.031.101-.27.269-.313.361-.023.057-.053.035-.076.08-.25.411-.195.816-.412 1.222-.034.073-.183.19-.227.253-.294.376-.218.861-.501 1.214.045.197-.119.342-.141.524-.009.057.033.092.024.144-.013.174-.077.311-.109.468a23.546 23.546 0 0 1-.379 1.759c-.12.465-.434.667-.489 1.166-.02.151.119.152.129.207.012.073.024.14.078.183.053.042.107-.007.12-.059.128-.376.139-.643.312-1.011.066-.146-.151-.349-.097-.514.153-.486.686-.914.835-1.411.23-.088.034-.349.123-.529.03-.052.076-.059.128-.081.088-.042-.087-.172-.053-.244.127-.233.378-.449.531-.666.106-.151.227-.282.291-.427.1-.253.251-.412.251-.658.001-.284.315-.519.303-.802-.008-.072.086-.139.099-.202.085-.37.12-.718.26-1.072.044-.114.012-.254.012-.391.174.016-.022-.202.13-.201-.045-.162.043-.327.097-.45.218-.477.392-.992.499-1.546.022-.125.13-.218.174-.34.022-.059-.02-.147.013-.183.086-.094.13-.209.248-.289.022-.015-.001-.08.011-.122.054-.152.248-.218.271-.404.001-.029.097-.038.109-.073.175-.454.379-.811.497-1.272.057-.254.393-.442.372-.726 0-.02.097-.041.107-.072.096-.295.077-.543.26-.803.033-.048-.001-.13.012-.188.019-.055.228-.065.239-.085.151-.232.043-.594.117-.845-.157.309-.307.618-.449.845zm42.536-72.527c.431-.642 7.173-10.689 7.213-11.154.034-.513-.346-1.121-.55-1.292-.337.542-4.104 6.63-7.391 11.738-14.137 22.928-38.912 66.796-40.355 70.174-.055.13-.369.998-.423 1.12-.076.167.034.052-.088.224-.171.217-.325.522-.478.833.065-.118.285-.189.361-.291.062-.072.043-.163.108-.217.02-.013-.012-.043-.011-.05.034-.088.043-.136.119-.21.033-.03.055-.095.042-.16.045.043.013-.07.065-.034v-.097l.078-.152c1.821-3.406 25.889-46.962 41.31-70.432z"/><path fill="#fff" d="m96.95 87.772-.662.14c-.552 2.039-5.904 19.053-16.982 40.126 2.115-2.908 12.469-24.651 17.644-40.266zm-34.798 76.605c.065-.204.521-1.104-.001-.197-.402.805-1.487 2.908-2.874 5.512 1.539-2.831 2.843-5.225 2.875-5.315z"/></svg>