<svg id="Layer_1" xmlns="http://www.w3.org/2000/svg" viewBox="0 0 231.6 219.6"><style>.st0{fill:#df4601}</style><title>Baltimore Orioles hat light logo</title><path class="st0" d="M226.6 27.5c-2-5.1-7.1-9.7-15.4-11.2-1.3-.2-2.7-.2-4.2-.2-13 0-32.6 4.8-52 8.8-7.7 1.5-24 3.7-24 3.7-12.6-14.9-27-18.7-36.2-20-5.3-.7-7.7-.2-9.9-.9-1.6-1.1-6.2-4.9-14.3-4.9-1.3 0-2.7.2-4.6 1.1 0 0-9.9 1.3-17.8 9.3-1.6 1.5-4.4 5.1-5.7 9-2 1.6-3.7 2.2-8.1 6.4C6.8 52.2 18.1 82.9 22.7 93.2c-25.1 19.6-19.6 42.3-19.6 42.3l7.7-1.3c-.2 56 44.5 83.1 87.5 83.1 34.6 0 67.9-17.6 75.8-52 6.4-28 11.7-40.6 36.8-47.2 5.1-1.5 7.1-4.8 7-7.3-.9-8.8-17.8-18.3-44.1-18.3-3.5 0-7.1.2-11 .5-1.8-6.4-2-9-2-9 16.3-3.8 39-11.2 54.5-23.6 12.4-10.1 17-19.4 11.3-32.9zm-16.3 20.1c-2 2-9.7 7.7-20.9 12.8-15.7 7.1-34 11.3-38.4 12.6-7.1 2-7 3.8-5.5 7 3.1 7 4 11.5 5.3 27.8 10.2-3.1 28.9-2.7 45.4 1.3-10.2 4.2-20.9 11.2-30 23.2-27.1 36.1-70.3 32.8-89.7 14.3-4.2 3.5 1.3 15.7 1.3 15.7-.9.9-2.9 0-2.9 0-14.6-24.2.9-30.4 13-31.1 5.1-.9 4.6 2-.2 2.9-20.1 4.6 7.7 27.6 42.1 18.7 30.4-8.1 28.6-27.5 55.6-42.5-21.8-4-37 1.5-43.6 4.4-4.4 2.2-11.5 2.4-14.6 1.3-3.8 12.1-17 15.6-42.1 9.5-17.9-4.2-32 13.2-24.2 35.7 8.1 23.1 48 46.1 91.5 19-3.5 4.6-8.1 8.6-13.2 11.9-11.4 7.1-26 11.2-41.2 11.2-21.6 0-41.9-7.9-55.3-21.4C30.4 169.5 24.4 153 24.6 133c0-3.5 1.1-11.3 2.4-13.7l-8.8.5s2.7-12.7 21.6-23.7L37.3 91h.1c-16.5-34.5 1-48.4 8.8-54.9 6.6-5.5 8.2-5.1 9.5-9.9.5-2.7 3.5-5.7 7-7.5 4.6-2.6 10.1-2.9 13.2-.5 2.9 2.9 8.8 3.7 12.4 3.7 28 .9 36.4 21.4 36.4 21.4 6.4-2 16.7-2.2 34.6-5.9 34.2-7.5 36.8-7.7 42.3-8.2 6.4-.5 11.7-.2 13.9 5.1 2.3 5.2-3.5 11.8-5.2 13.3z"/><path d="M201.7 29.1c-5.5.5-8.1.7-42.3 8.2-17.9 3.7-28.2 3.8-34.6 5.9 0 0-8.4-20.5-36.4-21.4-3.7 0-9.5-.7-12.4-3.7-3.1-2.4-8.6-2-13.2.5-3.5 1.8-6.4 4.8-7 7.5-1.3 4.8-2.9 4.4-9.5 9.9-7.9 6.5-25.3 20.4-8.8 54.9 1.4-.2 14.9-2 29-8.6l-26.6 14v-.1c-18.8 11-21.6 23.7-21.6 23.7l8.8-.5c-1.3 2.4-2.4 10.2-2.4 13.7-.2 20 5.9 36.4 18.1 48.9 13.4 13.5 33.7 21.4 55.3 21.4 15.2 0 29.8-4 41.2-11.2 5.1-3.3 9.7-7.3 13.2-11.9-43.6 27.1-83.5 4-91.5-19-7.9-22.5 6.2-39.9 24.2-35.7 25.1 6 38.2 2.6 42.1-9.5 3.1 1.1 10.2.9 14.6-1.3 6.6-2.9 21.8-8.4 43.6-4.4-27.1 15-25.3 34.4-55.6 42.5-34.4 9-62.2-14.1-42.1-18.7 4.8-.9 5.3-3.8.2-2.9-12.1.7-27.6 7-13 31.1 0 0 2 .9 2.9 0 0 0-5.5-12.3-1.3-15.7 19.4 18.5 62.6 21.8 89.7-14.3 9.1-12.1 19.8-19 30-23.2-16.5-4-35.1-4.4-45.4-1.3-1.3-16.3-2.2-20.9-5.3-27.8-1.5-3.1-1.6-4.9 5.5-7 4.4-1.3 22.7-5.5 38.4-12.6 11.2-5.1 18.9-10.8 20.9-12.8 1.6-1.5 7.5-8.1 5.3-13.4-2.3-5.4-7.6-5.7-14-5.2zm-140.9.7c3.5-13 13.7-5.1 13.7-5.1l-13.7 5.1zm48.8 13c0-.9.2-2 .4-2.6l1.5-1.1h.2v.2c0 .4.2.7.6.9l.4.4 1.3 1.1c.6.5.7.9.9 1.5l.2.5v.2c.4 1.3-.4 2.6-1.5 3.1-.6.4-1.1.4-1.5.2-.2-.2-.6-.5-.7-.9-.4-.5 0-1.8 1.8-2.6h.2l-.2-.2c-.6-.4-1.6-1.3-2-1.8l-.2-.2v.2c0 .4-.2.7-.2 1.1l-.2 1.5v.4l-.2 1.5-.2 1.6c-.6 1.8-1.3 2.9-2.4 3.5h-.2l.4-1.6c.9-.5 1.3-2 1.5-3.8l.1-3.1zm-2-4.7c.2-.4.4-.7.6-.7h.2c-.2.5-.2.7-.2 1.1.4 0 .6 0 .7.2.2.4.2 1.1-.2 1.5 0 .2-.2.4-.4.4-.6.2-.9.2-.9 0-.3-.7-.1-1.8.2-2.5zm-17-7.4c.9-1.5 2.6-2.2 4.4-2.4 3.1-.2 6.2 2.9 8.4 9 .5-.5.9-1.3 1.3-2l1.3.4c-.4 1.1-1.3 2.4-2 2.9 1.5 4.2 1.8 10.4-.2 14.6-.9 2-2.2 3.3-4 3.8-1.3.4-3.1.4-4.6-.5-2.6-1.3-4.4-4-5.7-7.9-1.1-3.7-1.3-8.4.4-12.4-.8-1.8-.4-4 .7-5.5zm21.8 91.6c-4.2 1.4-9.1-1.4-12.8-6.6 2.2 1.6 4.6 2.2 6.4 1.1 2.9-1.6 3.5-6.8.9-11.2-2.6-4.6-7-6.8-9.9-5.1-1.1.6-1.8 1.6-2.2 2.9-1.2-7.9 1.1-14.8 6-16.3 6-2 13.4 4.4 16.5 14.1s.9 19.2-4.9 21.1zm23.4-9.6c-4.1 1.1-8.5-1.6-11.8-6.5 1.7 1.1 3.6 1.5 5.1.8 2.9-1.5 3.5-6 1.5-10.2s-6-6.6-8.8-5.3c-1.1.5-1.9 1.5-2.3 2.8-1.1-8.5 1.7-15.9 7-17.4 6-1.6 13 5.1 15.6 15 2.5 9.9-.3 19.2-6.3 20.8zm-28.7-38.4C93.2 72.5 84 72.5 93 66.6c0 0 21-16.3 44.7-19 22-2.7 56.9-10.4 56.9-10.4s-17 10.2-34 22.1c-18.6 11-32.1 15.6-53.5 15zm66-15.5s34.4-24 35.5-22.1c3.2 4.1-14 14.9-35.5 22.1z"/><path d="M96.3 39.2c1.3.5 2.6.5 4.2-.2-1.1-3.7-3.1-7.9-5.3-7.9-.9 0-1.8.4-2.2.9-.7 1.1-.7 2.6-.2 3.8.7 1.5 2 2.8 3.5 3.4zm2.5 15.2c.9-.2 1.5-.5 2-1.5.9-1.5 1.1-3.8 1.1-5.7 0-2.2-.5-4.9-1.1-7-3.1 1.6-5.7 1.6-8.4 0-.5 2.2-.5 4.8 0 7 .9 3.3 3.5 7.7 6.4 7.2zm13-9.4c-.2.4-.2.7.2.9.2.2.6.4.9.2.4-.2.6-.4.7-.7.2-.2.2-.7.2-1.3-.2 0-.2-.2-.2-.2h-.2c-.8.4-1.4.8-1.6 1.1z"/><path class="st0" d="M60.8 29.8l13.7-5.1s-10.3-7.9-13.7 5.1zm76.8 17.8C114 50.3 93 66.6 93 66.6c-9 5.9.2 5.9 14.1 7.7 21.4.5 35-4 53.4-15 17-11.9 34-22.1 34-22.1s-34.9 7.6-56.9 10.4zm35.5 11.2c21.4-7.1 38.6-17.9 35.5-22.1-1-1.9-35.5 22.1-35.5 22.1z"/><path d="M66.4 82.4c-14 6.6-27.6 8.4-29 8.6h-.1l2.5 5.2v.1l26.6-13.9zm34.5 4.7c-4.9 1.5-7.2 8.4-6 16.3.4-1.3 1.1-2.3 2.2-2.9 2.9-1.6 7.3.5 9.9 5.1 2.6 4.4 2 9.5-.9 11.2-1.8 1-4.2.5-6.4-1.1 3.7 5.2 8.6 8 12.8 6.6 5.9-1.8 8.1-11.3 4.9-21-3.2-9.8-10.5-16.2-16.5-14.2zm25.6-10.2c-5.3 1.5-8.1 8.9-7 17.4.4-1.2 1.2-2.2 2.3-2.8 2.7-1.3 6.8 1.1 8.8 5.3s1.5 8.8-1.5 10.2c-1.5.7-3.3.4-5.1-.8 3.3 4.9 7.8 7.6 11.8 6.5 6-1.6 8.8-11 6.2-20.9-2.5-9.8-9.5-16.6-15.5-14.9z" fill="#fff"/><path class="st0" d="M89.5 48.7c1.3 3.8 3.1 6.6 5.7 7.9 1.5.9 3.3.9 4.6.5 1.8-.5 3.1-1.8 4-3.8 2-4.2 1.6-10.4.2-14.6.7-.5 1.6-1.8 2-2.9l-1.3-.4c-.4.7-.7 1.5-1.3 2-2.2-6-5.3-9.1-8.4-9-1.8.2-3.5.9-4.4 2.4-1.1 1.5-1.5 3.7-.7 5.5-1.7 4-1.5 8.7-.4 12.4zM93 32c.4-.5 1.3-.9 2.2-.9 2.2 0 4.2 4.2 5.3 7.9-1.6.7-2.9.7-4.2.2-1.5-.5-2.7-1.8-3.5-3.3-.6-1.3-.6-2.8.2-3.9zm-.6 8.3c2.7 1.6 5.3 1.6 8.4 0 .5 2 1.1 4.8 1.1 7 0 1.8-.2 4.2-1.1 5.7-.5.9-1.1 1.3-2 1.5-2.9.5-5.5-3.8-6.4-7.1-.5-2.4-.5-4.9 0-7.1zm16 .1c.2 0 .4-.2.4-.4.4-.4.4-1.1.2-1.5-.2-.2-.4-.2-.7-.2 0-.4 0-.5.2-1.1h-.2c-.2 0-.4.4-.6.7-.4.7-.5 1.8-.2 2.4-.1.3.3.3.9.1zm-.4 9.2l-.4 1.6h.2c1.1-.5 1.8-1.6 2.4-3.5l.2-1.6.2-1.5v-.4l.2-1.5c0-.4.2-.7.2-1.1v-.2l.2.2c.4.5 1.5 1.5 2 1.8l.2.2h-.2c-1.8.7-2.2 2-1.8 2.6.2.4.6.7.7.9.4.2.9.2 1.5-.2 1.1-.5 1.8-1.8 1.5-3.1v-.2l-.2-.5c-.2-.5-.4-.9-.9-1.5l-1.3-1.1-.4-.4c-.3-.2-.6-.5-.6-.9V39h-.2l-1.5 1.1c-.2.5-.4 1.6-.4 2.6l-.2 2.9c-.1 2-.5 3.4-1.4 4zm5.7-5.7s0 .2.2.2c0 .5 0 1.1-.2 1.3-.2.4-.4.5-.7.7-.4.2-.7 0-.9-.2-.4-.2-.4-.5-.2-.9s.7-.7 1.6-1.1h.2zM169.7 210.7l-2-5.5h-2.9v8.6h1.6V207l2.4 6.8h1.6l2.6-6.8v6.8h1.6v-8.6h-2.9m-15.6 1.6h2.6v7h1.6v-7h2.6v-1.5h-6.8"/></svg>